<mxfile host="app.diagrams.net" agent="Mozilla/5.0 (Macintosh; Intel Mac OS X 10_15_7) AppleWebKit/537.36 (KHTML, like Gecko) Chrome/133.0.0.0 Safari/537.36" version="26.0.11">
  <diagram name="Page-1" id="MbQyMnrizBRzNiAF2wxA">
    <mxGraphModel dx="4412" dy="3517" grid="1" gridSize="10" guides="1" tooltips="1" connect="1" arrows="1" fold="1" page="1" pageScale="1" pageWidth="827" pageHeight="1169" math="0" shadow="0">
      <root>
        <mxCell id="0" />
        <mxCell id="1" parent="0" />
        <mxCell id="23rc_YrXJthWcE0Py0mq-14" value="" style="shape=image;verticalLabelPosition=bottom;labelBackgroundColor=default;verticalAlign=top;aspect=fixed;imageAspect=0;image=data:image/png,iVBORw0KGgoAAAANSUhEUgAAB4EAAARWCAYAAAA178RXAAAAAXNSR0IArs4c6QAAAERlWElmTU0AKgAAAAgAAYdpAAQAAAABAAAAGgAAAAAAA6ABAAMAAAABAAEAAKACAAQAAAABAAAHgaADAAQAAAABAAAEVgAAAACzIg2/AABAAElEQVR4AezdB3wURfvA8SeV3qv0EqSDdAERUEQUxYIFEBRRsb8IVsCOXVFEsYCIKEi10ZuA9N6LEDqE3jukvTMb97J7ubtckrskl/z2/z9ud3bqdxPzfu65mQmKjIyME5Eg9eJAAAEEEEAAAQQQQAABBBBAAAEEEEAAAQQQQAABBBBAAAEEEAhsgfhQ1f+giIiIwB4GvUcgCwrEx+tBGf9IvLrQ1+pf4zw2JlaiY+IkOvqKFGv8QBYcPUNCAAEEEEAAAQQQQAABBBBAAAEEEEAAAQQQQAABBBBIjcC26d8EBaemIGUQQCA9BP4LAFub0oFg9YpV/8TGqUBwbEIeaxbOEUAAAQQQQAABBBBAAAEEEEAAAQQQQAABBBBAAAEEsrcAQeDs/fwZfSAIOOK8+kTPBFYruMfFS5x6xcbGBMII6CMCCCCAAAIIIIAAAggggAACCCCAAAIIIIAAAggggEA6ChAETkdsmkIgrQJGGFj9ozfyjouPlZgYR4Q4rVVTHgEEEEAAAQQQQAABBBBAAAEEEEAAAQQQQAABBBBAIIsIEATOIg+SYWRtAUeo1zzRs4HVuTErOGsPndEhgAACCCCAAAIIIIAAAggggAACCCCAAAIIIIAAAgikUIAgcArByI5A+guYkd+EltUq0Ma+wAnv9nvp3zdaRAABBBBAAAEEEEAAAQQQQAABBBBAAAEEEEAAAQQQyGwCBIEz2xOhPwh4LaD2B/Y6LxkRQAABBBBAAAEEEEAAAQQQQAABBBBAAAEEEEAAAQSyiwBB4OzypBlnYAvYor3WC+t5YA+R3iOAAAIIIIAAAggggAACCCCAAAIIIIAAAggggAACCPhGgCCwbxypBQEEEEAAAQQQQAABBBBAAAEEEEAAAQQQQAABBBBAAAEEEMgUAgSBM8VjoBMIpE6AecCpc6MUAggggAACCCCAAAIIIIAAAggggAACCCCAAAIIIJCVBQgCZ+Wny9gQQAABBBBAAAEEEEAAAQQQQAABBBBAAAEEEEAAAQQQQCDbCRAEznaPnAEjgAACCCCAAAIIIIAAAggggAACCCCAAAIIIIAAAggggEBWFiAInJWfLmPLcgIs/5zlHikDQgABBBBAAAEEEEAAAQQQQAABBBBAAAEEEEAAAQR8LkAQ2OekVIgAAggggAACCCCAAAIIIIAAAggggAACCCCAAAIIIIAAAghknABB4Iyzp2UEEEAAAQQQQAABBBBAAAEEEEAAAQQQQAABBBBAAAEEEEDA5wIEgX1OSoUIIIAAAggggAACCCCAAAIIIIAAAggggAACCCCAAAIIIIBAxgmEZlzTtIwAAtlaoHEDiXuks4TUqSGx6r9EwU1vz9YcDB4BBBBAAAEEEEAAAQQQQAABBBBAAAEEEEAAAQQQ8JUAQWBfSVIPAgh4JRDU/VGJve9+CdL/9QkRiYtR7/HxXpUlEwIIIIAAAggggAACCCCAAAIIIIAAAggggAACCASeQIdWDY1O9332IVmyapNx/s/y9TJp/qrAG0yA9JggcIA8KLqJQJYQeG+gBFWvIUGxauavGlCcxEtIkEjMlq1ZYngMAgEEEEAAAQQQQAABBBBAAAEEEEAAAQQQQAABBBIEdOBXB30bX1fTRmJev/D4g0b6oB/GyYsfD7fl4SLtAuwJnHZDakAAAS8E4t4YKHEVayTM/N28WeJj4tVLJFa9gtZt9qIGsiCAAAIIIIAAAggggAACCCCAAAIIIIAAAggggEAgCAx89TH5Y9gHSQLArvqug8GxkbNEl+HwnQAzgX1nSU0IIOBGIP6+HhJSsabEx8ZL0I4tIm+9JMG/TZd4NQtYfxMlftgINyWTJutvDrVsUte44W6pCOsfirR8e8ibtpL2MOUp1nZclXY3Tld5/ZFm7V9aPH3ZN90n/Q0y66GXEHHXP1/9TFjb4xwBBBBAAAEEEEAAAQQQQAABBBBAAAEEEEAgqcDSCV94Ffx1LmnODHb3Oa9zfq49CxAE9uzDXQQQSKNAUIceEnfT/cbMX9mxVeI/eFHi3h6oAsJ6K2C1F/AfE1PUgg4Am38IdHDU+dDBPvO+XkIiLUdybaWlbmtZazvWdPNcjycjl8OwLtfhrz++OqhrHp72gND59LfHXB16CRFXVrqM+TOxglnnruhIQwABBBBAAAEEEEAAAQQQQAABBBBAAAEEfCKgP6M3l3tOTYX6s9xmDWtJ0/t7p6a4X8pYJyV9OGR0wOxjTBDYLz8OVIoAAloguL0KALdWa/qrGcDBu7dK3Kd9JL7/5xJcqboEqWWg46dNlPhRP/oMyzkA7K+Apc867KIia5DS+ofSDGIG4phcDDNJkhnY1eN3FwS2Pl+zAtMrO1mZY+cdAQQQQAABBBBAAAEEEEAAAQQQQAABBBDITAKuPsNNTf/05726rszyebh1opQ+d/cZdmrG6s8yBIH9qUvdWUbAnFFqBuKyzMD8OZC2PSTmhgeNYK/oAPDg3hL/0ucSVL66xEWrhiO3SLAPA8B6KNbnk1n+OKSU2HlJY+sfTf3tp+x6WB20gauZ0TqPPvTPQaA+f2MA/IMAAggggAACCCCAAAIIIIAAAggggAACCASggPUzenfdv+eJfsaWj8nl1fczeqtEd2MIlHSCwIHypOhnhglYg006CGedcZhhncqMDVdoKCFNH5KYw5skaN5wiW/WSUTN9g3at1mCvu0tQb2+kDgVAA5Wy0AH71L7An/0ok9HYQYAdaVm0N7agKflhj3ds9ahz3Vec09ibwKNZt26TGr+YOk2zJ87/bOn63P3LaPUtGUto8eX0j6a5XVZV/0y76d2/LpefVj/B4H1dzLhbsK/5vNwtUy4NR/nCCCAAAIIIIAAAggggAACCCCAAAIIIIAAAr4VsH5G765mcyVI/Vmy9TNfd/kzy6xbvQS07os+9HmgHASBA+VJ0c8MEbAGm/R/wAgAu34MpTp9IfGlaspJtcVv7BgV8O2qAr5qtq8OAMuPvSXuqS8kqEwNkWiVYfZ4FS303RLQZo+sfzDMYKB5T797Wm7Yuiev9Zlby+s81iUf9D3dprv8OvhptmnW4ym/mcfVu54d7OlnT/9sWsev6zCv3fVP51k64Ysk9Zp99CYYbG1Xt2MNAuvxu/LSf+SteyZY69B90uOMjZylT0V/I0zXqfOYh6fxmHms/TDTeEcAAQQQQAABBBBAAAEEEEAAAQQQQAABBBDwn4D5mbSnFvTnv/rzXm9XvfT0ubindnx9T3/mHIifOxME9vVPAvVlGQFrsMk5UJVlBumjgRQpVUMuq7rOrBonIS0ek9gSNSVEBYDjf1EB4Me+ECldU4LUvsAh88dL3FTfBYB1YFYf5rs+18/NH4e7P2BmujXw7PzzogOf5h8rnV//gUvJpvZmG3pczn9oXAVyreM3y1r7p++bgVZrXvPcLOPclnnffDfz6Wtr/Z7Grx10cDykSluzmhS9M8s3RVxkRgABBBBAAAEEEEAAAQQQQAABBBBAAAEE/C5grgjpTUPWz5W9ya/rTu6zam/qyY55grPjoBkzAskJEABOTijxfr4KDSRM4uXUyrESrt6LN3pQQqISAsB6RrCUrKmWhVYzgIf392kAWPdA/7HQAUXzj4b1uSX20Hdnun4dvNQva7DZbN9syXqtZ7PqgK8uo4PB+tCBUHd/FHWAWN/TLx1M1UFe87C2qdP0fTO4rOvWbbnrn7U9Xc483JWzBnXNvNZ3ax3O/XI3fms+c1y6HWu62R9zFrBu01off+ytT4FzBBBAAAEEEEAAAQQQQAABBBBAAAEEEEAg4wWsE7WS643+DFi/AunQn6/rz7T1y/pZe2YfA0HgzP6E6F+6C+iAlBkA04EuawAq3TsTAA0WK1tXjq8cL5f2b5CyOgB8cLPEju0tOfUS0f/NCA4e1V8kcpXfR+PPZ2X9udAD0T8j1j9U5n/4nYOj1qClda8Ac/8AZxRzpqwZ3DaDvM7t63LW8epAs7Ut5+Cq2Z7up1lO999VOR1Idnfo8tbfC+d+mQ66vL7n3CdX9TrP7tVlrOVclSENAQQQQAABBBBAAAEEEEAAAQQQQAABBBBAILAEzM+k9efS1s/XPY3C/GzbUx5/3zO3PtSf12eG/ng7XoLA3kqRDwEEXAqEqNR9C3+Uuve+J1cObpEDKgCs9wgupPYIDl0+TmIXjpagpgkbprusIA2JOsioZ4zqd/OwBmHNNF+8OwcqdZ3WoK75TSfrXgY62KqXXTZfznsEe9sv/cfQ/GKCWcY52GqmW9+dy+h7Zj/1ud5rOKWHGZw2yzm3Ya3fefzWJajN4LZZj6d36/8YsI7bUxnuIYAAAggggAACCCCAAAIIIIAAAggggAACCKSPgPVzcV+3mJrPsX3dh0CtjyBwoD45+u03AR24MgOJzrMp/dZoAFccqQLAVVr0kCuHtsp2FQCu2vkL0XsEX1k5TuIPrJd8934g8XtTHmz0hkQHZvWMUWsgUj+/QA4UmoFtHdw2g586YJrWMbkKuroKbHvjbs2T1n5Z63J3bv0jbw0yu8tPOgIIIIAAAggggAACCCCAAAIIIIAAAggggED6CVgnTKVfq+nXkh6f/rxevwJprASB0+9nhJYCSIBAsPcPq1aLR6V46ZqyekxvqdfpcwmPj5ddv/eTYLU/cIV735f8qqpQtSWwvw/rbOD0Wo4huYCkdY9ec69e810vd+HuMJdDtv4x8TQmb75lZQaUrYHf5Prvqn+6/3pc5uHcL2v9nsbvaclps27z3VqnN0H+9AhMm33jHQEEEEAAAQQQQAABBBBAAAEEEEAAAQQQQMB/AtbPh/3Xiuea9Wf2+jN95+0VPZfK+LsEgTP+GdCDTCpAIDjpg6lQoYGUV6/rVeD3js6fSSl1XrJMLVk89kW5ofPnEhYksnFsH6l0/UNSQe0PnFtVofcIjlk0PGllPk7Rs4HNQGdKZs5a97f11CXnYKdzXvMPkTVw6y7I6m2QUv9hsY7JnKGu29b3zMPdeK35rbNpzXL6Z9zVofvnqY/O/XKX152Zc37rWFz1x9qevq/rda7DLKfT9ZLV7u6b+XhHAAEEEEAAAQQQQAABBBBAAAEEEEAAAQQQ8I1Acp/xpqUVf9adln4FQtnQQOgkfUQgowTMIJkOMOqXnnHpalndjOpferZ7c4vuUr/x/bJ8xQQpXqamseTzlD2r5aB61VVB4dMHNsqmhSOMpaH3LRstcapz59S99Dx0ANbcd1cHCq1/HHQwVT87/dLBUR201Xm8fZ7WcnpMOsBr/nzous229LvZlnnfDBDrcmab3s6EtY5J12dd+lrPtDXHq9/1bGizLbMd3aY+zHLW/ul0vU+vtZw5LuuYdD7nw9ov3bY5Hmv9ppkuq9vXgVmzX7rvppm+b5pZy+ixmHn0N6zMPYV1HnO8uqzOp/tt/f3U953b0Hk5EEAAAQQQQAABBBBAAAEEEEAAAQQQQAABBHwvYH7G68uarSuA+rLelNZlfraty+nPxs3PrVNaT3rnJwic3uK0F3ACZiBPd1wHn7LrcUOT+yVGDX7Bwp+k90tTZf/BLQ6KY/s3GMFgnaD3CM6owzkAqf/DbP7HWM+ENZ+ffqbW56r/kFivXfVf/wFzLmfmc55law2QuiujA9FmYNasx9W7dUz6vrWcvmftu7u2nP9Q6oDq0glfuPVw1Q/nNOe2dX26Xn1Y6zddzXezHh0MNp+NTnN+PjrNDGjrc33oQLMev1mX83tCroR/9Zit9VvvcY4AAggggAACCCCAAAIIIIAAAggggAACCCDgWwHr5+Keak7JKo7efIbuqS1f3TMnN+n6nD/b9lUb/qiH5aD9oUqdWU5AB5vMgFOWG5wXA2rf4hEJU3v8hqj9fvWM4FD1HqL2+b1PLQnd88VpUr9pZy9qSZ8s+g+NeejZoOah/1g4B0N1YFfPFnUONpplrO+6Xnflnf8Q6eCjDlg659f1mW06l7G25XxuHZP+ObT+kTTHpet1PnSa7oertnSg1lX/dB26nBnQda7Teq3rNdvVAXZrvzzVr9t1rt8ch7s+me2a+cx2zXTzXZd3N2YzD+8IIIAAAggggAACCCCAAAIIIIAAAggggAACvhUwJw55qtVc5VF/dm9O2nKXP7nPit2VIz1RICgyMjI+IiIiMYUzBBDIFALxKtCqD/2ecBovsXHxEhMbKzHRMXL56lU5f/GSVLmpu5HPn//ceeMj0lwtBT1/xURjmedG6jxaNRiturj/0FZZvmSM7E/npZ/TMl7rDOHU1JOa8qkpk9q+6XIpnQVrBnBTWs7bPvqrfn/V6+24yIcAAggggAACCCCAAAIIIIAAAggggAACCCCQKGBdhTIxNWVnOgDsanJTymrxXW79ObSeAawPPWnLX5+j+67HItumfyMEgX0pSl0I+FAgMwWBe3f+WEqXriHzVBA4VoKkVOmasmDpGBUQDjKCwjpcvTeAgsA+fExUhQACCCCAAAIIIIAAAggggAACCCCAAAIIIIAAAhYB67Z+lmSvTr1dqdKryrJxJh0EZk/gbPwDwNAR8FagSqkaxszfqQtGSrUK9aV8mZrSslkXKVmqupE+fuKb3lZFPgQQQAABBBBAAAEEEEAAAQQQQAABBBBAAAEEEMjCAuYs3pRus5nZZgAH+iMiCBzoT5D+I+BngU5qKehQtR+w/v9BL02SGDX7N0adxwQFyVW1TvWBg1tlD7OA/fwUqB4BBBBAAAEEEEAAAQQQQAABBBBAAAEEEEAAgcAR0IFg/fJmVrCe/RsoyywHzhMQZgIH0sOirwhkhECwatT4tkiQOokPkn0q6BujTmctHSv/7lmTEV2iTQQQQAABBBBAAAEEEEAAAQQQQAABBBBAAAEEEAgAATMYrPfVbdmkrtHjZg1rGUFffREI++sGALPLLjIT2CULiQggYApUL1ND9qrA759Lx8l6gr4mC+8IIIAAAggggAACCCCAAAIIIIAAAggggAACCCDgpYAO9hLw9RLLR9kIAvsIkmoQyKoCb/z6alYdGuNCAAEEEEAAAQQQQAABBBBAAAEEEEAAAQQQQAABBLKkgF7plQMBBBBAAAEEEEAAAQQQQAABBBBAAAEEEEAAAQQQQAABBBBAIIsIEATOIg+SYSCAAAIIIIAAAggggAACCCCAAAIIIIAAAggggAACCCCAAAJagCAwPwcIIIAAAggggAACCCCAAAIIIIAAAggggAACCCCAAAIIIIBAFhIgCJyFHiZDQQABBBBAAAEEEEAAAQQQQAABBBBAAAEEEEAAAQQQQAABBAgC8zOAAAIIIIAAAggggAACCCCAAAIIIIAAAggggAACCCCAAAIIZCEBgsBZ6GEylKwvEJT1h8gIEUAAAQQQQAABBBBAAAEEEEAAAQQQQAABBBBAAAEE0ihAEDiNgBRHAAEEEEAAAQQQQAABBBBAAAEEEEAAAQQQQAABBBBAAAEEMpMAQeDM9DToCwIIIIAAAggggAACCCCAAAIIIIAAAggggAACCCCAAAIIIJBGAYLAaQSkOAIZKcDy0BmpT9sIIIAAAggggAACCCCAAAIIIIAAAggggAACCCCAQOYUIAicOZ8LvUIAAQQQQAABBBBAAAEEEEAAAQQQQAABBBBAAAEEEEAAAQRSJUAQOFVsFEIgnQVsU36tF9bzdO4TzSGAAAIIIIAAAggggAACCCCAAAIIIIAAAggggAACCGRKAYLAmfKx0CkEvBEgAOyNEnkQQAABBBBAAAEEEEAAAQQQQAABBBBAAAEEEEAAgewmQBA4uz1xxhuAAvZgr74yXuof+50AHBpdRgABBBBAAAEEEEAAAQQQQAABBBBAAAEEEEAAAQQQ8LkAQWCfk1IhAr4XcAR7zZMgx4nvG6NGBBBAAAEEEEAAAQQQQAABBBBAAAEEEEAAAQQQQACBgBYgCBzQj4/OZzcBI/Sr/tHvOg7siAVnNwjGiwACCCCAAAIIIIAAAggggAACCCCAAAIIIIAAAggg4FaAILBbGm4gkEkEjMiv7osR+lWB38Tor3GeSbpJNxBAAAEEEEAAAQQQQAABBBBAAAEEEEAAAQQQQAABBDKHAEHgzPEc6AUCLgQSor+OGLDO8V/8V6cFBwVLML/BLtxIQgABBBBAAAEEEEAAAQQQQAABBBBAAAEEEEAAAQSytwAhpOz9/Bl9ZhZIEv015wKrTgfraLB6IwqcmZ8gfUMAAQQQQAABBBBAAAEEEEAAAQQQQAABBBBAAAEEMkQgKDIyMj7q8Ak5c/acnDt/QS5dviTRMTESFxdvvOLj442OOb9nSG9pFIFsJqCXezZ/9/Qq0PrXMSREfXdDXYQEh8iZ06ckJDSHhIaFSXycSlbB4Xj1u2uWyWZcDBcBBBBAAAEEEEAAAQQQQAABBBBAAAEEEEAAAQQQyLIC5jah1vdgFRvSkwZDw0IkV45cki9PHqlbs4KEaoU8eXJJbFycyhAk4SqYFBMbq1J1EFhFlfSZijwRVDIo+AeBdBWwB4GDjC9m6OCv+u2U4JAQiYuNkfAcuSU0NMTYKzhe/+rqScJGwDjhCxzp2mEaQwABBBBAAAEEEEAAAQQQQAABBBBAAAEEEEAAAQQQ8KuAjh+ZgeCEVWODJEzFinLmyCG5cuc22k4IAufOZQSNwsJCJVeuaIlRM4GdA78J16qMCi5xIICAnwVU/FYHcvXx32R8da2/jJG4BLRxHRejvtmRU8LCcqgvcahAsPGFDTMInFDe/I+A8UUOfn8TUPgXAQQQQAABBBBAAAEEEEAAAQQQQAABBBBAAAEEEAg0ASN+pAPAiR3Xk3x1LCg4JFRy5AiTXDlzGjeNIHCuXDmNAFK4CiTFqJmFsWomsAo3GQEndzOA3aUnNskZAgj4WkAv9Wz8YscHq6WfRX1hI1rNAs6lvryhvsih0vRewfFqXeig//YK1r+nZhDY132hPgQQQAABBBBAAAEEEEAAAQQQQAABBBBAAAEEEEAAAf8LuIv16HTjpWbxhqrtRENUIDg8PEx1KC5hOeicKiIcGhqmosPRRgBYLwOtZxxaA73Wc/8PhRYQQEALmL/U5u9f4jc7EvYFvnz5ovrdzW1M7de/3HoZ94Qj4SsgzuX/u8kbAggggAACCCCAAAIIIIAAAggggAACCCCAAAIIIIBAgAqY8R/dfSMIrMJCQWr2oN4+NDQkTOJizicEgfW0YD37NzYu3NgHOC4u1th71DpuMwhlTeMcAQTST0D/Dib8IuvZvupcgiWv2tw7LFwFgXPmUbN/440Z/ToQbP6+Wv8jkH49pSUEEEAAAQQQQAABBBBAAAEEEEAAAQQQQAABBBBAAAH/CVjWg1aN6H2BQ9RkQf0eHBQiF879FwQODwuX2BAd+I0z+qIDSOY5ewD77/FQMwJeCxgTfPU/5i91wozfXDlySniOXJIzV7gRAA5R+wLbDjO7LZELBBBAAAEEEEAAAQQQQAABBBBAAAEEEEAAAQQQQACBgBf4b4HY4JCEZaH1eILVjOAL6t3YE1hvHxpsBI9CHTOA9b6iHAggkJkF4tW67iESFqY2+lbru4eo6f3qNzkzd5i+IYAAAggggAACCCCAAAIIIIAAAggggAACCCCAAAII+FggODhhVmDCe0Jk2AgCh4Yab0ZzjhnAHoNJTC/08bOhOgQsAv99bcOS4u5U/+6Ghan13UPDjWn+5nLR7vInpPP769mHuwgggAACCCCAAAIIIIAAAggggAACCCCAAAIIIIBAZhNIPn6k9wU2DyP6a903NCTEvpysubeoWYB3BBDwt4D3QVq9tnuQWttdf7ND/+5af7n93UvqRwABBBBAAAEEEEAAAQQQQAABBBBAAAEEEEAAAQQQyDgBa4zXuRf/LQcdnLgHsFMOT4WdsnKJAALpLJCw0bcOAutvdiSu957O3aA5BBBAAAEEEEAAAQQQQAABBBBAAAEEEEAAAQQQQACBTCTgWAc6IYjkuWd6VjAzgz0bcRcBXwik9MsXOn/Cy3Pr6leYAwEEEEAAAQQQQAABBBBAAAEEEEAAAQQQQAABBBBAIAAFVDjIiAd503VHENibzGagyZu85EEAAf8LmIFf83dTv3s6krntqSj3EEAAAQQQQAABBBBAAAEEEEAAAQQQQAABBBBAAAEEAkQgcXfgAOkw3UQAAQQQQAABBBBAAAEEEEAAAQQQQAABBBBAAAEEEEAAAQQQcC9AENi9DXcQQAABBBBAAAEEEEAAAQQQQAABBBBAAAEEEEAAAQQQQACBgBMgCBxwj4wOI4AAAggggAACCCCAAAIIIIAAAggggAACCCCAAAIIIIAAAu4FCAK7t+EOAggggAACCCCAAAIIIIAAAggggAACCCCAAAIIIIAAAgggEHACBIED7pHRYQQQQAABBBBAAAEEEEAAAQQQQAABBBBAAAEEEEAAAQQQQMC9AEFg9zbcQQABBBBAAAEEEEAAAQQQQAABBBBAAAEEEEAAAQQQQAABBAJOgCBwwD0yOowAAggggAACCCCAAAIIIIAAAggggAACCCCAAAIIIIAAAgi4FyAI7N6GOwgggAACCCCAAAIIIIAAAggggAACCCCAAAIIIIAAAggggEDACRAEDrhHRocRQAABBBBAAAEEEEAAAQQQQAABBBBAAAEEEEAAAQQQQAAB9wIEgd3bcAcBBBBAAAEEEEAAAQQQQAABBBBAAAEEEEAAAQQQQAABBBAIOIFQX/d4xbrN8uGQ0TJp/iqXVcdGzjLSQ6q0dXm/Q6uG0vfZh6TxdTVd3icRAQQQQAABBBBAAAEEEEAAAQQQQAABBBBAAAEEEEAAAQQQQMC9gM+DwJ4CwO67kXjHDB7/MeyDxETOEEAAAQQQQAABBBBAAAEEEEAAAQQQQAABBBBAAAEEEEAAAQS8EvB5ENgM4nrVuptMvqjDTdVpTj51+qwsX7dVduzZL5XLl5Em9apL4YIF0lxvWis4c/a8/DH9H3mgQxvJnStHWqujPAIIIIAAAggggAACCCCAAAIIIIAAAggggAACCCCAAAIIBKiAz4PAAergVbfnL1krD/X5UC5fjZE6VcrJhsh9EhYWIqM+e0XatGjkVR3+yrRp2y554q0h0ui66lKzaiV/NUO9CCCAAAIIIIAAAggggAACCCCAAAIIIIAAAggggAACCCCQyQWCM3n/Mk33Dhw6Ku16viEdb2kmh5aPl3njBsmRlROk6x2t5Laeb8veA4cztK/NG9WRc+v/JACcoU+BxhFAAAEEEEAAAQQQQAABBBBAAAEEEEAAAQQQQAABBBDIeAGCwF4+g4Hfj5VShfPLp288K+FhCROoQ0NC5MO+T0rFkoXls+/GGDXNW7LaWJbZWu2ly1dk2OhJxhLSZvreqCPy3c9/yIdf/ywz/1ku8fHx5i2Zv3SNTJmzWLZG7pGPh4ySVeu3yqjfZ8ryNZscefTJ7n0HjXovXLwkUYePyS8TZ8jpM+cdeeLi4mTqnCUyYNAI+XHMFNGBbPOYMGWuLFm10bw03h96/l1ZtznSkXbxUkK/9+w/5EjjBAEEEEAAAQQQQAABBBBAAAEEEEAAAQQQQAABBBBAAAEEMrcAQWAvn8+85Rvk/nYtJEd4mK1EWGioSr9B5q9MCKgeOXZKHujziS0Yu2D5Onn63W/UXr05jbJzF6+S69o/KTMWrJTI3VHSqdeH8nS/gY56J06ZLw+9+Im07Pyi/KWCuIeOnpBlqzfLqx8NdeTRJyPGT5Ovf/lL8uTOJbv2HpSn3v5ajp86ZeSJjomRB55+S559a7DoPg2fMF0adHjGEeRdqMbzzqCfjLz6n/0Hj8rYGYtkxLipjrTVG/416gwPZ9VwBwonCCCAAAIIIIAAAggggAACCCCAAAIIIIAAAggggAACCGRygQyL7sVGzsrkNIndi4mNlc27D0rPTrcnJlrOyl5TXLbuOSQ68Nr+5mYSFvqlzFqwXB6482Yj1+RZi+X25tdJqRLF5PyFS/LYqwPlhYc7yFt9ehj3n1q7WZo+0Fu639dOrm9Qy0g7r2b3Lpr8rdSuVtm4LpAvr3zb7RXRM4jLly5hzBweO/UfebJze+O+8z965vH8VZtk4/Qf5JriRYz8HXu+Lm8OHC6TfvxI2rZsJN9OmGX0J2+eXDJLzUbWxx9zlsnnb8VJSEiwLF65QZrUijD67Vw/1wgggAACCCCAAAIIIIAAAggggAACCCCAAAIIIIAAAgggkDkFmAnsxXO5fPmqxMXGqBm3CTN5nYvkzpNT4uNi5eLFy5Ivb27pomYG/z5joZFNB4bHz1wsnTskBIT1Esz7jpyQp7rd7aimcb2aUrX8NbJwxQZHmj4xA8D6XO/5W/6aojJNLROtj/VbdsjOA0ek420tjWvnf8ZMnieP3nOLEQDW94KCgqTLXW1k2uJ1cjU6Rlo0rmsUWfbfEtN/zV4sX73+lJxTY1i7cZtx7++l6+SOm643zvkHAQQQQAABBBBAAAEEEEAAAQQQQAABBBBAAAEEEEAAAQQCQyDDZgKHVGnrUSgzzRTWM2UL5c8jR4+fdtnn4yfPSl61JHP+fHmM+5063CTtn3xbzpw9L2s3b5fzV64aM4T1zcjd+408pZp1Mt6t/+h9fc2jRb1q5qnxrmfmPnJ3Gxk/bYE8/ci9MvXvJdK6US2pUPYaWz59ofcXXrJ+m/H6fOSfSe4fPX5SyqjZy22vryULlq+XBrWryvQlG+TbD15U/d0h0+Ytk+rXVpD5q7fK+y8lzFZOUgkJCCCAAAIIIIAAAggggAACCCCAAAIIIIAAAggggAACCCCQKQUyLAicKTU8dKp2RHnZHLnHZY5/d+yV2hFljdm2OkOrZvWleIG8aknoFcZevp3aNnMEiM09hTdOHSqhoSG2+vQsYvMICbHf0+n3tW8t7347VvapJaF1MLhPj45mdtu7nvUbGhYm3drfKK883cV2T1+UKFbYSLu9VRMZ9effasZxJWlWu7KULllMOtzSTF4fOEJuvL6uFM6XW+rXsQejk1RGAgIIIIAAAggggAACCCCAAAIIIIAAAggggAACCCCAAAIIZCoBloP28nF0U7NwR09bJLv3HbSVOHTkuPw8dYF0UbN/zSNUBXC73XWTjJ8yT8bPWCQPWu7VuLaike3MuXNybaWyjlf5MiUdSzeb9Ti/16xaURrXjJAPvv5Ftuw9LHe2be6cxXHdpnFNOaxm/Frb0Oe6nbDQhNj/zTc0lBVq5u93oyfL3W1vMMre1LyBbFPLTH/7y1/SoXVj0WPhQAABBBBAAAEEEEAAAQQQQAABBBBAAAEEEEAAAQQQQACBwBEgCOzls+p2fztpVL2CtO32ikyevVB27Nkv0+culbYPvyLVypaURx9sb6vp/jtukt//Xi6HTp6R1s0aOO41bVBL2jW/Th5/7XNZunqjnDpzTuYuXiW1b+0hi1fa9wR2FLKcdLunjQybOEseuLmxFC5YwHLHftrv2a4yfdFaefeLEaID1bv3RknfD7+Xjk++7shYTc1uLlu8sMxftVnaqVnB+sijlrXuqIK/E2cvlVtvbOTIywkCCCCAAAIIIIAAAggggAACCCCAAAIIIIAAAggggAACCASGAEFgL5+Tnj07Z/RAuUMFSB/rO0iq3vKYdH3pU2lev4b8M26Q5MqZw1ZTvVpVjOsmNStLeFjiqtt6qebRX74pNzSoIa0f6StFG3aUjs++J092bi86QJzccU+7G40s1tnFrso0b1RHpgx9V36dMl/K3NBFIto8Kqs2bZfP+j9jy16veiXjunqVCo70u/6bYdyqWT1HGicIIIAAAggggAACCCCAAAIIIIAAAggggAACCCCAAAIIIBAYAkGRkZHxERERPuttSJW2HuuKjZxl3Pc2n8fKMuhmfHy8HD1+SooVKSjBwamPo8fExspxNVO4eBrrSY7h1OmzEh4eZszyTS4v9wNLICoqSsJz5JXcufOon8UQ9QoKrAHQWwQQQAABBBBAAAEEEEAAAQQQQAABBBBAAAEEEEAAAZ8K7N+3QxKnqPq06qxdmZ7NW6JY4TQPUu+3W9IH9STXkUIF8yeXhfsIIIAAAggggAACCCCAAAIIIIAAAggggAACCCCAAAIIIJBFBFI/jdUNQIdWDd3c8T7ZF3V43xo5EUAAAQQQQAABBBBAAAEEEEAAAQQQQAABBBBAAAEEEEAAgawj4PMgcN9nH5K0BHF1WV0HBwIIIIAAAggggAACCCCAAAIIIIAAAggggAACCCCAAAIIIIBAygV8vidwyrtACQQQSK0AewKnVo5yCCCAAAIIIIAAAggggAACCCCAAAIIIIAAAggggEDWFNB7Avt8JnDWpGJUCCCAAAIIIIAAAggggAACCCCAAAIIIIAAAggggAACCCCAQGAIEAQOjOdELxFAAAEEEEAAAQQQQAABBBBAAAEEEEAAAQQQQAABBBBAAAGvBAgCe8VEJgQQQAABBBBAAAEEEEAAAQQQQAABBBBAAAEEEEAAAQQQQCAwBAgCB8ZzopcIIIAAAggggAACCCCAAAIIIIAAAggggAACCCCAAAIIIICAVwIEgb1iIhMCCCCAAAIIIIAAAggggAACCCCAAAIIIIAAAggggAACCCAQGAIEgQPjOdFLBBBAAAEEEEAAAQQQQAABBBBAAAEEEEAAAQQQQAABBBBAwCsBgsBeMZEJAQQQQAABBBBAAAEEEEAAAQQQQAABBBBAAAEEEEAAAQQQCAwBgsCB8ZzoJQIIIIAAAggggAACCCCAAAIIIIAAAggggAACCCCAAAIIIOCVAEFgr5jIhAACCCCAAAIIIIAAAggggAACCCCAAAIIIIAAAggggAACCASGAEHgwHhO9BIBBBBAAAEEEEAAAQQQQAABBBBAAAEEEEAAAQQQQAABBBDwSoAgsFdMZEIAAQQQQAABBBBAAAEEEEAAAQQQQAABBBBAAAEEEEAAAQQCQ4AgcGA8J3qJAAIIIIAAAggggAACCCCAAAIIIIAAAggggAACCCCAAAIIeCVAENgrJjIhgAACCCCAAAIIIIAAAggggAACCCCAAAIIIIAAAggggAACgSEQGhjdpJcIIIAAAt4IRO7eL3sPHJJjx0/KxctXpVTJolK6ZHEpW6qEFCqQz5sqyIMAAggggAACCCCAAAIIIIAAAggggAACCCCAAAIBLkAQOMAfIN1HAAEErly5KsPG/CWj/pwtGyL3uAVpUa+G3HFzM7mlRWOpFlHBbT5uIIAAAggggAACCCCAAAIIIIAAAggggAACCCCAQGALEAQO7OdH7xEIeAEdwFy5foscOHxUjp04LafPnJVCBQtIiWKFpUTRwlKzSiUpUrhAwI/TXwPYGrlbnnj1Y1mzbVeyTSxcu0X066/Zi2TOr4OTzU+GwBW4ejVaZi9YJkfV71SHtjdKkUL8DgXu06TnCCCAAAIIIIAAAggggAACCCCAAAIIIIBAygUIAqfcjBIIIOADgSWrNsjPE6fJ738vlfMXL7mtMTgkVO69qYl06tBGbrmxiYSF8p8tE+vQ0eNyxxN95dCxk2aSV+8Na1X1Kh+ZAlMgLi5emtzdU7btjTIG8PwH38naP7+TKhXLBuaA6DUCCCCAAAIIIIAAAggggAACCCCAAAIIIIBAigWIpqSYjAIIIJAWgQMHj8hbnw+TMdMXeFVNXGyMTJy92HjdWL+GDPu4r7G/rVeFs3imJ179KEkAOCxHuHS6pblUKldaSpUoKidOn5V9UYdl176DMnf1ZomJjpa6NSKyuEz2Ht7ytZscAWAtERcTLROmzJF+zz+avWEYPQIIIIAAAggggAACCCCAAAIIIIAAAgggkI0ECAJno4fNUBHIaIF1m7dLh5795fjpM6nqyoI1W6TJvU/LL5/2lZtbNEpVHVml0PotkTJ3xQbbcG5tWk8Gv9vHbZD83PmLMnfxSqnHTGCbW2a9mDFviWzevtvRvWsrlpM727ZwXLs7KZAvT5JbhQrkS5JGAgIIIIAAAggggAACCCCAAAIIIIAAAggggEDWFSAInHWfLSNDIFMJLFu9STo81T/J0s8F8+WVTrfdKG1bNpHSJYqLDladOXdO7Q98ShatVEtG/zlbDhw94RjL6XPnpVPvAbJo3FdStXJ5R3p2Oxk/eY5tyHlz55JvP3xFShYrYku3XuTLm1vuurWlNYnzTCwwff4yGTZxhqOHXdu39ioIXOPaStLtjtbyy7R/1DTgOGlQrbJ0vP0mRz2cIIAAAggggAACCCCAAAIIIIAAAggggAACCGR9AYLAWf8ZM0IEMlzgxMkz0qXPgCQB4Buuqy6jvnxLihctbOtjGSluXLdq1lBefeZh6d7nXflj7jJHnguXLks3FQieO+YryZsnlyM9O52s27LDNtzud7XxGAC2ZeYiywt8r5ZNf6vP43Ly1FmppYLAHAgggAACCCCAAAIIIIAAAggggAACCCCAAALZSyA4ew2X0SKAQEYIvPjeYDl8/JSt6c5q9u9fwz9JEgC2ZVIXYWGhMvyz/qKXOrYem3buk58mTLEmZavzfYeO2sZbuUJp2zUXCJQqUYwAMD8GCCCAAAIIIIAAAggggAACCCCAAAIIIIBANhUgCJxNHzzDRiC9BJas2iDjZy60NfdIh5tl2Cf9JVfOHLZ0dxc5c+SQUYPflka1qtiyDBn1p0THxNjSssvF7iMnbUMtrQJ+HAgggAACCCCAAAIIIIAAAggggAACCCCAAAIIIICAFiAIzM8BAgj4VWDor3/Z6w8OlpeeekiCg4Ps6clc5VF73vbsdKct195Dx2TWP4nLRNtuZvGLeLXXq/UICQ2xXnKOAAIIIIAAAggggAACCCCAAAIIIIAAAggggAAC2ViAPYGz8cNn6Aj4W+DAwaMyfvZiWzOd2jaXyuXL2NK8vWjVtEGSrEtWbZT2N9+QJN1dQnR0jCxZvUHmL1kt+9WSyoeOnpRQFUC9plhhKV+mpNzSorHUq1VdQkK8D1KfPX9B/lmyxtFkeI4wubXl9Y7r6JhYWabanL1gpeyJOiRHT5yS0iWKSkSFMlJZvW5p0UQKFcjnyO/qZPIs+2zq+LhYW7YJU/6WmGh7WpVKZaVaRAVHvuMnT8tS5WU92t3UTMJSEEA+oALvU+YskA1bd0rUkeMSGxur9iIuLNdWLCu3tmoqdapHSFBQgt2/O/ZI5K79jubq1IhQxtc4rs2T2Nh4mfb3IvPSeG9Sv2ayS4WbBfbsPygbVX/MIyw8VNqpvrg6du+Lkk3/7nLcKlwovzRvVNe4vnDxkkya+Y8sWLlB9h88IqEhIdKmRSN5rvv9jvyuTg6ovJu27ZSdew/K9t37ZMeeKMmVK4eUKFJIPePScvMNjaW22pfXdHFVxzH1M7Fs9SbbrWETZ9iuR02dJ3e2sf+suzK9ejVaZs63fzmiWcM6UqRwAVt9yV2cOXde5i5aJcvWbJKDR4+rn9vTUiBfbilRtIhUjygvbdXPuP4ZTsnh7F+qZFFpUKe6o4rzFy7JnIUrZNGKdXLg8DE5e/6iVCpXymjnWvXzfMuN16fo59VRMScIIIAAAggggAACCCCAAAIIIIAAAggggEA2EwiKjIyMj4iIyGbDZrgIZA2BqKgoCc+RV3LnzqNm1oakeHatvxXG/DlTHus/0NbMwjFf2oI+tpteXNz4wDOyavMOR84b69eQGb8Mclx7Ovl92jzpNeBrOXH2nKdsUqFUcfn+vRelRRP7PsTuCulgZ/27ejpuF8mfT/Yv/c24Xr8lUrr1eU927D/kuO98UrJoIfns1afk3ttbO99yXOeu2dZx7u3Je726S5+eXRzZF69cL7d0f9lxrU+OrZwkeXLntKW5utCB7Hc+Hyafj/zd1W1H2u0tGsrQD18THVzV+T8ePsFxb9iAPvLQve0c1+bJlStXpVD9O8xL43368I+k5fX1bWnuLkb9Nl16vvmF43aJIgVl94LxjmvryU/jp8gz7wx2JJk/P9t27pXberySZO/qG66rLrNGf+nIbz05pAKjn347Sr6fOFOcg/LWfPq8mgqWDuz3jLRu3tD5lnG9cPlaubXHqy7veUoc9p4yvcdueuLUGSl7gz1wPffnz+X6BrU8VeW4p5dY/+jrkfLxiN8lLibake7qpJWq87sPX5FypUu6up0kzdm/y+0t5YdP+xv5Jk79W55880u5dPlyknJmQsOaEfLlm73UFzWqmkm8I4AAAggggAACCCCAAAIIIIAAAggggAACCDgJ7N+3g+WgnUy4RAABHwosX7fFVluVctekKQCsK3vk7lulSe1rHS89uzIuLt7WjvPFpctXpM87g6Tryx8mGwDWZfeoGcy3Pt5XPh7ys8TE2pdddq7b1fUpNZtRHzoIfmPX3h4DwDrf4eOnjL698HZiIFOnZ5ZDzwjt+r83kw0A6/5OW7hKWnV6zpiZe+L02cwyBLf9uKRmzeogfrtHX04SANaF3C1bPuiHsVLjtkflu/HTkg0A63r+3XNA2vfsJ30//EZfZtpDz97v0ONl+XDYuGQDwHoQ89Xs5es7PiNT59hnqns7wAsXL4uena9dHn7lY48BYF2n/gJI8869ZNzk2d42QT4EEEAAAQQQQAABBBBAAAEEEEAAAQQQQCBbCrAcdLZ87AwagfQRWLDSvvRwlfKl09zwY13uEv3y9ti594A80vs9WbMtcQlgR1m1P3GDqpXkwqXLRpDOka5P1J6773wzShat3ijDPn5NLXlcxHbb00VcbIz0fnuQfD9hmi1baFiYVFDL37qbFTx0wnTpcldbaVyvpq2cvsiV0z5b19VsSec8IWo547Qeevnnjk/1k4079rqsqmC+vJJXLX184OgJx/0dBw6r4PcLKrhnX57akSETnWzYsc+YAXxELXXs6nC1hPPQ0b9Lvy9+TJI9SM3Gr1elvFQsW1LWqyWntYPz8eWoP6WEWj77hcc72W4Fq59F5+fn1TNW5Xx16GWYu7/6iZw8kzR4H5YjXJqqWbjb1JLXzlan1ZcE7u81QP730F0y4OUnJSzM+/9psU8tyd7hsZfln9WbbcMolD+P5FE/89afK0cG9bv5yidD1ZLrTaVg/ryOZE4QQAABBBBAAAEEEEAAAQQQQAABBBBAAAEEEgW8/6Q2sQxnCCCAQLIC8fHxsm2ffQnkCqVKJFvOlxn0LF5XAeC7WjWRxzt1kPp1qjn24j1y7KSs2rBFBv4wTpZt2Oboxt/L10uvtz6Xcd+870jz5sQMAAeHhsk7z3SRG5tcJ7XVfrk5c+SQc2qf0y3bd8unQ0cbM2et9fX95DuZPXpwkhmoJ1ZPsmaTPLVvs81A/e3rt+W21s1seXxx8cFXI5IEgMsULyKvPdlZGtWtKdWvraj2zg2Wo8dPqjHtks+GjZW5KzbIFTX7OhAO3c8j//VVB+nvbNFAaqoxVa1UXu0LnTSIrvfIfeGjobahlVZB3W/VUtd6393cuRKD9SdOnpG/Zv0jz72vZv+qwKV59P9ypNynlv4uY/l90PsSOz9j/XNn3Re4a/vWMvSTvmY1Pn3XM4A79npXotXS3Nbjpe73yZ23NFd7PVeRHCoQrH+vd+6NkuVrN0nfz4bL8dNnHNkHj/5Ljal4snsoOwqok7Xbdjsu9c/Vm889LA3rVpcqFbV/kOjfy43/7pAXBgyWXVFHHXmPKdsvfxgjb/V5wpHGCQIIIIAAAggggAACCCCAAAIIIIAAAggggECiAEHgRAvOEEDAhwLn1ZLIzvuklrmmuA9bSL6qCZNmJZkB/HjHW2Xgmy9IWKg9wKdnZ7a/+Qa1D20Debj3OzJj8RpHA5P/WSnzFq9yu5+rI6PTid6bdtyXbyWZ2Zsvb25pUr+m/DLoLen87Bsya9k6R8mlKgC9fsv2TLHn6S4V7Bs5eZ6jb/pE75c85YePpZLTrO7iRQuLft3QpL58/v0oeXvIKFu5zH6hlxj/9r2XpFpEBY9dffPzH2wB3evrVJUxg98xZvc6FyxSuID0UF82KFKogDz08seiZ4jrQ/9e/PzbNOn3/KPORTLs+oOvf7IHgNUM46Fv95KuHW+z9UnPjI5Q+xvrV+Praso9T/a1BWff+2a0PHhnGylWpJCtXHIXTZXjKPW7ck3xoras+veyRLHGMmX4J9LukZdk35HjjvuDRk+SN154PMkXJhwZOEEAAQQQQAABBBBAAAEEEEAAAQQQQAABBLKxgO/WkfQR4op19iUhfVQt1SCAQDoLnDl7PkmLpa4pliTNXwk6CP36lz/Zqn/qgdvly3f6JAkAWzPlzZNLxn49QNo1r29Nln6fDZXomJQtb7xg7FdJAsDWSnPlzCFfD3jJmmSc74tKuoxwkkzpkPDViAm2QH7hAvll5siBSQLA1q7oWcGvPPOwPNvpDmtypj5vqJY5nvXLoGQDwMdOnErypYKXe3Z2GQC2DviuW1vKXa0aWZNk2rzltuuMvFi3ebv89NccWxdGfvRykgCwLYO6qFKxrHL7QvRMaPM4e+GifPpdyr4A0KJeDZky4rMkAWCzTv1eoWwpef/Fx61JxmzzI8cTlyG33eQCAQQQQAABBBBAAAEEEEAAAQQQQAABBBDI5gI+DwLf80Q/CanSVgapJVVTeugyTe/vbZTPbMHg5Ws2yW9T5ztek2cvksjd+yRWLTdrPeYvXSM6ry+PhWo5Wm26Y89+o1rd7sQp9tl5vmyPuhDwhcCFS5eSVFOkQIEkaf5K+GbkBDmklpI1D70s8yvPdBNXe7yaecz38PAw6f/cI+al8b5++x4Z++dMW5qnCz3juKxluV93efXyuUXy57Pd3psJgsB6eeBhv8+y9evJB9p5NSZdqH+vHrayxkVQ0qTMkPLlm7282sf28NGT8kiHmx2v7ne1kdbNGng1hOud9nnevt++VLpXlfgp0+uffm+rub7aJ/u+22+ypbm7KFWimPTq3tF2e8jYafLvjj22NE8X76olnfUXIpI7aqhlup2PAwePOCdxjQACCCCAAAIIIIAAAggggAACCCCAAAIIIKAEfLoctA7iTpq/yoB98ePh8sLjD6YIWZcxjyWrNhlLTZrXGf0+9NcpMnrGIqle7hqjK5fUvomRar/TUkULyZ9D35UGtasa6Z9+P1aKqqU/m9Sv5bcu/zlzkQz66U+557aWas9En8fx/dZvKkbAmwCsr5RGT/7bVtVjd98sJYsVsaV5umhQp7q0blhb5q3a6Mg2bupc6Xbf7Y5rTyfPPGwPjHnKq2eizly61pFlTyYIEK7asNWxfLHZsS73tDNPk30vmD9vsnkyS4Z6tRL++51cf2pXryzffvhqctlc3q9X81pb+vmLl+Ts+QuSP28eW3p6Xxw4dEzmrkz8Gdft/6/HfV59WcLsa9d7b5N31fLfekz60MtdT5mzKNmZ1WZ5vTS6N0dEhbKiv8wRFxPtyL4v6og0UstScyCAAAIIIIAAAggggAACCCCAAAIIIIAAAgjYBXwaBLZXnXClA8P/qJmsno6WTeqmOGDsqT5/3WtwbXlZ/PsQR/WnzpyTZ/sNlFZdX5bd836WooULyl/DP5Qg9X/+PF5+qov6kP5+AsD+RKbugBa4fOWKRB6wzxDsfn/7FI+pZ5cOtiDwhu17va4jb+5cXuetUrGMLQh80LLvqdeV+Dij82zkVg1qSeXyZXzcSvapztVM1+johD2CM1Jh974DtuYL5ssrd7dtaUtL7kIH/Lvf3Ua+/nWyI+v2XQkrVzgSfHASFhYqVcuVlK2Wug9bZvv7oAmqQAABBBBAAAEEEEAAAQQQQAABBBBAAAEEsoyA34PAOgBszg72pJbSWcOe6kqve4UK5JOP+j0t41p1k6WrN8qdt7SQ6XOXSB4V/LmpeUOjG6N+nyl6BthFtTTu/KXrJGfOMGnXqonaS7GcrZsX1Ayq32f8Oc5tugAAQABJREFUI7v3HpKqlcvJnW2aSW43QaRV67fK1p17pdu9CbPy9BLUly5flUZ1q8nkWYtFB28aqvP2NzezzeZKro1Ll6/IH6oP23fulwplSkrLpvWkYrlStn5ygYC3Aq5m/cbF25dP97aulOYzZtLG2dvSswhTelxbyf57evz0GTlx6owUUbP9fXmEBIfYqksvJ1ujThd7D9iXK762Usr99F6xUdkoSHdFrRBx+NgJOXTkhOj9g2NiYx2qy3y8TYCj4jSe7NwbZauhesXSopdDT+lRPaKCrciWHd5/YcJWMJmL0GD76heZ4XclmS5zGwEEEEAAAQQQQAABBBBAAAEEEEAAAQQQyBABvweBM2RU6dho3jw5jdbOXUhYBnPIyL/UnpnFHUHgt778WS6oAG3JwmqJ6LpVZdHqLdJv0C8y44f3pHmjOkZZvZxl+x59JVeOcGlc+1r55c+/ZdCPv8n0kZ9IwQJJl1T9e9FqGTJ6iiMIPHHKfJkyf4UUyJdH6larKGfOXZAB342Tga8+5phhnVwb51X/W3d6Qc5dvCztbqgvI3+bJb0+GCrTh78nzdSSuBwIpFRAfxnC+Th+8rRzkl+ud+61z24sXCC/5MubO8Vtlb6meJIyu/dF+TwInKSRTJCwa99BWy9Klyhqu/bmwtUXAbwpl555ItQXXlJ7xMfHy+KV62Xor3/J4nVbbXtQp7bO9C4Xuds+Y7dSmYQtD1LaD+f9rzeo2boxsXESmsyWBWWKF0lpU+RHAAEEEEAAAQQQQAABBBBAAAEEEEAAAQQQ8EKAILAXSJ6yDB01ybjdtJ7rPQn3Hj6h9keMk32Lxki4Wsry4qUr0v6RV+S1j4fJwolfGWVffv8bKVWskEwe8bGR59Tps1KvfU8ZPm6KvNizk6fmHff2Hz0pU3/8UGpWrWik9XjxQxk+YaYjCJxcGzPmLZM1/+6Wg0vGSgk1ey9O9fnux/vJoOETCAI7lDlJiUABtays85Feyxzv2GOf3Vi1fOoCW3q/Vh1APnnmrGMoO1SAuWHdGo7rrHqyY789CFyqRLGsOtRUjWvc5Nny1YjfZM22Xakqn1kK/btrn60r5UqXsF17e1HG6QsTMdHRcuDgYalQ1vNqEjlTMevY2z6RDwEEEEAAAQQQQAABBBBAAAEEEEAAAQQQyM4CBIFT8PSXbYyU7n0+MErovRzXbt0p2/cfleHv9ZKK5Uu7rEkHgK+vXcUI7uoMuXPlkGcevks69f5I9KzI8LAwmTh7qfwx5A1HnkIF88vdbZrK34vWeBUEvhqTsK+kGQDW7TSqU1V+mbpQn8pZNTM4uTYKF8pn5J2zaJXcf8dNRl/+GPa+xMbFG+n8g0BKBfLkzinBIaESF5u47+nBw8dSWk2q8p9SyzZbD710e2qPYgXz2YLAp9Ve4NnhOHIyMfCtx5s3T9KZ3dnBwdUYvxj2q/Qf9FPSW2qp4nLqSzSlShSRkkUKqtUZEr8I8feydXLg6ImkZTI45Zha3tx6FFD7+6bmyKe+MOF8nD573jmJawQQQAABBBBAAAEEEEAAAQQQQAABBBBAAIF0EiAInELoqpXKGCVCQ0PlwTtbS53qEWqmk+dZhhWcZlZV/C//IRUQiI5O2DPynmcHJOmJt7MXL6t9KJ2PMDXr2Ay+mbMiPbWh9zD+/LXH5bl3vpGn3v5aOt58vRrfTXJb6+udq+YaAa8E9FLAtSuXkfXb9zjy7z981HHuz5Nype1L/B44fDxVzcWpL0HscgpcOy97m6qKA6BQZbVM8obIPY6eHj9pDxY6bmSzEz0D2DkA3KBaZenesZ3c2baFFC9a2KXI6g1bpUXnXi7vZWRihPp7tGrzDkcXDqtVJVJzHD2etJzz7ODU1EsZBBBAAAEEEEAAAQQQQAABBBBAAAEEEEAAgdQJEAROgZue0dv3uYdTUOK/rGrfSOuhl4TWR55cOeVSUML5jx/2lqb1a1mzJbuXopk5f57c0qqh6+WodZ4c4QmPObk2ej32gDzV7R5ZsXaLTFfLQ3d4+l15/38PySvPPGQ2xTsCKRJoofaTtgaBN6iAcGxsvISEBKWoHmvmb3+eKCN/n+VI0rPr54weLMHBiXVWrpDwZQ0z07b9h0Tv35rSPWqPnTgl0U5fsqhc3l632UZWe48oX8oWBD54JH1mcWdmR70f9GP9v7B18d42zWT4J/0kh9rTPRCPayuVs3V7b9Qh27W3FwcO2r/gUSR/PilauKC3xcmHAAIIIIAAAggggAACCCCAAAIIIIAAAggg4GMBgsA+BnVV3cS5K2S05cbS1ZskpwoAlypZzAhMhangwbETp+XaSmUdua6q5abDQkMc12k5qaSWqk6ujdF/zJITalnQ//W4X1o0qWu8wsJCZNj46QSB04Kfzcs2vk7tnfvrZIfC3kPHZP6SVXJzi0aOtJSe/Kx+Vq0zVG9qXMcWANb1VS5nX579yuUrxvLrxYoUSlFzUc4zl9Vyv+XLeJ75n6IGMnHmyk57uaZmP+ezFy5l4hGmvGvL1212rLCgS0eo2dIjPntd9MoLgXpEOH1hYuf+w6kayv5DR2zl6lxbwXbNBQIIIIAAAggggAACCCCAAAIIIIAAAggggED6CgSnb3PZr7VSRQtJTHS0TJ+7VAVZT8vUOUvkg6ETpFeX9pJTBX9z5cwhA57tIm8NGSPjJv0tp06flXWbI+Xenv3ls+/H+ATMmzZCVHCrz8c/ysQp8+T0mfOybec++XvJOuGDfJ88gmxbyY1N6klwaJht/D+OTwwK2254caFnYlpnFusijetUS1LymhLFJYf63bIeq9RyvCk9Vqign/WoUqaE8TtrTcuq5+VVgNN6LFv/r+jlsVNynL1w0avs4eFhxsoI1szn1F7m3h7HTp6yZY1zWn3BdjMNF6uVgfVo27xBQAeA9VicZ7Zv2h0lrpZ2to7b1fniVRtsydUr22cY225ygQACCCCAAAIIIIAAAggggAACCCCAAAIIIOB3Ab9PX2qpZpUmd3iTJ7k6Muv9cLUUc+fbWsgn34+TBWu2SHBIqHTv0Epe79Xd0eU+PR+UUDXr9/l3v5ETZ84ZeXrc3Vqe6NzBkSetJ8m10emuNkYA+tVPf5A9vT80mrurVSP5akDm28MyrRaUTz8BvT/qw+1byk9/zXE0+sf8FbL3wKFUzaj9e+FKRz3mSatmDcxTx7tebrpRtUqyaF1i4Pfrn35Te1w3c+RJ7iQ6JkYG//yHLVs9tQd4djkqlStlG+q2vVGyaOU60YF9Xx96me5qakbq6q2Je9PuifJ+RuqmbbtsXQpW9fnjWLLW/qWAyhXsM849tXkwlftSe6rTF/f0ShH675K5h3xcTLSMGDdFXn3W+60PInfvlz/mLrN1p3qVirZrLhBAAAEEEEAAAQQQQAABBBBAAAEEEEAAAQTSV8DvQeAXHn9Q9CvQj+GfvebVEGaM+ixJvuoR5WTU4DfkzNnzEqqWDdV7AVuPkJAQ6f2EdnpAzcA6JYUL5VdLQSc+Gr08c2xk4h6orz7bVX1A39VRxdfv93GcmyePd+kg+mUeybWh8z39yL3GSy9NnTt3ziT9NOviHYGUCDyuvsxgDQKr6aTy+qffy/BP+4ueAertcUXtzTvit+m27PWqVpQWja+zpZkXfdR/dxY997Z5KfNWbZTVajZwgzrVHWmeTibPWih7nPY5fb77fZ6KZKl7zRvXkyrlrpHIfYcc4xo5YarXQeCVTrOoHZW4OalasbQtCLxLBZ29PcZMX+Bt1jTlu3Ql2lZ+1Qb7zGDbTaeLvp9975SS/KXzHtaxcbHJF0phjgL58kqfbnfLZz9NdJT8avQkee7RBySP+jvgzfH9L7/bspVUK2A8cGcbWxoXCCCAAAIIIIAAAggggAACCCCAAAIIIIAAAukr4NPloJs1rOXo/cBXH3Oce3tilunQqmGWCBw7j7tA/rweA6v6A/8SxQrbAsDOdaT12ps2ihUp6LGfae0D5bOXQP3a1eTxjrfaBv2bWhb9kd7vyiW1V6+3xztfDJe123bbsj/fvaM4B8rMDO3UrN9brrcHiF949ys5cuykmcXtu57Z+Lpqz3o80uFmrwPI1nKBeq73JH+tZ2db98fOXCx/TJ9vS3N1sW3nXrnnmbdc3XKbVtFpD+KxKrDrzbLEU2YvdFunr29cW94+O3r20vXGXuqe2tEzyl9690vZFXU0SbY49YUIT0fBfHlst//dtd927auL3k90ksIF8juqO3nmrLz83mDRfU/umD5viXz3W+KXlHT+Ab0elXx5cydXlPsIIIAAAggggAACCCCAAAIIIIAAAggggAACfhTwaRC48XU1jRmrSyd8kaogrp4xrGe8/jHsAz8OmaoRQCC9BQa8/KRUKFXc1uxf85dLp2ffkFNqCXRPx8lTZ6XHiwNk0C/2pZnvuLGh3Nfe82zD9156UkTtd20eernhW7r1lp17D5hJSd7XbPxXbu7axzYLOEzt393/+UeT5M3qCffd0UYqlU58bvFqJupDr3wko/+Y4Xboe/YflLue6Cs6kJiSo/F1NWzZT587L30/+kb0DHBXR3RMrFq2eLI82Cfp3wt/7Ql8e+umtq4cP31GOjz2itsvFpw4ecb4Gf9m3FRbOfPitFodwtNRtEgh2+21kXvl8LETtjRfXBQqmF/eea6brSo9e7/r/96SCxcv2dKtF79MnCYd//eu6CWkzaN+1Ury4F1tzUveEUAAAQQQQAABBBBAAAEEEEAAAQQQQAABBDJIIHHNYR92QAeDORIEJg55W4oWLgAHAtlaQC85O3bw23LH431FB87MY/aydRJx00PS9Y5WckPjulKqeFHJqQKux0+dkaNqxu6cxavkj3nLJSY6Mciky0aUKSnfffCahIYkBnjNOq3vtatXlmcfuF2GjJ3iSN6x/5C06tRL7mjdRJrWqykN61ZXMx5jZdX6rbJ0zUa1t+lyNUP5siO/Pnnzyc5SximIbcuQRS/C1PL1fZ/qKk+88XniCNXs1Sde/1xGTJgmLRrWlibKsGD+/HLwyDGZv2yN/DRpbpLnlVjY/dktNzaRW5vWk5lL1zoy6WWe127dJf9TS9VXqVhWxfOD5fDRE7Jjz34Z8ftMW6DeUciPJx3b3yxvfTVSjqgl881Dz05vdPeTclOTOtJILTVe9pricuT4CdFLRY+Zucijhf6Cg3jYOrd+rapmMwnvyr5t197qmXRRP48l5PSZ81KyeGFp5IO/uQ/f315+UMt9r9++x9Hm5H9WStN7n5Lbb2xsPOe6NarIoaPHZYVa6nvhyg0yY/EaR159EhQcIh+99lSyv5e2QlwggAACCCCAAAIIIIAAAggggAACCCCAAAII+EXAL0Fgv/Q0QCutV6tKgPacbiPgW4E61SNk1shP5c7HX5Moy5LMOuA6bOIM4+VNiw2qVZYRA/sbe2d7k/+jfs9L6ZLFpP/gn0XPZNXHibPnZKSa6ahfno7QsDD5qt8z8sgD7T1ly9L3Hrq3nZw9f15e/PQH0fs5m8eS9f+KfolMMJNs7zfWryEL1myxpSV38cGrT8mse59xPCed/989B+SZdwa7L6oCw01qRsjyjdvd5/HRHb1H7q9fvCG39HjNNvtVf7Fh/MyFxstdU93uaC2/TJlnu717f5Q0qe/+S1ON69WS8tcUk72HjjnK7ThwWB5TQXjzeK9Xd58EgXXAf8bPn0ufdwaJdY9l/aWJwaP/EtEvD0e5EkXlp0/7yfUNEreF8JCdWwgggAACCCCAAAIIIIAAAggggAACCCCAAAJ+FvA8jc7PjVM9AghkL4FqERVk2e/fy5P3356qgfdRM0Ln/PqlRFQo43X5kJAgeeGJzjLnp0+kTPEiXperptpYPGZwtg4Am1hPP3yf/Db4TcmVM6eZ5PH9uS53yqThn6bIW1dYvUpF+emjl6RI/nwe6zdvFsqfRyZ98668/1JPM8nv700b1JY/vnpTinm5wkPRggXkp49fkW8/fE2uUXu+W4/5S+0zaa339Lme6f7dgD7Oybbr5PYVtmVO5kLP2B/+2esy5M3nRX8BwtujQ8vGsnjitwSAvQUjHwIIIIAAAggggAACCCCAAAIIIIAAAgggkA4CBIHTAZkmEEAgUaCICp598fYLsmT81/K/h+6SkkULJd50cVa9Uln54IVHZevMkfLeK09JDrVcdGoOHbxb+tt30vvhe6S0UzDOWp/eA7fvEw/KP+O+Fr2cNEeCwG2tm8ncXwaKDvhZ91m2+tSqXE5GfvKqfNL/eQkPD5PY+HjrbQlJZvlunfl+teTy6snD5OE7bzKWF7ZV8N+F3qP5vluay8KxX0ubFo2NJcRd5fNXml66etWfQ0V/KcFdMFj/jD3zYHtZO+UHeUDtrRwcHCS3Nqtv69L0xatt164uWjZtINOGfSD6SwmuDl8Ggc36H33wTuMLEF3bt5Y8udwH/q+vU1W+eet/8uvXA0T/XnMggAACCCCAAAIIIIAAAggggAACCCCAAAIIZB6BoMjIyPiIiIjM0yN6ggACXgtERUVJeI68kjt3HhVkCjECTV4XziQZY2LjZPvOPWqv15Ny9MRJiVH78xYtUlBKFC2sAmyFpLRaDjcoKMinvY2NjZct23fJwaPH5Lja31XF51SbhaSM2s9Vz1b2dXs+7XwmqOzwsRPyb+RuOXTkuOgFoosWLiiVypU29u01u6eNC9RrL3GxMWaSTB36gbRu3tBxndzJ1avRsnv/Qdm1L0rtEX1KChfMbwQb69a4VvTSzJnhiI6JkQ1bIkWbnDh5RsqVLqFmNFeSEh6+aJDafh87cUrWq7ai1PLQBQvkNX5ea1eLMALuqa0zuXKXLl+RTf/ukKPHT8rxk2cld56cUlz9rlRWz1vvS8yBAAIIIIAAAggggAACCCCAAAIIIIAAAgggkPkE9u/bIQSBM99zoUcIeC2QFYLAXg+WjAElcETt+1yxVSdbn1f/+b2x5LMtkQsEEEAAAQQQQAABBBBAAAEEEEAAAQQQQAABBBDwqYAOArMctE9JqQwBBBBAQAvMXbTCBhGkZqqXKlnMlsYFAggggAACCCCAAAIIIIAAAggggAACCCCAAAII+EeAILB/XKkVAQQQyBICFy5elh4vDpB9UYe9Hs/Z8xdkyC9/2vLfe1MTKZAvry2NCwQQQAABBBBAAAEEEEAAAQQQQAABBBBAAAEEEPCPAEFg/7hSKwIIIBDwAnq/5if7fiRjZyyU2x99Sbbt3JvsmE6fPS/3PdlP1mzbZcvbreNttmsuEEAAAQQQQAABBBBAAAEEEEAAAQQQQAABBBBAwH8CBIH9Z0vNCCCAQEAL/DR2kvw+Z4kxhl1RR6XBvc/IB1+NkMjd+yUuLt42titXrsrqDVvl3if7yqJ1W233WjesLa2bNbSlcYEAAggggAACCCCAAAIIIIAAAggggAACCCCAAAL+EwiKjIyMj4iI8F8L1IwAAn4TiIqKkvAceSV37jwSrPZcDQ4O8ltbVJz9BK5ejZan+30sY6YvSDL4QvnzSIt6NaV86ZKybusOWbwxUuJiopPkK12ssCycMERKFiuS5B4JCCCAAAIIIIAAAggggAACCCCAAAIIIIAAAggg4HuB/ft2SKjvq6VGBBBAAIGsIBAeHibff9xPChfIL0PGTrEN6dTZCzLpnxW2NOeL6pXKyshP+xEAdobhGgEEEEAAAQQQQAABBBBAAAEEEEAAAQQQQAABPwuwHLSfgakeAQQQCGSB0JBg+eT152XCl2/IbTc08GoooWFh0qvr3bJg3BCpVa2yV2XIhAACCCCAAAIIIIAAAggggAACCCCAAAIIIIAAAr4TYCaw7yypCQEEEMiSAkFBQdK+TQvjtXtflEycOlc2/LtTduw7KP/uOySF8uaW8tcUk/KlSki7Vk3kttbNpEC+vFnSgkEhgAACCCCAAAIIIIAAAggggAACCCCAAAIIIBAIAgSBA+Ep0UcEEEAgkwhULFdaXn66WybpDd1AAAEEEEAAAQQQQAABBBBAAAEEEEAAAQQQQAABVwIsB+1KhTQEEEAAAQQQQAABBBBAAAEEEEAAAQQQQAABBBBAAAEEEEAgQAUIAgfog6PbCCCAAAIIIIAAAggggAACCCCAAAIIIIAAAggggAACCCCAgCsBgsCuVEhDAAEEEEAAAQQQQAABBBBAAAEEEEAAAQQQQAABBBBAAAEEAlSAIHCAPji6jQACCCCAAAIIIIAAAggggAACCCCAAAIIIIAAAggggAACCLgSIAjsSoU0BBBAAAEEEEAAAQQQQAABBBBAAAEEEEAAAQQQQAABBBBAIEAFCAIH6IOj2wgggAACCCCAAAIIIIAAAggggAACCCCAAAIIIIAAAggggIArAYLArlRIQwABBBBAAAEEEEAAAQQQQAABBBBAAAEEEEAAAQQQQAABBAJUgCBwgD44uo0AAggggAACCCCAAAIIIIAAAggggAACCCCAAAIIIIAAAgi4EiAI7EqFNAQQQAABBBBAAAEEEEAAAQQQQAABBBBAAAEEEEAAAQQQQCBABQgCB+iDo9sIIIAAAggggAACCCCAAAIIIIAAAggggAACCCCAAAIIIICAKwGCwK5USEMAAQQQQAABBBBAAAEEEEAAAQQQQAABBBBAAAEEEEAAAQQCVIAgcIA+OLqNAAIIIIAAAggggAACCCCAAAIIIIAAAggggAACCCCAAAIIuBIgCOxKhTQEEEAAAQQQQAABBBBAAAEEEEAAAQQQQAABBBBAAAEEEEAgQAUIAgfog6PbCCCAAAIIIIAAAggggAACCCCAAAIIIIAAAggggAACCCCAgCsBgsCuVEhDAAEEEEAAAQQQQAABBBBAAAEEEEAAAQQQQAABBBBAAAEEAlTAZ0HgkCptxXwN+mFcgHLQbQQQQAABBBBAAAEEEEAAAQQQQAABBBBAAAEEEEAAAQQQQCCwBXwWBLYyvPjxcOsl5wgggAACCCCAAAIIIIAAAggggAACCCCAAAIIIIAAAggggAAC6SQQ6qt2YiNnGVXd80Q/mTR/lTErOLV1D3z1MXnh8QdTW5xyCCCAAAIIIIAAAggggAACCCCAAAIIIIAAAggggAACCCCAQLYV8PlM4L7PPpRmzH+Wr09zHb6uYO7iVfLye99I1OFjbqveF3VEXnznK1m0YoPbPN7eqNKqqwwYNMLb7D7LdzU6xgjg//zbdJ/VSUUIIIAAAggggAACCCCAAAIIIIAAAggggAACCCCAAAIIIJB+Aj4PAje+rqZ0aNUwTSNo2aRumsr7o/Co32fL5yP/lC+GjXdb/SffjJZBoybLuEl/u82TnjeGj5ks/yxdm55N0hYCCCCAAAIIIIAAAggggAACCCCAAAIIIIAAAggggAACCGSwgM+DwHo8aZkNnFmXgg4KCjIe1fDfZsuFi5eSPLbTZ87Lj5PmGen/Z+8+wKMq2jaO3ySQkNB776H33ov0LoIURUFREeW1gt1PxQKvBcurWEAsKCJFUJr03ntvQUog9N4S+jdzlrNsQoAQAibwn+va7Clz5sz5Le3i2ecZt+8VnW7zgb4DR2gGQeDbrM7tEEAAAQQQQAABBBBAAAEEEEAAAQQQQAABBBBAAAEEEPh3BeJtTWDfx3Czge3awHdSa1y9jGYs26BRE2bpodaNojzaiHHTFJQsmaqXKhTluN3ZbspEj58yV/sOHlHhArnVokF1pQgOcvodO37SyRxuVKeyZi9aqR2m76v/efiKMXbvPaCxU+apfKkiKlfScw8bjB45Yaa2bt/tGbd+NQWbcddt2qa5i1dpozn+7je/K3uWjOpwb31duHBBw8ZM031Namn+0tVasXazcmfPopYNayhd2tRX3NP3wJIV6zXTzO/MmTMqU7yQGpv5+ga7bRnpCdPna/WGLcqZNZPqVCunPDmz+g7hOPw9dZ4OHztunqGwGtaqFGWMKJ3ZQQABBBBAAAEEEEAAAQQQQAABBBBAAAEEEEAAAQQQQACBOAnckkxgO5O4ZAMn1CxgVzZFUHI9cV89DRgy1j3kff9uyDg9cX9DBSTz9x6zGxNmLFShBl00afYSHTtxSm99/rMadOwhG/y17fDR4+r2zleq1e45vfHJD1pogq3R28HDR9Ssy+v64+9ZKhKSxzlt1x+ucl93ffnTn9p34LDe7Puj6j3YQzYj+cChI1q+JtQ7jN0+c/aMDh055tyrdNOu+p+5buuOPXrFXFej7XPau/+Qt3/0jXc/+1HVH+ypjf+EKXz3AXV4vo/+88an3m72WZp2flnPv/+Ndu05oF/+nKIyzbs5gWa3k11TuUyzJzVh1mKFbg1Xh+f66KnX+7qneUcAAQQQQAABBBBAAAEEEEAAAQQQQAABBBBAAAEEEEAAgXgSuCWZwHZucckGfv7x9vH0WLdmmNNnzqrT/U30Zev/aOW6UJUuVtC50aLla7Vsw1YN+vQ1/eetL6Lc/OtBo9SjU0v1fvVJ53iPJ9srV42OmrVwhZrXr+7tG3HmnMIXDFVS/6hBZBtgvffxNxWcPEDDvuml4KBA55qXPvha2TOl05gfPzSB56Q6bAK8ZZt11cChY9WjawfVqmKylk02cPumtfX2i12ca44dP+W8586aUZMHewKw23fucQK2Xw8aqV49HvfOx92wAejBY6Zr6Kcvq1Xj2s7hejXK6/5nP9A7PR5Tpgxp1e/nP7R5+y4t+usbZc6YzunT7bVP9HKf/po94kudOBmhx17pq+eNgzuXbsasarsX9Mj9jVWlfAn3drwjgAACCCCAAAIIIIAAAggggAACCCCAAAIIIIAAAggggMBNCtyyTGA7r9qVS8d6ejYLOKG3U5FnnFLMVU3J50HDJ3in+9OwCapfuaSKFsyryNNnvMftxugf/usEgG0p5v2mHPTFi1LKSyWbfTu+++xDVwSAI8z92j31traG79OfA95X6lQpnEtsYHjE5Pnq3qmVEwC2B20551b1q2rqnGW+w8a4/Xr3B73HbcnmTi3raPyMxd5jvhsZ0qXVxmmDnADw2XPntHvfQXOvVE4Xmxls2+9jZ+rhVvW8AWB77JWnHlTn1g10/vx5zVuyWmF7D6rbw63sKadVKltchfNkMyWwV7mHeEcAAQQQQAABBBBAAAEEEEAAAQQQQAABBBBAAAEEEEAAgXgQuGWZwHZuPT4cGKsptqxTQQk9C9g+iF0P17YnOzbXf3p9o149H5cNjP5gMmUHf9jTORdx+qzz7v7YuXuf3vz4e/0+aZ4ypAxWCpPJe8Ks5XvRRoN9WuGQ3D57ZtOc/nDgH86xEgVyKb3Pmr2bt4U7x+/r/l7Ua8yeDaxer6VM4VmP2O1XIG8O/fTXdHf3ivcFS9eYUtUDNWflJuXImEbbTUlo2+wz2OD2um279Xyu7FGuy5c7ux5/sKVzLHTrDuc9e7UOUfrYnfA9+684xgEEEEAAAQQQQAABBBBAAAEEEEAAAQQQQAABBBBAAAEEEIi7wC0LAn/+/VBnVjbAO2pA77jPMAFdeeFS3La1KYv87LvfauSEGTodeVbpTVC1Wf1qzkyjB3fbd++lrKZEctiMX7yZsvlqPHDdp9qya5/TZ8inr6jjy5/qq5/+0LNd2jrHAgM8H9sPfV5Q1XJRSykn9b9+cneSJEmi3P/UqUilTxUc5Zi7YzN/G3V5Qy8/1lpjTFazLUe9ZXu4CtZ/1Oni5+endCmDdCoy0r3kivfAgGTOsdXj+itp0qjlrlOZwDgNAQQQQAABBBBAAAEEEEAAAQQQQAABBBBAAAEEEEAAAQTiT+CWBYHdLOAbKQkdf491a0dKYco5P35/Q/X/bZwJfp5R13aNlTww4Iqb2nV6F6wO1Yj/veENAJ8z5ZFtaeTrtSzp06hGuaJq16KeDh46qmf7fG8CvsVVsUwx5c+TQ8nM/Wx56UL5c3mHOnP2nJJFC7JGD0rbzms2blGdquW8181YsFKli+Tz7vturFizyclc7tK+mXc94vWh2327qFLJEM1bulbdH2njPW5LQA/5c4o+7/WcihXyjH30+HFVLV/S28eusewGiL0H2UAAAQQQQAABBBBAAAEEEEAAAQQQQAABBBBAAAEEEEAAgZsSuH7aaByHtxnAttlgsH/BhrF+xfF2t/2yzm0baf6qTVq5aZs63984xvunTZNKebNnMsHisVprAq+LV6xTx2fedfpGXzs4+gC2bHTJwp7gabdO96ltvUp68PnesoHloOSBes+s6/t2vyEaOnqqc2zF2lC17vqGPvluiHeo/Lmyapk5vnvvAdkAsdue+6C/lq3epH0HDuvTAUM1eeEqdX2guXs6ynuRAp4y1V8MHKHN23Zo8qzFavnUO06f05fKY/d4op2GmnLX/X/9yxnTjt39rf855aL9TWZy1fIl1Lh6GT3+6qeav3S1Dh89rmlzl6hkoy6au5g1gaOAs4MAAggggAACCCCAAAIIIIAAAggggAACCCCAAAIIIIDATQrcsiDwa9073uTUEvblJQoXUO3yxdSidgXlM5m5MTVbdvmPr9/RTlNSuVTzbqrx4EsqYtb3rVGmsNZtjppNG9P17jE7Tr/ePWTfn3rjUye4+mLX9nr/mY565t2vlbHi/arY5jnlyJJRTzzgWYfXXtutY0v9PW+VctZ4UNt27HaHU89HTVD5P72UrWp79frqN3322hNqWs9Tztrb6dKGfbZBH/U0awZPVeEGj+mRlz/W9+89pyR+/tq0xbPW7z3Vymv456/pwwHDnDHrPfyy6lYprb5vP+OMYuc9+Iu3VMN43dP5NWWs0EZtur+vJx9o5gSIo9+TfQQQQAABBBBAAAEEEEAAAQQQQAABBBBAAAEEEEAAAQQQiLtAktDQ0IshISFxH4ErYyVw8PARpU6V0pRrjt8K3Lbcs83oTZ8udYxjn4yI1LHjJ5U1U3onEBxS7xFNHfRfpxy0LSedPm0q+ftHXac3pgey97H9M2VI6wSjY+pjj9nnTJv66mPactgHTHnrzGYcu54w7eYEwsPDFRCYUsHBKYynv3klubkBuRoBBBBAAAEEEEAAAQQQQAABBBBAAAEEEEAAAQQQQCBRC+wI26z4jUj6cCxasVZ9+g12jtis4EplivucvbwZ236Xr0icWxnSpb0lE7dZtllMgPdqLUVQctlXTM0GdGPb7H0yZ0x33e7Xe86kJuBsA9I0BBBAAAEEEEAAAQQQQAABBBBAAAEEEEAAAQQQQAABBBC4NQK3LAhsA8CjZyzxznrUgN7ebd+N2PbzvYZtBBBAAAEEEEAAAQQQQAABBBBAAAEEEEAAAQQQQAABBBBAAIGYBW5ZEDjm23H03xTIZtYMXjD8cxXKn/vfnAb3RgABBBBIYAIRpzwTCgpOYBNjOggggAACCCCAAAIIIIAAAggggAACCCCAAAJxErhlQWBbAtptvtvuMffd95zvtnue9/gTSB4YoIplisXfgIyEAAIIIIAAAggggAACCCCAAAIIIIAAAggggAACCCCAAAIJTiBJaGjoxZCQkAQ3MSaEAALXFwgPD1dAYEoFB6eQn5+/eSW5/kX0QAABBKIJkAkcDYRdBBBAAAEEEEAAAQQQQAABBBBAAAEEEEAgEQvsCNssv0Q8f6aOAAIIIIAAAggggAACCCCAAAIIIIAAAggggAACCCCAAAIIIBBNgCBwNBB2EUAAAQQQQAABBBBAAAEEEEAAAQQQQAABBBBAAAEEEEAAgcQsQBA4MX96zB0BBBBAAAEEEEAAAQQQQAABBBBAAAEEEEAAAQQQQAABBBCIJkAQOBoIuwgggAACCCCAAAIIIIAAAggggAACCCCAAAIIIIAAAggggEBiFiAInJg/PeaOAAIIIIAAAggggAACCCCAAAIIIIAAAggggAACCCCAAAIIRBMgCBwNhF0EEEAAAQQQQAABBBBAAAEEEEAAAQQQQAABBBBAAAEEEEAgMQsQBE7Mnx5zRwABBBBAAAEEEEAAAQQQQAABBBBAAAEEEEAAAQQQQAABBKIJEASOBsIuAggggAACCCCAAAIIIIAAAggggAACCCCAAAIIIIAAAgggkJgFCAIn5k+PuSOAAAIIIIAAAggggAACCCCAAAIIIIAAAggggAACCCCAAALRBAgCRwNhFwEEEp9A3/6/yL5oCCCAAAIIIIAAAggggAACCCCAAAIIIIAAAggggAACUlIQEEAAgcQsYIO/azdtScyPwNwRQAABBBBAAAEEEEAAAQQQQAABBBBAAAEEEEAAgXgVIBM4XjkZDAEEbqfAuKmzCQDfTnDuhQACCCCAAAIIIIAAAggggAACCCCAAAIIIIAAAolCgCBwoviYmCQCCEQXsAHgP/6eFv3wLds/d+68Ll68eEvGP3P23C0Z93qD2uc5e+7a945Nn+vdx97jWnb23L9lcL25cx4BBBBAAAEEEEAAAQQQQAABBBBAAAEEEEAAgcQoQDnoxPipMWcE7nKB2xkAXrU+VH+Mn6qde/YpeWCgShYpoI6tmihVyhTOp7BoxRr9OGyMuj3URqWLFfJ+Mj8PH6MFy9fos7dfVETkab3+YT/dU6282jVv6PS5cOGi7HPMXLhMh44cVab06VS2RGG1bdZA/v6e7+d0f/NDFSuUT907tXOuOW+u+fLHIdq0JUxPPdzWmYv3hj4bJ05F6Nm3PnKO/PDJ2z5nPJsnT0VqyF9/a/m6TYo0c8uVLYvqVq+oWpXLefter8+WsJ366NtBOnPmrAIDArzX2Y2Xuj2s/Llzau6SlRo7ZZb2Hjjk2BXKn1sP39dUGdKndfofPnpMw8ZO1rI1G3X27Fllz5JJtc0cGtSqEmU8dhBAAAEEEEAAAQQQQAABBBBAAAEEEEAAAQQQQODGBAgC35gXvRFA4F8WuJ0B4KWr16vfz8NUpEBePda+lY6dOK7Rk2dry/bv9f7LTysgWTKdP39Rp8+c0YWLF6LI2OxXe9w2m0Bst8+eu9xn8Kjxmj5/iQl4VlaR/Hm1fedujTFB4aPHT+jJjm2c6yJPnzbB0cuZukPHTJANSrdtVu+qAWB74SITfHbb1h3hypcrh7tr5ntB/+33ow4cPqJWjesoY9o0WmKe8ycTtLYZubWrlI9VnwvmUWwAOEO6tGpRv6Z3fLuR0RxbsW6jBv7+pxMYb9+ioU5GRJjM7en64MuB+uCV/ygoeaD+98MQ7dl/SO2a1VdGExhesXajhoyeqAu6qEa1qkYZkx0EEEAAAQQQQAABBBBAAAEEEEAAAQQQQAABBBCIvQBB4Nhb0RMBBP5lgdsZALZZt0NHT1KmDOn04hMPK2lST3ZutsyZ9IUJXk6bu0iN61SPk8ie/Qc1Y8FS1alaXg+0bOyMUbZEEZ2KiNQUM26Hlo2UJlXKKGPPWrhUU2YvUo0KZdTknhpRzkXfmb1ouQrmy2Wyl/dr3pJVUYLA85euVPjefU6guXLZEs6l5UoW1c7d+zR59kInCBybPu4969WImkHsHrfBats6399caVOncrYDA5Lph6FjtHnbDuXMllnbw/eobrUKqlejknPeZlJv3bFLy1dvIAjsiPAjvgXOmO9UJDP/8kkS3wP7jGfvkdRf8ruVN/G539U2I8w8ghLhv/JsVYBk5gs28dnOmS/l+Pv7K0mSm/tQbAWHC+YbMEntB3wXttg62n5Jk8b+F5/9AtL58+dv6Jq7kJ9HRgABBBBAAAEEEEAAAQQQQAABBG5YIPb/Q3PDQ3MBAgggEH8CsQkAd+nZ64obtmlSV83qRc1UvaJTDAcOHDzkZMu2rF/LGwC23UoVLWiyWJNrXejWOAeBt2zf4WTdli9RNMqdG9appqKm/HP0MMWmLds16I/xKpQ/jx42QdVrtXATzN0evluPtmthMpbDNW/ZKrVr0cAEvjx/3NtS0rbZoLPbbGDk8Q6tdOjoUdngd2z6uNde7T1LpgzOqWlzF6tFg9rm/v6qUKq487InbEaydVy5frPuMXPOYYLCtr3z4pPOOz8QiE+BGVulT5dKcw5LeQOlutmk18x3ODIEe+7y4iRpxh5pWacr7/rhXOnHTSbD/kEptbnWbU2GSVmDzLkWniPjTJ//LZdmHpPymxhmvazS6+Ye2cx3IN6cLo3Y5um3zQRn3Zb30r/CRprf1st3S48t9Jxxj9s9+/2TNZ2lwauk98wzuC23mXup9NITZaXCGT1Hz56X+i+TBq6X1p2WKpg+zXJLL5rE+sAE/C++CFPCfvSYP7Vu3VpFmKoBmTJmUtly5VSvXgNv4PazTz9xgoTPPPu8Pnj/XVNmP8J56DOmYoJtAaZcv2022Nur1/vOduimTRo3boz27NmtZKZsfeFChXVvq/uUKlVq53xYWJj69//G2bY/kpprs2fPoSJFi6lmzVree2/fvt0ZJ2z7NudYjpw51ahRUxUsWNB7bULd+PtvU3Vi2hR17vyoipcoGWWab/3f66aKhSlVYZp1y5I5iwoVLqy6dRvIz+dbDOvWrdGEv//W3r17FGAcc+fJo3vvba3MmT1/btvrT5vPYdzYMVq9eqVOnjrlfIb31K2nChUq2tMxtlP2cx89SuvN5x4ZGals2bKrWvUaqlSpstPffj5fffm5sx1o/r6wvy7yF8hvfl00UlBQ8hjH5CACCCCAAAIIIIAAAggggAACCCCAwGWBBPxfgpcnyRYCCNzdAqFbw0wp4Wm3FWHfQRMtMi1D+jRR7msDphnSpdFeU8Y4rm3fAc/YboasO05GM659+Tbb98ufhjrZZx3va+IEU33PR9+eu3SF+c97P5UzAeaMZp1hu+awLbNcsXRxp+vegwed/zwPsOmQPi1PzmyyL9ti08e9dNiYyVqycp27q0plSqihWdO3XrXK+sdk/I41Ja5t2esqZUuqRqUyypPDcw+77vHTne7Xt7/+of/r+41C8uZSjYplZLOTo68x7B2cDQTiIDD5H6mF+eOjay7pObPs9aFI6UMTTF09RhrVWgo2AVubNbv/bMyD28CqDdxeipV5Ox0z/dNcWg579napzUzPPd4w8avjJi7ZZ4nUerQ0pZ10byETkPX80leH2Z4hvjRzyeRZWlzZUkqLL3iOv2b6ls7ivY08NQgkW03ezqNvGSmHCSwfipB+3mCCy+Ye01qZwHN6qd9i6dXV5vlMrK9idinU/DH1mnnW3adMgLrR5TET0pbNrv32237av3+fGjRsrCxZMmvDhg2aNHGCUw6/SZOmznRPnzntLbvf2ByzmaO2jRg+1Hlv2dIgmOYm+65fv14//vi98ubNp/vbdtCpUyc1dcokffHFZ3rppVcVaILGF01Wrw0ilypV2gQ/i8hmsG75Z7PGjvlLR48eUYsW9+qoWbP9+wHfKnXqNGrfoaMJRPtr7pzZGjjwOz311DPKYwKiCbXZL9ssXuT5ZsGixYuuCALbwG2WLFlVwwS8refWrVsc94Pm74n27R9wHmv16lX6ZdBPKhBSUB3rdzJLG5iKFVMm6+t+/9MLL76kNGnSOF9q6t//W+0K32kCyKa8f6ZMWrVqpYYNHaJIE9S340dvdm7ffPOlDh8+rIbmc0+XLp1Wm2vs52kzgytXruJ8PvY6e66u+ULAgQP7tWDBfK1csVLPPve8N5gffWz2EUAAAQQQQAABBBBAAAEEEEAAAQQ8AlGjAKgggAACCUzABoD7mDVs49rikgVs72X/E/pqzWbqutlTV+tzreNXH/nKq/bsP+A9OHzsZL3weEdvdpr3xKUN+5/qc03551JFQpQiOEiFzVrDqVKm0JzFK7xBYPtYSa7INY46Umz6+F5RrGB+726WjCYSZZotn/10p3ayn9/shcudOUw1pa6b3FPdrGlc3+lTvFAB/ffVZzXPlKiea+Zo1yUeN3WOnnvsAWXPksnpww8EbkbAxBf1/iKT+ZtW+twEQd3kxgwmg7fpFGnBTnMu383cwXPtbE+Cvd42sS43uzi5CS4/M0taZTKMq5oAtJsP+e5B6S3zvYnWRS/39Z1BW3O8WGbfI1G378lz+XxFE1iuaILZc3Z4gsB/m2B0XfM9kueqeK6pltsEt00AeFCoJzCdypMsG3XAf3lv5crl2r17l1rd10bVqpnUadOKFSuhw4cOaeGCeU6A0H5pxLeVL1/Buztr1gwTLLzozR61J+yf3zaQm8YEbrt27eZkENvj2bNnV//vvtHs2bNUv34De8hpuXPn9l5v52ADmgtNsLFpk+baum2Lk+XasFFjlS5tIvCm5c6dR5988qHWr1+XoIPAmzZu0Amzln3RYsW1wcz12LFjJpjtyYJ2HsT8SGsCrG7mbdWq1XTq5EknGHt/m3byNwHv8ePGOtc89lhXJwBur8ucOav6ffWF088GeFeuXKEdYdvVunVbVala1Rm6TJmy+u7brzVp0gSVr1DpiszdZcsWa++ePXqw48OyfW0rYTKV95hjs2fPdILAzkHzo7rJDrZBYdvKl6+ozz/7RGNN1vEDD3R0jvEDAQQQQAABBBBAAAEEEEAAAQQQQCBmgaj/qxZzH44igAAC/5rAzQSAX+v+aJznnflSMPPQkWNRxrDBhYPmWNZMnmCnWzLTZrP5NhuUsM1m5UZvmdKbiJRpx8x/tvu2YydOmvVyd5pSmiZV0ae93/NpNapTVWs2/mPWIjapfldpazZu1nEzxop1m9Rv0DB98+twZ3/1hs1ynyOzWeP4lMnMOnvOk0XnDrXvwCHn3vY5YtPHvc6Wmm5tSm67L7uur23Wyb4K5sutLh3u1Wdvv2iyhIvr7+lzTbnp7d7zKYKTq0HNyk4Z6Je7ddKR48f166jx7vC8I3BTAruPSwtPSM3zXg4A2wFtUHaiiQHmjZp4H+d75bk0ztC10plLv7Xq5TclmR/x3CvOA1/nwhSXMpEjTFaybYXNHy0rzDPb8tdu61nNBKI7SwkxAGznuG3bNmeqJUuWct7dH506P6KXXnnN/Blqv3ZzY+2oKW1vM4tLly3rDQDbEUJMNmuqVKm0ebOp3X2NZjNPz5w5o0iT9Zoxo6fW9tIli3XypPnFZJrNfn3vvd5q3LjJNUb5908tXbrYzDWtU7rZ/nm8YrlJC79OCzRllm1G9IWLF3T8+DEdPHhAJcxn47sOss1+frvXe6p4qWzzP5s3O6OWMd5us1UzypYr75R53rXLfNsiWtu6xfOLtHjxEt4z9hqbgdykSTNT/cLzd6j35KWNrFmzqkiRoqbs9Crn75Ho59lHAAEEEEAAAQQQQAABBBBAAAEEELgscGV04vI5thBAAIF/VcCuAxzXZgPANgAZ15bJlFJOmya1Fi5f66yT646zfvNWJ4ha2KzPa1uu7J66rbv37ne7OO87zX62zJkUkMykA0Zr+XLlcI6sWLcxyplx02ar91cDTbnNM97jhQvkUfasmdSmcT3lyJpZQ0028K5o93I7z1mywtm06xbbtS3tK20qU2fWtIXLVznvBfKY6JdpazaGOu/uj36Dhmvg76OcgEts+rjXXe399Q+/0lt9v/WeTm5Kr1Yt5wny2OzmRSvW6rGX3tWy1eu9fYqE5FN2Yxa+J6qltwMbCNygwC4TELXNLbvs2ZOCkkq183qyZ91jN/PerrjJ+jUZxS+a34JVBptyzHOljZeT+G9o6HJ/SQ/6vOxawb5tgxl3k8kmtlnMvcx90pgYqX0W296oLlUyAenGJsu54VCzNvAykwkc9bsmno4J6OehQwedL8ukTOn5s8qWKD5pviBz5oyJbJs4oIld3nCzgUvb0qVNd8W1adOlNwHiqH/GnDRr00ZERDpB3vXr1jkZrtlM1nCK4BTKmTOXmjVrrk2hG/W+WYv4l19+dtYutkHVhNys4dq1a2QDs+nN32f58uXXokUmLT5as+sl79oVrh07dmjWrJlau2a1UzY6mfm76/DhI05vG0i2zT6zHde+7Gfjtv0H9im5WbPXvnxb2rSe6w6Z8tLR2wHzGQUFBcnex7fZ9ZZtYPhawf+MmTLq3NmzTilp32vZRgABBBBAAAEEEEAAAQQQQAABBBCIKmD+G5SGAAII3FkCbUxm6s0EgK2GLT/avnkDfTf4D335wxDVrlpOR4+d0KA/xjmB1fome9W2bJkzKodZw3LstDlKmSJYthzy8jUbtWPXHrVqWMfpE/1HjmyZVdWskTtl9iKlCApWgTw5tH3nbk2ds1hlSxRR+rSXy3W66+PaLKyuD96nd7/4XgN+G6nXn3k8yvrAJ06ecu5bsUwxPfVQW+8t7X/av/zBF5q1cIUa16mumpXKasKMefph6BjzfBGmXGpqLVm11pnvA/c2dq6LTR/3BvNM+ekMJlju2woXyOvcZ8T4qfp15Dizzm9JRZ4+o9GTZyqJyYwukDuXuW9K80qlIaMnOVnJGdKmUei27QozbjZjmIZAfArceC7pjd09mb/0cX2pownYjjJJpj+a19um5PPHpU1wuNKNjdXRlHgu7/luiXNhmmglnB80gV/fNsP8ti3iSVZVFhNHHdFamr5V+tPM4SWT+PnfldJ3dRQvZa997xtv2zaY6vMBjTFlnBctXOAd/uVXXvdm43oPxnLDZpZGb/aQW6nBPTd92hTZl9uyZs2mzp0fdXdVu05dExgt5ayvu3TZEidIbLOKH3n0MQUEXErH9vZOGBsrVix31vl1S1iXKVtOo0aOUFhYmClnffkLUkfMmryff9bXO+nCZm3ktm3bO/veQPelgPcRsz5yn97vevuWM2W5O3R40AkIx2TtfrAxLp/gfO5Xfj7ewa+xcWk6ZAJfw4hTCCCAAAIIIIAAAggggAACCCCAgBUgCMyvAwQQSLACdj3fmNb07dKz11XnbAPAMV1z1QuucaJy2RImm9ZPw8ZN0Zc/mrS6S61h7Sqyma222f/4frX7I/ph2GgNHTPZyeK1GcR2Hk3r1rh0xZVvj7S/15QlTaGJM+crIjJSqU3Gbu3K5dThUiD2yits1nFWtW5cR8PHTdXoSTPUpmk9b7eFy9eY8pkXVLl0Ce8xu2HnV6VcSY0zQep/tocrJG9OvfafRzVoxFj9bALa58+fN4HrDOrYqonq1fBEq2zA+Xp93Jvs3L3XlJ3+w9113l8yZZ3ts9sMr79NwHnavCXOcRsg7/7w/bJBcNteeaqz7DrH/YeMMkGZCybw7q9qZq4d7k3YJVadyfMjUQhkM0FR2w6e8ry7P23JZpupmzHYfJEjlXs05ne3GnH06rR23/ecDS6WMQFc+3qlmsnSnWWCsCYAW8Mk35c1x2LbepjfhtdaE3hkHamk+S30ygxp5D7zDCkuj2znZJfPbVDA83rdVLPvNlF60vRdZeZhM6ATWsuYMZM2mrVrbenh1GYN3wb1G5k1YGtqtslKXbLkyszV2Mw/ffoMTrfDJsAZvdmgZ6ZMmaIcLlAgRPfUre98+cees/NwmxsItWWhmzRtpkaNm2rO7BnOmrQ2c9Z3bWH3moTw/tefI51pTJ821f5FoGOmRLZttkS0bxA4U+bMetQEs/ebCg0//jBAAckDvRm9GTJccjzicUxtSmm/8OJLTqlsuyaw2zIYmy1b/nHWTg689HejPXfsmCeT2B3H7W/f05uxt23bakpPn49SavrAgQM6eeKEcpl1l6/Wdu/e7ZT5TmeyumkIIIAAAggggAACCCCAAAIIIIAAAlcXSID/HXj1yXIGAQQQuJZAfAaA3fuUL1VM9uVZp/eifho+RsPGTtHZs+fVokEtp1uK4CA980h7JyvplCkpavd9m83s/eGTt30POVm8HVo2UvsWDXXSXJMy2jW288CP34pyjd1pck8N5xX9hA3gukHc6OdssNg3YJzWZOA+2+UBEwC+4AStg80akNHb9frYYHL0Z4o+hl3r175sqVVb2jMoWqnQrJky6JlHOzjzOHHqlFKlSHHNEqDRx2cfgesJZAKXNqsAAEAASURBVDUB3rLmt+PkMKlrBTcvUZq/Q2o0WRpd9/pB4KKeOJi2m3hWuku/tY+aZbuXR0it8nlm0GSYCbCabOA/7/fsB5sKty1CpC+2SGHmuhsJAl/vmew6xrnM6xMz9xnmvl+YOOmXJhvYln3O9Zv0vkmkt+sA25bDJOnXN0mfk001+P1mOdvcnuq8npMJ5GfevPk0d+5srVixQrVq1VYaUxXAvlJcKg8dl2naMsQ2ELxq5XI1btRE/uaLLbZt3brVBCaPqUJFTyUHd+yiRYuqUCHPeubuMfd91Mg/tGDBPL39zrtKkSKl82dUpcpVnSDwvn173W4J6n33rss1xO2Xa2yz6xxv375Ny5YtVfPmLb1lmDNkyGgyrTM5rypVqjnPGlbLky1sS3RnNEHx1atXq0ULe02AsmXL5gR7fR84f/4CTpb0qpUrvOsE2/M2G9lmSmfLnsO3u7OdJ09eLVu6xHwBYL1T/tnt8MsvP+msWRLBZoDH1GzZ6q1bt6hY8eL8fRETEMcQQAABBBBAAAEEEEAAAQQQQAABHwGCwD4YbCKAQOIVuBUBYF+NFMGeQOnTndpq8uyFKlnERHiiNZt1Gz0AHK3LFbv2mpgCwFd0vAUHbMnrmALAvreKTR/f/jFtX8/E3iPNpbWLY7qeYwjEVSCpyYp9xQR/O8yW3pzuCczarOD3TXJ6ZZMlXNVkx7pt/wVpigna+rYC6cwauzmlvOZfS6/PMZm9ZqxAE1P7abUUbDrWuxQEfrCwybZdbEovmz6NC0gR56R+y01g2GQHl/Qp7ew79tW2x2+WdpmArW+re+k+vseymwD3C0Wl/1srdTExPxtoftTE2r5Yb4K/5lwJky0cbjKBB2+SKpjJ2oBwQmylSpfWrNl59Pf4sc46r/ny5dOx48e1ft1ap5JB0qQG/wab/XPVBi1//vlH/fDjAFWtWk2nzJdRJk4YbwK5KVS7Vp1Yj1imXDmzlu4C/frrL6pT5x4neLpksfmwTbMZxAmxLVvmmd+LPV5W1qxZvVMsZEo9Dxs6xLNWcJmy3uPuRr16DbTYZF/bz+LJbk87h1u0aOVkCPfv/63q1L5Hyc06vhs2mF9kprmlsMuWLW+yo2dplMk+jog4ZQLHmZ2S2aGbNqlxk2bm70X7uyVqq1ixkmbOmK7hw4eaz+akk329auVK7d61Sy1btorSeYkJFqcy2dnhO3eYTOYlJlM5SC2bR+0T5QJ2EEAAAQQQQAABBBBAAAEEEEAAAQQcgRv/nzXgEEAAgQQmcKsDwL6Pa4MLDWtV8T3ENgIIJGCBVkWk4SYY+/FSqa8JsNqAbj0TF3u7lpQqIOrEm5vKub7tWxP0fcTEyka3NP1NILmDOX/SlFyubTJqxzQywdXsnt6dy5jgsBn3q5XSO574mGqboOuoelL+G6xY+6YJ6sq+fNrxLj47PptdzH37bTDPtkj67V6THdzA3M/E/94yQe4dJhBt/5HXzjzrG9U9ZaJ9Lk0wm/bP1CeeeNJk1o7W9OlTNWHCaZPh6WfKAefWE127yWb1xqUVL1HSWbN3rFljeNDPPznl5m3QtnWbdgqKofLC1e6RP19+PdrlcTOv8Rr4fX+nW5AJhDY0GcaVKlW+2mX/2vHzprzykiWLTfA3W5QAsJ1Q8WIlHAd7vkwMQWCbgV29enXNmjnTBHo3qEiRIrJZ0o893lVjRv+lnwf9ZNb/vahgE9StZQLiDeo3dJ7TVnro+uTT+uuvkZo0aaJTLjq1WW/+3ntbq5oZL6Zmg/tPd39GI/8YrpEm2/r8uXNO1rG9pnqNGlEu2WPKP/8+ZLAp451ZJUuVViNjb4P5NAQQQAABBBBAAAEEEEAAAQQQQACBawskCQ0NvRgSEnLtXpxFAIEEKRAeHq6AwJTmP2RtGV3/u6Y0ou+awLczAJwgfxEwKQTiQcAk7zkt6MqEvXgYPeEMcey0lNIEfk3MKk7NriV8zmQM23LPV2u2VLRdl9fe599qJk6tw+YzTRlosjVN5nJiaXb93RNmPVi37HJ8zTvClNwPMGuUu2Wh4zruGVOm+OzZM8784jpGYr7u9OnTZu35iwqKYQkB97ns+YjIiBizf90+0d/t0gTW9lrjRr+GfQQQQAABBBBAAAEEEEAAAQQQQACBawvsCNvsJIlcu1c8n/38+6HOiM8/3j6eR2Y4BBC42wSKF8qvZvVq3m2PzfMigEAcBVKboOjNNBtQvV5QNc2VS2zfzC3jdK2NcadPhAF9mxWcKpWpZR3PLb6Ci7b8sVsCOZ6nmCiGCwy8/m8gmxUcU/nnaz2gXRIgvj6ja92HcwgggAACCCCAAAIIIIAAAggggMDdJmArBd6WtmjFWvXpN1ijZ5gahabNXLhSowb0vi335iYIIHBnCdjgr209uj58Zz0YT4MAAggggAACCCCAAAIIIIAAAggggAACCCCAAAIIxIPAbSkHbQPAVdu+EON0+77ymMgKjpGGgwhcV+BuLQd9XRg6IIDADQncLeWgbwiFzggggAACCCCAAAIIIIAAAggggAACCCCAQCIVuC3loG355x4fDrwqkXsusQSCDx4+okXL12tL2C4VLpBb5UoWUvq0aa76fJxAAAEEEEAAAQQQQAABBBBAAAEEEEAAAQQQQAABBBBAAAEEbqfALS0Hfd8Tr3vLP1/roRJLIPjv6Qv0yMufKDBZUpUtmk8f9h+ugydOafx3vVS7atlrPeJde27izIXaf/CIHmrd6K414MERQAABBBBAAAEEEEAAAQQQQAABBBBAAAEEEEAAAQQQuJ0CfrfiZrb8c2wDwO79bSDYv2BD2WsTYvtn2061fOpdPdG2obbO/k1/DeyjsHm/q3v7Jmr0xP9p5+59CXHa//qc/p62QN//Pu5fnwcTQAABBBBAAAEEEEAAAQQQQAABBBBAAAEEEEAAAQQQQOBuEfB/9tln30mfPn28Pa8t/9zuuT7auG1XnMYcOHyi0gQHqEq5EnG6/lZd9Gqfb3Xy5EkN+7qX/P39vbepWr6E+nw3TEXzZDOloQt7jy9ZtUHDxkzV7EWrdO7sOeXNlc17bn3oNo2dPFeF8ufS8LHTNXL8DIXt3qsiIXmdPn9OmG2unab1m7YqJF9OBSUPdI5v2Lxd46bNV0ienBoyeopGT5yjQ0eOOeP4+UWN51/r/seOn9SgEROUK3tmLVm5QUP+muy8582ZValSBnvnaTfsOINHTjLv6xUYEKBsmTN4zw8eNUkXL17QkaMnZLenzV2qFMFBypYlgw4fPa5f/5iot74crLA9B5Q9Qxpn7AzpPKWzV2/4R7+acWfNX67jJyOUP3d2+fkl8Y7NRuwEjh8/Lv+kAUqWLEBJkviZF4axk6MXAgj4Cpw769lLlsz3KNsIIIAAAggggAACCCCAAAIIIIAAAggggAACiVHg2NFDiho5TIxPcZvmPGepyW5uUC1KANjeOmWKIC0Y9qlqVi7jncl/v/pFVdv30OIVG7Ru03Y17/a2ur/e1wRMLzp9lq7eqMf/7ws1evgljZ86X6HbwvXYG1+q4zPvqsUjr2rAkLEK33tAvb4eohr3P6uIyNPOdcvWbFSX1z5TnfbPadKMRVprgsntXvxID5rrLly4EOv72wBtt3e+Uptub+mVPv21dcce/e/nP1WpVXcdPXbCO84n35n7P9hTG/4J04z5K1Sp7fP6ZeQE7/l3vhikx1/5RK3NOGs3bdOfk+epkpnvouVrFWnmvHxNqLev3T585KizbwPGZe/trqUmAL0tfK8e6vGROj33ns6fv/wM3gvZQAABBBBAAAEEEEAAAQQQQAABBBBAAAEEEEAAAQQQQACBGxKI9zWBn3+8vapVKKGqbV+4oYnYzi3rVNBr3TuqUpniN3ztrbzgjMnk3bRjr3JmzRTjbcr7ZgCvWK83vvhFf379llo0qOH0775yvaq0e0H1alRQ66a1vWP837MPq1Htys5+zUGj1P29b/RQ89r6+bM3nGNdzViV2z6nOSabuEGtit7r3n3hETWtV83ZHzN5tlo9/Z4em71EDWtX0pIbuP/6rTu1d9EfJrDtp40m0Fus8eOaOmepM8dlqzfp1U9/1oTv31P9mp57fzZgqF744Du1aljLyeo9eiJCW8L36eCSkUqbJqUiT59RyUZd9Ptf0/TpO8/o6z49FBCQVCvW/+Nsuw/wQb/BerHTvfrojaecQw+3XqVaJtjcY91mk01dyO3GOwIIIIAAAggggAACCCCAAAIIIIAAAggggAACCCCAAAIIxEHglmQC2yDu+dBJ6vvKY7Gekg0AjxrQO8EFgO0DnDlzVhdNpm3yQE9Z5ms91IjxM1W6UF5vANj2rVC6qO67p6J+N+WhfVstn+zhimWLOaca1Kzg7VK6REFne9ee/d5jdqNOtfLe/eb1a6iwKUU9be4y59iN3L/vK084AWB7YeECuZU8KLnJQPasbfzXpFkqWSCXNwBs+7Rtfo8OHzupVes3210dNBnFWdKncQLAdj95YIDKFw8xpa2vvT5ylgzptGxtqLbt2G0vU/WKpXRq7TiVLhbi7PMDAQQQQAABBBBAAAEEEEAAAQQQQAABBBBAAAEEEEAAAQTiLnBLgsCLVqx1ZmSzgmMTCLZ9bAA4obYUwcmdAOnh45dLJV9trpu27lDJQnmuOF2sYB6t3bwjynHf9VsDknmSsosWzOvtk/TS2sNumeSzZ8455y7KU1ba7tgxipq1hXdcCrzeyP1z58zivZfdSJ40qbck8/rNYVoVul3+BRt6X3lqPeT03733oPe6VnWreLftRrKk/maM81GORd/5/sOe8jfr/xao21kVWzypj7/5zawrbNa2NRnJNAQQQAABBBBAAAEEEEAAAQQQQAABBBBAAAEEEEAAAQQQuDmBeI+62QCwLQX9+fdDnZldLxA8f/hnsn1ss9fYoKN7rXMwAfywgdYyIbmckskxTafXpz/ozwkznVNpU6fU8ROnruh2wpROzpg25RXHb+RAEv8kTvck8ry71544FeGsTWz3b+T+vkFodyz3PTAgmfJky6j1Ewde8XJLU+fPkVk5TJ8bbQXy5tTEX/tq64xf9B9TFvqvKfNU5b7u2r3vcnD5RsekPwIIIIAAAggggAACCCCAAAIIIIAAAggggAACCCCAAAIIeATiPQg8b8kaZ+QeHw70BnNtkNeWh7Yln91mt20A2F3/974nXpe9JqG2+5vU0i/jZmn/wSNRphi6NUzvfvO7Ai+Vii5bIkQzl66PEgi2mbET5ixThRI3t96tmxl89uxZ7xxswHne6lAVMeWcbYuv+5cqWkAnTp1WlozpVMhkGruvPDmzKo0JdN9Iu3jxcubyvgOH1fO9ftqwebty58iizm2bavxPHyrMZBfPnL/8RoalLwIIIIAAAggggAACCCCAAAIIIIAAAggggAACCCCAAAIIxCAQ70FgG/C1wV3bbFDXZva65aFtyWdb+tkt/2wDwPac7TN6xhLnGt/MYOdAAvnR9aF7lTdLerV49DXNWrBC4Wad3unzlqrt0++qdvliqlO1rDPTR9o2U4rkAXrilY/0z7ad2rFrnxP0/Gf3fj37eLt4eZonX/tEW7aHa/vOPer+5qc6c/a8HmjVIF7v/1iHZvIz5Zm79PyvbKB77/5D+nn4eBWp20mHTenm2Lac2TNrY9geZ74nTppsaLOG8NgZi/Ry728cn8NHjmnE2OnOcCF5c8R2WPohgAACCCCAAAIIIIAAAggggAACCCCAAAIIIIAAAggggMBVBOI9CGzvY4O7NvPXXQ84enlo3/LP9pxtNjPYXuNmBjsHE9CPFEHJNXfElypWMLdaPPm2ctfsqC4vf6LqZYtqzA99FJQ80JltqpTBmvn7p2aN2xMq3OgJ5a39kOYvW695Qz5VHpP5Gh+tdNH8Kt3yKeW/p5PmLFunid+/r6yZ0sfr/dOnTaOZv/XVMRO4Ldq4q7JX66DeJuP563efVbo0qWL9GK0b11KAWdu4YP1H9cf46fLz89OUXz/WBZMdXKzpk8pY8X69+fnP+uGD51WhdNFYj0tHBBBAAAEEEEAAAQQQQAABBBBAAAEEEEAAAQQQQAABBBCIWSBJaGjoxZCQkJjPxsNRu76vW+bZBoV9A8AxHY+HW97yIc6fv6BDJoM1U4a017zXyYhInTt77obLJ19t0N/+nKSHX/pEx1eNkV2z9+Dho8psyjVfrcXX/e04kZGRypDu2s97tXnYcth7TCZxFhOodkta275njI3NBLaONjhMu3GB8PBwBQSmVHBwCmPob15R14u+8RG5AgEE7kaBiEtL2QcF341PzzMjgAACCCCAAAIIIIAAAggggAACCCCAAAJ3lsCOsM1KeqsfyQ362oCvfc1cuNK5pW/554Sa/Xs1G39TJvl6AWB7rc0eVtDVRrm543YO1woAx+f97XM4zxLHKfubTOAcWTNdcXVAsqROYPiKExxAAAEEEEAAAQQQQAABBBBAAAEEEEAAAQQQQAABBBBAAIE4C9zyILCdmQ0EV6tQQn36Dfau/WvLP7/WvWOCLf8cZ1EuRAABBBBAAAEEEEAAAQQQQAABBBBAAAEEEEAAAQQQQAABBP5FgVteDjr6s9ny0La5GcLRz7N/dYH9B49o245dKl+qCOWTr850V52hHPRd9XHzsAjcMoGEWg46+YBb9sgMHAeByCficBGXIIAAAggggAACCCCAAAIIIIAAAggggMBtF7gt5aCjPxXB3+gisd+3JahjU4Y69iPSEwEEEEAAAQQQQAABBBBAAAEEEEAAAQQQQAABBBBAAAEE7jSB21IO+k5D43kQQAABBBBA4NYLkHl66425AwIIIIAAAggggAACCCCAAAIIIIAAAgjcmQJ+d+Zj8VQIIIAAAggggAACCCCAAAIIIIAAAggggAACCCCAAAIIIIDA3SlAJvDd+bnz1AgkaIG+/X/R2k1b1KZJXWeezerVdN5Dt4Y575u2bPfO3z1nD9jzoyfP9F7re857ARsIIIAAAggggAACCCCAAAIIIIAAAggggAACCCCAwB0uQBD4Dv+AeTwEEquADQD/8fc0JxDcpWcvFS+U3/soRQrk9W7bc25ft89r3R91gsEEgb1MbCCAAAIIIIAAAggggAACCCCAAAIIIIAAAggggMBdJEAQ+C76sHlUBBKDgJvtGz2AawO/7rFxU2d7t+0xu28DwLZPofx5VDBfbicbODE8L3NEAAEEEEAAAQQQQAABBBBAAAEEEEAAAQQQQAABBOJbwC++B2Q8BBBA4GYEbADXbTbAa7OBbWavGwC252yg1w0W2317zgaAN/yzzQkA22M0BBBAAAEEEEAAAQQQQAABBBBAAAEEEEAAAQQQQOBuFSAT+G795HluBBK4gA3y2rV/balnGxj2Xe/Xd+r2vA0Cu0Fi3+t8+7GNAAIIIIAAAggggAACCCCAAAIIIIAAAggggAACCNwtAmQC3y2fNM+JQCISaNmgtrOmr80CtsFdW+65T78fYyzxbPvYdYFts31HT57pZA/bbOE7sZ05e+5OfCyeCQEEEEAAAQQQQAABBBBAAAEEEEAAAQQQQAABBOJRgEzgeMRkKAQQiB8BtyS0zfK1zQZ67Zq/azdtueIG7vG+/X9Rj64PO+fd7OErOt/AgQG/jdSyNRudK06fOeO9MjAgwNl++alO2mSylYeOnuTsu8ftjp+fn/q9/4omzpqvPyfM0CtPd1benNmdfhs2b9WXPw1T/tzZVa5EUQ0bO9k5HtM9Wje+Rw1qVdHFixc1efZCTZ2zSPsPHVaa1KlUrXwptWp0j5Il9Xeu//KnoVoXukXPP/aACufP6xyzP/6aNEMTZsxXrx5PKnOG9N7jbCCAAAIIIIAAAggggAACCCCAAAIIIIAAAggggMCdK0AQ+M79bHkyBBK1gF3j13ftX7tvXzYg7DYb7LXrALuBYHvcvc7tE9f36hXLqLC5n20/DR/jvLdqWEdp06RytjOkS6vzoVud7ZqVyqpAnpzOtv2RJIln8/y587LB3YsXLjoH9h08pK9+Hq7g5IF64oH7dPxkhB64t5FzbuHyNVpvAsSFC+RR1XKlnGP5cudw3keMn6q/p89V9Qql1do887bwXc7+nv0H9cwj7Z0+Z8+e1enTZzRoxDj1erGbkl4KDp+LNgenMz8QQAABBBBAAAEEEEAAAQQQQAABBBBAAAEEEEDgjhYgCHxHf7w8HAKJV8AGd31LOvsGf92n8j1mA8Fus2sJu9nE7rEbfS9W8PJ4O3ft1ZS5i1SrSjmlNVm40VudKuXlBmyjn3P3IyIj9cXA33X+/HmTrfugUqdK6bxyZM3kdEkRlNwJAtetWkEVy5RwL9PBQ0c0ceZ8VSpTXI91aOUcr1y2hAKTJtPoKbO0ccu2KJm/u/cd0HgTMG7ZoJZ3DDYQQAABBBBAAAEEEEAAAQQQQAABBBBAAAEEEEDg7hLwu7sel6dFAIHEJOAGc3/45G3ZrF8b6PV9t9u2vdb9UW8p6IT4fOdNJvB3v47Unv0H1O2h+5UjW+ZYTzN02w5duHDBmx3sXlilXElnc+Pm7e4h+fv7q3blchpjgsM2S5iGAAIIIIAAAggggAACCCCAAAIIIIAAAggggAACd6cAmcB35+fOUyOQ4AVaNqit0ZNnOvNsVq+md77Rt23GsG3jps523m12sA0a38723v++N2v8eko32/u2bV4/SnbusLGTtNkEc4ODglS6WMEbmtq+A4ec/hnSpolyXbq0qZ39vQeiBnvvb1ZfS9ds0KA/xuqlJztFuYYdBBBAAAEEEEAAAQQQQAABBBBAAAEEEEAAAQQQuDsEyAS+Oz5nnhKBRCdgyznb9X3dIK8N/tp9G+x1j9ltGyy2fW3paBsAtlnBt7vZedny0e4rZXCKKFOwAWDbbEno0K1hUc5db+eiPOsJJ3EXGr50gbvvnnfHSREcpAdaNtaGzds0f+lK9zDvCCCAAAIIIIAAAggggAACCCCAAAIIIIAAAgggcBcJkAl8F33YPCoCiU3Azfrt0rOXUwbaBnptdrAN/NpS0W7r2/8XZ9MGgG1A2AZa3SxiG6B1x3H7x/d7W5N9e601gXNlz6pnH31Ab/X9RgN+G6VePbopKHlgrKaROUN6p9/BI0ejlJE+cvS4czxLhgxXjFO1fEnNXbJCQ0ZPUrkSRa44zwEEEEAAAQQQQAABBBBAAAEEEEAAAQQQQAABBBC4swX87uzH4+kQQCCxC9gArl0L2Gb52sDv2k1bnACvzQa2x/r0+9E55mYE2+xg288Gf3t0fdh5fBskvtEM3Ph069SmmTKkS62HWzfVgcNH9Nuff8d6+AJ5cyqJn58WLl8d5ZrFK9c6+yH5ckU57u7Ye54+c1ZzlpAN7JrwjgACCCCAAAIIIIAAAggggAACCCCAAAIIIIDA3SJAJvDd8knznAgkcgG7zq8N8Lrr/dqgrg382uZmBdvzvs3dt8FgGwh2g8K+feJje4EJ0B44dDjKUBVKF/fu+10q5VylXEmtWLfRZOmuVJlihVS+VDFvn6tt2Ezg+tUravLshSZ7OLlKFglRWPge/WUyom1wvHihAjFemjljeuNTUyP/nh7jeQ4igAACCCCAAAIIIIAAAggggAACCCCAAAIIIIDAnStAEPjO/Wx5MgTuOAHfss627LNvsxnBNihqM4BtlnD0ktG2rw0cR7/Od4y4btsArX35tv4lYg7wPty6mTZuCdOPw8cqf56cSpcmte9lMW63b9FIqVIGm3ss0rR5i5U8MFC1K5dTuxYNYuzvHmxUu7oWLFujXXv3u4d4RwABBBBAAAEEEEAAAQQQQAABBBBAAAEEEEAAgbtAIEloaOjFkJCQu+BReUQE7jyB8PBwBQSmVHBwCvn5+ZtXkjvuIW02rw3q+mbxuhm+blDYBndtENjNFrZrB7vBXvf627E28O3AP3EqQimCkivJpezi23FP7nHnC0Sc8jxjUPCd/6w8IQIIIIAAAggggAACCCCAAAIIIIAAAgggcKcL7AjbLDKB7/RPmedDIBELuOv42gCu22xQ1wZ53RLQ7nGbBWxLPtu+bgDYnrOBYt+gsNs/sb6nDA5KrFNn3ggggAACCCCAAAIIIIAAAggggAACCCCAAAIIIHCbBAgC3yZoboMAAjcuYAO9NoA72qx/a9sff09zSj7bwK49ZjOE3fLP7rq/tn/05hsUjn6OfQQQQAABBBBAAAEEEEAAAQQQQAABBBBAAAEEEEDgThPwu9MeiOdBAIE7R8AGeW0g2K7va4O7ttyzbW45aHvcLQlts4BpCCCAAAIIIIAAAggggAACCCCAAAIIIIAAAggggAACEkFgfhUggECCFHBLQbulnN1sYJv5a4+5ZZ9tP7vtrhkcvUx0gnw4JoUAAggggAACCCCAAAIIIIAAAggggAACCCCAAAII3EIBgsC3EJehEUAg7gJuBrAdwc38ddcD9h3VN+hrM4NtcwPIvv3YRgABBBBAAAEEEEAAAQQQQAABBBBAAAEEEEAAAQTuFgGCwHfLJ81zIpAIBWyA177sWsA209fNCu7T70fv07jloG2A2PZ1S0h7O7CBAAIIIIAAAggggAACCCCAAAIIIIAAAggggAACCNxlAklCQ0MvhoSE3GWPzeMicGcIhIeHKyAwpYKDU8jPz9+8ktwZDxbtKWyA1wZ3fdvaTVtUvFB+7yG3HLT3ABsIIBBrgYhTnq5BwbG+hI4IIIAAAggggAACCCCAAAIIIIAAAggggAACCVRgR9hmJU2gc2NaCCCAgFfAZvu6Gb/eg2wggAACCCCAAAIIIIAAAggggAACCCCAAAIIIIAAAgjEKEA56BhZOIgAAggggAACCCCAAAIIIIAAAggggAACCCCAAAIIIIAAAggkTgGCwInzc2PWCCCAAAIIIIAAAggggAACCCCAAAIIIIAAAggggAACCCCAQIwCBIFjZOEgAggggAACCCCAAAIIIIAAAggggAACCCCAAAIIIIAAAgggkDgFCAInzs+NWSOAAAIIIIAAAggggAACCCCAAAIIIIAAAggggAACCCCAAAIxCiSN8ehNHFy0Yq369Bus0TOWxGmUlnUq6LXuHVWpTPE4XX+rLpq/dLX6Dx6r5vWqKlkyfxXIk0Mh+XIpMCDZLbll44d6Klf2zBrw0cu3ZPyEOOjCZWs0f9la5cqW5YrpVSxTVFkzZ1BQsab68b8vqFObJlf04QACCCCAAAIIIIAAAggggAACCCCAAAIIIIAAAggggAACCEjxHgS+mQCw/UDc4PGoAb0T1Ofz9aA/9dv42VqxYYvOnD2njWF7lD5VsPq9011tm9dNUHNNiJOZOHOh9h88oodaN7rq9Pr/NlY//TVNpQrmuaLPR692dYLAV5zgAAIIIIAAAggggAACCCCAAAIIIIAAAggggAACCCCAAAIIRBGI9yCwG8SNcpcb3ImPMW7wltftHpAsmaqULKi5I/s5fU9FnNbPw8bpwZf66tSpSHVu1/S6Y9zNHf6etkAr1v9zzSCw9fE1ju5lg+80BBBAAAEEEEAAAQQQQAABBBBAAAEEEEAAAQQQQAABBBC4tkC8B4Gvfbs752xwUKCe6txa+w8d1UsfDVTLhjWULm1q7wMuWbVB0+cuU0BAUtWqXFZlSxT0nvt15ESVLV5IpyIiNGP+CiVPnkyN61RWwXy5vX1i2ti+c4+mzF6s3fsOqkThfGpSt5pTjvrChQv6aeh4FSuUV1XKl/BeunxNqJauWq9H2jdT6JYdWrB0rdq1rKs/J8529vPnza72LerL399PoyfO0eoN/yhzhrTq0KqB0qVJ5R3HblzreQaPmuTMJzAgQDbj96QJijeuU0XlShbS4aPHNWLsdH352zhnvAGDR6t21bIqlD9XlPFvZudqLnbM4WOnKUfWTKpWoaT3Fh2feVcvdXtAZYp7PhMb0B9sPpMGtSoqb65sTj9rMWnWYp09c1alTb+GtSo5Tt5B2EAAAQQQQAABBBBAAAEEEEAAAQQQQAABBBBAAAEEEEAggQr4xfe87Jq+N9viY4ybnUNsr7cZwAdNoHPJqo3eSz75bohqPNhTG/4Jc4K8ldo+r19GTvCef/uLQarX6WU98dqn2rw9XN/+Nl7lWv1Hcxev8vaJvmGDq6WaPakhY6Zrz75DerH3d2rY8UUdOHREfn5+Gj9joV7q812Uyz7+ZrDTP6m/v5au3qjH/+8LNXr4JY2fOl+h28L12BtfygZEWzzyqgYMGavwvQfU62sz9/ufVUTkae9Y13ued8zzPP7KJ2rd7S2t3bRNf06ep0pmjEXL1yrSjGOD0W6z24ePHHV3b/r9Wi528NkLV6nX5z9577Nj1z79PmGOfhzqCUrbE0tNwL7bO185AXu7b4PaZe/trqUrN2hb+F491OMjdXruPZ0/f8GepiGAAAIIIIAAAggggAACCCCAAAIIIIAAAggggAACCCCQoAXiPRP4te4dnQeOa0lnGwB2x0jQcpcmlzNrRvklTaZNW8KcTNJlqzfp1U9/1oTv31P9mhWdXp8NGKoXPvhOrRrWUqqUwdq+56AumuzdsDlDFJAsqckIPq1mnV/Wqx8O0OwRX17x2MdPnFKXV/qqW/vG+vD1p5zzNvhb3QRae//vF336zjN68N76avvcB9oatkv5cmc3JaojNHLmEvV748ko4/3fsw+rUe3KzrGag0ap+3vf6KHmtfXzZ284x7quWK/KbZ/TnEWrYv08R09EaEv4Ph1cMlJp06RU5OkzKtmoi3436/vauX3dp4cTYLXloO32tdq6LeEmY3lNlC5ZMqV3ninKQbMTG5eGtSvqm+GTdOJkhFKmCNIkE0y3bdSUBfr07QtOdq8NvlcuEaLsWTI55z7oN1gvdrpXH73hsX649SrVMkH9Hus2O9nNTid+IIAAAggggAACCCCAAAIIIIAAAggggAACCCCAAAIIIJBABeI9E7hSmeIaNaC3zodOitPLXmvHSCzN32TZpgkO0JFjJ5wp/zVplkoWyOUNANuDbZvfo8PHTmrV+s1OHxsAtmvf2gCwbba09NMm6Dhv5UYns9c56PNj5oLl2nPwiHp07eA9mjF9Wj3TqaW+GzlZthx04zqVFBycXGOnznX6zJi/XOfOnlfz+tW919iNWpXLePcrli3mbDeoeTl7u/SlstW79ux3zsXmeWwmdJb0aZwAsL0oeWCAyhcPUdjufc4YN/Lj2MlTqtP51Sivgb+PjXGI2LjUrFTauXbBMk9g+a/Jc/Xlm9103JSsXm6yo22bakpyN69bxdm2P7JkSKdla0O1bcdu51j1iqV0au04lS4W4u3DBgIIIIAAAggggAACCCCAAAIIIIAAAggggAACCCCAAAIJVSDeM4ET6oPeqnnZjFwb4M2VI7Nzi/Wbw7QqdLv8Cza84pa79x70HsubI4t3227ku7QWrV3v1wZ4fds/pmR0BrNGb+aM6XwPq5BZQzgyItJZI9iue9upWW0NHTtTzzzaVuNMyefmNcvKZtH6tiRJknh33SB00YJ5vcds6Wjb3NLHsX2eVj5BVHt9sqT+Om0ygm+02eD43JH9YnVZbF0aVimhWQtXqnzJwvp73ip907uHlq/drPHTF6ioWUd5xtL1+qBnF+89v/+wp55+8zMVqNtZ5YrkU7umtdXp/sZXWHovYAMBBBBAAAEEEEAAAQQQQAABBBBAAAEEEEAAAQQQQACBBCQQ70HgRSvWqo8pp3uz5aATSzbwmo1bnI+zSP7czntgQDLlyZZRE3768IqPOYtvEPfixSjnbUlo21IEJY9y3O6kTZVSh09GOoFZf//LydsnTcln21KnTOG8t21eV98Of8WUpt6hEZPn67M3ujrHb+ZHbJ4nvwmA5zDPfLtbbF2a1qmsX/+cqpJF8qtayQKyAfOWDarpzb4/qlaV0kqfKljlShXxTr9A3pya+GtfhZn1gKfPW6oBv4/X14PHaN7Ir5QtcwZvPzYQQAABBBBAAAEEEEAAAQQQQAABBBBAAAEEEEAAAQQQSIgClyOK8TS7mwkA2ynY4LEdIzG0o6YE9Ivvf6ta5YqpfKmizpRLFS2gE6dOywZ8C+XP5X3lyZlVaVKn9D7WiGmLvNt2Y75ZBze5CQBnNwHK6K24CV5eOHdWNsDu26bNXabi5h52nWHbalYupdxZMqjn+/10xKyB2/Sear7d47Qd2+eJzeAXowW+Y3PNtfrE1qVejQpaZDJ/vzWB3FYNazhD1q1eXht37tU3v/yllvdUkpsBve/AYfV8r582bN6u3CZbu3PbphpvAvphJot7pimxTUMAAQQQQAABBBBAAAEEEEAAAQQQQAABBBBAAAEEEEAgoQvEexA4rhnAvlDxMYbvePG1vWB1qJat3qS5i1fpswFD1bjTyzp05Ji+evc5uRm6j3VoJj+Trdul538VujVMe/cf0s/Dx6tI3U46bNbOtS27CRCfO3tWf0+br4OHj2jclHnq3X+4nnuwmbOebvT5VjBZqq3rVdaTr3+uxSvWab9ZH3jgkDH6ZvgkvftCJ293uz5xp/vqadzsZbrf9E+b5nLQ2dvpBjdi8zyxGTJn9szaGLZHW0xp6xMmQB0fLbYuRULyKFfm9JqxZK1ZO7myc+sUwUFqY4K/NmO6Ua2K3ulkNGsbj52xSC/3/kb/bNupw+bzHTF2unM+JG8Obz82EEAAAQQQQAABBBBAAAEEEEAAAQQQQAABBBBAAAEEEEioAvFeDjqhPmh8zati6/84GbsVi+RV3aql1bPbg0pn1ut1W/q0aTTzt776z1tfqGjjrrp44YJCcmXV1+8+6+0XEJBUDzSpqY++G6pZy9aZoHFSPdKyjt587hF3mCvef+z7ul41gcnaD7+i05GnnYzfXz/qoVaNa0fpe5/Zf//bYWrTJOrxKJ1uYCc2zxOb4Vo3rqX//fyXCtZ/VD/0ft7JsI3NddfrE1uXskXza8e+Q/Jd//jehtX1+4Q5qlOtrPc2fn5+mvLrx+r2el8Va/qkE6zPYgLDP3zwvCqU9mR7ezuzgQACCCCAAAIIIIAAAggggAACCCCAAAIIIIAAAggggEACFEgSGhp6MSQkJN6mdt8Tr8d5PWB3Ei3rVNCoAb3d3UT7fjIiUpGRkcqQLm2UZyhQu6O6tGmoN57tLFtSOmmypDGuBRzloks7586fN9mpx5UpQ9Qx3b6zFqxQ3c6v6tjyUQo22a7x2a72PLG9x3kz9z0mMzpLpvTe8suxvfZ6/a7ncr3rYzp/5uw5JxPYWtvgcEJs4eHhCghMaT7rFGaO/uaVJCFOkzkhgEACF4g45ZlgkGd1gQQ+W6aHAAIIIIAAAggggAACCCCAAAIIIIAAAgggcC2BHWGbFe+ZwK917+jcM64lnW0A2B3jWpNPDOdSmDV+7etazXed4Gv1c8/ZtWuvFgCOMBnC//36Nz3drnG8B4Dt/WPzPO48Y3q35apzxLDmcUx9b/TYtVxudCy3f4AJztuANQ0BBBBAAAEEEEAAAQQQQAABBBBAAAEEEEAAAQQQQACBxCQQ70HgSmWK3xFZvInpQ7Rz7dv/d73/9e9KnyaFBn78cmKbPvNFAAEEEEAAAQQQQAABBBBAAAEEEEAAAQQQQAABBBBAAIF4Eoj3IHA8zeuOHmZEv3eU0awzG5+tce1KKpQvp2pUKu1dezg+x2csBBBAAAEEEEAAAQQQQAABBBBAAAEEEEAAAQQQQAABBBBIHAIEgf+Fz6lsiYLxftfihfPLvmgIIIAAAggggAACCCCAAAIIIIAAAggggAACCCCAAAIIIHB3CxAEvrs/f54egQQt0KVnr3iZ3w+fvB0v4zAIAggggAACCCCAAAIIIIAAAggggAACCCCAAAIIIJAYBPwSwySZIwII3N0CNohLIDduvwbOnD0Xtwt9rjp95ozP3rU3L168qPi457lz52XHul0tPuZ8u+bKfS4L2F8jO3fv18HDR3XhwvV/vbzywVcKLt5Q+Wu3vzwIWwgggAACCCCAAAIIIIAAAggggAACCCCAwB0oQCbwHfih8kgIIBC/AqvWh+rzgb+pUe0qat+iUZTBv/xpqNZt2uIcS5IkiTJlSKf8ubKrTdN6Onr8pN7/3/fOOd9AamBAgHOsROEC6t65nQb/OUFzFi3Xx288p5QpgtX9zQ8VERkpt597wyceaKVyJYs6u0++1ltnz57VZ2/3UJpUKd0uzrsNho2bOlszFy7ToSNHlSl9OpUtUVhtmzWQv7+fXnzvM0VERDp93Xm59/L399dX772sc+cu6K9J0zVjwTKdPHVKadOkVtlihdS+ZSMFJLvyr47DR49p2NjJWrZmozOv7FkyqXblcmpQq4rC9+yPlYOd0NpN/2j42CnasWefApMlUwlT5r7jfU29zzhx1nz9OWGGM3f7wz57rhxZ1LxeTeXJkc173N24ltPJU5H6ffQELV+7SaciIpQ1U0ZVKVdSLerXlP0sbbvaZ9GqcR01qlXVvQ3vt1Hg5KkIff3zCC1YsU4LVm3Q4WMnnbsHJg9Uu/rV1LVjK5Uv5fl9chunxa0QQAABBBBAAAEEEEAAAQQQQAABBBBAAIEEJXDl/+QnqOkxGQQQQECKr7LQcbWcs3i5c+nsRSvVpkl9JU3q7x3KBmLPnDunzm2amWMXtffAIU2atVDrQrfqjWe66IF7PUHjY8dPaOSE6c517rF0adI4++fMGDYY62a+Rp4+HaWfs2N+5Mqe1dkM373PCbTanQXLVpvgdNRg5OBR4zV9/hITgK2sIvnzavvO3RpjgsJHzRye7NhG9zepp3PnPRnCPw0f44zpzsnvUvDzj78na+LMBWpUp6qKFshnArl7zfxnyAZ7n+3ygHON74///TBEe/YfUrtm9ZUxfVqtWLtRQ0ZP1AVjUqNCmVg5rFwXqi9++E0F8+VSl3YtdcIEn0dPnqVenw9Q75efVvLAQJ03GcLWqlndGk7A/diJE5o5f5l6f/WD3nquq3JkzeSd1rWcbKD8o29+0u79B9WqYW3ZoPXqDZv158Tpjq0N4tt2tc8inwn0026/gP3CxSM9e2vNP2FX3Px05Gn9Mna6hkyco2Gfv6nG5tduYmjHT5wyv9fmO1OtUraEcmbPkhimzRwRQAABBBBAAAEEEEAAAQQQQAABBBBAIIELEARO4B8Q00PgbhZICCWgT5isQ5spWtpkwa5ct0kr1m1QhVLFo3wsNnBay2S9ui1FUHKNGD9N+w8d8R4/duKkEwSuW+3/2bsP8CiqLQ7gfwg9tNB7770XpSO9CqIgIAIiYsVCsYKKgpWiPBUUBEGKNOld6b333juEDoEU3jl3M5vZZZNsQhIC/u/3bXbKnTt3fju7vOeZc28F5zarvqf3UkULhltv1aatSJIkMfLlyo4VkkFsDwKflaDmv2s3oVbV8mjXvKFpumyJIpLpGoDFq9ajrWTyPlGhlPOUC5evNcPo2vuvO7fKNWtm7HNN65u62p/L165j1cbtkhkcAN8UyZxtaGD42Kmz0GurW62S2a5eR06cxpYde03GrNV+eA4aAJ80a6HJOO7VvZMz0J4ra2Z888sfWCSB9Wb1ajjPWU6uKa9cv5Yi+fLiy+GjJIi73yUIHJHT+q07ceLMOXRs1Ri1n6ho2ilTvLB8ZpeNX8sGtU3WtO6I6LMwB/JPnAis2bQDDbu9j8A7d6HfsQE9X0RlCZoWKZDbDAmtDx78MHYaNuw8gGfe/BwTvn0fzepXj5O+PchJ9MGRF3p/ZZqYPORjBoEfBJPHUoACFKAABShAAQpQgAIUoAAFKEABClCAAk4BzgnspOACBShAgfsF1m/ZieDgYLRtVh+Z0qfDyg3b7q/ktiV5MkeA9K5k+MZ0CQ4OMYHY8hIErVGpHE6fu4Ajx085T3P42AmTUVy+hOtwuPVrPYE3Oj8HxyDHzurhLmTNlMEERDfv2OOs83yLRhj+eR+XALDuTJ0yJfSat+05CM2+tUr/d7qj72udrdUI3y9fvS6ZxBdRpWxxZwBYDyhaMB9Sy5DPuw86htz21EhyGQZYy507Yd6ROR08esIcUz50eG2zIn9ef/E5DOz7BhIm9FbKOpLvsSmgmdt9v/7ZBIBzZc6ApX8MRvcOrVCmeCGTIV4gTw4806Qupv88EGUL50WIZLp36PuVPLBwOza7xbYpQAEKUIACFKAABShAAQpQgAIUoAAFKEABCsRbAWYCx9uPhh2jAAViahjoB8ko1kzbPDmyInPG9Kgq88XOXLzcDInsJ3PkWkWDxCdOn5XgK3BOApmzZAjj9GnTyNzAjkxVq15U3nUe4vHT5zkP0SGWNeN3576DuC5ZxZXKlETh/LkkYJpIgsLbnFmx5y9eNsekTZ3KeawuZPBLY14uGyNYaf90E5kHeTx+HDPZBL+rVSyNJyuWgf26rcN1nuFXX3gGP4+bio+/+wkF8uRENamrWZrWXMNW3fDeL1zyN7vSp017XxXt+7nzl1y2Hzt1xgSLdd7l2fKZJEyYUAKChZ11InPSjN8EckyqlL7mGB32OUiGmraKfpahI2NDPwtrbmfdn1keBujWvpVVle9xIDB93j8mw1dP9U3fHihZNL/Hs6bzS43vP3oTtTu+bQLGy9dtQaPaT3isG9sbA2WY+MTy/YytEij3a2Lb0PRROY8G1YNDQiI8Prb7H5X+si4FKEABClCAAhSgAAUoQAEKUIACFKAABSgQdYHY+6+TUe8Lj6AABSjgUcAK4sZUUNjjSTxsPHn6nAxzfAbPNXcMiVyhdHH8vWgZ1m2RYWlrPelyRL/vf3Gu+/j44PN3X0HSpEmc26KzcOpsWFatdfzKjVuRXIbCLVYonwnglC1RCGtkXmDtowacJHYZIyW9BNP6v90dm3bsNkHm6Qv+xeylK9GtbUuUL1XsvnMUL5Qfg/q+idWbtmHVhq3QuYbnLFmJt7q2M/Pt3neA2wZrPuQEVuTVbX+wRmVtZezUObY14O2XOiC3BOutEqmTtGfP9Z00cyGWrdtsHS7X8gYyZUjnXC8mGclWSR0aOLbW+R77AsPGTjUnKZAzKxrWiTioW65UEaSXhyAuyfDl8/5Z41UQ+KIM3d6x56fmHO92a4enqjuGNbdfWZBk4Tfr/K7Z9EKrhmjX0jHft73OgSMnMHjkBKzdthf7jp9BtvRpULVMUXlooxi6tm0uGfOOrHU9put7A3BaHm7YuPuQs4lne36OmuUdw82PG9If6dM55g23Kui83sN+m4gVG3Zg9c6DyJYuNSqXKoz60t8OrRvJgwv2uxomE/qZVz4wh+t1ZUzvh8G/TsTitdtwTbKkT66cLJn8jgchtFJU+m/1ie8UoAAFKEABClCAAhSgAAUoQAEKUIACFKBA/BRgEDh+fi7sFQUoEA8E/l68zPRi7abtsIYP1g2TZy++Lwg8sM/rMmx0iMmE1ezSdH73Z7RG5ZJ0HtqeXZ93OeTGzVvYtN0xPPOIPx1BMWt96869qFimBDJKxrCWazdvwp6HrHPxapawDvNsn8/X5QS2FQ3K6pDIlaRNfWnm7NDfJmDkxBkoUaSAS4avFcDVdutVr2xeew8eweDf/sS46XPR+5VOtpY9L2aQ7Fotl65cva/CpSvXkFUyse3lpbZPI3/u7Bg5YToOy3DYfqlTOnd745QlQ3rJqj4EDapp1nSzejXxVLXKWLBsDTSAbC/6WbRqVMe+ictxKBAcfA9bDxwzZ2zTsHqE2ataSbNjf/qsJ07KQxRWpndk3b1zNxDLNu0y1V5sc/89qDv0Prfq1KvmmEfa3u6EGQvw0sdDcC8kLKP81AV/TFm0yrxmLV6F8cP6Q7P6tWyW4O++Y2FDuVttWee4GxQ2vLnu27B1F7r0HoRDp85ZVXFSgsgnF6/GVHktk6znoZ++6/L9DpJRCqz2CuVdiSkLV8jc3jedx9sXotp/+7FcpgAFKEABClCAAhSgAAUoQAEKUIACFKAABeKfAOcEjn+fCXtEAQq4CWgGcFxnAWtA1wqwZpHAaSLJ7tWXVQ4dO2ktQjN/dbjobFky4uXnW+HK1WtYunq9c39MLayT+Ym1JEua1NmfsjI3sJYVkn2rJW/oENRbd+8z69afOUtX4Msff8Odu3etTeG+X5b+d+31GSbMnO+skzGdH0oVLYC7Eiy7LEFZe1kvwSmtb58/uEiBvMiWKSNOnb1grxrucvq0qSWA7QdtKygoxFlPMxOvSkZn4Xy5ndt0IWum9Mb8lQ7PGP8p85Y493vjVCBvTlN/3VaHaTo5f/asmZAqVVhWpLNBLjxUgTPnL5qhnbUTObJm9qovTetVxysdW6P90w29qv+glXbvP4xu/YaZALBm8v47bjBOr5mGbbN/w9e9usnQ4z5YsWU32r/Z33mqWb99jb0Lx2LmzwOc2wa+09Vs0+0ZQx+M0J36PWr80vsmAFyyQG7MHfklTq2agpUTh+GjV9qZ4/+cuwwDho5ytuW+MHLKfFy/fRevt2uGEZ+9jVED30Ny+S3REp3+u7fPdQpQgAIUoAAFKEABClCAAhSgAAUoQAEKUCB+CTATOH59HuwNBShgE7CGgbZtirNFnVNWS8dWTVD7iQrO87ZqWAd9Bg6TIZK3SiZqDud2a6FSmeKYI8Mmz1q8AtUrlnPJyrPqRPd95YYtJrPx+0/ehY9k6Vpl1MS/TfaqvwRnNZBZtWxJLF6xHr7JU5hs2WMnz2DJyg3QgLEGOyMrOu9vicL58c/qTcjo5yfzDefAhUuX5Zq3I63syyhZtPZSXIamTiPZtBNkSGWdp1TnQz5w9BiOyzzJ6uFN0WFs28qQ1j/8PsnMRVxHzG/IcLXT5v+DlL4pUL+m5yGANauyVtUKcn3rsO/wUQkW54E3ThVlaO+Fy9diypwlCAwMRKG8uU2weeuu/WZIXZ1r2So6J/CG0GCxtS1b5kzG2lrne+wJHJch2a2iD1rEx7Jg2VqESOZuwkSJMel/A5xDLKeVDPWC8sBBIpk3+51Bv5hA8NkLl5BFHhrJkdVxLXcDg5yXlD9XNuTKnsW5bi30+24Ebt4OQJE8OTB/7PcyN7djzm8/+T6XK1nEzGc96NfJ+N9fc9HzpbbygETYUOZWG/q+ZtIwFJfvtnuJTv/d2+A6BShAAQpQgAIUoAAFKEABClCAAhSgAAUoEL8Ewv4rd/zqF3tDAQpQ4KEKrJTMWg1Mli9V1KUfOqdmvlzZsXbzTgla3j8nqB7TqlFtDBs1UeYjXYlnmjzlcnx0V06c0fmJz5q5Su0BYG1Ph4HWIYzXbt6OxnWq4cXnWpiMVh3a+HZAAFKnSomalcuhbQvvsyJ7dGxjArBT5y812b96nsL5c6NDy8YuAWjdrkHaPj064a/ZizBChme+FxJisnOfKFdSztlIq3hVNEj9Zpe20Pl5fxwz2bRRRM754jPNIgymN61bDcvXbZLzL0anNs28dnr35Q6YPGuRBO1XYdqdfyRbMyE0CPeebHcPlv80zjH8tnUhLWT4aA24s8S+gP/lsOGZ06QMG/Y79s/s/RnOnLtkKmf1S+UMANuP1t+ES5cdGfRXrl43QWD7/oiWNUtXs3y1vPvSs84AsP2Yd7t3wFejppqM6Rkyf3f3Dq3su82yr8wl7ikArDtjs//3dYQbKEABClCAAhSgAAUoQAEKUIACFKAABShAgTgRSHDgwIF7BQoUiJOT8SQUoEDMCpw6dQpJkqZEihS+Mn+rj5nDNWbP8HBbi6khoB9mRvHDFNQ5TDV7MGWK5NHuhrZxXeYTTpE8ORLJXKuRFR1G+8atW0jlq/dkWLZyZMe5778l/U6SOImcM/ZnLbCu0Vf67B5gd+/X47p++5bjyiR5PN6V2YtW4Nmen5t+LZUs2CrlS0S7j32++BE//DkTWTL44fCySc52dLi6JYY7AABAAElEQVTlgnXbm/XRg3rhuWb1nPusBc1yT1Pa8VDDgLdexDsvh83ZPUkeJujc9xtTtXeXZ/BO9/Yeg8FWW/b3g0dPolSTLmbT5CEfQ4eythfNVn+h91dm09l108Ntt+Zzr2HDzgN44/nm+OrD1019nfM6axVHQLhzy3oY/kUve9PO5Qfpv7MRLlCAAhSgAAUoQAEKUIACFKAABShAAQpQgALxRuDE8YNgJnC8+TjYEQpQIDwBK4gbU0Hh8M7zuG3XrOQHCQCrh7ahmcTeFh8Z9jZNFOqH124KyVqMqxLVa4yrfvE8DoHUMqSyVfQBg/hYWjWqg5kLV2D60rX4etQUDP1zFhpWKYP6NSqhQa0qyJY5+sNY7zt03HnJXd77wrnsvnD8jGP+7eOnz7nvMutlixX0uF03xmb/wz0pd1CAAhSgAAUoQAEKUIACFKAABShAAQpQgAKxKmCCwAmGx+o52DgFKBBLAidbxlLDbJYCFKBAPBHIkyOrsydnzzuGXXZuiCcLiSVL/vfvP0GDGQswaMQEHD19Hn//u8688NkPqCXZy291fRYNalaJco8PSKawVeau2Ggthvt+zv+Kx3063Hl4JTb7H945uZ0CFKAABShAAQpQgAIUoAAFKEABClCAAhSIXQFmAseuL1unAAViQIAZwDGAyCYo8IgKZMuSCQkTJUZIUCBOnj3v1VVs2r4HF2Uu4WRJEqNm1fJeHfOglRInToQX2jRBh9aNsefAYZmnegtmL1mDfzbvwr+bdppX/9c6oPerL0TpVCmSJXXWn/Vz+JnAViWdozs6Jbb6H52+8BgKUIACFKAABShAAQpQgAIUoAAFKEABClDgwQUYBH5wQ7ZAAQrEkoA1DHQsNc9mKUCBR0AgkQwxXjJfdmzbfxTTFqxAHwmi6hDe4ZWQkHto++anOHXBH+0b1/IqCGxvTueIfpCic2EXL5zfvHq88AzOX/THKx98jfmrNqP/8HF4ulFtFMyb0+tTFC2Yx9RNIPO+16hSFhqsjc0S0/2Pzb6ybQpQgAIUoAAFKEABClCAAhSgAAUoQAEKUCB8gfDHBgz/GO6hAAUoQAEKUIACcSbwcttm5lw7ZX7cVRu2RXjebbv3mwCwVmr61JMR1rV2ZkznB4QOl3z+4mVrs+t7OMHh6zdu4fMhv5rXhq27XI+RtUwZ0mHkoPed25ev2exc9mbBChjfCwnGv2s2eXNIlOrEdv+j1BlWpgAFKEABClCAAhSgAAUoQAEKUIACFKAABWJMgEHgGKNkQxSgAAUoQAEKxIZAh1aNUDh3dtP0OwN+xOlzFzye5uatAHz87QizL1HixKj9ZAWP9dw3anZtgeyZzeaN2/e67zbrw0ZN8rg9VcoUmCIZygNHTsbgXyd6rBMsAVwryJxEhqi2l+S24Z5v3L5t32WWa1Qui/yhfft0yGgE3LlzXx3dsHL9Vvwybhqimsn8oP332BlupAAFKEABClCAAhSgAAUoQAEKUIACFKAABR66AIPAD/0jYAcoQAEKUIACFIhIQIO0X/bqZqpoNnDDTu9h/j+rcUnm/dWi7zoHb9vXP8bSDTtMwHXEZ28hdUpfs9+bP09VLWuqTVm0CuOmzoMOKx0cfA879x6CBoA//vGPcJt5pkENs2/Gsg0YMHQUNBhtFR0O+u3PhkIahA7pXKV8SWuXec+eJSMypE1jlucsWY3AIAkYS9Hza0mRPBm+eb+HWd687zAav/ge9h486gz2Xrh0GWP/moOG3T7E2wN/xt8Llpu6UfnzIP2PynlYlwIUoAAFKEABClCAAhSgAAUoQAEKUIACFIg7gQQHDhy4V3BBgbg7I89EAQrEmMDJlqeQJGlKpEjhK0lmPvIKf57MGDspG6IABR47gdu3HJeUPEX8vrR/Vm1Ep95f4eIVR/BXe5s5fVqcu3TF2fGEPonw5zd90Tw0MOvcIQt9vvgRP/w5E1ky+OHwMtfM3nMyh3DJxp1x45YjGzdliuRI5OODK9dvmCbKFc4HDcJqGfDWi3jn5efNsv4JDArCuxLo/XXqArNNg73F8mTDjdsBOHYmLGt56Ac90K39087jrIUu736OifNXmNXkyZIhqQS9l00Y6jJ38OCRf+LjH8YhJDjI1NPAcYa0qbD36EmrGbzUugGG9H/H+W/BVel71iqtzP4fPnodXds1d9a1Lzxo/+1tcZkCFKAABShAAQpQgAIUoAAFKEABClCAAhR4+AInjh8EM4Ef/ufAHlCAAhSgAAUo4IWADu+8esr/0OXp+iiYK6s5wgoAa+C1Ze3KWDhqkMcAcGTNZ86YDismDkPtCo5MXQ0GawA4Y7o0eLlNIywYNxjZpY6nkjhRIgz99B1okLdu5dJIJkM+7zp8whkArlm+OOaO/NJjAFjbG9z/bdQqX8I0fTsgwJw3RDKH7eXtbs9j5YQhqFelDHwlO1gD4SYALHMZly2cF9OGf4phn73rDADbj41s+UH7H1n73E8BClCAAhSgAAUoQAEKUIACFKAABShAAQrEvQAzgePenGekQIwJMBM4xijZEAX+0wKPSiaw+4fkf/kajpw4hbRpUiFLxvTwlezdmChXrt3AsZNnkCFdWuhwzVEtOqTzoaMnkCBBAuTMltkM6exNG2cvXMKpM+fNeXNlz2KO93ScDlN99OQp3LlzF3lzZYd9XmFP9aO6Lbr9j+p5WJ8CFKAABShAAQpQgAIUoAAFKEABClCAAhSIHQHNBGYQOHZs2SoF4kSAQeA4YeZJKPDYCzyqQeDH/oPhBVKAAhSgAAUoQAEKUIACFKAABShAAQpQgAIUiIYAh4OOBhoPoQAFKEABClCAAhSgAAUoQAEKUIACFKAABShAAQpQgAIUoAAFKBCfBTgncHz+dNg3ClCAAhSgAAUoQAEKUIACFKAABShAAQpQgAIUoAAFKEABClCAAlEUYBA4imCsTgEKUIACFKAABShAAQpQgAIUoAAFKEABClCAAhSgAAUoQAEKUCA+CzAIHJ8/HfaNAhSgAAUoQAEKUIACFKAABShAAQpQgAIUoAAFKEABClCAAhSgQBQFEkWxfrSrb24FlM3qeviWM0C5aa7buEYBClCAAhSgAAUoQAEKUIACFKAABShAAQpQgAIUoAAFKEABClCAAtEXiLNMYPcAsHbZ07boXwqPpAAFKEABClAgOgJ+4wF9sVCAAhSgAAUoQAEKUIACFKAABShAAQpQgAIUoMDjIRArQeDOOR4PnPhyFdkkX7taaiB5gvjSI/aDAhSgAAUoQAEKUIACFKAABShAAQpQgAIUoAAFKEABClCAAhSIrwKxMhz0G5WAUS2AXzcBq08Cuh5eGVklrI5mBsf3IaLL+wJ1sgN50wD7/IHlMqT1llvhXd2DbS+QBPijAVBRguo+Eq6/eRd4bS4w5tSDtRubR7+eF7gVJJ//idg8C9umAAUoQAEKUIACFKAABShAAQpQgAIUoAAFKEABClCAAhSgAAXCE4jxILAGda1hnl8qD+grouJeR4/VTOLREjyOb6VXIaBfTSAoBDh6BXi+lGTnJgbeng/872jM9/abakDJLMDny4DNF4AifhJ4vhrz54lui+8WBDIkB97fHtbCy/J5Xw1gEDhMhEsUoAAFKEABClCAAhSgAAUoQAEKUIACFKAABShAAQpQgAIUiFuBGA8CRxb09ebyNIt49HBvasZdncbpgUFPAdN2Ay9IUPb2Pce5Z9QFhjYEdk0AlsVwgFYD4iuPAZ/KObXMkkBwfCp18wAFxMUeBK41LcwmPvWVfaEABShAAQpQgAIUoAAFKEABClCAAhSgAAUoQAEKUIACFKDAf0UgRoPAmgUcUdGhnrVsOh15hrC21W2to358+PteJeDCTaDrctcgZ++VQFPJEG6ZT4LAW8J6+oIMGV1NMpoT+QAb5XrtmcItMgK1ZN+XkkH7WhGgsARSz1yXYPJO4Fgg8GQq4FnJss2dFsghcwEPLQdMPgD4StZxkzzA9zsc9fRsxZIBL0obOeSYnRIkXijDMHcsDPy0C9h7B3grv2QrSx8G7Q/rWzvJLq4kAea3Q/v7pWQ0774IpJO2qkq/vpNhvDfKtRZKKp+TtJ1Lhr7W/s06AiyVDOjSkv3bpSjQSK5bi/ZvsZxXg9Tdpd835RqGHXbs079FpJ0Osj2/ZDKfuCaB9EPA2hth+/X8O86Lq2RYN5LhpFPIXTlfzjVe3FgoQAEKUIACFKAABShAAQpQgAIUoAAFKEABClCAAhSgAAUoQIGoCcRoELh8tvBPrvMD24O6uqyB3vAyhyNqK/yzxN6eYpkcWbnXJFBpL/sl0Pri3zIEsgQ+rTL2ScdQ0RtPAnelfnsJcraUoGbjBTKUtFSqmBno+QTQoIBj/3Vpo3UxoGYeoPx0IHUSCe7K+bToXMC67HccKJ4OeLOqBEf3OYLAZVMAM1tJfQnebpGAqZr1kXPr+kw5nwaBn5aAsJ8Ebe1B4Go5AR222QoC63KiBEBSCTKfkGxmPwky15U+THlarkva2HpWgs/STrcKEgSfBZy6FdY/7aP2b1tolnKHksB5CSBbQeCG0ufRTYF7Um+7tFM1lwSKpZ035gNjT+nRjr7cugskkbtxtwSD88sx7cvIurjGx2HBHb3mXwpQgAIUoAAFKEABClCAAhSgAAUoQAEKUIACFKAABShAAQrET4EYDQKXmxZ+YNceALYodJsGLq05hK3t7gFja/vDes8imbSZUgJnbdmr9r6Ms2WsdsoumbgSwPxgMTBQgrVaNCv495bAh5Itaw3trNuXSKD2jY26BHwrx7wrAdwaqYF5l+QlQdLLXSSYK210WuWoo0Fge3m3nARsJRDcdDLw7xXHnjMvOILA9nreLKeRQHGZ0RLMlQCvFg1ka/ZvTflMLwRLlrAEo7c9D7QtJoHlpUA96d/ceo7hoHU5vDKgJqBB7oYS3D4sgd7U0s7CJsAXtYHZfwL+IUAyCT6nl+soPUoCxbeBbHJXbu8IPFOEQeDwXLmdAhSgAAUoQAEKUIACFKAABShAAQpQgAIUoAAFKEABClCAAuEJSEguZosGdq1hn62WNagbXtGhoe0lvgWAtW+pJSgpibK4K8HQyEpLyZg9Kdm0VgBY62vG6yZ5NS3oevTQ7WHrm845lvOkCtsW2dKTuWUI6sNhAWCt/0uo9b17kR0dtj+R3AW3A8MCwLrnhVWS4fuXIwCswz+XkH6dkwzfgm6B6LBW7l+q4OsI8o/e6ggAaw3NpP5R+phDhphulMVxjA5zrYFiDQBrOS3p0ocuAZkl8M5CAQpQgAIUoAAFKEABClCAAhSgAAUoQAEKUIACFKAABShAAQpETSBGM4GtU2tg157dG5WhnaNS1zpfbL8flgClBoBTy9y2kRWdP/doaFauve7hy5Llm8e+BQi0BWoDJTiqJaFGm70sWSVIOn+/a2X/0ECq69aI14KlHzP2uNbRbNwhkg3cWILa2qVbEiTOINm6u0OD1a61Pa8VT+vYvk+u3V42+zvWCuj+0IcA1p2015Bhs8Ujcazcna7n4RoFKEABClCAAhSgAAUoQAEKUIACFKAABShAAQpQgAIUoAAFHjeBGM8EjmieX0947nMCa/BY24hPRefxPXUNyOvnuVcTagAfF3XsuyFDHqeQzFb3otmuNySYHJNFA7M6lLK9JPAiiFwso8wBLENcW0WzhkNsAWndPlQCwLXzSUawzMvrOwLIOBpYetg6wrv3K2KhJZVbH9MlcWy/Grr/kgxBfS6cobYdNfmXAhSgAAUoQAEKUIACFKAABShAAQpQgAIUoAAFKEABClCAAhTwViBGg8CbWwHuQV3tSHiB3fCCvdpGePu8vbCYrrdEAqDVcwOVZIhje2maQebJLQkEhA4VvecCUFSCrEVsWcM6D2757MC+i/YjH3xZs4vLSdDcXp7MYV+T4Zcl0Jo6meu2im51XPc61ipInXUyh/E0W+ZvHQkK+7jdMRHFnDdI/3SY6Rq5XM/QQNY16LxZrFgoEBsC287K8ObyGr0l7BUb52GbFKAABShAAQpQgAIUoAAFKEABClCAAhSgAAUoQAEKUCA+CsTogLvuw0DbL1gDu/rSOX+tIZ/tQ0bb68bH5YGbgWYyNPLklsDXq4CdEuAsnR7oKxmz+yW4O/GIo9dDtjmCwmMaAJ9KvVsSHO5VQYZSlnl1B8u1x2T5Q+YUHtIQ+K0qMF6Gcy4iwyu3KeF6hh0SxG0q/X5fXmtkuZYEozUrObKic/JWk2Dtq3mAs5Kp26aI44iEtiDwGcnerS77G4nDIVne75bprHP7jpEgXBf53I9dAeYcB57MDLxZGZi7H1gucyezUCAmBTTw+z/5ro45dX+rncvev41bKEABClCAAhSgAAUoQAEKUIACFKAABShAAQpQgAIUoMDjKBCjQeBuaz1nAtvhPGUK2/dby9pWfCqHJaO2wV/AsNrA9xLgTSpyV24DGyTY9Po/wAnJeNWyVwKhz06XgG8dYNZzjjl+NQD64kxgiQSOY7IMPQTkWQ10ryiB1nKAzgc8bTfQqphk2oae6LtdEnjNCXz5lGPDCenL3H1A/YIR96TPCmBUQ+DHJo56GyQreNFBR9A3nQSC/eUEUySQ21rONbct8O0qCXZvvb/NdzY6tvWqJkFxGQY6QALDs/cCb6y8vy63UOBBBLrP9Rz81TY7ycMPLBSgAAUoQAEKUIACFKAABShAAQpQgAIUoAAFKEABClDgvyKQ4MCBA/cKLigQY9fbOYcED1s8WHOaLRzfgsD2K0ouYyCXTAGsv2nfev9yPgl6ppCA6c6A+/fF5BZ7fwZLtmOPSkC2kY5ArXUeHZ46ifRluwSKo1IKyXGQoZv3SxDcU9Ghrsukkmu87no+97oSM0eFlDJEr5jdlvZYYkbgZMtTSJI0JVKk8EXChD7yimiA7pg558NsRTN9tZTO4njXvxFl/1q1NAj8S2Nr7dF9vysjCySW+bwf70/50f18HuWeJ5N/M7QEdHO88y8FKEABClCAAhSgAAUoQAEKUIACFKAABShAAQo8ugInjh+ExuZitIw+KVmeZxzzAG+R9x/WA09IYDi8DGD3OvE9AKxYGsSMLACs9TR7ODaLBtxflqDv60sd/amZRoZtLg5sOX1/QFYzlKNT3Id4dm/jmmQEezOssyQAY60MGc1CgegK6Py+PUIzy3+SIdZ1eGf7Nm1Xg71VsobVs86l26JTrMBYvsSSde8rc3BncHzncqUNa+2dhTIE9THZ7/Zr2lj68n19oMQYICg0NV9j9KXk2EqZgVfkGlJIu1q0TsNsklFfz7Hu/ne9/K5+Lb+lS/yBrHKeJvLd7/sEkF4eRjks25rKSANP5wa+qB125MlrkvE/DdB+aLvWtUytIccXDqunS0dklIKiUxzbtj0NFJbrjOy6dP98+a0Z38Dxe2+1OEI+o+93AItbAz/LAz1Tjjr2HNUfgdBiWU1rChTLaG3lOwUoQAEKUIACFKAABShAAQpQgAIUoAAFKEABClCAAjEl4Ba2iJlmy0ngwV40MBxeENiqq3U0+1cDmyzeCWyW4E9SCSJteNExNLWfzDu857wMD73Yu+NZiwKPioA92BteANjabl2TFTC21h/k/csqwCWZG3uqDMFeQ37f/pLAZ0UJrmq5HRrcHFTVsW79zSxBYy2n78oxfjIkfAnJ4JUHSA7KkOzfyrDt6ySrebyMmpBIsum1zh3J8vVUVh2XoegXyNDrkv08TgK4V2Rkga8kIL5mOrDwWSBfOqBlLmDoQfkNLSPBaDmXlt+3SoA4UH57JViuReLFkEvApH33B4HnHNAajhIcmqkf2XXpfm3/w5XAjFYy0oBkKGsJlIC3BnzvSTstCskIAKEB+LYyxLyWH8oBGUNtsqZ0bONfClCAAhSgAAUoQAEKUIACFKAABShAAQpQgAIUoAAFYlYgVoLAD9JFDQazeCewTSI6GkRvKEGgAmmAHRIUXnbVu2NZiwKPioA9AKx91gxgHQLaPcir261SLjTwaK3b91nbvHnXwGl7mVO7ZRFH7edLyrJ85z6UgObsNmGBz4wSyLXqeGo3pwQ77fvTJgVekyzZfReA4pIVHF4JkUDqF2vley5B05GNw85XKL3Mzz0XmCAZt10lqPpqeeCnw8Bv24DPawFnb0iwdT/QMz9QRLJ6rVJaHhSZfE7alN+JnPKboSVYgrbjpa7u2+Y2XHxk16XHL5Wg9lgJOHt60EcD5RW1kpTPLgGf7JY5y4s6MpgdW/mXAhSgAAUoQAEKUIACFKAABShAAQpQgAIUoAAFKECB2BCQ0EXcFB322b142uZeh+uRC8yX4O+PRxgAjlyKNR41AfcAsGb7aqk8y/Fu/2vNF6zbNtt+b6xj7HWju5xcMu9fkCDm8uvAAQlqRrdkS+U48qJb0NW9vQvyoMdSCdi2lmCulWmrdTS4WlaCtqtOOY7IIQHdPhKoHi4ZvToM9BgJBktyMV6T4LC9NJaAdqEkgD3zd720sUX60a6AvaZ3yxok/qgw8KkEgY9LMJiFAhSgAAUoQAEKUIACFKAABShAAQpQgAIUoAAFKECB+CEQZ0FgzVhNMNz1ZQ0FHT8o2AsKUCC+Cay1BXO1b5rRq4FhT0UDw7qvu2TIWlnC7kNEezouqttyhWbQHrUFPS9INu3zf7u+rmsUNrRclWVdv35HhmyX7N+RO4DkOj9wBFnAeugpCehq8TRscl4JJO8J3a91uklGcGofmTt4jTwUshfoLcFZK9tX92vRkZ47FgT+3A9olrGWGbLcTLKF86V1rNv/RnZdWveNSkBmCSx/JsNChzZpb4LLFIgRgaCgYKxcsRx/jBuDOXNm4dixYzHSrr2RDRvWoXixgjh69Kh9c7xcnj3rb9PXW7c8P0kSl9eyYvky05czZ9x+sOOl3KPdKW8+1+vXr+GvvyYhIEDmDvCyeNNuZE0tWbIYe3bLcA9uZf/+/Zg3bw4uXbrotsfz6syZM8z9FJX+e27p8d/aufML+OD93o//hfIKKUABClCAAhSgAAUoQAEKUIACFIi2QJwFgaPdQx5IAQr8ZwV+kSGQrUxe690K8HpC0X1jQrNjO0m2bHSHgfbUtrXNCp66RzyrZQPsr8S2X1cdgjnjGHmNlQzeGTIvsGQSz2sI6DzeERWdV1dLAgkYeyrOvsjO9DJ2de+SwIjjgI/U7+aWBazHB8i8w81lnt71N4FNp4FrEpT+8yjwrASMb4czJ7H9mnTZfl3aZppkwIAqMl+xxH/mSECZhQIxLXD69Gk83aop3nuvJ/5duhSjR49Cs6YNMHDgAITYvwQxfWK2R4F4LnDjxnX8+usIHD8uP/yhZd++ffj88/4u26x9sfn+af+PMW/+HJdTaAD4hY5tsWrVSqRLl95l36O8MmniBKxbJ3M1PIbl4MED5p66e/fuY3h1vCQKUIACFKAABShAAQpQgAIUoMB/TyDezQn83/sIeMUUoEBEAhrItYK59iGfIzpG92kAOTbKocuOVnPbMmd1WORXrclvPZw0p/zSjqsnwVzZl1UyeLOnBhKGE9i1H671tOgcv+7lmGwrEpqVbO1rLUNVv7NV5jHOA2SQoLB7uR0IFJas30bpgL8lYFv+qqNG/Xyyvs+9tgStI7ku64iGkl3cSdr7RP6beIvc1la+UyBmBL4Y0F8ebEgoAaYl8PPzM41u374NXTp3RN68+dC27fMxcyK2QoFHTOD69RsY/P03KFKkKHLlymV6X6FCRWzYsBVJkyZ9qFejD2+80r0LypYtj379PpOHmbz4R++h9tj7k//++29o2KgJKleWJ6Aes6KBe72n2rVrjyRJZJiPh1j+2XMdb808je195Ek1FgpQgAIUoAAFKEABClCAAhSgAAWiJcAgcLTYeBAFKPAwBEpnkWCjZPha2b6e+qD7X5WhkWOjaObsRAmWVvEFCkYhqalhVpnHOEfUe5RJzlNNgsbTDgGvSGZvYhnuWcv2s5LJewvo4PbfRa15g613R+2wv1ZmcdsiMofwOmCnzCfePq8jmzdEhrR+kPJxNenrVGDIgQdphcdS4H6BTZs2SkCigzMArDVKlSqNevUaYPu2rS5BYB3Wdtu2bUicKBHKSzCsRAlJj7eV06dPYenSJTI07SXkz5cPtevWg28KD09M2I7ZsWM71qxeZQIilSpXRrFiJWx7wxY3btyA8+fPo3HjJs6NY8b+jmRJkuK5tu2c2+bMmY2sWbKiXHlHuv7NGzfwzz9LcPjIYeTMkQs1atZE+vTytEZo+fvv6cifvwCuXbsmwb316Nixk7XL5X2pDMfrf9kfLVu2ctluX9Fr2ShtBAUFoVTpMvcFsYKDQ7Ds36XYs2c3fH19UaFipfsMtb8LFy7AyVMnJPhYTFwS209hli9cuICFC+bhojgXKFAQ1atXR+rUbk+t2I7y5ryBgYH4999/sH/fXmTOkgVVqz6B7NkdP6yaETtr1kzUrFlbjNZBA5A9erxmzhCZr1bau3cvVq5cDj1HsWLFUK1aTfj4yFMwoSUq13NIMik3b96Exk2bY/GiBTh65IgEaHOjSdNmSJjQB4sXL4Bm66ZPnx7NmrVAmjQOF83A1M9XH2qwAqY6hLJa16/fwOWe0G5pdu2aNatMD8f8Pgr+/pfQvHlLnD171txPTZo0NeaHDh2U78RWNGjQCAvkMzl58gQKFyqCp+T7Y7/G0Et1vmmWvd4LO3ftQOZMWVC9Rk1kzSr/mHlRLl++gu6vdEWmTJnx7XdDkDix4x6JyjXeunUT8+bOwYmTx1GwYCH5vjdEokSh/wiG9iG872Z498PaNWtw524ASpYsjSWLF5r7pGTJUqhdp67TXJsO79qt/h8/fgwjfvmfXF8mNJfP0DdlStMj/X35R35frsp3VX97qlev4dJuVO6j0Es093NEv2lWvatXr2Lu3NmoK79p2i+rTJ40Ua63FIrKfa3lnvwPAR1aXx+kSZkqFcpJkL5kqVJm3/RpUzH+z3FmeYK8q1PlKo5Ad3gmWvnw4UMmM1rv07ky9He6tH5yvzc37UT23TKVwvkTLH09fyecYUrCOYabKUABClCAAhSgAAUoQAEKUIACFHAVCPsvXK7buUYBClAgXgpohq8Gej0V3a77NVgcE0XirBh5Alh8GPh1kwRdZwHbJAP3Cwl4JrU9QqNz52od+2ujDLcclTI69Dz2Nq4GAB9VBtbIOV+fD/x7RObw3SvzHi8GSiST/rjGt7w+nWb+3pWhpudLEPhpGR46vBKV68ohcYxPJGv7trTLQoGYFChStBiW/rP4vjlFBw76Bl8O/Np5qi+//Byv9ngZ+/buwdZtW/D8889i3Lixzv3Llv2Lxo3qY9XKFbgpQcMffhiKF19sDw0YhVd+HfkLOr3wvARoHUGOdm3bYMb0aR6rnzt3Fu/3fQ/2eXq/HvQFPvvsE2f927cDZA7PXjh/QcaIl6LD+D77bGv8/PNPuOzvj/Hj/0Crp5tDg1tWGf7jMLzx+ivo+dYbWL9+rbQv47m7FR2etmfP102gMJEEwD2Vn34ajg7tnzPBnwMScHz9te745OMPTFBI6+vwry936yxDCffD5cuXsXWrGLZrAw1CW+XKlavo0KEtBg/+FqdOncTYMaOMubVf3w8c2C+B8PoyD+xcXLlyRZwHo70cowEwT8Wb8+pn9FLXTmYIcHWeNXMGnm7ZHJs3yQ+zFA2ADfi8P9o/3wZDpG/6cIAWb3z1+p5p3QI7xVyvqU/vd/Heu29BA9Naono9O3buRH8ZGrmrZKr/+89SHD12BP36f4S3335DfLtg8qRJOC/XoJ+H3k937sgPvRQN1Oo12Ic412vVbfruXk6eOGH6rNu3bNmE/fvlCSUpJ04cM8f4+18267t27cTHH71vPnudv/nggQPo3fsdvC33i/1cpnLoH31I4I03XjH37kX53KZOnSxGzbF79y57NY/Leo+/KccGyv304/CfzcMEVsWoXGP755/DkqWLcEQejtD+v/XWqy79jei7Gd79MG/ebPTv9xFe7NTeBC137dkl19kDv4/+zeqieUAivGv3l++o3UCX78qDA1pWy4MiLVs0wwoJsB47dlTuobfxsXy/rBLV+0iPi+w3zWpb3y/JQwB6r+h9YS+DBg3Axs0bnJs++eRD9Or1Ns6cPYMt8rBCO/mO61zrWvbs3S3zOu80yzt37pAg+SmzHNn9sFvuMfP9k9+XSRMmyGcm/2NFSmTfLVPpAf8cv3QXE9b6Y8amy7hw3fFZWE1eDwjB35sv4/eVF7HmoPwPqdCi9/3MLZdx5nIgpm30x8YjN3H+WiDm77iKG3LMrK1XMGbVRRy+cMc6xOU9KNhx/OWbQVi46xpGrbiITUf1fzFKQFyOGb/mEiZv8MfVW64BbF2fve0K/lh9CduOO+pbDa/Yfx2Hzt/B0t3XzPmt7RFdn1WH7xSgAAUoQAEKUIACFKAABShAgYgEPP+XwoiO4D4KUIACcSigQ0D/b7Nk34YmIOnQ0Gao57lhGcFW9q8Gf636mg0cU8Hgpksc2b/lMwLf1wEKpLsfQOvYy3PSlzHZ7FsiXg6S3e5tbGgG1JJM3UX1Zd7dtUBDCf6mk0d3motFv+pAqqQRtxneXp2LuENuYO15oGI4AXXrWPc+RXRdHUoB0w9Kf69YR/OdAg8u8Mknn6LbS13QqGF9yXJtKRmNjVG2XHnJqgwbXlbn5xwvAd+xYydIBnAFc1INQGjwyMq2HDd+rAQwO+K9Xn3N/q4vdUed2tWwft061Kn71H0d1eDZkCHf4+dffpXMUPnCSRk16ld89dUXkpVY35n9Zx2omakaLNEAZJWqVU3w0Nqn2ZiazbtjxzYTXKxc+Qmz6ysJ0OgQ1yN//R3Jkycz+zQAqf2eMnWmM/NRM4xXrd6ItGkdWaNbt8iPYmiZM3ummQN20KCvUbu2/EB5KJr19+MPQzDsh58kU9BxrTu2bzcBoCeerIaGDRuLw1oJgp7AuPGTnBm2Xwz4FJpl2qLF06bVcX/8bgKSU6fNcmaF1nuqljNYpJUmTBiPXDlzYczYP02m6fXr11C/Xm3Mnz/XYxazN+cdO3aMBHSPicnfzozYj8Tom28GYsLEKc4r1oDysuVrnW7e+P6swfGOL6Bv3w9NO5pJrYH/vRIQK168RJSvx+rMq6+9iRqSPatF700N6DVu3BTffDvYbNPPpF3bZ7Bh/XpUk4zRqBbNLq9RsxaeqlsDQ4YOd96j4bXz5lvvOO+PxYsX4a03X5UHIpabDF/3YyZMHC8B9o2YOXM+MmbKaB4UeO3V7hg85DuMHDHKvbpzXf179eppMqH1HsmQQf7RjGbp/spr8n133Hf6/dbh35cv/we1atVBZN9N65Tu94Nu1+/SiJGjTXaxrvfp8x6mTPkLnbu8pKtyP0V87ZUqVTbZ9Doc9FtvvW2OuXnzJj76sI887NDRuU0fomgvD6K0atUG5cqVi/J95M1vmjl5FP6cOXMG06b+haHD/oennqpnjhzxy08YLg/EtGvbHh988DHKlCmHXu/1xBdffuUM4EdmYnWhfYcX0LFDJ2sVkX23nBWjuaAB0zdluOj2JdPg7PUg9F9yDjO65EWeDElx0v8umv96GDVz+yJP+iR49+9TeLp4GvRqmAVB8nzHszNOI2eShHgiezI8W85Ptt1Dyykn0TxHcpTKlgzHJLjcZ8l5bHi9AHKmS+LSw8Bgx/FFfH3Qskhq3L4bgtfl3K9K+4cu3cETeXyxXALLP0uwd/5rBZAkUQITHG475igqZE2O3NLeMAkyty2VBu82kP+xKGW4BJI3nA1AUb8kqFfIkVke0fW5dIgrFKAABShAAQpQgAIUoAAFKECBCAQYBI4Ah7soQIGHKzB6C9Bjo6MP9iGgrUBwFdlfTgKiVrDXXl+Dxtb26F5FQLfIj/xJMo9/iqCavxdtRFanugRsF8jr+l0gmYyGaQ0L7X5aDe6G12f3c3ztFvN6UYLr+rJKZNflab8OQz2rjdWC63vvJwF9sVAgqgL58uXHzFlzJVAzGdOnTTHZsjlz5kSv3h84A5o6tKsOv2oFgPUcDRs2kqzZW7h9+7YZctcKXmkW2JUr/iawlcI3JQ4c3O8xCLxo4QLkL5DfJbjWSAI/3337lWTM7YHOvWov6dKlR5my5bBOsnU1CKyZx02aNMPNmzegGZgaBNYho8vLMNB+fmll+F5/M7yxBmQ0AKxFh+ft+tLLeO7ZVjJk8B4ThLx79w5SybCtVgDYfk4NivWWzNUPP+qHpjIsbXhlvmTl6pC6VgBY6+kQsLVq18acObNMEFgDkfMXLDVNaDbntWtXkTFjJunHXhPc1gzjpUsXo6kM82ofFvhNCYT1lUCaVTSofe7cORPwLi1DTqdKlRorVsr482ZWdKtW2Ls3550vQ8w2k6GO06fP4Dywe3cJYq5a4czY1R0aeLWGDPbWV9vcIxmdOkxyjhw5zee6Zesu+Swc/xM5qtdjdbCyDB1uldJlHD+uT1YLC/YWK1bc7D7rIcvXOi4m3/UhBavofaBDVK9Zs9pjEHju7FloLoF/DQBr0eGp9f7q3esdM2S2Nbyz1Z6+B8ucAn+M/d25aeqUSea+dG6I4oIOX20VnXu3UKHCpr8aBI7su2ndn/b7QdvShzS06HfBKjpU8jy5v6wSnWvXgLne8+3bd7CakWBqWWO8UYYn1yBwVO8jb37TnCfzcsHXN4UMzZ1EHvhYg0qVKpnhwl/q9gpe7NxV7nf5BzycEpmJddgzrZ+zFs17ZN8tl8pRXLktw5m8M/s0hjbPhrrFUpuj3592Er9J1u/nLbNj/7k76F45HbrXzGT2Vcnniw4TTuDtepmdZ3q2WCp88XQOs772kCNTeGCL7MifKan8+wDUHXYAqw7cQFtpx1PpUi4d3nzK0b6OVP7d1qvw/7AoUkhw+WXJ+s381V7sOROA0jmTY+C8M2haOBU+aeZ4OrBdpXQo/+NB1JfAcUkJPGs5JcHkgz3yy/dNRlWJ5Po89YfbKEABClCAAhSgAAUoQAEKUIACngQYBPakwm0UoEC8ELACwPbOrD0DaBBYi/VuD/469oTts9Yfh/dUrskoj8Ml8Roo4JWAzk/bqVNn89L5VMf8/psMOdsD330/1AQwT8gQqLlz53FpK2nSZJLp2t65TbPgBn//jczJuhApU6aSwGty3JIArc6R6akcOnzQDJ1bvFjB+3ZrNqGnUkvmpF2yRLIsJTCq88F2erELAiSgOkWG09VAy7q1q1FTglhaNOioJU+ePObd+mOta+arZqL6+CSWDMNnrd0u7+++85ZZLypDZkdUjh494hL4suoWyF/QzDlrreucoCNG/CTZkudMwFWHR9ZiGekwt0+3fsaqbt7Tpknrst61a3cTEHuhYztpIz0aSJZxy5atZf7gIi717CsRnVeD9kflvDklQGsv+iCAzp9rL/nzFXCueuv7xReDzHDNDerXQeHCRcz91Equ0cpijc71ODoRlqmeKFFis6lAgbD+WUG3kNBhp50dj+EFzYbVYr/NNaibL18+GRL49H1n089as5T1Ne6PMfftv3jxostDAFaFKzIftRbNzNa5czWbvWy5Ci5zZFt1o/OuQeszMtezlsi+m1YQ2H4/6HF37tzRN5eiDzcEhwaHo3vten9qqVkjLNBuNsgfK8gf1fvIm9806xzevuu83D/++BMGfPEpJk78UwLBVWRkhYZoIdnv1jzU7m15Y2IdI7eVS4nsu+VSOYorB84FYO/NYNySwOmc7Y7hRzTjduOJ26alOkVToVJeXzNc87mrgdh99jZOSN0bd0JMkFYrNS/t+tul2zQArEWvJb9fYly6FWjWPf2pGZqxq/tySAavFg0Aa0mTwge5k/pAh4zWzOEZR25hce2wAHQuyU5ukjs51h++YYLAOsT0q8VTm/Pq8ZFdn9ZhoQAFKEABClCAAhSgAAUoQAEKeCPAILA3SqxDAQrEuYAO6+ypaEbwL7Yd3W3DQlub18kwyiwUoMCjL+Av81xq0FeHKLWyZQsXLmzmAj579pwJZOhQxilTpsTtAMd//A/vqnu+9ZoE9jJg0eJ/nRmlOhx0eCWJZMxlzpIVv/72+31VMko7nooOrTx06GCZN3Qndu/ZjSdlXYNw/fp9KPMKH8YWGSK27/sfm0O1z1o0W9lerDmFU0mgWotmBydM4Ags2Ovp8vPPdzBz7WqG5uS/ZpgMY/c6up4qdWpcv3btvl2apWxlGGvmss5dO3TIjzLMcG1z3hkzpuPDD3o7j9OM5DsS1LaXEHt0UXakSJEcAwYMlAzlvtiwYQNmz/4bbZ/TeY9/NRnS9mN1ObLz6rDfKeUhgAAPATz3tuzr3vrmzpMHv/8+Toa0Pi2Zpqvw1+SJcl+Nx6RJ000mbFSvx96HB10OCpLo0QMWn4SODE/3AN1Nue/S+t2f4ajBQM0WbdSoMbp173Hf2TNmdGQHu+/QtrLK96VUqdLmtUmyY/t98gH0AYW8efO6V3euh3eN7v3V70n6DOnNcZF9N695uNf1QH2YpHz5Cs5zuy9E99qtzOi/Z85FQreM2lS+ju9xVO8jb37T3Pvvad098K2Z93PnLjbD1a9cuRz/+98Pkgk9D6NGj/F0uAkOR+d+0MYi+255PKGXG635f1dLENVenpShmLXsOXMbbcYcQ9sSqVE4c3L4Jb////L66vAltpLKNsWAbXO4i4kl6GyVJHJsmzwprFXzbjV3804wrsvDLKmTu/6Op0uRCJckkK0lkU8ClM7uyAjW9ciuT+uwUIACFKAABShAAQpQgAIUoAAFvBFw/X+j3hzBOhSgAAXiQGCzZPx6Kj+5/fdbnfvXXjQA/KDDQNvb4zIFKPDwBK5du46XunbCWgnOuZcUvsnN0LS6XTM4t2ze4lzXbRpAfr9vL2hG3ZUrV7Fz5w40b/60MwCswScdwjW8UqRIUcnivQUN+ObLm8/5ypE9hxni2NNxRYoUM9mvgwZ+gSeqPmmGW9WM0vIVKmHI998ig2TGWhmxOvSwBlV1Tlx72SDDSWuWaAHbkLX2/fblnu/0wqeffSHzIyfEJ5+8D82a9VR06OHNmzfi5o2wgEmwZKCuWrXKZBvrMRtk2NpcOXOjdp26JgCs23S+YXspWrQ41kk9e3HvvwbB//lnqbl2HXZ48OAfUKxYMQk0zbYf5lz25rzFi5c0/XceJAubNm5E/34fuQwHbd/vje+lSxfNXL06Z3O2bNnQunUbE/TX+2LdutWmuahej70PUVnWYbO1XL9+3XnY3j17zLJbnN2537kQQQUfHadWSmCgIyNYl/U+2CXfBx2i3FPRoc4149d+3+uy3vuaOeup+Mg9+MSTYWP+f/hhPzO39LvvvClDsjseHIjKNV6+fNl5Gj1e59O2Mnuj8910NhbJgtfXbjMvWKCQafXa1WsuZuplDakd1fsost8098uwHhq5dv2qc9edO6EPbIT+LGyRucQHDfrC3Av6ME3Xrt3w2Wdfmnvdyvp3Hmy7Pq9NnAcD3ny3bNWjvJhdsnS19GmYFQNb5XC+Pmgic4FIGbvmEtqWTI2PmmZDm4p+qBc6ZLTZGc4ficPGSkkrWcH5ZS6PI+ddM9F3ypDVeTI4MojdTxzZ9bnX5zoFKEABClCAAhSgAAUoQAEKUCA8AQaBw5PhdgpQIN4JdMp+/zDPGvDV7VoYAHY48C8FHheB3Llzm+F5P/30Y8yfP9cEbY8dO4YxY0Zjucyz27hxU3OprSR4pxm3Az7vDw1m6GvAgE+xVTJvs2XLLnMCp0aWLNkku3Mi9u/fj23btuKdt98wx965ExYcs7s906YtEkgWpc53e+TIEQmKXcDUqX+hYYM6uHo1LNBiP0azdmvVqg3NgrTPv1uvXn0zTHSt2nWdw64mSZIEPWQO219++R8WzJ8HDXqtXr0KX389yAxznCWL/LhFUhLIPLtp0qTBt98OMRm1f4zznM33jPgkS5YMH3zQB8eOHjVZr19++RnOynDAnbu8ZM6i86TqsNF//z1d3o/K/MtTpT8rzT5rSOEOHTth9coV+PXXEaaNdWvXShbtby699JfA6sAvP5eg7WYJaF4zweXDhw/J8MP5XepZK96ct4sEqxYtXIg//xxngku7du3EZ59/YoapVnNPxRtfP7/0ch/9i0FffWlc9GGBuXMc88Pmzp3XNBvV6/HUF2+2adAvgWR8jxkzChfOX5AHH9ZA73st7lmxVns63LYGZfV+vnDhgrXZ4/tHH74P/e7od6OfBM8DA4PQLJx5pF/p8Zr57IcNGyxDg5/H8ePH8Y3cl6+92t1j2542aubr94OHyUMYx+V++MxUico1vvdeT/Pght6vn4lDQMAdM0+xNhSd76anPnra5s216wMGOyXbX20CAwNRrnx5VJWHPj6SIbA3b9pkfh/0u9ysaUMzD7ieJ6r3UWS/ae5911EO9LfuzwnjzXdzx47tksXf11EtNLiZLl16TJDv0I8/DjXfI+3/Ihm2PrWMFKDHa8mS2fG7s2nzJvPwjG7zxkTr2Ys33629e/dixC8/hfvwirZ3TR5suXY72OWl8+UWypwMTSVzdsCcM2b+XB1yecpGf4yT4K+WVDIU847Td3BVjr14PRC9Z8owMlKCwnlQxuyMxT89Kvvh+38v4Py1QHO9E9b649SNIDSQOYE9lciuT4eL3ifZziwUoAAFKEABClCAAhSgAAUoQIHIBDw/zh/ZUdxPAQpQIJYFdO5fLVaAVzN+w8vw/aWx6xDRjiP5lwIUeNQFdHjWLwd+LXMAj8KXX3xuAhd6TZkzZ0af3u+b4ZB1PV26dBg3fqLMQ9oXDeo7Mlk1KDNm7J/OrNYffvwfer33Dp5u2cQMd/vii11MYPeQzF/qqfj5pcUff/wpAahPTDDn3r0Q6Dy0n/T7zARePR2j26pVr4kpUyajeo1aziq1atXBFxKUrl6thnObLnTs0Mmsf/Z5f+icqr6+qdC2XTu88UZPl3qRrZQsVQq9ZPhlDdSVLRM6abrtIF8ZevqPcZMkW/hDCfw1lOzZYBmmt7hsm2gCR1q1adMW2CNDWOv1BgQESMZyMfTs+S6GDPlOgodHJJu3hBneun//z/G9zK2s8ytr0Ontt9+TbN9vnfMGf/Dhx9BM6Nde7QYdlleDlG1lbub2HV6w9Shs0ZvzVq36BL77bogJkKujOrVs2RLv9QoNcoU157IUma8ONT169Dh88vEHaNGiicmQ1OCVZlerqZaoXo9LB6Kwog889H3/Q3z7zVcSGPufyVh/9dU3zHC9tqRMlxY10P2CzJWtQ/pOmjQBy1escdlvXyksme3PtG5uhh/XYc5/+eU3hDe0s2Z+/u+nERg4cAB++fl/ppmKFSvh408+tTcZ6bIG/vt/OgA6XHl5abNFi6e9usYUvinRUup26dwJN29eN9/3n34ead71pJF9N2/cCMumjrSTbhW8uXada7ynPERSu9aTmDVngcn+/X7wUHz11UC89FInM/ew3qMvd38F5WReZC1RvY+8+U2zd93xW/mV/Ma9jXpP1TRznnfs+KLjtyo0E1jvMR3eXn9LR4/6Tb6zIWau8OHDR0DnUNdSvERxqEGPV15Cs+YtJHP4W7Me1fvBm+/Who3r5IGSkXi+fQczT7v9eqxljdlmGrTXWjXvPSSrd/BzOfHDsznxoQR38w7aAx2OuaoEhr96Opup061GBrw+8SSyfrUXGRIlRM9K6bDi4kWc8r+L1NnChl12aTgWV16ukRk3A0JQedhBc5bCaRNjUsfcZu5gT6dVv4iuTzOdb0kw/Ltnc3g6nNsoQAEKUIACFKAABShAAQpQgAJOgQQHDhy4V3BBAecGLlCAAo+OwMmWp5AkaUqZg9FXhgP1kVdousejcwnsKQUoEA8Eko10dCKgWzzoTARd8Pf3N0Mla/ZreOXmzZvm99CaQ9i9nmbc6jDM4Q1r615f13U42gCZc9jPz8/T7gfedk+ifDp8ddq06ZxB6wduNJwG9FqCgu6GO6R1UFCQGZI4omvVoaSvXr0swXfHHK2eTqVDU1+SoItfOj+vrL05r55HP7/UqdNEyckbX83ovHr1ilxTBo//lkb1ejyZeLNNs66vXbsqmZme59711IZmMGux5ne215k5c4YZFn3T5h3m4YcrV/ydQ6Lb64W3rG0nTpIYvilc5zsNr7432729RjW/fPlShP2Nze9mRNeu570hQ3dnyJjBmd2v167DzF+WBzrSp4+5+yiy3zS7uX439bdEv5vhZclrfR0SPEgeBgnvt1Sz0VPK76T772hEJvZ+2Jcj+m6pV6LQIcvtx0RlOSDwHoLlXvFNev+oANcl8Jo8cQIz525U2oytutrPm3dCZH5g1/mIIzqfp+vTB0M0ts//2R+RHPdRgAIUoAAFKEABClCAAhSgwInjB8EgMO8DCjzCAgwCP8IfHrtOgXgk8KgEgeMRGbtCgUdCwB4E1iHBWShAAQpQgAIUoAAFKEABClCAAhSgAAX+GwIaBDbDQd977b9xwbxKCjxuAqccU5w9bpfF66EABShAAQpQgAIUoAAFKEABClCAAhSgAAUoQAEKUIACFHgAgfvHzXqAxngoBShAAQpQgAIUoAAFKBA/BKpVq44/J/yFJEmSxo8OsRcUoAAFKEABClCAAhSgAAUoQAEKUIACcSZgMoHj7Gw8EQUoQAEKUIACFKAABSgQJwI6N2xEczfHSSd4EgpQgAIUoAAFKEABClCAAhSgAAUoQIGHIsBM4IfCzpNSgAIUoAAFKEABClCAAhSgAAUoQAEKUIACFKAABShAAQpQgAIUiB0BBoFjx5WtUoACFKAABShAAQpQgAIUoAAFKEABClCAAhSgAAUoQAEKUIACFHgoAgwCPxR2npQCFKAABShAAQpQgAIUoAAFKEABClCAAhSgAAUoQAEKUIACFKBA7AgwCBw7rmyVAhSgAAUoQAEKUIACFKAABShAAQpQgAIUoAAFKEABClCAAhSgwEMRYBD4obDzpBSgAAUoQAEKUIACFKAABShAAQpQgAIUoAAFKEABClCAAhSgAAViR4BB4NhxZasUoAAFKEABClCAAhSgAAUoQAEKUIACFKAABShAAQpQgAIUoAAFHopAoodyVp6UAhSgAAUoQIF4I3C5fbzpCjtCAQpQgAIUoAAFKEABClCAAhSgAAUoQAEKUIACMSDATOAYQGQTFKAABShAAQpQgAIUoAAFKEABClCAAhSgAAUoQAEKUIACFKAABeKLAIPA8eWTYD8oQAEKUIACFKAABShAAQpQgAIUoAAFKEABClCAAhSgAAUoQAEKxIAAg8AxgMgmKEABClCAAhSgAAUoQAEKUIACFKAABShAAQpQgAIUoAAFKEABCsQXAQaB48snwX5QgAIUoAAFKEABClCAAhSgAAUoQAEKUIACFKAABShAAQpQgAIUiAEBBoFjAJFNUIACFKAABShAAQpQgAIUoAAFKEABClCAAhSgAAUoQAEKUIACFIgvAgwCx5dPgv2gAAUoQAEKUIACFKAABShAAQpQgAIUoAAFKEABClCAAhSgAAUoEAMCDALHACKboAAFKEABClCAAhSgAAUoQAEKUIACFKAABShAAQpQgAIUoAAFKBBfBBgEji+fBPtBAQpQgAIUoAAFKEABClCAAhSgAAUoQAEKUIACFKAABShAAQpQIAYEGASOAUQ2QQEKUIACFKAABShAAQpQgAIUoAAFKEABClCAAhSgAAUoQAEKUCC+CDAIHF8+CfaDAhSgAAUoQAEKUIACFKAABShAAQpQgAIUoAAFKEABClCAAhSgQAwIJIqBNtgEBShAgTgXOHDkOGYuWmbOWyR/HjSpWz3O+8ATUoACFKAABShAAQpQgAIUoAAFKEABkTKQMQAAQABJREFUClCAAhSgAAUoQIH4KMAgcHz8VNgnClDAo4AV+N21/7DLfl2fOm8pWjeqY7YzIOzCwxUKUIACFKAABShAAQpQgAIUoAAFKEABClCAAhSgAAX+YwIMAv/HPnBeLgUeNYHwAr/FC+VD83o1MXD4aOclaSBYixUQLpQvNwrmzeXczwUKUIACFKAABShAAQpQgAIUoAAFKEABClCAAhSgAAUo8F8QYBD4v/Ap8xop8AgL2IO8VuDXm8CuFRAe9W2/B776e/fuITAoGEkSR/8nU9sICg5G4kTRb+OBL4QNUIACFKAABShAAQpQgAIUoAAFKEABClCAAhSgAAUo8J8QYDTiP/Ex8yIp8OgLvP9a5zjP6r189Romz16EzTv3ITAwENkyZ0TNyuVQr0YVA7pg+RpMmrnQLCdNksSJnDBhQgwf0Mes37wVgAl/z8OW3fsREHAHObNmRp0nK6KGtKNl/PR5WLlhK7796G34pkhmtumf9wf9iDSpU6Lvqy/i8PGT+ObnP5z7kidNghzZMuPJCmVQuWwJs33Dtl0YNWkmurdvhavXb2BiaL/u3L3rPM7qY6uGtXH05Gls3rUPH73eFdmzZnLWGTtlNtZs2YE+PTohT45szu1coAAFKEABClCAAhSgAAUoQAEKUIACFKAABShAAQpQ4NERYBD40fms2FMK/KcFvMn+jWmgYaMm4OwFfzzb5ClkSJcWWyVoOmHmAoTgHhrUqIpgyQ7WUr1SWeTPncN5+gQJHIvBwSEYJMNVX7x8BS0b1kKGtGmwccce/P7XLGhmcM0q5REUFARHoPae83hdCJDgbXIJPGsJCYGpU6FUUZQoXAABd+5i4/bd+GX8VMkuDjLBYD2XthMslQvkyYV2LRqYY9dt2Yk9B4+gcP7cqFqulNmWN1d2FCuUH2tl3+ylKyRw3Npsv+h/BcvWb0GZogUZADYi/EMBClCAAhSgAAUoQAEKUIACFKAABShAAQo8agL6315ZKOCtQALrP+h7e8AjVI9B4Efow2JXKUCBuBPQLOBjp86izhMVULdaJXPi0sUK4ciJ09iyY68JAlu9qSXBXA2supc1m7bh1LnzJshqZeyWK1kUJ8+cx6IV60wQ2P2YiNbzSaDZyiCuLf1645OvsX7rLhMEth+XPUtG6EuLb/JkJghcp2oFVCzjyBq26larUBorN25Di/q1kCVjesz7ZxXuSRC5VaO6VhW+U4ACFKAABShAAQpQgAIUoAAFKEABClCAAhSI9wL2wC9jwPH+44pnHQx7aOBxCwgzCBzPbjV2hwIUiB8CqVOmRPJkybBtz0HUlqCtNWRy/3e6e93B/YePm7plSxRxHqP/iLzUtiX8r16VrN2wf1ycFbxcSOTjI/MLJ8YdyQqObmkmwd/Vm3dg3tKVaNGgNpZLFnA1GWLaCiBHt10eRwEKUIACFKAABShAAQpQgAIUoAAFKEABClAgLgTcg7/WuvUeF33gOR5dAf3v9frQgL5rQrB13zwuwWAGgR/de5M9pwAFYlHAxychXn3hGfw8bio+/u4nGWI5J6pVdMzBa82ta53+82G/Ip8tE7hN06dQOF8enLt0CcklEzdJYtef2tw5skJfUS1HJQv5xOmzZjjoNZu24+atW6hYunhUm3HWz+CXBk9Vq4iFK9bjxu0As71F/ZrO/VygAAUoQAEKUIACFKAABShAAQpQgAIUoAAFKBBfBayAnQbxdNmxHvqu6y4dd11z2cWV/5BA6FyOcsW6dM8EfzUQrEFg6+W4nx6HQLBrZOI/9DHzUilAAQpEJlBc5s0d1PdNrJZhnVdt2Grm8p2zZCXe6toO2TI7hlvWNorkz2OCxFZ7KVP4mkXzBJH5p8Ta82DvOvSzvqzSpkld51DV1raovjepUx3/rt2MLTv3ol6Nykgvcx+zUIACFKAABShAAQpQgAIUoAAFKEABClCAAhR4FATCAsAhOHARGLE1IUaeSIigR6Hz7ONDF9AgabecIXi5TAgKZtAHBRLKy5EV/NA7FwMdYBA4BhDZBAUoEHsCxQvlw679h9HlvU89nmTUt/3u237gyHEMHD4aemx0i/UUmW+KZKhXvbJ57T14BIN/+xPjps9F71c6OZtu0+Qpj3MCZ0rvh4NHTyAwKFiGbvZx1j9/0R/Xbtwy2cMJEjqePAqRuXjtRc+fUMefsJXqlcqice0nsVIC0nNkCOdkSZPa9kZvMaVvClSRuYKXrduM2lUqRK8RHkUBClCAAhSgAAUoQAEKUIACFKAABShAAQpQIA4FHJm/VgZwCPZduIfKsxMz+BuHn8HjcCp9WOAneWhAHxxY1zQQhTPqf6d3BILl7jLZwY/ydeqVsFCAAhR4rAT2Hz5mrkczdKNbNOO2a6/PsHnHHmcTRQrkRbZMGXHq7AXntogW8ufOaXbv3HfApdrwsX/ht4nTkVACwLmyZTH7zl645Kxz89ZtXLt+A3lzZndu04WsmTMgc8b0aNmwDrJKP2YsXCZDQ99xqROdlcSJHM8DWe/RaYPHUIACFKAABShAAQpQgAIUoAAFKEABClCAAhSIawENBgcHB+MXyQBm9m9c6z8+59N7R+8hvZesBLHH4eqYCfw4fIq8Bgo8xgLN69U0mcBxfYmaRZwmdSpMmLnQZPKmT5sGB44ew3GZk7dSGdd5eNdu2YGL/pddulhB5urVzN35/67GqEmz8FzT29JeamzcvsvM69uuRUNTv3jh/NA5hn//axZaNaojGcOJsHD5GvOEUbmSRVzatFZ8JHjcqlFtDB8zWequQ/N6NaxdfKcABShAAQpQgAIUoAAFKEABClCAAhSgAAUo8FgLuGYBByMoOAijTj74qImPNRovLlKBUSd9MDA4wCRv6RzBobMGP9LZwAwCR/qxswIFKPAwBQrmzRXl00+dt9Qc06Ru9Sgfax2gwyT36dEJf81ehBETpuOeDNfs4+ODJ8qVRNsWjaxq5n3RinXQl72MKFEMiWQI6Pdf74yxU2ZjzNQ55imizBnSo33LRs65fDOm88MHUkeDwD/9MQU6LLRm+b7ZuR2KSuZxeKVciSLInT0r5v2zCrWqlg+vGrdTgAIUoAAFKEABClCAAhSgAAUoQAEKUIACFHgsBUwwOOQeggKDmAX8WH7CcXtRmg2s91Jin0S4l+DRHwpa9RIcOHDgXoECBeJWkmejAAViRODUqVNIkjQlUqTwladTfMwTKjHScDxrZM6SFbACu+5dc58T2KrbWrJqHyQIbD9PcHAIbty6hVS+6uw6T6+9XkTL2sadu3eRInmycKsFydzB+tRaTMz1G+5JuIMCHgRu33JsTJ7Cw05uogAFKEABClCAAhSgAAUoQAEKUIACFKBAPBKwMoE1oSYoKBC3bt1Etqnp41EP2ZVHVeB060sm3pIoUWKJBSSULGAJpOqfR7CcOH7QzG78CHadXaYABf5LAt4Gc60AsNp4e4w3jj4+CZEmVcpoB4D1HNpGRAFgraOZwwwAqwQLBShAAQpQgAIUoAAFKEABClCAAhSgAAUoQIHIBWRKYJnDNfJ6rEEBbwQet/spoTcXzToUoAAFHrbA+691jrAL9gBwZHUjbIg7KUABClCAAhSgAAUoQAEKUIACFKAABShAAQpQ4BEQsKK/1vsj0GV2MZ4LWPeS9R7PuxtJ9xgEjgSIuylAgfghoHMDewruHjhyHN+N+MM5XLTWic48wvHjKtkLClCAAhSgAAUoQAEKUIACFKAABShAAQpQgAIUiJLA4xGvi9Ils3IsCTxm9xKDwLF0n7BZClAg5gU8BYIHDh+NXfsPo3ihfCZIzABwzLuzRQpQgAIUoAAFKEABClCAAhSgAAUoQAEKUIAC8VXgMYvbxVfm/0S/Hrd7KdF/4lPjRVKAAo+NgAZ5R33bDzr8s5a9h46ieb2azP59bD5hXggFKEABClCAAhSgAAUoQAEKUIACFKAABShAAQpQgAIPKsAg8IMK8ngKUOChCDSpW92c13p/KJ3gSSlAAQpQgAIUoAAFKEABClCAAhSgAAUoQAEKUOAhCsRe7mbnHMDokw/x0njqhyQQe/dUXF8Qh4OOa3GejwIUoAAFKEABClCAAhSgAAUoQAEKUIACFKAABShAAQpQIF4LvFEJ2NwqXncxWp3LmThah0XpoHxJolSdlWNJgJnAsQTLZilAAQpQgAIUoAAFKEABClCAAhSgAAUoQAEKUIACFKAABShgFxhXDWhfGui9CPhmv30PcO81x/rtQODSLWDfReD7DcDcS2H1vKkTVtuxlDwB8GMVoHkRIEMK4OwNYOVRoLvMuugfIv3JBvzaDBgh53prs+vRNVIDC9oB03cDzztmaTQVPi0u1yDX0muhtH0EyOgDDK4KNJNzpE4q/b8NrD4OvLYMOCHXc7Ez4BsaHE4WGp0MCHKcK0j6kGqk1Jc+VM0FWNutnmw5DTwxy7G/rPRVS4gk7J6T69hzHvhoNbBFvFhcBRgEdvXgGgUoQAEKUIACFKAABShAAQpQgAIUoAAFKEABClCAAhSgAAViXCCdjM/btJCj2WckWOoeBLZOOHQtkMkXqJ8fmNEGeHM+8PNRa6/j3Zs61hGT6kpwtjAwZRewXgKqJTICHSQQrQHh2vMAHwkSa2A2kQRy7yuh+xK77Usk16LH+ISOOTxcAsJtSgCTd0qw9iRQND3QtTzwl5yjykxg+HogSWgbfR2zPWLIGsfZNKCrJUlo1NLa7tgKnJFgrxbdr218vRJIKP3KlQZ4phhQLjtQ/A9HQNtRk39VIJSTGBSgAAUoQAEKUIACFKAABShAAQpQgAIUoAAFKEABClCAAhSgQGwJvJAPSJNcArEngAo5JDiaElgbGuDUc2owdNMp4P3tjh4U2AQsfw7oVwOYeRI4LZmz3tSx97+RBGObSOB59j4J0v4bukcykDVbt0VRRx/s9aO7XE0yeE9dBZ5bFtrCIckOlkB2gwISdE4m1yABaKu0L+kI4lrXaW3X96DgsOu3b7eWQyRr2H7ctTvAyxWAxlmAcRLgZgkTCI3Ph23gEgUoQAEKUIACFKAABShAAQpQgAIUoAAFKEABClCAAhSgAAUoELMCrSX7V4d57rPcEQTtKEHYiMrBu8DUPUCWVJKxm8lzzcjqPJHVca75EpS1lyESYO6zyBFUtm+P7vJxCQBnln72Ds101nZa/wOklGGedwZEt9XIj7shRlp842CuY8eZHp2/zAR+dD4r9pQCFKAABShAAQpQgAIUoAAFKEABClCAAhSgAAUoQAEKUOARFCirwyLn/D979wEnZXE+cPy5Chydo4P03qugIiCIgCjYYouKJRoTUzQmJhrzN0WTmBg70RhL7IqCFRAQkCZdej2k997rlf88c8zy7rK7t8vdcbd7v8nn7n3fmXln5v3uRdd9dmZyl2T+Zp/I0u1mj16zRPN9Zh/ecGmdCa5qal7Z/Aox0zVcHV0yWdOWw7lH93uyaVd/NLWolHvMz++HzAzgt64QebKfyP1m/+HRZrbxG2b27/SD0bWqS1KvuN7/nmvMctLLTgWStfy6GiIJZjnopmbcd3QU2WmebcJW/3u4Yjlo/gYQQAABBBBAAAEEEEAAAQQQQAABBBBAAAEEEEAAAQRKoMAdZknmn58f/ME7mhm0mr67Jvfo/T3PBGPvNvv2RpNuMwFf3Uf3cxMc1fTVapEHLzJ789YOv4yx7n2ryR1zr/x/uzJ39Jaeul1ObbvrLSrQ8ykmoNzpfZGfmpnAQ8yM5zs65e47/EczG/jvp5450g7nmCWxvemwWSLamz667vRVplkeeshwEZ0RTfIXYCawvwdXCCCAAAIIIIAAAggggAACCCCAAAIIIIAAAggggAACCIQU6GwCt9Gm+y/MveM+s3/tT81pVTMzWNMPzJLQ4faybVYlt96qvbnHYL/D1dl4IPeOGmX87+xi9uttZWbSLtjjnx94lWWCrJqSXDQ599IXlHblZUz5AVP38RW5P30rm5nAl4v88RKR4etE1kQYpNU9gW+dfqqTEIeBJticYmYEf/oDkf1mhvDiU88YonqJzSYIXGJfeh4cAQQQQAABBBBAAAEEEEAAAQQQQAABBBBAAAEEECi5Am9sMoFK8xMsuRnAnUYGK40u7xrPfr4nT81q3WaWSW5RTeTSxiLnmT2CN548s812JnB7hZlZu+uIyKQdZ5ZrTl515phlpzVd2lDkP+tzz/X3b7uaZZVbi1z89um8YGezzDg10NroVDDa1WligryaZptxXWT2Ap52m8jIZbn7AGv+BBO0/najyA1tzXOa8jW7NTf/SYPEX50KXOss4z/3Efldh7yX1c5/z7HXAkHg2HvNGDECCCCAAAIIIIAAAggggAACCCCAAAIIIIAAAggggECMCNxgZvtqumq4yGc7c8/191/aiDzaS+T2JuZ8ee6Sz13NEtWPmOWUG5sg66WNRKqZGbsPjjsdJNYln/Oqc7oHM1vWBGknrhG5ppXIa8dF5pm9c9uZoPTVZkwzNpjgrZlF28gEaTVdbgLOj3j28M0xa0j/baXIN2vNksum/nsXm32EzT2t0s2zmOvF200Q2OzHq0mXyNY9jp837c3dJtLQ7EU8oKnI7qOmjzCzmHPvPv1b9/zV5/cmbcMbwHZlT5lZx3d2EhlqgsD/WSKyyNQjnRYgCHzagjMEEEAAAQQQQAABBBBAAAEEEEAAAQQQQAABBBBAAAEECkygmglqDjBB3vX7/APA2sGHZl/g35nAqu6hq0Fgl57omzv7d5UJGD8w3sywNYHcwBRJHXfPD00Q+YUeubNyNWi6zwRLR2eI3GNm0npTA7M8tLbrkokB2yDwTabe65kmSGyCuje1EzlsZi1/s07kJxNdTZGbR5u9f82S1/eY5a5/bqKPeu8SEyR+bEruMtGna+Z95h2D1l5q2gkWBD5qOnlxtshTlxlH0+/NU/NuuyTVSMjIyMhp0sT89ZEQQCDmBDZv3iyppcpJWlpZSUxMMj/mK0AkBBBAIEqBo2Y5GU1l0nKP/EYAAQQQQAABBBBAAAEEEEAAAQQQQKC4CuSY6ak6QzU7O0tOnjwphw8flrqfVC3w4RbkctAFPrizbFBnhrY2nwEuPPV54Nk0097cv9Tcb2LCQZP20cnMXt5kZh1vCVUp6J1Fn7np6l1StmxZSUlJsTGXBBNySdBfMZg2blgt+lqQEEAAAQQQQAABBBBAAAEEEEAAAQQQQAABBBBAAAEEEEAgjgU0JpufALDS5HW/9uGWiNb6pKITSCy6rukZAQQQQAABBBBAAAEEEEAAAQQQQAABBBBAAAEEEEAAgeIpoPvckhCIVQFmAsfqK8e4EUAAAQQQQAABBBBAAAEEEEAAAQQQQAABBBBAAAEECkXgBbPX7BubCqVpGkXgnAgwE/icMNMJAggggAACCCCAAAIIIIAAAggggAACCCCAAAIIIIBArAgQAI6VV4pxhhIgCBxKhnwEEEAAAQQQQAABBBBAAAEEEEAAAQQQQAABBBBAAIFiLJBQjMfG0GJTIH7+pggCx+ZfIKNGAAEEEEAAAQQQQAABBBBAAAEEEEAAAQQQQAABBBBAAAEEggoQBA7KQiYCCCCAAAIIIIAAAggggAACCCCAAAIIIIAAAggggEBxF4ifeZvFXTr+xxdvf0sEgeP/b5YnRAABBBBAAAEEEEAAAQQQQAABBBBAAAEEEEAAAQTiUyDeInfx+SrFxlPF2d8SQeDY+LNjlAgggAACCCCAAAIIIIAAAggggAACCCCAAAIIIIAAAj4BF7FzR18BJwicpYD7W3LHs2ymmNyWXEzGwTAQQACBsAIZazfI5+Mn+9VZumqN33XrZo2kReMGNm9Q34v9yrhAAAEEEEAAAQQQQAABBBBAAAEEEEAAAQQQiC+BBBOr0x8NdmXG16PxNOdYQP+G3N/TOe660LojCFxotDSMAAIFJTBqwlQZMWZins1pUNgFhld8v04evOfWPO+hAgIIIIAAAggggAACCCCAAAIIIIAAAggggEBsCuTO10yUH1Y/Im/uSIvNh2DUxUJA/4ZEEiX3b6pYDCnfg2A56HwT0gACCBS2QCQB4MAxuGBwYD7XCCCAAAIIIIAAAggggAACCCCAAAIIIIAAArEvkGCmbSYkJkii+bmlyX47Gzj2n4onKAoBnTGrf0P6t6R/U/q3FQ+JIHA8vIo8AwIlVODagX1Ef8IlXUa6INLJzEzJyckJ21R2do5kZmaHrVMYhVlF1G9hPAttIoAAAggggAACCCCAAAIIIIAAAggggAAC4QRs8NfE6PSYmJgkycnJ0qRKgnzSab1cVWYHweBweJT5CWjwV/9m9G9H/4b0b0n/prx/Y343xNgFy0HH2AvGcBEoKQK6BHS4JZ11/1/vvr+hZguvWrPe7iV8tktDz1+yQkaOmSRbduyUtDJlpEWT+nLL1ZdLxfLlfC/Fzt175e2Ro2Tlmg2SnZ0tDerWkpuHDJCG9erYOms2bJLHn3/NnpcuVUpqVqsizRvXlysv7WXaLO1r575Hn5Sjx45JqdRUX56eXDWgt/TveYFfnl5s27lb3hk5WjLWab850qhebfnhVZdLvTo1bd09+w7I7/8xTPpe1FWuG3Sp7/5v5y6y471v6PXSpnljX/6i5Rny7GvvSf9e3eWGK/v78vXkhf99KGr5wp8f8svXi737D8gjTw6TSy7sLBd16Wie9VVb5/iJE7667pm0P/354PNxpo9+0vuCLr46M+YtkrdGjJJrTGC/38XdfPmcIIAAAggggAACCCCAAAIIIIAAAggggAACwQUSJCUlWcqYz25b1jgpDydvlR/vWSInT570TOoJP7kneLvkxq9A7ixfDfSmpKRIlSrpkp5exf4N6d+S+XpB3Dw6QeC4eSl5EATiS0CDuhro1aRH7/LOrz/1mN/DajBYf+789Z98+e5eDSR77/VViOBk9oIl8vI7I6R9q2YypH9POXDwiHw67hv5+7A35LEH7hEN6O47cFAee/o/Urp0KbnRBDVTzDeFxk2dJU+8+Lr8/md32kCwiQvblF65kgn89pDtu/bIpG/nyawFy+Sx++/2BZSPHT9u6900xD8A2/C82meMdveeffLHZ/4j5dPS5KbB/c23kxJl7OSZ8hcTgP0/0+Z5tWqYNzkiGog9mZXpd392dpbN14C1N02bM99eTp290MywvtR86ynJV6xvmo4dPx3U9RWYE18/ZhZ0pQrlxI3/wMFDMvKrSbaqy6tcsaK0bNJAvvx6qnw5YZr06NrJ9JNog9ifj58ipUqlSs9uHb3Nc44AAggggAACCCCAAAIIIIAAAggggAACCPgJaADPfDJpPxcVSTGfz5rdXBMqmKBeKRPUqyy6sqP94NLvLi4Q8AhoENh8np+aWlrKmM/3U83n/UlJKfZvSv+8cv/GPPVj8JQgcAy+aAwZgZIu8K9X3pbAmb06c7ggk86s/ejLr6VW9ary89tvNP/gz/32T8XyZWXYWx/J0pXfS+d2rewsYw3e/v7nd0mdmtXsEDq2aSm/fuIZ+Wj01/LQvUN9w+rbo6sJcHa21xd27iD/9/TLMvyLcXL3zdf46rRr2dTU6eS7DnXy6dhJ5ttsmfKbe2+T6lWr2GodWjeX3zzxrIwYNUHu/9HNoW4Nmn/oyFGZv3SVDXgvXLZKFixbIV3atQ5aN1xm2bQyvvEfOHTYBoH7XNjFl+fuvWrAJfLaB5/KzO8WSo/zO8rcRUtNcHy33HbtoDNmQrt7OCKAAAIIIIAAAggggAACCCCAAAIIIIAAAl4BDdbpBJnk5NzgXXJKqplwkiY5ZgJMjvkfCYFQAmbnX7P/b6L5+9ElxZPsUf+W7PcLQt0UY/kEgWPsBWO4CJQUAe/s3xaNG/jN5g02szdwOWi9R1OwurYgj1+79+2T3fv2yxVmhrELAOstbVo0kZ/fcYNUT0+3LWj79evU8gWANbNsWmnp2LqZzJq/1HzjLMvWC/ylAeP2pq25i5fLj8xU2mi/VaT9NmlQ1xcA1vYrlCsrbU2bC5dl2Jm1gX2Gu549f4lkZWWZ2cyXydbtu2TanIVnFQQO14e37IJO7eSrSd/KFyZ4371Te/li/FRjWsXODPbW4xwBBBBAAAEEEEAAAQQQQAABBBBAAAEEEAgmoJ+p5tjPVsXM4NRgXm5AT2cIaz4JgbwEcj+X172l/YO/0X5en1c/RVVOELio5OkXAQTCCgzu18uWZ6zdIM0a1Q9aV8t0n1rv3sDeilquwWTXlrcsr/NdZp9fTZUqlPerqnvbdmzdwuZlmuWPd5llmTu1zb32VkyvVMm+0dizd5832++8htkbeIGZdbt7736pWqWSLdN9ed2euppRwwRG7/7h6ZnCmnfcLMu8zyy13LJpQ730S+mVKtpg7t79B/3y87qYOnu+3cu4RrV0uaBTW/n86yl2r9/KFSvkdetZlWtg/dpBfeT51z+Q/7z3sWzevkPuveVauzT0WTXITQgggAACCCCAAAIIIIAAAggggAACCCBQ4gRcsM4bDCb+W+L+DPL1wN6Zv+7vKV8NFqObCQIXoxeDoSCAwGmBpg3rnbHk8+lS8dv/N3AWsNZzgeHAZaO9bYQ7d98T8/4LILC+Lidi31wEFniuw33jLPvUu5HAOq2a5u6FrM3o7N7AFHYZk9xVq82X3cx+vwmJgbcGvd60Zbus37xVbhh8mS3v0r61fDZ+spnJvFgG9L4o6D0FkdmhVXM7m3neouVmNnVN6Wr6JSGAAAIIIIAAAggggAACCCCAAAIIIIAAAtEK+Afv3Ke70bZC/ZIo4P+3E18CBIHj6/XkaRCIW4FrB/aRYMHeYA+sdfObqlbOnZl74OBhv6YyzfLO6zZtlcoVykm6mb2r9XaZmbyBae/+AzarapXKcujI1sBie7156w4z8zVZ0k/1pZm6J/A1eYy/tNmgvkL5cma56tw+vI3vNXlJSUlSycwIPnAwdzaw2f7CL7ngsy5xoemzryfb48x5i2T1uo32XH8NN3siF2YQWPu45ILzTZ+b5BKzb3A8/8tWn5WEAAIIIIAAAggggAACCCCAAAIIIIAAAoUvwOeMhW9MD7EhENk0sdh4FkaJAAJxLOBm9kbyiNHUDdWeBmY10Dp/6Uq//SMWr8yQv774mqxev8neqksyr9u4Rbbt2OVr6tjx4zLfLPOse/bqhvLB0toNm2Xlmg1272DvnsPB6gbLa9mkgWSYgK0uR+3S4SPHZNGK1dLMzKJOMsst61LW5c1M4i3bdrgq9rhl+057rFe7hlk6Olt0Jq6mmtWrSrIJIOuPS9+fek53XdDH1JTcvpKTUgq6adpDAAEEEEAAAQQQQAABBBBAAAEEEEAAAQQQQKDECjATuMS+9Dw4ArEn8PB9d8jfhr0RduBapyBSUlKiXDPgEvnfR1/Iq+99It07t5cDhw7KiFETRPfdbduiie1mcL/eMmvBEnn6v+/KkP69pVRqsoydPFOOHj0mPxjUz28o385dJJXKlzczibfIt2bWbVqZ0nLDlf396uiewHNMe95Uu0Z1qVOrujdLrjZjm7d4hfzrlbfNnse9TeA2Qd4aOVpOnsyU6y7va+vqN97ON0ssT5g+Wz4e9bW0bt5YNpnZxxOmz5HmjevbIPdCE6zWdOs1g+xsXHthfl0zoI/89m/Py/S5C6Rx/bo2Oysr64yx1alZQ0qXLuVu44gAAggggAACCCCAAAIIIIAAAggggAACCCCAAALFQIAgcDF4ERgCAghEJqD7BL/+1GMyasJUWfH9Olm6ao29sXWzRtKicQPfPsCRtZZ3rZ7dOonO0h351Tcyw+yPWyo1VZo1qidDr7vSBnC1hfTKFeT/fnm3vPXxl/L68M/NVrzZUscEbR+69zbR8XrTpq3b5b/vfyI1q1WVru1a2UBuubJp3ir2/KV3RvjlDenX64wgcPX0KvKY6fd/H5sg9Yef2n71pgbn1ZZ6dWv77r9pyABJNYHpqXMWyOhJ06VM6dLSrUNrG/TVStNMvgaLO7dr6btHT6qlV5ZG9erIzO+WyI2DTweqA8d23eV9pHun9n73coEAAggggAACCCCAAAIIIIAAAggggAACCCCAAAJFK5CQkZGR06RJ7oy2oh0KvSOAQLQCmzdvltRS5SQtrawJVibZgGW0bcRyfZ0Fq+nBe24t9MfQpZbLmBmv4ZZuPpmZaZZXzhLds/dcphNm9q/2O2H6LBk5ZpK0MTN+f3nXD+2S0N5xHDpyVMqa2cfsieFV4VwFjh7JdShz5ncSAEIAAQQQQAABBBBAAAEEEEAAAQQQQAABBBCIMYGNG1YLM4Fj7EVjuAggUDQCZdNK59lxSnKy6M+5Tqkppk/zc0XfnlKvdi3Jys46IwCsYyqXVuZcD43+EEAAAQQQQAABBBBAAAEEEEAAAQQQQAABBBBAoAgEzn20oggeki4RQACBkiLQrmXTkvKoPCcCCCCAAAIIIIAAAggggAACCCCAAAIIIIAAAgiEEEgMkU82AgggUGwFMtZusPsCuz2BdY9g/SEhgAACCCCAAAIIIIAAAggggAACCCCAAAIIIIAAAggIy0HzR4AAArEloAHgvw17wzdoDQS7YHCzRvWlacN6vjJOEEAAAQQQQAABBBBAAAEEEEAAAQQQQAABBBBAAIGSKMBy0CXxVeeZEYgxAZ3lu+L7dXmO+vPxk311WjRuIIP6Xuy75gQBBBBAAAEEEEAAAQQQQAABBBBAAAEEEEAAAQQQKCkCBIFLyivNcyIQRwKtmzWKo6fhURBAAAEEEEAAAQQQQAABBBBAAAEEEEAAAQQQQACBghUgCFywnrSGAAKFIKAzepnVWwiwNIkAAggggAACCCCAAAIIIIAAAggggAACCCCAAAJxKZAYl0/FQyGAAAIIIIAAAggggAACCCCAAAIIIIAAAggggAACCCCAAAIlVIAgcAl94XlsBBBAAAEEEEAAAQQQQAABBBBAAAEEEEAAAQQQQAABBBCITwGCwPH5uvJUCCCAAAIIIIAAAggggAACCCCAAAIIIIAAAggggAACCCBQQgUIApfQF57HRgABBBBAAAEEEEAAAQQQQAABBBBAAAEEEEAAAQQQQACB+BRIjs/H4qkQQAABBBBAIF4EcnJy4uVReA4EEEAAAQQQQAABBBBAAAEEEEAAAQQQKGYCCQkJxWxEBTMcgsAF40grCCCAAAIIIFDAAhr81fhvbhA497yAu6A5BBBAAAEEEEAAAQQQQAABBBBAAAEEECihArmx3wTRY+5PfAWDCQKX0D9sHhsBBBBAAIHiLKCB3+zsHEmQHElNSZDk5KTiPFzGhgACCCCAAAIIIIAAAggggAACCCCAAAIxKJCZmS0nT2ZLdk6CJJpNdONpVjB7AsfgHyRDRgABBBBAIJ4FXAA4JydLypRJMgFg3q7E8+vNsyGAAAIIIIAAAggggAACCCCAAAIIIFBUAvrZo34GqZ9F6qSU3FUJi2o0Bdsvn6oWrCetIYAAAggggEA+BXKXgM6WlOT4Wn4lnyzcjgACCCCAAAIIIIAAAggggAACCCCAAAKFJKCfRebkZJufQuqgCJolCFwE6HSJAAIIIIAAAsEF9Jt2+nPixElJTWXXiuBK5CKAAAIIIIAAAggggAACCCCAAAIIIIBAQQroZ5H6maT7fLIg2y6qtggCF5U8/SKAAAIIIIBAUAF9o5WdnRW0jEwEEEAAAQQQQAABBBBAAAEEEEAAAQQQQKAwBPQzSf1sMl4SQeB4eSV5DgQQQAABBOJIIJ7ebMXRy8KjIIAAAggggAACCCCAAAIIIIAAAgggELcC8faZJEHguP1T5cEQQAABBBCIVYH4+bZdrL4CjBsBBBBAAAEEEEAAAQQQQAABBBBAAIGSKRA/n00SBC6Zf8E8NQIIIIAAAggggAACCCCAAAIIIIAAAggggAACCCCAAAIIxKkAQeA4fWF5LAQQQAABBBBAAAEEEEAAAQQQQAABBBBAAAEEEEAAAQQQKJkCBIFL5uvOUyOAAAIIIIAAAggggAACCCCAAAIIIIAAAggggAACCCCAQJwKEASO0xeWx0IAAQQQQAABBBBAAAEEEEAAAQQQQAABBBBAAAEEEEAAgZIpQBC4ZL7uPDUCCCCAAAIIIIAAAggggAACCCCAAAIIIIAAAggggAACCMSpAEHgOH1heSwEEEAAAQQQQAABBBBAAAEEEEAAAQQQQAABBBBAAAEEECiZAgSBS+brzlMjgAACCCCAAAIIIIAAAggggAACCCCAAAIIIIAAAggggECcChAEjtMXlsdCAIHYEsjKzpGTmVlRDTrb3JOZmR3VPZFWzsrKFv3JK53MzMyryjktL0yTc/ogdIYAAggggAACCCCAAAIIIIAAAggggAACCCCAQD4EkvNxL7cigAACcSnw0jsfyaJlq+XPD94r1dIr+55x34GD8vCTL0rzRvXl/rtulvsefVKOHjsmpVJTfXX05KoBvaV/zwtseXZ2biA1KSlJateoKm2aN5FBfS+WpMQEe8/36zfJ8C/Hyer1myUxIUHq16kp1wzsI62aNrLl7376lUybPV/++ftfSrmyaTZv5+698vbIUbJyzQbR9hvUrSU3DxkgDevVseX6S8dWpnQp+eOvfizl0sr48v/x8puyd98B+dvvfu7L855s3rZT3vlklHxvxmOGI41Mm9cOvFSaNKjrq3b8+An50Ix57qLlcujwEalZrapc0fciubBLB1+dSPr/1V+ekaNHj9l7jp84YY/OUr1e/MtDMnbKDPn0q2987VYsX07Oq1PD9Hexsarly8/LZM2GTfLPl9+2tv0u7ua7jxMEEEAAAQQQQAABBBBAAAEEEEAAAQQQQAABBOJRgJnA8fiq8kwIIJAvgU6tW4oGJb9busKvnQVLV4oGQDu1aWHzjx0/bo83Dekv3p9WTRr6yqtWqWTLrjWB3apVKsqnYyfJ/4Z/Zsv3mGDsU6+8LQcPHZV7brpa7r3lWklOTpan//uuCcJusnUyT560Y8nJybHXGoh+7On/yCYTrL3xyn4y9NpBpvykPPHi67J2w2ZbR3/p2Pbs2y8ffTnel6cnJ0xdfYZgSQOpf37uFTlw8LDcft0g0/aVtv4///OWrN+81d6i49DrqbMXSN+Luso9N18jtUxw+9UPPpPxU2f5mo2k/+sG9vW5uRudoz6bpiwzO1pfi0t7nG/r9ji/vazbsEX+ap5XA9aaIjHRWLy2k5Ud3Wxr2wG/EEAAAQQQQAABBBBAAAEEEEAAAQQQQAABBBCIMQFmAsfYC8ZwEUCg8AU6tG4mqakpMs/MdNUZvS7pzFedodq5bSuXJe1aNpWe3Tr5rgNP0itX9JVfcmEXE/A9InMWLZOh1w2WjLUbbED26v69pGuHNvZWnXn7+3/828xEXiWN65+efeva/Xz8ZBvg/f3P75I6NavZ7I5tWsqvn3hGPhr9tTx071BX1R6nmlnEF3ZpZ2YvN/DLD3bx2bhvJNMsAf2ru2+V9MoVbJU2zRvJ/X/6l0w3Qd/6V9eS2QuWyhoTbL7NBJ97X9DF1unWsY08+dKbJsD9jVzUpb2klSntaz5c/zoul8ZNmWlmNef4rFy+O2rg3c10btGoofx12OuyeMUqaxCtiWuTIwIIIIAAAggggAACCCCAAAIIIIAAAggggAAC8SrATOB4fWV5LgTiXEADqKMmTLU/Bf2ouiRx17YtZfW6jXaWqbZ/6MhRWf79OunQqpmUTTsd5Iy2bw2Q6t6/2TnZUqNaFXv79LmLTHD4sD2vXLGC/PuJ38nVZuZwsLR01Rq7DLILAGsdHU9HE7he+f16v32FW5oZybWqV5M3Pxpl9g7OewbsCnN/o/Nq+wLA2nYFs/zyr+6+RTq3b6mXsmL1WnvUwK9LCWbd6As7t7VLY2/css1lS7T9+27M40SXudZ0/PhJe4zGxN7ALwQQQAABBBBAAAEEEEAAAQQQQAABBBBAAAEE4lyAIHCcv8A8HgLxJqDB33+ZJZT/NuwNGTFmov2589d/KvBgcLdOubNUdQloTQvNzNwcs6bwBZ3a+pEuWp4hjz//qu/nv++O9CvfvHWHaGB07cbNdn/beYtXmOWkm0tqSrLZy7e2XH/FpbJk1fei++MOe2t4bj+nln72a8hcZGZmy649+6RqeqXAIkmvVEl0qeY9e/f5ylJMH7f/4ArZtnOXjJ403Zcf7ESDxLp8dOWK5c8obtO8sW8m8bZdu81ew6Xtj7di5Yq5Y9qxe48vO5r+fTeFONHlqNVxycrv7X7IiYmJ0qF186hNQjRPNgIIIIAAAggggAACCCCAAAIIIIAAAggggAACcSXActBx9XLyMAjEr4DO+tWgb6jkAsK69+6gvheHqhZxfsumjaR8ubIyb/Fyu+yxHjX42dYs/xyYWpm6LlUw93jTbhNY1T18XdKA6p3XD3aXMqD3RSYo3NLssTtfps9bZJeg1hm0v7jzRtEZyd6UI+Z/JtCb4M0MOHd7B7vspg3rSS+zXPUXX0+R89ufXsbalQcedVZvuGTj00GquNvy23+ovt8aMcqv6IEf3SL169ayM5+jNfFriAsEEEAAAQQQQAABBBBAAAEEEEAAAQQQQAABBOJQgCBwHL6oPBIC8SKgs35XrVkfNvgb+KwFFQxOSkyQ7p3ayNfT5shuM/t28YrV0sPsd5uS7P+PTd0T+JoQSzfr2GpVryq/uONGMxt3jzz3+nsmkFzKN4vWBUyrV60i117eV64e0EfGTZ0hw78YL+Mmz5Qr+/X0e7yU5CSpWrmS7Nq73y9fL/buP2DzqlapfEbZdYMulXlLVogGUl2fgZWSTdsVK5SX/QcOBRbJ+k1bJcnMvK1bu4bUNGPV1+TY8eNSulTussx6w75T/VdLz13i2ttIJP176wc7/9GNV5s9kuvIf9//xO5JXLlCOVstUpNDR7YGa5Y8BBBAAAEEEEAAAQQQQAABBBBAAAEEEEAAAQTiUoDloOPyZeWhEIhtgcAln8/maTQY7JaJ1lnEZ5O6d2hrl4B+c8SXkpWVJd3NvrfRpmrplc3ev+nSvlVTM6O4s8xZuMwEMTfZZt4eOUru+s2fffsBJ5rAs87a1bR15057DPzVsmlDWbdxi2zbsctXpAHZ+Wa56iYN6ooGcwNT2bQyctPgAbLC7Gm8bvPpPXsD6zVrdJ6sXr9JDhw8HQg+dPiI/Pm5/8rEGXNs9WaNGtjjnIVL/W6fOX+JpKamSL3aNf3y9SLS/s+40ZNRq3q6dbz3luskKSlJPh4zwVd6Nia+mzlBAAEEEEAAAQQQQAABBBBAAAEEEEAAAQQQQCAOBfyntMXhA/JICCAQWwJ5Lfsc7dN4l5COdpnohvXqSA0z81X3oa1UsYI0a1j/jO51T+A5C5b45deuUV3q1Krul6cXV/TtaZZ9XiAfj5ogD/1kqNlfuJ1MnjVfXnrnYxnYu4cJoibJ9NkL7X3NTwVbAxsZ3K+3zDL9Pf3fd2VI/95myehkGWtmDR89ekx+MKhfYHXf9QUmgD197gJZlrHGlxd4MuTS3mY56hXy7OvvyxV9epjFp0XGTZkhuv/uRV062OrdzZ7I481s5Xc+GSOHTZ+1qlWVuSYgrO3qUtwa8A2WIuk/2H2BeVWrVLLLc0+YNktWrlln9yqOxuTbuYsk3byWvmTWse7avrXvkhMEEEAAAQQQQAABBBBAAAEEEEAAAQQQQAABBOJBgCBwPLyKPAMCcSTgDdoW5GNpu9EGgbX/Czq3l0/HTpKLOreTUPvlvvTOCL+hDunXK2gQuEqlCnJpj642aKvLS7dt0UTuv/NmGWlmtT7z6ju2jTJlSsvV/S+RnqdmBPs1bC7SK1eQ//vl3fLWx1/K68M/tzOV65ig80P33ia6/2+4dNu1g+TRp14KWaV2zWry8H132GWjX3xzuA3+1qtTU37941vMUsx17X06W/k39w6V9z4dY1y+kRMnTtplpH941UDpc1HXkG1rQV79h73ZU3hF3x4yZdY8+ejLr+XRX/woKpNNW7eboLv/60UQ2IPLKQIIIIAAAggggAACCCCAAAIIIIAAAggggEBcCCRkZGTkNGnSJC4ehodAoKQJbN68WVJLlZO0tLImYJdkfhJinqCgZwI7EJ2lejZBYHd/YR+PnzhhA6rly5WNuKuTmZl2mWrv3rwR35xHxePHT0hiUuIZeyB7b8vOzpGjx46FnP3rrXuuzgvT5Fw9Q1H0c/RIbq9l0oqid/8+dd9qXX796NGjUjW9vH8hVwgggAACCCCAAAIIIIAAAggggAACCCCAQCEJ7Np9UMqUKWO3JAw1KayQui7wZjduWC3MBC5wVhpEAIH8CLhAbUHNCG7drJG0aNygWAeA1atUaqr9icYuJTk5bJA2mrYC65YqlRqYdca1fukg1PLPZ1Q+RxmFaXKOHoFuEEAAAQQQQAABBBBAAAEEEEAAAQQQQAABBBDItwBB4HwT0gACCBS0gAaC9Sc/s4I1+DvYLMuc1xLJBT122kMAAQQQQAABBBBAAAEEEEAAAQQQQAABBBBAAAEEilogsagHQP8IIIBAKAENBL/+1GOiSznrTyRJg7+6r+2D99xKADgSMOoggIBP4N///rc0bdpUrr76al9etCeDBw+2bbz0Uuj9t6Ntk/oIIIAAAggggAACCCCAAAIIIIAAAggggEC0AswEjlaM+gggUKgCOvt3xffr/JZwdktEu46DLRUdauZvxtoN8vn4yX7tuXY4IoAAAggggAACCCCAAAIIIIAAAggggAACCCCAAALxKEAQOB5fVZ4JgRgWcAHepavWiJ7rDGAXBPYeXbBYHzXYss+BS0lre+7+GOZh6AgggAACCCCAAAIIIIAAAggggAACCCCAAAIIIIBAngIEgfMkogICCJxLAV3K+W/D3vB1qYHgwGCwFmpANzCo62b9asDXm9wsYW8e5wgggAACCCCAAAIIIIAAAggggAACCCCAAAIIIIBAvAoQBI7XV5bnQiBGBZo2rGf3AdaZvJrczGBvMLhZo/p++/3mFfzVNs825eTkyMnMLElNOft/XBZEG2c7fu5DAIFcgQULFsj06dNlxYoVUqtWLWnXrp0MHDhQkpKS8iT67LPPZPXq1ZKYmCh33HGHVKpUyd6jbX311VeyZs0aadGihVx11VV5tkUFBBBAAAEEEEAAAQQQQAABBBBAAAEEEEDgXAicfVTjXIyOPhBAoMQKBM7y9QaDFUWXidak+weHmvmbn+Dv3v0HZPiX4+W7JSvl5MmTUrtGNenVrZP069ldNm/dIY+/+Jp0atVc7v7hNXYc+mvH7j3yx6dfkdbNG8l9t10vYdvYtlMef/5Ve+/xEyd8bZRKTbXnbZo3lvuGXi/3PfqkHD12TFy+q3jVgN7Sv+cFcuev/2Sz7rpxiFzUpYMrtsctpo9Hn/q3PX/sgXukfp1afuVcIFASBPRLGM8//7z8+9//luzsbL9H/uCDD+SZZ56RatWq+eV7Lz755BN56KGHbNbjjz/uCwB//fXXcv/998vx48dt2ZgxY+Tdd9+VHTt2eG/nHAEEEEAAAQQQQAABBBBAAAEEEEAAAQQQKBIBgsBFwk6nCCAQSkBn9a5as9631LMLBuvRu8+vCwp723HLPgcGf7VNTYH53nsDz59//X3ZtnOPXD/oUqlapZIsWLpS3v98rGRLjg2+dmjVTGbMXyyDLr3YBoj1/jETp8sxExC6os/FtrlwbfQwAdubhvS39Q4cPCQjv5pkz11e5YoV7bW2p8nl2wvzq+F5te1pQkKCaJBr8szvzggCfztvoat+RvDLV8AJAnEuoMHaF1980c7iffjhh6V3796yYcMGeeyxx2TWrFmigd3nnnsuqMKUKVPkkUcesWUa8L3hhhvs+ZEjR+TRRx+1AeDzzz9fHnjgASlVqpS8+eaborOGSQgggAACCCCAAAIIIIAAAggggAACCCCAQFELEAQu6leA/hFAwE/A7QesQV6d7euCwFpJzwODwZofLPgbbIno1596TKvnmXQG7/rN26TPhV2kb4/zbf32Jui7duMWmb94hQ0CX93/Epm9cJmMnjhNfnTT1bJr736ZOmeBdOvYWurXrWVnAefVRk8zs1jTgUOHbRBY+3N5tuDUr3YtmwbNd3XKlysrq9dtlO07d0uNauk2Oys7R6bNXShadtC0T0KgpAo8/fTT9tF1Gec777zTnjdq1EieffZZuf7662X06NFy7733SsuWLf2IlixZIj/72c8kMzNTbrnlFrnvvvt85WPHjpXdu3dLqpm5rwHmypUr27Inn3ySILBPiRMEEEAAAQQQQAABBBBAAAEEEEAAAQQQKEoBgsBFqU/fCCBwhoAGft0sXz26YLBWdAFhFwzWQG/g7N5gwV+91y0fred5pQrlykmZ0qVl4fLVcolZ+rlOrer2lj/+6se+W6tXrSKXdO8kk2bMk8GX9ZLxU2aZOcIiV112ia0TSRu+xvJ5orOS5y5eLt/OWyRXD8jtf9mq70VnGPfv1V3GTp6Zzx64HYHYFDh48KDdy1dHP2DAAL+H6Nixo9SuXVu2bNkiy5cv9wsC60xhDQwfPXrU1tFZv96k+wNr6t69uy8ArNeR7C+s9UgIIIAAAggggAACCCCAAAIIIIAAAggggEBhCxAELmxh2kcAgagENMDbrFF9uyS0NxjsbcQFg70B4FDB32CzhL1tBTtPSkqUn952nbz8zgj5w79ekiYNzpMeXTuYWb5t/PbmveLSnnb27wefjZXFK7+X3mZmr5uJG2kbwfoPzFu0PMO3f7CW1Uiv4rcXsVkPWi7s3N6OZchlvc2ytwkyfe4CswdwTd9S1YFtco1ASRDYvHmz7zGrV8/9Mocvw5zUqVPHBoHXr1/vzZYDBw7YH83UJddPmH27y5Qp46ujgWNNNWrU8OVxggACCCCAAAIIIIAAAggggAACCCCAAAIIFCcBgsDF6dVgLAggYAU0uKs/GuwNtg+wmx2s5QUZ/PXyt27WWP7+u1+Y2bULZbpZ5vl/H31hxjJNfnnXTb7AaqUK5e3S0F9OmCopKclyZb+e3ibMMtV5t+F3Q5iLVk0b+UormCWevelE5knpY5atnjBtlqz4fq0J/taWeWbZ6psG9zfBq0xvVc4RKFECFSpU8D2v7uMbmHSmsKZKlSoFFtkA8datW0UDyU899ZT84Q9/8NUpX768PT98mKXWfSicIIAAAggggAACCCCAAAIIIIAAAggggECxEiAIXKxeDgaDAAKBAhroDQwGax23VHRg/cB9hAPLI7nOMTNrNZVNKy39Lu5mf1asXivPvPaevPPJaHno3qG+Znp17yIaBO7ctoVoUNilaNpw94Q66p7A15hlskOl4ybQW79OLTmvVg0bsN6xa4+tqjOXp87+LtRt5CMQ9wI1a9aU0mZp92PHjsnSpUulSZMmvmfet2+frFmzxl43bNjQl+9OvvjiC5kxY4bdC/itt96Snj17Sq9evWxxvXr17FH3Ddb/r+tsYRICCCCAAAIIIIAAAggggAACCCCAAAIIIFCcBBKL02AYCwIIIBBKQAPBrz/1WNC9fXXJ54fvu8OWa738ptkLlspdv/mzfGf22XWpRZOGUrt6Ndm8bafLsseUlKTcY3KKX340bfjdeBYXLuDc0yxHrXsDT/x2rnRp18IEsctIdnb2WbTILQjEh0BiYqLcdNNN9mFefvll2bVrlz3X/88899xzdplnXRK6W7dufg/cunVr0dm+l112mVxzzTW27OGHH5bdu3fb8969e9uj7h08YsQIe66/pk6d6jvnBAEEEEAAAQQQQAABBBBAAAEEEEAAAQQQKEoBZgIXpT59I4BA1ALemcF6s+4f7N0bOOoGg9ygQeWKZlbv+5+Pk5OZWZJeqfgeTLwAAEAASURBVKJkrFsvG7Zsk/M7tA5yx5lZBdGGa1X3BJ6zYIm7tMfaNapLnVr+e5zqzN8Pvhgnm7Zulxuu6OdXnwsESqrAT3/6Uxk3bpysXr1a+vfvL507d5a1a9fKunXrJCkpSR599FG//X7VyTuz95FHHpGZM2favYN1Sehhw4bZGcXXXnutDQBrcPjdd9+1M4J1tjEJAQQQQAABBBBAAAEEEEAAAQQQQAABBBAoDgIEgYvDq8AYEEAgaoGCmPEbqtNyZdPktz8ZKh99OV5eef8TyTGzaTVYdGGntnLjkIGhbvPLL4g2vA2+9M7p2YaaP6RfrzOCwNpnpzbNTcB6k7T07CHsbYdzBEqagO73++mnn8oTTzwhEyZMkEmTJtn/P7dr184GgDt27BiWpGLFivL3v/9dbrvtNhk/frwMHz5cbrjhBnn88cftbGG91mWhdf9hDRgvW7bM9he2UQoRQAABBBBAAAEEEEAAAQQQQAABBBBAAIFCFkjIyMjI8e6RV8j90TwCCBSgwObNmyW1VDlJSysriYlJ5od9KQuQ1zaVlZUth44ckfJl1fjsfAuijYJ+LtpDwCtw9EjuVZk0b27RnOtSzVlZWXL06FGpmn56n+2CGI0uj75t2zapXLnyGbN/z7Z9Hev27dtF9x/W5adJCCCAAAIIIIAAAggggAACCCCAAAIIIBCbArt2H7SfG+qkMO9qgbH4NBs3rBZmAsfiK8eYEUDgnAkkJSVKxfLl8tVfQbSRrwFwMwIIWAEN0tauXbtANfQNYUG3WaADpDEEEEAAAQQQQAABBBBAAAEEEEAAAQQQKJECTFkpkS87D40AAggggAACCCCAAAIIIIAAAggggAACCCCAAAIIIIAAAvEqQBA4Xl9ZngsBBBBAAAEEEEAAAQQQQAABBBBAAAEEEEAAAQQQQAABBEqkAEHgEvmy89AIIIAAAggggAACCCCAAAIIIIAAAggggAACCCCAAAIIIBCvAgSB4/WV5bkQQAABBBBAAAEEEEAAAQQQQAABBBBAAAEEEEAAAQQQQKBEChAELpEvOw+NAAIIIIAAAggggAACCCCAAAIIIIAAAggggAACCCCAAALxKkAQOF5fWZ4LAQQQQAABBBBAAAEEEEAAAQQQQAABBBBAAAEEEEAAAQRKpABB4BL5svPQCCCAAAIIIIAAAggggAACCCCAAAIIIIAAAggggAACCCAQrwIEgeP1leW5EEAAAQQQQAABBBBAAAEEEEAAAQQQQAABBBBAAAEEEECgRAoQBC6RLzsPjQACCCCAAAIIIIAAAggggAACCCCAAAIIIIAAAggggAAC8SpAEDheX1meCwEEEEAAAQQQQAABBBBAAAEEEEAAAQQQQAABBBBAAAEESqQAQeAS+bLz0AgggAACCCCAAAIIIIAAAggggAACCCCAAAIIIIAAAgggEK8CBIHj9ZXluRBAAAEEEEAAAQQQQAABBBBAAAEEEEAAAQQQQAABBBBAoEQKEAQukS87D40AAggggAACCCCAAAIIIIAAAggggAACCCCAAAIIIIAAAvEqQBA4Xl9ZngsBBBBAAAEEEEAAAQQQQAABBBBAAAEEEEAAAQQQQAABBEqkAEHgEvmy89AIIIAAAggggAACCCCAAAIIIIAAAggggAACCCCAAAIIIBCvAgSB4/WV5bkQQAABBBBAAAEEEEAAAQQQQAABBBBAAAEEEEAAAQQQQKBEChAELpEvOw+NAAIIIIAAAggggAACCCCAAAIIIIAAAggggAACCCCAAALxKkAQOF5fWZ4LAQQQQAABBBBAAAEEEEAAAQQQQAABBBBAAAEEEEAAAQRKpABB4BL5svPQCCCAAAIIIIAAAggggAACCCCAAAIIIIAAAggggAACCCAQrwIEgeP1leW5EEAAAQQQQAABBBBAAAEEEEAAAQQQQAABBBBAAAEEEECgRAoQBC6RLzsPjQACCCCAAAIIIIAAAggggAACCCCAAAIIIIAAAggggAAC8SpAEDheX1meCwEEEEAAAQQQQAABBBBAAAEEEEAAAQQQQAABBBBAAAEESqRAcol8ah4aAQRiRiBj7Qb5fPxkWbpqjVw7sI8M6ntxRGN397Vo3CDieyJqmEoIIIAAAggggAACCCCAAAIIIIAAAggggAACCCCAQDEXIAhczF8ghodASRdo2rCeDO7XywaBR4yZKCu+XycP3nNrSBYX/NWgsSZ3jDR4HLJhChBAAAEEEEAAAQQQQAABBBBAAAEEEEAAAQQQQACBGBFgOegYeaEYJgIlWUADwQ/fd4cl0KDuv155OyTH34a94Qv8hqxEAQIIIIAAAggggAACCCCAAAIIIIAAAggggAACCCAQxwIEgeP4xeXREIhlgTt//SfRWb0urVqz3p1yDCFwMjNTcnJyQpSWrOzMzKyILNSMhAACCCCAAAIIIIAAAggggAACCCCAAAIIIIBAvAmwHHS8vaI8DwJxJKCzenUGsAaAdSlol9wSz+7aHUdNmOpOfcdo9hH23XTqRAPRmu66cYhc1KXDqdzcw5ZtO+XRp/5tLx574B6pX6eWr/zQkaPyi//7h71+/anHfPl6smbDJvnny29Ls0b15P67bpaEhARbfuLkSfnlY09J945tZOgPrvS7Z8ToCTJq4jT5+e03SMc2LfzK9GLB0pXWZ8v2nZKamiKN69WVH149UGpVr2rrjp0yQz78fJw9L5Waao/6KzExUYY9/lt54Y0PZL5p4+LzO8od1w/2letJVnaO/O5vz8vuvfvkh1cNlL49zpe82tPyT7/6Rq7o28NvP+ZlGWtMXx/KLddcLpkm+PrBqTEdP3HC16cb3zUDLpF+Pbvb/M3G+vHnX7Xnweq2ad5Y7ht6vS1fuup7+ejLr2Xjth1SKiVF2jRvZCwul4rly/n6OH78hHz45TiZu2i5HDp8RGpWq2rGepFc6HmNX/jfh/bv7oU/P+S7jxMEEEAAAQQQQAABBBBAAAEEEEAAAQQQQAABBGJFgCBwrLxSjBOBEibQulkju6yzBoKDJQ34evf51WtvoDjYPdHmaYBWZ9ZOnvndGUHgb+ct9DWXnZ3tO9eT2fOX+K7XbtwsDc+r47vWqhrIXLxitcyYt9gEHtvZMu1H8zUY7E1ZWdkyZfZ8m6XHwCDwvMXLZdibw6VFkwZyb79rRQOcn4+fIn998XX584P3SuWKFSTLzIrVpEHexvXr2nP9dSr+LG427Mz5i+XGwZdJmdKlfXWWmaCqBoA1ZWbltpNXe1quz/LpuMnSuV0rE2RNt/dnZeU+Y3Z2ljRpUE9uGtLf5s8yXstXr5XmjevLBZ1yPRrWO21WqUI5X90DBw/JyK8m2fvc/ZUrVrTXC5dlyHOvvydNG54nd5pg9qEjR6zFn579r/z1oZ9K6VKl7Ov5z/+8Jes3b7NB6hpV02XOomXy6gefyeGjx6Xfxd1sWyfN63DMWJIQQAABBBBAAAEEEEAAAQQQQAABBBBAAAEEEIhFAYLAsfiqMWYESoDA4H69wu7t6wK+LhC84vt1PpX8zP71NXLqpHy5srJ63UbZvnO31HDBTDM7dtrchaJlBw8dDrxFpppgrQYiN5kZrN/OXeQXBPZWfv/zsdKuVVMpl1bGm+13vmTlattH+1bNZNHyDNl34KBUqlDeV0dnvVY01w/86BZJSU6y+bVqVJMnXnjNznR1QU0t6N29s3iDq75GzEm5smly2MxgnmsCohef38lXNH3ugpDPGa49bSDLBI3fHjFKfv3jW30znl3DdWpWE/3RVLZMaRsE7nNBF+naoY2r4juWNT49u+WO6YDx1iBwnwu7+PK0ogbRP/xinFQyQe/f/HioJJ+yqFerhvzzP2/L+Cmz5Mp+PWX2gqVmNvZmue3aQdLb9Kepm5l9/eRLb8qnY78xwf72kmbGQ0IAAQQQQAABBBBAAAEEEEAAAQQQQAABBBBAIJYF2BM4ll89xo5AHAs0bVhPdCllDeiGShoIdktAP3jPraKzhwsyAKz9djDB1zImKPjtvEW+YejsWJ2RemHntr48d7J56w4zy3Sr9OjaQc43s2C//W6Rb6atq6PHnmZW7rHjx+UjE7gMlzQIq4HNW8xSzBro1Nm6Lu03Y9ixe490advSFwDWMp3t+7xZxlj7iDSVL1tW2rZoYgLYC3y3HD5yTOYtXhH0OX2Vwpz0ubCrDe567cJUz1fR3v0HZdvOXWY57da+ALA22LJpI6lgloJetnqNbX+FmXGsSQO/LumMb30tjx47Jhu3bHPZHBFAAAEEEEAAAQQQQAABBBBAAAEEEEAAAQQQiFkBZgLH7EvHwBEoGQI609fN9g225LN3RrAGggs8mcDrhZ3by9Q5C2TIZb3NProJooHZ+nVqSm0z4zYwTZ+3wO6126lNS6lapbJMnvWd3bO3a/vWflVr1qhq2uspI8dMMktCt5cG59X2K9cL3a92/tJVclnPbpJepZI0M4HxqbMWyIBeF9q6u/bkLtNcuWLuzGANEutsXpdyJMed2uNfzL66jTzLLP/gikuleaMGtuyEWb5Zl4vWpaXdrOc5C5fYwHOnNq1k7OSZfm3pRbj2tFyXut5mZlDr3r/tWzbVrEJLO00wXFN6pUpn9FG1ckXZvmO3zd+2a7dd7tq75LUWVK6Ye58G1Zs3bmDr8gsBBBBAAAEEEEAAAQQQQAABBBBAAAEEEEAAgVgVYCZwrL5yjBuBEiigweBgM4O9M4ILmuVE5kkzq7e97Nt/QFZ8v9YEWXNnx+qSySdOZPp1p/v3TjfLP7czM2p1CWMNsOqS0dNMADlY6t/rIqlVvZq8+fEoyTy1b6+3nu6Vq0squwByt45tZeuOnfL9+k3eauY8N9i7Z99B+cVj//T9vDNytF+9Fia42crMjHU/5dLK+sqPmz1w27VsZsftZu7quDu1aS6lS6f66nlPwrWn9RLM/3TZZZ3xPPyL8d5bC/xcA+CadFZvsJR1qtweglRxt7l2grVBHgIIIIAAAggggAACCCCAAAIIIIAAAggggAACsSLATOBYeaUYJwIIWAE3K9jNAHYs7tqVu/z8Ho+bQG/9OrXkPLO37HQTFN2xK3fGqS4nPHX2d37Nu/17FyxbJcPeGm7LdM/gxStWy559B6RKpQp+9XUP39t/cIX8bdgbMmriVL8yvXj30zE2b9SEaRpRNYHog/Z6xryFdsnnaumV7fXuvQfssaJZ9vgvD/5EjplZvboncGD6waBLQ+4JfPzESbuktM7e1VnP55uZy7p3ru7NfMKUBUvh2nP1q1et4pvxXLZc6L2PXf2zPVZNr2Jv3b1v/xlN7Db2tU7t51zTjGfVmvU2MF26VClfXQ3ya6p2qh1fAScIIIAAAggggAACCCCAAAIIIIAAAggggAACCMSgADOBY/BFY8gIlFSBjLUb7KOfyxnBbmZoz26dZO7i5TLx27nSpV0LO2M2Ozvb76WYZpaJ1tTOLH2cnJRkfyqZwKymWfNP7ylsM0790r2Pe5m2A5db3rRlu69asgkWa3tVzZLQmr6dt1hOnMyUCmaWcY2q6XZcJ8xM3uTkRKlTq7rUqXnmMtW+xkKcuOfs0bWjnfX8+vDPRMfeunkTycn2X1Y6RBMhs3XGsy6dPW7KrJB18luQbgLs1czy27MXLDWzqk+/LhlrN8r+AwfNrOz6totmp5a/nrNwqV+XM82s69TUFKlXu6ZfPhcIIIAAAggggAACCCCAAAIIIIAAAggggAACCMSiADOBY/FVY8wIlEABtx9w62aNRPf+dTN+3QxgR+KuXbnLz+9RZ/5+8MU42bR1u9xwRb8zmrP79y5ZKV07tJKf3PIDX7kGVx964jmZonv59r7Il+89uc7M0J23ZIXdA9jlT/9uoT39y69/6hfUbdu8sbz6wWcy39TXMd04uL889/p78tR/3pKBpv20MqVl0YoMe2+pVP9lnGfOXyy79ux1Xdhjl4C9inXGs+53vHbjFrnCLL+dZPZADpUiaU/v1RnPQ6/LnfEcqq385usy0DcOvkxe+N+H8uxr70qfC7vIIbM/8sivJkm5smly2al9lLt3aivjp86Qdz4ZI4ePHjMzhKvKXBMQXpaxxi41rst4u6RLcc9ZsMRd2mOdmjWk9lkE2f0a4QIBBBBAAAEEEEAAAQQQQAABBBBAAAEEEEAAgUIWIAhcyMA0jwAC+RdwAWBtaemqNfKvV94+54FgDSTq/rgZ6zZJS7OvbmDS/Xt1ZnC39m38ijQ4qYHHUROnmb18N/uVuQsNPN48ZIC88t5Im6UzWafPWWiCv2fO6m3fqoUkJX1p9h5eYIPA7Vs1lQd+dIt88PlYGwDVBrS9Ab0vsEs5uz70OH7qLPvjzXulTSvvpT3XWc9vm/2EL+zS/owyb0ak7ek9bsbz5Fn+S2h728vvecc2LeQXd94oH34+Tl58c7hxSpIWjevL7dddaUxK2+YTTVD7N/cOlffMUtufjv3GLnVdsUJ5+eFVA6XPRV3PGMJL74zwy7vu8j4Egf1EuEAAAQQQQAABBBBAAAEEEEAAAQQQQAABBBAojgIJGRkZOU2aNCmOY2NMCCCQh8DmzZsltVQ5SUsrK4mJSeYn9KzNPJoqtsXeALB3kNcO7OObDRxJHe+98Xp+/PgJyTKBaJ0NXNLTETPLNzUl1S6RHcoi2yxzffTYMRs0D1WnpOQfPZL7pGXSiv6Jdfa8zsI+evSoVE0vX/QDYgQIIIAAAggggAACCCCAAAIIIIAAAgggUCIEdu0+KGXKlLETjHSCVyynjRtWC3sCx/IryNgRiHOBSIO753KP4OJMXqpUKgHgUy+QBsJ1j+RwSb804V3+OVxdymJbYO/evbJ48WJZsGCB6JdnXNq0aZNMmjTJXRbJ8fDhw7JkyRIb+PYOwHxJTw4cOODN4hwBBBBAAAEEEECggAX0veHYsWPliy++kKVLl/pa1/eOL7/8su+6KE727NkjkydPPqPr6dOny86dO8/IJwMBBBBAAAEEEEAAgUCB8J+QB9bmGgEEEDhHApEGgN1wCAQ7CY4IIOAV2LBhg0ydOtV+g69y5cqyfPlyWbgwd89tb72zOdcP36ZNm3Y2t/ru0SCwfuCogWBvWrt2rWgZCQEEEEAAAQQQQKBwBPQ94WuvvSYVKlSQ8847TyZOnCijRo0qkM70vdwbb7yRr7b0i4wa8A1MM2bMEA0Qn20qiLGdbd/chwACCCCAAAIIIHBuBQgCn1tvekMAgQgFRoyZeEZN7xLQZxSajHCB4GD1yUMAgfgW0GWl58+fLxdeeKHo1hf169eXiy++WHSW7cmTJ/0e/tChQ34fpu3bt0/0x6Vt27bJmjVrfHlaXz9A09kjOqPYpWNmifF169bZfO1fk2t7+/btou0EptTUVNt2uA/zDh48aOtof65dfQZtT4PFOpatW7fapvfv3y/ff/+97Nixw6+rYGPzq8AFAggggAACCCBQQgT0/dQnn3wiQ4cOlQsuuEA6dOggd955p515q9uSeNOuXbtk48aNvix9/+Xe0+lWJitXrpRZs2b53otp/Tlz5tiVaHRGsUv6nnDu3Ln2C4Du/dzu3btt26tXr7bvUV3daI76PvG7776TRYsWyfHjx323RjM2302cIIAAAggggAACCMSVAEHguHo5eRgE4kdAA77elFcA2NUNFggObMvV5YgAAvEtoB+0ZZt9sqtWrep70FKlSkm/fv0kcE+PLVu2+H3wtn79etEfTbNnz7Yf7mkQVWdjaJD3xIkTvuWa9YM3TRp8/frrr0Wv9V63fJ9+SDh+/Hg7C1nbCEwaBG7btq39sFDHG5g0yDxlyhTbp7arM5s1afBX+9Blro8cOSLz5s2z/eiHjdqPzhLRsWoKNTZbyC8EEEAAAQQQQKCECeiKLhqI1S8JulS2bFn51a9+Zfd/c3l6XLFihXz77be+LA246o+mjz76yL5P0/edOvNX34/p+zL3ZTy3bLO+H3zuuedEg75a55VXXhEXpH3mmWfsLOSz2QpEvwSo92v7Gkh++umn7XvRaMZmH4RfCCCAAAIIIIAAAnEpkByXT8VDIYBAzAtoMFeTzgiONADsHjo/97o2OCKAQOwL6CyOMmXKnPEgFStWPCMvXIYGiHv16iW6nHTt2rVtQLVKlSrSpk0bu4xzy5Yt7e0afG3VqpU0atTIXuv+cu6DP83o3bu3zQ/2S2cq69LVulx169at/aokJydLjx49RMetQeKRI0faIK+rpDOdNahdvnx5G/i9/vrr7XVKSoqdkdKgQQM7EyVwbDrTuVKlSq4ZjggggAACCCCAQIkR0C/I6TLQgalmzZqBWWGvdVuPu+++W+rWrSv6nlCDsfXq1bNfOvzqq6+kT5/cLzePGTPG5p1//vk2+Puvf/3L92U97eCee+4J2o/OKv7rX//qV6Z5Lmm7l112mXTv3t1mffbZZ/LNN9/IlVdeaWccRzI21xZHBBBAAAEEEEAAgfgTIAgcf68pT4RA3AhoMNcFdKN9qPzcG21f1EcAgeIpkJSU5Fs6OT8jbNeunZ19qzOKdb84/WAvWNKlmjXo62YQaxBaZ4VoqlGjRrBb/PL0Q8Fx48bZDxG9BRpwXrZsmW+5ap21kpmZ6aviZjXrjGKdweK9dvWCjU3HRxDYx8gJAggggAACCJQgAV0dJnB7kLN5/EGDBtl9hfVLgPqesWPHjkGb0S8L6tYibgaxrhzjvizYokWLoPdopn4J8cEHH/Qrf/bZZ33X+r5TA74u6RcL3Wo0kY7N3csRAQQQQAABBBBAIP4ECALH32vKEyGAAAIIIICAEdCZsbocn37Ap7NiNemye7pMcqgP6Gwl80v3fatVq5a91A/1dKlA/aBOlwPU2RfB7tcPEzt37iwatHVJ89aZJZn1mFcqV66cnQWsy097l4XWJQO1TGcSJyYm2pnArq3SpUu7U3sM1U+wsQXe69cQFwgggAACCCCAQBwL6Jf7dFUU78ox+j7x7bfflquuuuqMJ9cyl+bPn29n/eq1fomvU6dONsCrM3D1fd+QIUNcVd9R38tdd9119guFLjMtLc0uDa1f4guV9EuNge/vNM8lLdNtSlzS972ufqRjc/dyRAABBBBAAAEEEIg/gcT4eySeCAEEEEAAAQQQENEgZ506dexSyM5DP5jTD/wCl4nWa7cPmwZgdb9dXYZZP0j75JNP5Pjx46LLAzZu3Ng3I1cDsm6mrbavs4R1Xzb9QE8/zNOgsc7ajSY1a9bMVtclCl3SQLYGtLU/3UdOx+T9INLVC3cMNjZvoDncvZQhgAACCCCAAALxJqBB2bZt24ou2ezeV82dO9e+lwtcJlqvt2/fbuvpezt9P6bvMzWA/Ic//MGu/KLv4bp162a/SKhW+gVEb3C2Q4cOdtsPXYVFZ/fqrOBo3ycGew10GxG3X7G2p1921C1AohlbsHbJQwABBBBAAAEEEIgPAWYCx8fryFMggAACCCCAQBCBrl27ypw5c0T3R9NZExrs1f19A5Pu9bty5Ur54osvbJF+OKdJP8DTD+0mTpwoutyyfpinsyo0aR0NyI4ePVouv/xyuwTgrFmzZNSoUbY8PT3db7aHzczjly7l7JaFdlX1w72ZM2faYLYGg3UcGhh2szxcvXBHXZ4wcGyhlrUO1w5lCCCAAAIIIIBAvAjozNyPPvpI/vSnP9n3fBqgDbY3rwZVdYnlJ554wgaC9ct1mvR95eDBg2XYsGH2XAOvN954oy3T95b6JcK///3v8tvf/lYGDhwoH3zwgW9/3wYNGkj79u1t3fz86t+/v3z44Ye2XQ0Ct2nTxgaj9cuDkYztd7/7XX66514EEEAAAQQQQACBYi6QkJGRkaN7hpAQQCD2BHSPx9RS5cyss7JmhliS+UmIvYdgxAggUOQCR4/kDqFMWpEPxTfDQj9Eq5pevsAG5GZaeJfPC9a4Bnk1yBosBSvTmSOa7w3IRtpXsD7C5WnA2S1rHa5euLLCGlu4PilDAAEEEEAAAQSKs4C+P9L3dLoKTLikX8LTwK9+aS8wBSvTVVeOHTtmV4lx9fX9nN6fV1+ufqRHbVcDv8He60Y6tkj7oh4CCCCAAAIIIBDPArt2H7Tv+fR9VbD3fbH07Bs3rJbw73Bj6WkYKwIIIIAAAgggEEIg2AdiwaqGCgBr3WBl+mbQGwDWepH2pXWjSfkNAGtfhTW2aJ6DuggggAACCCCAQHESiPT9kW75ESoFK9OgbGB+QbyfCzaGcO0GjkHvDza2YO2ShwACCCCAAAIIIBDbAuwJHNuvH6NHAAEEEEAAAQQQQAABBBBAAAEEEEAAAQQQQAABBBBAAAEE/AQIAvtxcIEAAggggAACCCCAAAIIIIAAAggggAACCCCAAAIIIIAAAgjEtgBB4Nh+/Rg9AggggAACCCCAAAIIIIAAAggggAACCCCAAAIIIIAAAggg4CdAENiPgwsEEEAAAQQQQAABBBBAAAEEEEAAAQQQQAABBBBAAAEEEEAgtgUIAsf268foEUAAAQQQQAABBBBAAAEEEEAAAQQQQAABBBBAAAEEEEAAAT8BgsB+HFwggAACCCCAAAIIIIAAAggggAACCCCAAAIIIIAAAggggAACsS1AEDi2Xz9GjwACCCCAAAIIIIAAAggggAACCCCAAAIIIIAAAggggAACCPgJEAT24+ACAQQQQAABBBBAAAEEEEAAAQQQQAABBBBAAAEEEEAAAQQQiG0BgsCx/foxegQQQAABBBBAAAEEEEAAAQQQQAABBBBAAAEEEEAAAQQQQMBPINnvigsEEEAAAQQQQAABBBBAAAEEEEAAAQQQiBmBXbt2RTzWhISEM+pGmnfGjUWQ4caak5MTce+h6kabH9ihG4s3PzDPe+09d/cEy3NlRXGMZDyh3ALHG2m9wPsK+rqwxxGJmfeZCns83r7cebRjdPfp0XtvNGOPpq63P++5t29vvp6HKguVH3h/pNfRPEe4upUqVYq0S+ohgAACBSpAELhAOWkMAQQQQAABBBBAAAEEEEAAAQQQQACBcycQLvDgRuECI4F1NT8wz91THI/RjDVU3WjzQzm4dpyt1tM877X33nBl3nrF/dw9d7hxRlIn3P0FVRbJOILVCfUaBhtXuPuDlQVro7DzdBzRPJN3PNE+Q7T1vX0Fnudn3IFt5ec60meKtF5+xsK9CCCAQLQCBIGjFaM+AggggAACCCCAAAIIIIAAAggggECBCmzYsMG2N3nyZGnQoIE9v/jiiwu0j5LcWLDghAaFosmPJb9gz6XjjzY/v8+s/Z1t8C2/fRfW/aEMvf1FUsdbv7DOw40jkrKzfe3CtX22z+pt82zGpfefzX3Rjtc7zmjvDVb/XI07WN8uL9pnira+64cjAgiEFuB9YmibvEqSfvGLX/yxSpUqedWjHAEEiqHAwYMHJSk5VVJSUs0bucRz8mauGDIwJAQQyKdA5sncBlJS8tlQAd2u/8GUmZkpaWmlCqjF8M3MnDlTli9fLo0bNw5f0VO6YMECmTNnjjRv3tyTyykCCCCAAAIIIIBAtAL6od7nn38ukyZNkgMHDtjb9+3bJ999951oQDgpKUnq168fbbN51r/kkktsf926dcuzbnGoMH/+fNm/f79UrVrVN5yvv/5aypUr57uO5iRUMChUfjRtF4e6oYIwwfKD5UXzDIH3B15H01ZR1o3mtY/kGSOpU9jPG24M4crcuLROJPVc/YI8ur7d0du2y3NHb1lRnut4Iklu3O4YyT2R1InmbziS9rx1In02vSdY3bS0NG9zQc+3bNkiS5culbp16wYt18xVq1bJE088IZ06dZKyZcsGrReqzrFjx2TevHkyYcIE0W0EKlasaD53yXtcQTshE4FzJFAU7xOPHD1h4i0pkpgY+/GWA/v3CDOBz9EfK90ggAACCCCAAAIIIIAAAggggAACCJwWmDp1qkycOFEaNWokjz322OmCU2eufN26ddKrVy+pV6/eGXUKM0OD0Hv27JGrr77a141+uP7NN9/I7bffLqmpqb78wjzJysqSn/3sZ/LPf/7T101GRoY88MADMn36dNEP9jUFCzz4bjAn3gBJYF1XFpjvvT+WzkM9R7D8YHnF4Vnda+IdS2GNVfuKtu1I6kdSx/t8eZ17TSJpO1ydcGV5jeNclBf0+KJ5jb3O3mfNa0x5lWtbkdTx9hnpebjnC/U83rYjGVckdbxt6nkk94wdO1b++Mc/2sBs9+7dRX+CJf13wc0332y/EHTddddJtWrVzqgWqs7evXvlnnvuEQ00awD5gw8+sO28+uqr0qpVqzPaIQOB4iDg3gcW1/eJxcEokjEkRlKJOggggAACCCCAAAIIIIAAAggggAACCBSUgPtgr0+fPnLrrbcGbVaXg3bBYQ3InuukAer333/fr1sNvmow9uTJU8vp+JUWzsW0adNswNk7a/mzzz6TQYMGSYUKFWyQIZJAg9YJ/HEjDsw/2/aCtZOfPDe+wGNebWr9vOoUVHlgX97rUOfat7fMjcVmnvrl8rzHvMq9dcOde9vR83B1Q5W5NkKVa/7Ztu3adH24o8t3bQfLD6zjvY6387ye3z2v1nPnoY6urXB1w5Vpu3mVR1rHO8ZgbQbL897jzu2AzC93He4YSV1XR4/h2vKWubree73nI0eOlPvvv1/uvfdemTt3rrz99tveYr9zF7j1ywy4CFVn2LBhoitKjh49Wl544QX58ssvpWXLlvLss88GtMAlAsVDIBbeJxYPqbxHQRA4byNqIIBAMRTIWLtB3E8xHB5DQgCBYiSgH9CtXbtWdAnn1atXy9GjR8OOLjs7W/TDvY0bN/rqHTp0SFasWCGLFy+WnTt3+vI5QQABBBBAAAEEEDg7AQ2wagA4cN9f/QDc7fvmWtZZwGvWrBH9QLCgk74/fO211+yH4kuWLLHN67LL7777rrz33nuiyzDrufY/YsQI0VlTmt555x2ZMWOGPf/222/t2DZt2iRvvvmm6Ifts2fPtmXeX/o+8q233pJnnnnGfgCv/bikS2Drh/fB3qt+/PHHorO+dGlsTfr+VsfinaGs+d7AQ7hzretSYD2Xr8fAssBrb91I6gfeH+w60ja99YK1o3nBxhRpXqg2Cyo/cBx2sOZXNO27ewLbCtVGtPVDtROY79oNzHfXrrwwx+n6cH16j6H6zeseVx7qfm8feh4uBdaN5Dpce64s0nZC1XPt6DFUncB8d09gvruOpC3Xhju6ewOPwdoKzAvWRrC8wLZDXbt7A/sJrO+tF2ndwH/OHz9+XP7xj3/Iww8/LEOHDrXLMwe26651Bq/W/ctf/uKyzjiGq1OzZk0bbNYloDXpv0/037+6zZU+GwmB4iZQXN4nFjeXsxkPy0GfjRr3IIBAkQn865W3ZemqNX79t27WSAb36yVNG57bpcH8BsEFAggUSwH9pqvOGtHln3T/tG3bttlArv7Hjnc/NTd4/Y8f3SN4x44d0rdvX5ute+VMmTJFSpUqJVWqVJFZs2bJ4cOH2TvHoXFEAAEEEEAAAQSiFHDB3MAAsDbToEEDWb9+vd/Sz7oMtAaM9QPBYPdE2b2vuu5FrD+dO3eW5cuXy4svvmgDsbVr17b7MrqKukejzphatmyZuECxfjnQvZ/UGVU6M7dWrVrSsWNH+2VCnV31yCOPyB133GGbWblypdx4443SvHlzadasmQ0Ea7BYg8K6pKfOAPvDH/5gl+Vs166d69ouD6p7//72t7/15en7W93HsWvXrjYv2g/wA+t7l0oNLPN1epYnodrz9ultOlR9b51w58HuD5anbUSb7+3XO37XjsvzXud1rm3qfa6et4+CPs+rDzf+SPsN1164srzaz8+9ru1QbYTKd/e5YyT1Ar0iuce1745nc4+7N9zRO7ZgfbjyYGXh2g1WFqqNUPnB2giWp2P0thE45sBrbSNcXrA+vHnevrz53vNI6rj6weoG/nNe/1muX/wZOHCg6D/n9Vz/+V+/fn3XjO+oy0Xr6g89evTw5QWehKvzox/9KLC6/fdZ48aNfW5nVCADgSISKC7vE4vo8Qu8W4LABU5KgwggUFgCoyZMtQHgawf2kWaN6tugr+aNGDPRl699u7LCGgftIoBA7AjMmzfPBm8vueQSSU5OFp3lq/um6cyMAQMGSGKi/6Iomq+BYv2QsXz58vZBdfaHLrOnbei3ZXWPHZ2NcS6XAIwdcUaKAAIIIIAAAghEJqDvt4KlUEFe96G4zhIuiL2B9cuCOhNXP5TXmVE6I0vfH2pQWJeg/utf/yopKSk2OKznmnQfRf3RpTuffPJJKVu2rO8RTpw4YWcOV69e3eY98cQT8vTTT8vgwYMlPT3dlp133nl2VrG+pzxw4IB9fzlq1Ci5/fbb5dJLL7VfRtS63qQB5gsuuEDq1q3ry9ZZwDfccMMZ72V9FU6dBAtCuCCJt663XrByb91Q5942QtXx5udVP69x5HW/9hWsTqR53rEGO/e248bq8rzXoc61TW+Z9zpYf6HyXJ+hyoPlu34Dy86mLW8bed2fV7m3rVBj9NYJPA/VfrT5ge2668AxhWrX1T/b49m0G25sgWU6Lm8fwcrDjd17b2C9sy3TdgLH4dpy+e7a1Q281nyX5+7x5ul5tMm1F8l9kdQN/Oe8rjame7pfddVV9t9D2oauYqb//rj22mt93eq/l/SLR2PGjBFdpSxYiqSO3jdp0iS7Qpp+uUk/63jppZeCNUceAkUuUNTvE4scoAAH4P/JZwE2TFMIIIBAQQq4YK8GgAf1vdg361cDvjoTWJMGg/Xnb8PeEJ0xrMtFkxBAoOQK6H9Mbd++3c620ACwJg36tmrVyu6Fs3fvXj8cXS563bp1dnZJpUqVbJm2sWfPHmnatKlv+T390E5nXhAE9uPjAgEEEEAAAQQQiFhA33OFSsGWg9a6BRH49fapAWANuLqlMXXVF32fqMtpRpt0FRlNLgCs5zoDWN9L6ofsmipXrmxXm1m0aJENVOiXDHWFGe9+yIEBYL1v+PDhfsEAfX/7zTffyJVXXqnFQZMGEkIFJMKVaWN5lXs7dHVD9eWtG+25t+1g56Ha89b11nH5eeVpuasb7hiuHb3PpcDzwGtXT4/h+gtV5r0/0vNgbUV6b2A9b1uBZXqdV3mwewLvC9aGN8+dB7YVbX7g/YHXrj13DCw/m2vXlveY33YC7/e2reeBKbA8r+tw93vLAtvxlgU799b3lrv8wLy8rvW+s0muv7zu99bLq653HN5/zusX0PWL6jqDV/fq1SDv3Xffba/dNlS7d++2QWFdKcJ9TuFtT88jqePu0QCzLiutX0Bq0qSJ/XeTK+OIQHERKA7vE4uLRUGMgyBwQSjSBgIIFJqABnI1oKvBXU0aANbk8jXgq+nh++6Q1596zP5ooFiTlhVUIPhkZqb9jxfbML8QQCAmBHR2hyb9gM2b3LUr1zIN9OoSfZrcDGA912WfNZUrV84e3S8NApMQQAABBBBAAAEEzr2ALhVdUClwlolbOSba9nVGVWDSpaG1Pf2QX9M999xjZ/7edNNNdjlP/SBe9yPWLxiGSvolRQ36esepM4N1trS2n5+UV9DCG+Dw9hMq31vHe+6t7z331imoc20/WAqWHyxP7w2VH9huXvW85d7zaNsJrF9Y1zrGcOMM7Dev+nmVB7YX6XUk7YaqEyrf9e3KvUdXFuzorRd47uoH5gdeu3oFeXR9hGpTywsqBWsrr/4j6TtYG4F95XWt/QRrJ1T/kdR1dQL7DtVmXmPQrac09evXzx7111133WW/QKSrmmnSlSh0m4HLL7/cXgf7FUkdd58uO52RkWG/oKQB6Pvuu88Gol05RwRiXaAg3yfGuoUbP8tBOwmOCCBQ7ATc7F8309cFd12+DtjNDPYOXgPF+qPB48/HT5YH77nVWxzV+YKlK20Aesv2nZKamiKN69WVH149UGpVr2rbGTtlhnz4+Th7Xio11de2zjYc9vhvRcs//eobuaJvD18AWysty1gjL7zxodxyzeVyUZf2vvsCT0aMniCjJk6Tn99+g3Rs08Kv+N1Pv5Jps+fLP3//S/l/9u4EzI6qzP/4yb4HQsIaICGEEAIJO3EZVkVkQHBhXAGNA4jOjKPoX51hGA0IyrjgMriAEhVUHFRw4UFBAgEBkc2wk5CQhbCEJIQkZIEk/e/fie/l9OlTdatu39vp7vut5+lU1dnPp5qmc9+cU0OHEJBqg8MNAq0C/f/+32S8YtfuLd+w9E41veNNKzKOOOIIvx2VtgDUoS2gw6PMX/rCelwjgAACCCCAAAIIbBGwHViKemgbaB1Z20UXbcfKaXvlnXbayW47dB40aFC7+vqdc2PrPya2LaP1jwi/9KUvuc997nPunnvu8e8Q1nafl19+uXvDG97Qrr4Srr32Wr9NqLWv30G1Mvicc85Jli+bqPbCbVOz6tf6u29ePcsr0n/WuMJ0ay9M6+xrjaHIfOJy8X2t484yKDIm69PayKtjZaxOfK6WH5fvjPu8MRXJy/NIjT+vzVT5rLSsdoqMR3WzyuXlZY0lTs8aW1wuvE/VyRpjWM+uq407Kz8rXe2mxmT9NfqsHS7222+/Nt1odwr9AyK9MkA7SWibZ71K4B3veIcvpwCujg9+8IPuTW96k/vIRz5Stcz3vvc9H+gNX4elf+j+gQ98wH30ox91zz77rBs9erRvlz8Q6CoCW/v3xK7iUI9xEASuhyJtIIBA3QUs0GtB3g9/enqlD60KVmD4pGOP9NtCa7Wvgr2PzJnfJiisfFsNvNceu1fqF72476HH3KU//j83cfxYd/ax72p9R9Qrrf3c5i763yvc+Z86243YZrjbtHFLYOjwww50e4557R1NvXpt6UX5G1rfDXXdjbPcwVMmuZ223/J+p02bWnz65s1tA0vh2DZt2uxuaw3y6tA5DgJvbP1QQW1vzV9Yw/FyjUBXE9BfahTE1eqJ7bffvjI83esvmvFWSuPGjfOrhmfOnOn0bp599tnHf2in1Rnaiinc3k/bLXEggAACCCCAAAII1CZw5JFHulmzZpWqvLVWdmT9fStMnzJlilu8eHGb+dg20GPHjvXpl1xyiVM5fWiv90Lq65/+6Z/8lpypIPDatWv9B/vaHtuO+++/3+9gc9RRR1lS8mxBlXCMcUErE6fH93G5vDaz6qbqxO3Gdcveq71UP41qJzX+VFrZ/rtD+XpZd4e5MsauJVDtv7Fq+VtjNnn/vej/CT//+c/95w32mYX+X6d/QKTA7y677OIuvfTSNsNWvrZz1v8/jjvuuEJl1IB2lNA76sN/RKT/z+iIdz7zifyBwFYU6E6/J25FpsJdsx10YSoKIoBAZwoo0GsB4FS/E/cc65O12te2hFZgWPUUQFZguJbAb9jXNb//k9tm+DD3yTNOdYfuv6/7h9ZA70dOfZd7ee06d++Dj4VF3VGvO9gdMfWgytfhhx3UJl+rCK/81fWl/lL68BNPutVrXnb7T5rgHnxsrlu5asvWtm0a5gYBBDIFFLxVIFcBXf1FSe9k079w1bZ6e+yxh3+vr1Xebrvt/OWoUaP8h3MPPfSQ/4uY2tB7ctSGVp9oe+h58+b5smwJbXqcEUAAAQQQQACBcgL2ft/bb7+9XUULmsYZ+od64bbIcX4j7vUBvH4H1O+S9poQWz2srTpXrlzpu7XfC6+44gr/O6S2h54+fbpf4XXAAQf4Mtr284tf/KJTIFcrvLT7jH6v3HPPPX2+to3+1re+5fOUcOONN7oxY8a0WSX2q1/9yr8fWO8vLnIo+JD1lVc/rBOXy8uLy9p9WMeuLa+eZ7WdOlLpeeOwPDtbm3avc3zEaeF9eK161e7jtoveq93UVy31q9WJ5xCWtzGEaZ15nRpbKs3GlDfevDyrnzrXWi9uy9qJz3G5+N7Kx+m6z8tLlc9KUztlD+s7PJdto2x56yurXrX8sF6ZsnE93cc/59/61rf6HSm0Q4T+X6OVj//93//tJk6c6A477DC34447ure85S1tvo4//njf9IknnugUKCtSRhX0Hvmf/vSn7uabb/b/79L76b/zne/4f5ik1cccCHQlge7ye2JXMssbCyuB83TIQwCBrSJQ5D2+9o5gDVDBX9vy2VYQW3qtE3hp9Rq3dPkK96Y3Hub69e1TaUarfb91/mdcv5z3NlUKBxfHvOFQN/POe9yd9z2Yu/1zUMXdce/f3Latq41Pffvx7v89Osf95YGH3FuPTG8TFtbjGgEEXhPQX5506MO2V1pXzmtbJa341b+4zTpUZ+nSpe6uu+7y/7J28uTJvq4+qNM7c0aOHOnbsPe7ZbVDOgIIIIAAAggggEC2gD68njFjhi8QbvEcXlttrYZVADiVZ2UacdYH9D/+8Y/9ql29c1Err/bdd1+n14icccYZ7uSTT3Zf/epXfdcTJkxwTzzxhPvKV77iV3HpHY7f+MY3KgG/8847z+k9wGeeeaYP9Or3Um3Fefrpp/v6qnvZZZf53z+HDx/ufvnLX7pTTjmlMq3Vq1c7vQ9Y20HHhwITdtS6GjZsw9qqdk7VqbV/6yvVpuWF56x+wvphGUsP09ReVnrYl5UJ0+w6lRemZV3n1be8zjiH4yvbX1g3dlVblp/KK9qXtZFXPtW+1QvzUmlhu5YfphW5zquXlxeOrUg/Rcrk9ZeXF7Ydl8sbp8rG+VY/Tg/7qHZtbVi5sveqF9extrLOYflqYw/Lhu1Vqxf/nNcrqq666ir3mc98xgd6VX/q1KlO2zfnvS8+7LPo9b//+7/7op/85CfdunXrfPsKDJ977rlFm6AcAp0q0B1+T+xUkA50RhC4A3hURQCBxggUXcFr7whWQFjbRdvKYb0POAwGF20vnM2yFVv+RfeIbYb5ZP0iphXAdrS4Frv05wu+9QM3bvfX3p/xTye+2e09bmylzBsOmeKee2G5u7r1/cH777NXJT3rYs3La90Dj8xxbzliqhu53bZuQut21rff/TeCwFlgpCOQIaC/nGk1sL70F52BAwe2+8vg6173una19U7g8NC/wj344IP9u4HjdwmH5bhGAAEEEEAAAQQQKCagVR4K7GqFr45UgFcroxQo1j/iS+UX6yld6pZbbmmX8c1vfrNNmlbiarWyXg1iW3Xq98mf/exn/h8NDhu25e+LqqTA7cUXX+zOP/98vwNNvLJK9S644AK/QlirgrUTjQLBdujDztmzZ/sP5rXyWKuJv/3tb1u2+9Of/uR/p7V/5FjJiC7i4EQclIjzo+rtblPl4zbDSqnyYX69rlP9xOOyMmG6pdk4LC9Ot/yi57h+2Xv1E9cp0reNv0hZK1NLP1Y36xy2GY8pzMuq35H0uP2wf8tLpVmfYZ6lZZ2tvaz8Mul5bVUbU17dcAx55fLyqrURji9sp0h62LZdh21Yms5xenxftEzYZpHruJ9wXnn143pW1uqHP+ctb+edd3b6h07abUL1bWcJy4/Pep+9vRc4zrP7VBn9/+ZTn/qU+8QnPuH0eqsRI0b412dZHc4IdDWBrf17Ylfz6Mh4XvttsyOtUBcBBBCos4BW9z4+b4FTQNeOcPWvBXzDPOXrK8zTvQLCYTtWp9h5S7B3xcrV7v9deEmlyhsOnuLOeN87Kvfannr82N0q90MHD6lc66J1UyZ3+rtOcOd+5Tvu/353kzv0gP3a5Mc3dz/wsA82aRtqHVMPnOyu/PX1bt7Cp9u8eziuxz0CCGQLDBo0KDuzQI7+JW69/zVugW4pggACCCCAAAII9FgBBXYVaNX7gS0YrICvjvnz5/vz1lgB7Dv++x/6/c+2gA7Td9hhh/C2cq2tmvO2a+7du7fLqmu/a8rE3ilsDb/jHe9w+kodceDBAg4qG+cVqZ8qE6bltRn2HdYpep3XdtxG3Fdc1/LjdLVTJC/uL7xPtVktrVp+2H7R61SbReuG5TrSjllae3Fbcb6VK3KO20rVidsP61heKs3aCvMsrey5ljZsbKm+amlP7eTVy8tLjSEvLWwrnEeR9Lx2LS9sR2nxfSotVSZVTmlZRziXsExW22EZXRepbz/n47pDhrT9HDHOr9e9+s/6f1C9+qAdBOol0B1+T6zXXBvZDkHgRurSNgII1CygoGoYwFVg14K8WY2GZRT01ZcCyXEwOat+mL79yBH+dvmLq/x5m2FD3QWf+qhb37qd7IXf/mFY1F//0wlvdnsEK4HbFWhN2GHUdu7ktxzhfn3DLW7I0Pxg1E+vu8E3cf3Nf1YE2a18acv7gO+6bzZB4BQuaQgggAACCCCAAAIIINAtBbTS47TTTqu8e9cmoRVTOuy9cJbOub2AAhRh8KFowKJ9S1tSytavZ99ZY0qlZ43TxpPKrzWvTP9xv9Xu1XZcJtVfXprNK69MLX3EdVL9xGU0hrBcKj9vnGXzUu1b/3Ge0uO0sD+rF6bllQ/Llb1uVLsaR17beXll5mBWcXtZ6WXazppD3Fd8n1WvaN+p9sK6NrcwLbyuVj8syzUCCBQT4PfEYk55pQgC5+mQhwACW01AAdww6GtBXdvmWXl22LXK6LB7XVswWddljuFDh7gdR4109z70mHvPSW9x/fv1c6N33sGt37ChTDPtyh535BvdX+5/2N14293t8izh6Weet8vW7cG2vI94VOuW0FoFfOd9D7l3v+241vHw47uCxAUCCCCAAAIIIIAAAgh0ewF9yNddA74f+chH/BbQW/MhNDL4ELcdB0Li/K3poLFljScvr9Yxp/qK0+J79ZVKC8eQlR/bW52s8pafOjeijo2vlrZTYyybltV/VrratzxdFxl3kTJqqyNHOKZUO0XGUK8yYf/huFLtKz+VrjbCumGbus6qk0qP0+J7azsr3fLzzlljrbXNrPbyxkAeAgi0FejOvye2nUnn3xFF6HxzekQAgQICc59a5EtpW2gLBts2zwr2fu2yK9sEe6s1qfbKvhv4vScd5755xc/cV7//E3f8UW90gwcNdA8+Ptd3NaB//zZd/uWBh9yyFS+2STvk71s5h4n9WoO6HzzlRPelS2eEyW2u77h/tr+/4NMfc6N32r6SN3nvPd0Prv6Ne+Dhx1u3h87fTrpSiQsEEEAAAQQQQAABBBBAAIGGCmj75q155AUmsoIPeXWqzaUjdau1XWu+zbOzx5bVX5we32ueqbRq86+lTme0WdTfyuWNqZY5WrupuspLpWsMeXl5Y1ReVpvV6mXl2xzKtF1kDB0tU2RcVibVV15eaJGqm2WRKptKs/bz8lTGxli0vJWrdrZ2q/VfrR3yEUAAgY4IEATuiB51EUCg4QKfOus0pwDunPkLfdBXWzvreGTOfKcA8UnHHlnJ8xkZf5QNAKuZ/Sft5T55xqnu6t/+0X37R7/wLQ8ZPMi99ajX+37Drm66/W6nr/C4bL9J4W3lWmM5cupBbtbd91fS7GLjxs3ujntmtwZ/d2gTAFb+/pMmtr6P9Pfujnv/RhDYwDgjgAACCCCAAAIIIIAAAk0ukBVgUAAiK8/IquVbOc7tBbLsUumpNLWYld6+t85JKTueMkGuIt+P8SyLjKeWduN+ar0vMr5qbZcxjNsq0n+RMnG74X21+vXyz+qnaHpWuXAuWdcdqWvPL9V2R9pNtUcaAgggUItAr7lz57aMHz++lrrUQQCBrSywZMkS13/AUDd48BDXu3ef1q/Wl8f2kEOBX62W/Y9/mVZZwWtbQVvwV8FUlfvtTbN8UPiKr37eWZnw2lYQd4Rmw4ZX3KbNm/1q4I60Q10EuqLAurVbRjVo8NYfnf4CtWnTJrdu3To3auSwrT8gRoAAAggggAACCCCAAAIIIIAAAggggAACTSGwbPlqN2jQoNbFWH263D/WKvsAFi960rESuKwa5RFAoFMEFOBVsFcBXq0G1mHvBbYBWMBX9woF8xS2AABAAElEQVT0hoe2i9Zq4XoEgNXugAFtt38O++IaAQQQQAABBBBAAAEEEEAAAQQQQAABBBBAAAEEEOhKAgSBu9LTYCwIINBGQFs9azWwAroT9xzrg8AqEK7+DVcFK0/vD7YjXEVsaZwRQAABBBBAAAEEEEAAAQQQQAABBBBAAAEEEEAAgZ4uQBC4pz9h5odANxbQamCt5FVgV6t6wwCvgr9xkFcrg3XUa/VvN6Zj6AgggAACCCCAAAIIIIAAAggggAACCCCAAAIIINDEAgSBm/jhM3UEuoOAbQFtAV6N2YLCWh1s7wWeM3+hTycA3B2eKmNEoHMEZsyY4TuaNm2a0zVnHPg+4L8Dfg7wc4CfA/wc4OdAz/k50JHfKO33xI60QV0EEEAAAQQQQACBrieg3/c5XhPoNXfu3Jbx48e/lsIVAgh0G4ElS5a4/gOGusGDh7jevfu0fvXqNmPvyEDD7aDDdrQ62N4fHKZzjQAC+QLr1m7JHzQ4v1xn5La0tLhNmza5devWuVEjh3VGl/SBAAIIIIAAAggggAACCCCAAAIIIIAAAgi4ZctXu0GDBrk+ffq4Xr26d7xl8aInHSuB+aZGAIFuJ6DVvwr2Khhsh9I4EEAAAQQQQAABBBBAAAEEEEAAAQQQQAABBBBAAAEEHEFgvgkQQKD7ChD47b7PjpEjgAACCCCAAAIIIIAAAggggAACCCCAAAIIIIBA4wR6N65pWkYAAQQQQAABBBBAAAEEEEAAAQQQQAABBBBAAAEEEEAAAQQQ6GwBgsCdLU5/CCCAAAIIIIAAAggggAACCCCAAAIIIIAAAggggAACCCCAQAMFCAI3EJemEUAAAQQQQAABBBBAAAEEEEAAAQQQQAABBBBAAAEEEEAAgc4WIAjc2eL0hwACCCCAAAIIIIAAAggggAACCCCAAAIIIIAAAggggAACCDRQgCBwA3FpGgEEEEAAAQQQQAABBBBAAAEEEEAAAQQQQAABBBBAAAEEEOhsAYLAnS1OfwgggAACCCCAAAIIIIAAAggggAACCCCAAAIIIIAAAggggEADBQgCNxCXphFAAAEEEEAAAQQQQAABBBBAAAEEEEAAAQQQQAABBBBAAIHOFiAI3Nni9IcAAggggAACCCCAAAIIIIAAAggggAACCCCAAAIIIIAAAgg0UIAgcANxaRoBBBBAAAEEEEAAAQQQQAABBBBAAAEEEEAAAQQQQAABBBDobAGCwJ0tTn8IIIAAAggggAACCCCAAAIIIIAAAggggAACCCCAAAIIIIBAAwUIAjcQl6YRQAABBBBAAAEEEEAAAQQQQAABBBBAAAEEEEAAAQQQQACBzhYgCNzZ4vSHAAIIIIAAAggggAACCCCAAAIIIIAAAggggAACCCCAAAIINFCAIHADcWkaAQQQQAABBBBAAAEEEEAAAQQQQAABBBBAAAEEEEAAAQQQ6GwBgsCdLU5/CCCAAAIIIIAAAggggAACCCCAAAIIIIAAAggggAACCCCAQAMFCAI3EJemEUAAAQQQQAABBBBAAAEEEEAAAQQQQAABBBBAAAEEEEAAgc4W6NvZHdIfAggggAACCCDQmQJLlixxDz/8sHvllVfcuHHj3L777uu7f+ihh9wdd9zhzj777M4cTpu+brrpJrdx40b34osvunvvvdcde+yxPn/06NFuypQpbcrazfPPP+++853vuOnTp1sSZwQQQAABBBBAAAEEEEAAAQQQQAABBBBAoI0AK4HbcHCDAAIIIIAAAj1JYPbs2e6HP/yhGz58uNttt93czJkz3fXXX1+XKT711FNuxowZHWpru+22c6NGjXL9+/f37ehaX8OGDetQu1RGAAEEEEAAAQQQQAABBBBAAAEEEEAAgeYWYCVwcz9/Zo8AAggggECPFdi0aZO79tpr3bRp09yYMWP8PPfaay+/gvaYY45pM+9ly5a5devW+UCxMp577jmfv9NOO7mWlhY3Z84ct3LlSrf77ru7nXfe2an8Pffc47SaWF+TJ0/25desWeMef/xxN2jQIDdx4kTXp08ft3z5crd27Vq3YcMG35bGYMfBBx/sL3fccUf36KOPukMPPdSy/FmrfhcuXOi23XZbp3q9evVqk68b5aufXXfd1efNmzfP9zl27Fi3ww47+DSV2WabbdwLL7zgVqxY4SZMmOBGjBjh8/gDAQQQQAABBBBAAAEEEEAAAQQQQAABBHqeACuBe94zZUYIIIAAAggg0CqggKcCwRYAFsqQIUPcOeec44OmIZICt3feeWcl6f7773f60nHNNde42267zSnAq5W/9913nw/qLl261OerHx0KHH/zm9/0AViVueyyy3zQ94knnnCXXHKJX4W8atUqX7bIH9oe+oorrnCqo/7VtwLS4fHggw+6q666yg0dOtQn//rXv3Y333yzD1hffvnlTn3rUP2vfvWrPtC8ePFi97Wvfc1vj+0z+QMBBBBAAAEEEEAAAQQQQAABBBBAAAEEepwAK4F73CNlQggggAACCCAggZdeeslvAx1raHVvmeORRx5xZ555pl9pu88++/hgr1YE6/29f/jDH5ytKr7hhht82mGHHeaDtQq0LliwoNLVWWedVbmudqHg9XXXXec+/vGP+9W8Cv4qkPzYY4+5kSNH+uoK8KrMxz72Mb9SWO8+1ljPPfdc17t3b7fLLru4W265xe29994+KKwtpk8++WRfd/78+X41s8pwIIAAAggggAACCCCAAAIIIIAAAggggEDPEyAI3POeKTNCAAEEEEAAgVaBAQMGuFdffbXDFieccIJ/r/C4cePclClT3IEHHphsU9tCK7hqK4hXr17tVyOrsLaGLnNoC+m+fftWtnPWNtDjx493Tz/9tA8Cq+3vf//77pBDDvHvEFbbCgK/+OKLfgWy7l955RUf/NW1HPbff39d+mPw4MF1sbH2OCOAAAIIIIAAAggggAACCCCAAAIIIIBA1xIgCNy1ngejQQABBBBAAIE6CYwaNcoHQfWuX72jV4dW1F555ZXu7W9/e7tewq2WH3jgAadVvzq0sveggw7yAd5bb73Vr+61FbVhI9qS+ZRTTqm8V1h5CrZqa2htQ13m6N+/vw/iakz2HmAFdfVeXztOP/10p+2f9b5fbXmt9wLvtttu7j3veY8VqdTdfvvteQdwRYULBBBAAAEEEEAAAQQQQAABBBBAAAEEer4A7wTu+c+YGSKAAAIIINCUAgrKTp482W/ZbAFevWf32WefbbdN9PDhw93zzz/vg8TailkrcQcOHOgUQD7vvPP8+4AnTJjgpk6d6vROXR39+vVr817dAw44wG/XvO222/qAq1YFq61aDgV7FcS2VcXa2lorjbW1sw6NTf29+93v9kHttWvXOq1UXrZsmR/TiBEjfAB40aJFtXRPHQQQQAABBBBAAAEEEEAAAQQQQAABBBDo5gKsBO7mD5DhI4AAAggggEC2gFbmXnPNNW769Ok+aKsAberdvJMmTXKzZs1yF154oQ8Ea0WtDq0gPumkk9yll17qrxUUfu973+vz9D7dDRs2uC9/+cvus5/9rDv++OPd1Vdf7S666CKfP3bs2DZbMPvEgn9o9e+pp57qfvrTn7qZM2f6YPSJJ57o9D5jBasVgNax3377uXnz5rlf/OIX7kMf+pBfBXzZZZf5sWpsmj8HAggggAACCCCAAAIIIIAAAggggAACCDSfQK+5c+e26B1zHAgg0P0E9P7H/gOGtm43OsT17t2n9atX95sEI0YAga0usG7tliEMGrzVh1JZiatg66iRw+o2IK3I1WpgvWc379CKWgV+bQvmsGwqb/PmzW79+vV+22crq/fvqn61vqx8tbPa1/uNU2PKqquxaitqDgQQQAABBBBAAAEEEEAAAQQQQAABBBAoJrBs+Wr/2aBeu1bms7hirXduqcWLnnT5n4R27njoDQEEEEAAAQQQaIiAfnErcuQFTlN5vXv3bhdstVW6RforUkZbP5c9UmMt2wblEUAAAQQQQAABBBBAAAEEEEAAAQQQQKD7CvBO4O777Bg5AggggAACCCCAAAIIIIAAAggggAACCCCAAAIIIIAAAggg0E6AIHA7EhIQQAABBBBAAAEEEEAAAQQQQAABBBBAAAEEEEAAAQQQQACB7itAELj7PjtGjgACCCCAAAIIIIAAAggggAACCCCAAAIIIIAAAggggAACCLQT4J3A7UhIQAABBBBAoLkEBg1urvkyWwQQQAABBBBAAAEEEEAAAQQQQAABBBBAoKcLsBK4pz9h5ocAAggggAACCCCAAAIIIIAAAggggAACCCCAAAIIIIAAAk0lQBC4qR43k0UAAQQQQAABBBBAAAEEEEAAAQQQQAABBBBAAAEEEEAAgZ4uQBC4pz9h5ocAAggggAACCCCAAAIIIIAAAggggAACCCCAAAIIIIAAAk0lQBC4qR43k0UAAQQQQAABBBBAAAEEEEAAAQQQQAABBBBAAAEEEEAAgZ4uQBC4pz9h5ocAAggggAACCCCAAAIIIIAAAggggAACCCCAAAIIIIAAAk0lQBC4qR43k0UAAQQQQAABBBBAAAEEEEAAAQQQQAABBBBAAAEEEEAAgZ4uQBC4pz9h5ocAAggggAACCCCAAAIIIIAAAggggAACCCCAAAIIIIAAAk0l0LepZstkEUAAAQQQQAABBBBAAAEEEEAAAQQQQAABBBBAAAEEEECgncCiRYvcrFmzKuljx47114cffngljYvuI0AQuPs8K0aKAAIIIIAAAggggAACCCCAAAIIIIAAAggggAACCCCAQF0FFPydMWOGb3PcuHH+rADwggUL3Pz5893MmTPdMccc4wgG15W94Y0RBG44MR0ggAACCCCAAAIIIIAAAggggAACCCCAAAIIIIAAAggg0PUEbr/99swgrwV9rYxGb2kdmYmtOD7ttNMqzShNx8KFCytpY8aMcbvvvnvlnotyAgSBy3lRGgEEEEAAAQQQQAABBBBAAAEEEEAAAQQQQAABBBBAAIFuL2DB3WqrfC3wqxXB9QjMWmD3yiuvdAoEhyuRY1SNTYeNIc7nPluAIHC2DTkIIIAAAggggAACCCCAAAIIIIAAAggggAACCCCAAAII9EiBrG2eFRzWEQZe7VrbRn/+85/vsIeCv9OnT3cWCFabCgZbgFgdaBy2JbXubQy65qgu0OfjH//4F7bbbrvqJSmBAAJdTmD16tWuT9/+rl+//q5Xr96tX7263BgZEAIIIFBWoKWlxW3cuNENHjygbNV25Z977jl3zTXXuM2bN7tddtmlkq9fcO+66y7/S+XAgQN9+qOPPup+97vfOf1etO222/q0devWud/85jd+Gxq9D6V3794+PVWfvpxrhGHWM6Av57dqir+PU9+HGDqXZVD0v+Ws+qnvw9Qz0A8O+kr/PMVw639vpJ5Bo77n6Sv9/8oyPzcwLP7fTNbP3jKGRX9201fH/1/bUw3L/DzNKlv0+zCrfiO+5+mr49/zXdWwzP+TUmXLzCtVP+tnQaosfTmXcmk2wzI/41Jlyxim6jfq+7Cz+lKA9amnnnKnn366vnXaHLY1s1b9hofuZ82a5fQ52TbbbBNmlb62/l988UW3ePFit//++/s21fdLL73kr9Wf0vv06eP/Xq1zPKbSHedUWLvuldZ4Sz//GWB3j7esemmFc3Pnzm39rJUDAQS6o8DTTz/dsvSFlS1rXn61Ze26zS3rN7TwhQHfA3wPdOvvgXXrN/ufaS8sW1WXH8tnnXVWy/jx41smTpzYsnTpUt/m7NmzfZrSL7roIp/W+kt7y0EHHeTT3/a2t1X6vuKKKyplb7rppsz6yqCvxhimnkGjnhd9tbSkDFL/zWR9z6fqN9vzKvqzoB6G9JX+2Vvm+7DZDcv895lVtqhhVv1GPC/6amnJMujuz6vM/5NSZbNcUt+HqfpZP7tTZemrpSXl0myGqe+tRn1v0Be/y2b991Xme6Po/yfoq+P/r8Ww44Zlfp5mlS36PZ9VvxH/fXVmX7fddlvLT37yE307tjta38vbLs0SVCernpWpdlbfX/jCF1p01hG2qb7DPGvL6uSNzcrWetZnkoq36DPK7h5vUfx3y3KWnKg3WQgggAACCCCAQHcVWLGi9V+8tR5aWbxmzRp/vXLlSn/WH5a/YcMGt3btWp++fPly1/qLor/Wv0S0w+rZWelWP7ymL+fqaZh6Bo16XvTlXMqgzPd8qn6zPS/7uVDtZ0HWz40yhvT12s/h0BvDtEvqv+Uy/31mlS36fZhVvxHPi76cyzLo7s8r9X2c9fM0VTbLJfV9mKpPX9nfWximf/amXBr1fUhf/C6b9TOqzPdG0f9P0Ff2z0MMO/7zsKhhmZ+nWWWbvS9tszx27Fj9J93uaA20+q2Y22XUKUE7XYTvIdbW0Dq0NbS2g542bZpf+WsrkpWnraC1AlnbUXMUE2A76GJOlEKgSwqwHXSXfCwMCgEEOiigAKw+zK/HdtCtq3198Pfd7363O/roo/3Idt1118r20B/96Ef99s/aEnr06NF+q5fWV2VUfgHeY489fP2pU6e697///W7AgAEuVV8N01djDFPPoFHPi76cSxmU+Z5P1W+251X0Z0HWz40yhvSV/tmLYdol9d9ymf8+s8oW/T7Mqt+I50VfA1yWQXd/Xqnv46yfp6myWS6p78NUffraLvN7C8P0z96US6O+D+mL32WzfkaV+d4o+v8J+ur4/2sx7LhhmZ+nWWWLfs9n1W/Ef1+d2deDDz7o9A/ftN1yfFjwNbX18qpVqzLrxe1k3WtLaW23HPY9YsQId8stt/itoY844ggf8FX9cNtp9a0trI866qispjuU3tO2g+6l5cD6RudAAIHuJ7BkyRLXf8DQ1kDJkNbARZ/WL94J3P2eIiNGAIFQQAHgTZs2+fd3jho5LMziGgEEEEAAAQQQQAABBBBAAAEEEEAAAQTqJKBVtzpsFW7YrN7Xq0Orb+ND9bSCOJUXl826V5BZK3rD1cAqq361SlgrfuNxWV5cJ6uPWtKXLV/tBg0a5N9B3N3fCbx40ZOO7aBr+S6gDgIIIIAAAggggAACCCCAAAIIIIAAAggggAACCCCAAALdVODII4908+fPLz36WurEnWjLZwVzFfC1gLPKKLD8+c9/3he3ILVuOiMA7DvtYX8QBO5hD5TpIIAAAggggAACCCCAAAIIIIAAAggggAACCCCAAAIIIJAnoECsjjAIm1c+LNuRVcDWh9qwQLACvuE4bBWwBYK1LXUjVwDbmHrauW9PmxDzQQABBBBAAAEEEEAAAQQQQAABBBBAAAEEEEAAAQQQQACBfIFp06b5bZlVKgzshtfWQrga19I6eg770apgfcWHAsEKClvQOs7nPluAIHC2DTkIIIAAAggggAACCCCAAAIIIIAAAggggAACCCCAAAII9EiBcFtmTTAMyoYTDgPAWWXC8mWurT2t9l24cGGlqu51zJo1y1kguJLJRSGBXnPnzm0ZP358ocIUQgCBriWwZMkS13/AUDd48BDXu3ef1q9eXWuAjAYBBBAoKdDS0uI2bdrk1q1b50aNHFayNsURQAABBBBAAAEEEEAAAQQQQAABBBBAoKyABXlVb9y4cW7s2LFuwYIFvhl7B7BWDW+t1bi2LbRtE+0H1oA/li1f7QYNGuT69OnjevXq3vGWxYuedASBG/BNQpMIdJYAQeDOkqYfBBDoLAGCwJ0lTT8IIIAAAggggAACCCCAAAIIIIAAAgi0FbD38loAWLlHHnnkVgv+hqNbtGhRw8fR04LAbAcdfgdxjQACCCCAAAIIIIAAAggggAACCCCAAAIIIIAAAggggEATCtjWzHbuSgRbaxVyVzIoO5beZStQHgEEEEAAAQQQQAABBBBAAAEEEEAAAQQQQAABBBBAAAEEEECg6woQBO66z4aRIYAAAggggAACCCCAAAIIIIAAAggggAACCCCAAAIIIIAAAqUFCAKXJqMCAggggAACCCCAAAIIIIAAAggggAACCCCAAAIIIIAAAggg0HUFCAJ33WfDyBBAAAEEEEAAAQQQQAABBBBAAAEEEEAAAQQQQAABBBBAAIHSAgSBS5NRAQEEEEAAAQQQQAABBBBAAAEEEEAAAQQQQAABBBBAAAEEEOi6AgSBu+6zYWQIIIAAAggggAACCCCAAAIIIIAAAggggAACCCCAAAIIIIBAaYG+pWtQAQEEEEAAAQQQ6AYCM2bM6AajZIgIIIAAAggggAACCCCAAAIIIIAAAgggUA+BadOm1aOZHtMGQeAe8yiZCAIIIIAAAgiEAvzSF2pwjQACCCCAAAIIIIAAAggggAACCCCAAALNJMB20M30tJkrAggggAACCCCAAAIIIIAAAggggAACCCCAAAIIIIAAAgj0eAGCwD3+ETNBBBBAAAEEEEAAAQQQQAABBBBAAAEEEEAAAQQQQAABBBBoJgGCwM30tJkrAggggAACCCCAAAIIIIAAAggggAACCCCAAAIIIIAAAgj0eAGCwD3+ETNBBBBAAAEEEEAAAQQQQAABBBBAAAEEEEAAAQQQQAABBBBoJgGCwM30tJkrAggggAACCCCAAAIIIIAAAggggAACCCCAAAIIIIAAAgj0eAGCwD3+ETNBBBBAAAEEEEAAAQQQQAABBBBAAAEEEEAAAQQQQAABBBBoJgGCwM30tJkrAggggAACCCCAAAIIIIAAAggggAACCCCAAAIIIIAAAgj0eAGCwD3+ETNBBBBAAAEEEEAAAQQQQAABBBBAAAEEEEAAAQQQQAABBBBoJgGCwM30tJkrAggggAACCCCAAAIIIIAAAggggAACCCCAAAIIIIAAAgj0eAGCwD3+ETNBBBBAAAEEEEAAAQQQQAABBBBAAAEEEEAAAQQQQAABBBBoJgGCwM30tJkrAggggAACCCCAAAIIIIAAAggggAACCCCAAAIIIIAAAgj0eAGCwD3+ETNBBBBAAAEEEEAAAQQQQAABBBBAAAEEEEAAAQQQQAABBBBoJgGCwM30tJkrAggggAACCCCAAAIIIIAAAggggAACCCCAAAIIIIAAAgj0eAGCwD3+ETNBBBBAAAEEEEAAAQQQQAABBBBAAAEEEEAAAQQQQAABBBBoJgGCwM30tJkrAggggAACCCCAAAIIIIAAAggggAACCCCAAAIIIIAAAgj0eAGCwD3+ETNBBBBAAAEEEEAAAQQQQAABBBBAAAEEEEAAAQQQQAABBBBoJgGCwM30tJkrAggggAACCCCAAAIIIIAAAggggAACCCCAAAIIIIAAAgj0eAGCwD3+ETNBBBBAAAEEEEAAAQQQQAABBBBAAAEEEEAAAQQQQAABBBBoJgGCwM30tJkrAggggAACCCCAAAIIIIAAAggggAACCCCAAAIIIIAAAgj0eAGCwD3+ETNBBBBAAAEEEEAAAQQQQAABBBBAAAEEEEAAAQQQQAABBBBoJgGCwM30tJkrAggggAACCCCAAAIIIIAAAggggAACCCCAAAIIIIAAAgj0eAGCwD3+ETNBBBBAAAEEEEAAAQQQQAABBBBAAAEEEEAAAQQQQAABBBBoJgGCwM30tJkrAggggAACCCCAAAIIIIAAAggggAACCCCAAAIIIIAAAgj0eAGCwD3+ETNBBBBAAAEEEEAAAQQQQAABBBBAAAEEEEAAAQQQQAABBBBoJgGCwM30tJkrAggggAACCCCAAAIIIIAAAggggAACCCCAAAIIIIAAAgj0eAGCwD3+ETNBBBBAAAEEEEAAAQQQQAABBBBAAAEEEEAAAQQQQAABBBBoJgGCwM30tJkrAggggAACCCCAAAIIIIAAAggggAACCCCAAAIIIIAAAgj0eAGCwD3+ETNBBBBAAAEEEEAAAQQQQAABBBBAAAEEEEAAAQQQQAABBBBoJgGCwM30tJkrAggggAACCCCAAAIIIIAAAggggAACCCCAAAIIIIAAAgj0eAGCwD3+ETNBBBBAAAEEEEAAAQQQQAABBBBAAAEEEEAAAQQQQAABBBBoJgGCwM30tJkrAggggAACCCCAAAIIIIAAAggggAACCCCAAAIIIIAAAgj0eAGCwD3+ETNBBBBAAAEEEEAAAQQQQAABBBBAAAEEEEAAAQQQQAABBBBoJgGCwM30tJkrAggggAACCCCAAAIIIIAAAggggAACCCCAAAIIIIAAAgj0eAGCwD3+ETNBBBBAAAEEEEAAAQQQQAABBBBAAAEEEEAAAQQQQAABBBBoJgGCwM30tJkrAggggAACCCCAAAIIIIAAAggggAACCCCAAAIIIIAAAgj0eAGCwD3+ETNBBBBAAAEEEEAAAQQQQAABBBBAAAEEEEAAAQQQQAABBBBoJgGCwM30tJkrAggggAACCCCAAAIIIIAAAggggAACkcD69evdxo0bo1RuEUAAAQQQQAABBLqzQN/uPHjGjgACCCCAAAIIIIAAAggggAACCCCAQC0CS5YscQ8//LB75ZVX3Lhx49y+++7rm3nooYfcHXfc4c4+++xamq1rnUceecTNmzfPDRo0yE2cONHttttuHW7/1ltvdVOmTHHbbbedW7dunfvRj37knn76adenTx/3gQ98wO29994d7oMGEEAAAQQQQAABBLa+ACuBt/4zYAQIIIAAAggggAACCCCAAAIIIIAAAp0oMHv2bPfDH/7QDR8+3AdWZ86c6a6//vq6jOCpp55yM2bM6HBb1113nbv55pvd7rvv7oYNG+bbVFC47BGPZ8CAAa537y0fCf7tb3/zwd/zzz/fTZ8+3Y0fP75s85XyWkn8xS9+0b366quVNC4QQAABBBBAAAEEtp4AK4G3nj09I4AAAggggAACCCCAAAIIIIAAAgh0ssCmTZvctdde66ZNm+bGjBnje99rr718EPSYY45pM5ply5b51bK2Ave5557z+TvttJNraWlxc+bMcStXrvSB2p133tmp/D333OO0mlhfkydP9uXXrFnjHn/88cqKXq26Xb58uVu7dq3bsGGDb0tjsOPZZ5919957rzvvvPOcgrY6hg4d6v70pz9VViwr6Proo486zUd1la9tnRcsWOBGjBjhnnnmGR/gjsczcuRI169fP6c+brzxRn+t1cZjx451c+fOrbSv+ele81PeDjvsYMNzCizLYscdd/SrqLWiWGNZsWKFU4B90qRJbvDgwX6L6XiMlUa4QAABBBBAAAEEEGioACuBG8pL4wgggAACCCCAAAIIIIAAAggggAACXUnghRde8IFTCwBrbEOGDHHnnHOOXxUbjlWB2zvvvLOSdP/99zt96bjmmmvcbbfd5hTg1crf++67zwd1ly5d6vPVjw4FS7/5zW/6oK/KXHbZZT7o+8QTT7hLLrnEaRXyqlWrfFn7Q0FWbctsAWCl77PPPu6UU07xRbTa9tvf/rYPQmsrZ7WjNl566SXf/tVXX+37VZA5Hs9vfvMbn6Zxq7wC1y+++KJ7+eWX3VVXXWVDcFdeeaWbNWuWb/cHP/iBD2or87e//a274YYb/DbaakuBaQWibb46a3xZY6x0wAUCCCCAAAIIIIBAQwVYCdxQXhpHAAEEEEAAAQQQQAABBBBAAAEEEOhKAgp8ahvo+NDq3jKHtmY+88wz3a677uoDtAr2auvmY4891v3hD39wtqpYAVOlHXbYYT74+7Wvfc2v1rW+zjrrLLusnLX6VltAh4dWD48ePdon3X333X4VrgWFFYT961//Wll5/LGPfcyv8FXheDzWplYPH3300a5///5u6tSpPhBseQsXLnR6Z/JnP/tZv3W0yt51112+/V122cW9+c1v9it9tUL4F7/4hb9XmlYWv+lNb/Jt/vnPf06OUeU4EEAAAQQQQAABBBovQBC48cb0gAACCCCAAAIIIIAAAggggAACCCDQRQS0urYe76094YQT/HuFx40b56ZMmeIOPPDA5Ay1LfT8+fMrK4hXr15dWTU7ceLEZB0FZrUyN+vQNs1q11YQK2hsK5v1vl9t99yRQ1tJqz17d7CurX1tja33FWv1sALFGmvqyBtjqjxpCCCAAAIIIIAAAvUVIAhcX09aQwABBBBAAAEEEEAAAQQQQAABBBDowgKjRo3y77nVe2wHDRrkR6r332r747e//e3tRq48Ox544AG/6lf3Wtl70EEH+QDvrbfe6lf3nnzyyVa0cta7erVi194rrAy9L1dbQ2sb6tSh9+9qpXF4aNtmbb383ve+14/78MMPd0cddVSliAK/Chyrv44eCuy+8sor7ZqRxXe/+133vve9z29XrWDx5Zdf3q6cEmSbGmOyMIkIIIAAAggggAACdRfgncB1J6VBBBBAAAEEEEAAAQQQQAABBBBAAIGuKqAg6eTJk/2WzRbgvffee92zzz7bbptobRv9/PPP+22cteXy8uXL3cCBA50CyOedd55/H/CECRP8dsqLFy/2U1YwNgygHnDAAe6xxx5z2267rRsxYoQPGqutvGPSpEl+le/s2bN9MY3z5ptvrqy61fuB582b5wOtanPFihWVVcFxu/F44vzU/Z577unb1wpjHffcc49/7/HGjRt9oHn77bf36Qp+a3ttHVo1rC9bZV1mjL4B/kAAAQQQQAABBBCoqwArgevKSWMIIIAAAggggAACCCCAAAIIIIAAAl1dQCtzr7nmGjd9+nS/dbICtKl38yoYO2vWLHfhhRf6QLCt5tUq15NOOsldeumlPhCroLBW6OrQO3M3bNjgvvzlL/t36h5//PHu6quvdhdddJHP13t0999/f3+d9Uffvn39eH7+85+73//+927z5s1Ogdl3vetdvorqaxXuxRdf7FcVa+XuaaedVgnAhu3G4wnzsq7l8c53vtN961vfatO+Asqaz9e//nXvprko8KvgsMa83377Ob3z+EMf+pCfY2qMWX2SjgACCCCAAAIIIFBfgV6t7+doGT9+fH1bpTUEEOgUAf/unQFDW/9CNqT1L119Wr96dUq/dIIAAgg0SkArHLQqQh+ijRo5rFHd0C4CCCCAAAIIIIAAAl5Av3vqd1AFMPOOtWvX+mBvr17t/96dylPQdv369T6Aau1qhazqV+vLyttZAWUFeVN9qx/l27bWVic+p8YTl0ndy0armvUe5fCQm9pUUDg+tCW1tru28RYdY9wO9wgggAACCCCAQGcLLFu+2v9e1adPn8rvMp09hnr1t3jRky7/N9x69UQ7CCCAAAIIIIAAAggggAACCCCAAAIIdDEBfcBX5FBQM+tI5Wl1bJyeCphmtRmmxwHYME/9VAsAq3xqPGE7WdcK5Kb6l1uWXfye46JjzBoD6QgggAACCCCAAAK1CfBO4NrcqIUAAggggAACCCCAAAIIIIAAAggggAACCCCAAAIIIIAAAgh0SQGCwF3ysTAoBBBAAAEEEEAAAQQQQAABBBBAAAEEEEAAAQQQQAABBBBAoDYBgsC1uVELAQQQQAABBBBAAAEEEEAAAQQQQAABBBBAAAEEEEAAAQQQ6JICBIG75GNhUAgggAACCCCAAAIIIIAAAggggAACCCCAAAIIIIAAAggggEBtAgSBa3OjFgIIIIAAAggggAACCCCAAAIIIIAAAggggAACCCCAAAIIINAlBfp2yVExKAQQQAABBBBAoI4CTz31lPvjH//o5syZU1OrEyZMcMcdd5zbY489aqpPJQQQQAABBBBAAAEEEEAAAQQQQAABBBBAoDMFWAncmdr0hQACCCCAAAJbRaAjAWANWMFjtcGBAAIIIIAAAggggAACCCCAAAIIIIAAAgh0BwFWAneHp8QYEUAAAQQQQKBDArYC+Otf/3pN7Zxzzjk1ryKuqUMqIYAAAggggAACCJQS2Lhxoy/f0tLi9KUjPMfX8X1e+TCv6LXKhYf1F6blXffq1Ssvu1PzbCyag10XHUCqfJG0ImWKjqFMubLPKWw7NeYwvzOuOzL+zhif+uhMpyIe1cpUyy/jljX3rHRru1q+lSsz1jJlrf3UuZZ2is4n1Z/SOlo/q90wvR591GKjMRStV48xhnPWdT3aLDp+67tseauXOlcbf7X8sM0yZcN6tc6nbL1ax6exdqRuONdq13n9pPKUNnTo0GrNkl9SgCBwSTCKI4AAAggggAACjRLYvHmze/XVV92AAQPadPHb3/7W7b777u6AAw5ok243mzZtcn369LHbTj/rQ1f9st6ZY4jnfMcdd7i//OUvrnfv3u6II45wBx98cEMc4n4b0gmNIoAAAggggEBNAqkPUMO08FodhPd2rXN4HZaz9DAtvk7dKy0+rK3Uh6Aqa/lxvfg+q35criP34VjC66w2wzHF5ZUXp2W101np9RpP3E7oUO+5xH3Vu/1GtheOvVFGYR9Zc8krk5cXtpcqlzcnKx+XyUq3vrLyLd3KVTuXLa/2aqlTyzhik7w2wjGVqZfXZpwX9mF5WX2lylqdIuda66fqZY2xyDhUxtqspR2rW6SvMmWLtGdlrN2s8VfLt3Z0trK6zmovLqf7okfYftE6YblU/bxxpuoWLR/WLXOtMRbtQ+VScyrTH2XTAgSB0y6kIoAAAggggAACnSawdOlSd/HFF7sbb7zRKaA6efJkd9ZZZ7k3v/nNfgy/+MUv/HUqCHzttde6H/7wh+73v/99qfEef/zx7vnnn/d1Vq9e7c/Dhg3z50MOOcRddtll7mtf+5pbsmSJy1pB/eCDD7ovfelL7m9/+5sbOHCgD7z+53/+pxs3blypsZQtHM9Z9xdccIE76aST3PDhw/146hEEVsB33rx5buzYsa5///5+mEceeaT7whe+UHk2ZcdOeQQQQAABBBDoHIHwg8T4Or63EaXSLS0+q46lxdep9iwtPodtxHnxfeqD1DL14/bqcV+PMRX94FdzTfVX6zwabZdqv5bxp9qpdc5drV44t1psUvMJ2yyb35G61lfYRtacVCaVl5WeatvSqp3D8dSzbLW2yubbOFMueW1ZvbBM2TbCunnXqb7yyufl1bOtvH5qzWvU+BrVbjxP9ZP3fVAtP9VenFbLfaPnb+3nzT0cd1mHsG7R687oo+hYmrUcQeBmffLMGwEEEEAAAQS6jMDHP/5xt/322/sg8DbbbOPuvPNO95nPfMZdeuml7vWvf33uOI855hi3zz775JZJZf74xz92WnmsQwHnMWPGuHPPPdff9+vXz59feeUVt379en8d/7F8+XI3bdo0X/e73/2u/xD0//7v/9z73/9+d/3117uRI0fGVep2H89ZAfDTTz/dfeITn6hbH2pIwfETTjjBvw/aAtvf+973Gh7kruskaAwBBBBAAIEmE7APQONpx+nhva7tPr5WO2FeeB9fp+6z0pRe5Ag/yLVxZNULy2aVqXd6tTFZfza2ouWtXiPPW2MsqT7NxuaaKmN5Pfls8449iszZ6uaVrVYmLz8vr2if8bzUZpymtrLS8/rJyqs27mr5We02Mr2e82/kOGttu9Hm1n7qe6vWMderno2tSHvVyhaZn9rIK1ctv8g4i5apNp+sdqxe3jxSdcvU60yH1FhJa7wAQeDGG9MDAggggAACCCCQKbBq1Sp33333Oa323XnnnX05rQB+xzve4W6//fZkEPiuu+5yGzZscEcddZRbsWKFe+aZZ9zEiROdVhRrda5WDM+aNctvLa2Vq9ZuOIgddtihcqutpnfddVe30047VdKqXTz88MNu7dq17owzzqhsA/2Rj3zE3XDDDe6BBx5os1L2pZdecrfeeqt761vfWtnq+tlnn3X333+/D7KqL5WZOXOmb/PQQw91EyZM8EPQnO655x534IEHuptvvtm96U1v8nPXnPfaay+/Avq2225zL7/8sg/WHnfcce5Pf/qTz1NgW8e6deuctovWqua9997bHXbYYX7baJ/Z+odWMs+ePduvIn7jG9/oZPPUU0/5MavMr371K/eP//iPbt9993WLFy922223nRs8eLCvrtXC6n/BggVujz32cIcffnjF47HHHvPzkauepQ6twFagnwMBBBBAAAEE6itgH3iGrcZpqfswLXVtafFZ/Vha3nU4nrhcnGf34Ye9YR+Wr3NYxtKzylp+Z53LjE1lt8a4a+3T6qXmWKuvtVlr/VS9Wtqs55xSYyqaprGXHUuR+eaVqTWv6JxULjWvVFqZNvPKNnJOeW2nxlT2eaba6AlpZd16wpw1hzLzLlpW5brL91WZOWU987iN7jL3rPnE6ZpPPMe4zKJFi3ySPusa27pbmw59/sJRXYAgcHUjSiCAAAIIIIAAAg0T0BbMCsBed911Psho7wM+77zzkn3q/cDTp093V111lc9XgPRnP/uZ0+pYbV380Y9+1AdMDzroIPfoo4/6LZ1//vOfu/HjxyfbqzVRv3Trl3SN+53vfGflL2C6j48hQ4a4L3/5y27bbbd1CkrrUNB7/vz5Pgi8cOFC98EPftBpG2p5fOMb33AXXXSRO/bYY/2ctMJ3zz339CtwFcBVwFZzVltz58717Skorfnr0DbWCkgrCKwg+4c+9CEftFUg+eqrr3ayufDCCytltXL55JNP9u1+5Stf8WNbuXKlmzNnji/zxBNP+MCxbmSvurvssosPLp955pl+tfQb3vAG97vf/c5dccUVfittbY+toPWVV17px6E+9c5i3esZdub7k/0k+AMBBBBAAIEmEgg/SAyvRaD7VJrxhHl2nXW29lJ189IsL+ts/cX54Ye+RcrE9TvrPmts1n+1eWR9GJyVbu2WPVcbZ6q9Wuqk2ql3WlcdV63z1HzC75OsdsrMO69srXlZ4+oK6Y2YU16beXNWvSLPM6+NrLxUu7WOM6uPeqV3xrjMozP6KupSZixFy2qeRctmjbMebWS1belFxlikjLVnZ9WxZ21ptZ47w6HWsamegr8K/OrzI9uhTf8IX/daSKDPwggG5wsTBM73IRcBBBBAAAEEEGiogH7h1rbPn/zkJ93RRx/t3va2t7kTTzzRvxc47lgrXD//+c/7dwDnbQGt9rS9tLZ7Pvvss93ll1/u3zkct9eRewVYFTDVeGbMmOGDqFotO3r06HbN9u3b1+f/8Y9/rASBFXj97Gc/68vqfchaJfy5z33O30+ZMsW/a1hBYDs0JwWCdSgIrEOB1E9/+tM+2Kqg79vf/nafHv7x05/+1L+vWNtfq/yHP/xh/xeEf/7nf/bB2RdffNEHbS1Ifuqpp/q/SCgorZW9v/zlL13We44VXF+zZo3TNth6Z/DHPvYx9653vcspXVtl69BKba2CHjRokHvuued83wpW20rncKxcI4AAAggggEBjBFIfsMZp4X3q2tLsrJEWuQ5nFJYP01PXqQ934/pFyqTaLpJWr7bLtGNl43lqvMpLpReZS16ZWtustV7eWDqS19HxNMq3ljnlfR9ktVdk/tXKZOVnpWeNpUx6yj2VFrdZpIzqZI09Kz3uJ76vtV7R8aqcjrx+rIyNLa+slelK53qPtzt5lJm7lY3nZ8/S8u0+Plu9rHLKz8qL27L7am1aufhcrZ9q+XF7Re+LzLFImaL9pcplmYX9xtdhO9pRTYFeBX/12VN8WL6CwlokoF3uONoL9G6fRAoCCCCAAAIIIIBAZwpMmjTJb2t8wQUXuOeff969733vc//yL//itxK2cdx9991+le8XvvAFv5LV0lNnBYB19O7d26+01XbHjTgUsL7lllv8+3j1LzO1jfX//u//JrtSYPsPf/iD03uGtbJWwVH9a01tp3zTTTf51bQKDOtL7+LVtstajWuHBYDtvuhZW2dri2hbeTtixAi/XbS2aFbaF7/4Rd+3tnxWMFtj01bVRQ5tMX3SSSf5ALDKa/WvVhTrnc46NFcdCgDrsD4VeOZAAAEEEEAAgcYKxB+qxvfqXWlhengfp1t5G3UqPy5j92G7Vr/a2erYOVXe8uycKlNrmrUZnmtpK6yfug7bzMvPywvbSF2n6lpaWN7SGnkO+8u6rqX/uK1UG3GZ8D5VvrPSwnHoupZ+i9SzfrLaz2qjWr2s9sL0VBup/rLSrL6d1XZ8hP3ZtcrYdXjOSg/LpK7jPovep9qytLANSwvPYb6uw7zOuK53n+F8yo4/rGvXZdtQ+XoeZfq3fovUKVM2bC+vnuXpHNaJr8Ny4bWVC9Ps2vJSZ5VJpVtatXwrF57z6ihPR1g+vt5SIr9MXCfv3tqLz6k6KmPpqWtrwwK8Wul72mmnWXKbsz5TsuCwPpPiSAuwEjjtQioCCCCAAAIIINCpAv369fPvu9U7bxWE1ErS73//+36FsIKif/3rX32w8cYbb/SBR/sXldUGqe2V9b7dRh16v+273/1u/6WtqT/UuvWy3kn8D//wD2263G+//dyOO+7ot0TW1s0KIGvrawuIanWv3nNsxymnnOI2btzob7XKttZDgWQZhIe9+1h/8Tj33HP9ttkK3mq7am1dXfRYvnx5u/f7ymPZsmW+CY1bz5MDAQQQQAABBDpHQP9vzzuy8juSbnXtHPafSsvKr/a7XdhWVtkiZcL+u8J1OGaNJ55bXn6cV2Y+1epWyy/aV7X5FGmnXmOpVztFxlytTOjSqHEVaTevTF6e5lctP2uOlh7WL5pWzTVvXGF/YTtZ6WGZel/bfLPGWya/3mOL26vFp5Y6cb+p+yLthnapNpRWpJ2sukXSy7Zftnw4hni+qbasTCpPbVm+tZtVzvKrnfPq5+VZu6kyRceocqn6ajtsI1UmzLexFD2n2ovrWvtWNhyrXVsZ1c3a6lmv2IpX/epe/6hfgWO2ho7lnSMI3N6EFAQQQAABBBBAoNMEtGr0S1/6kvvNb37jV+6q45133tkdccQRflWq7vVL8tjWd/Bqm2EFK3/yk5/4d+gqr9qh9+3qncP1Pr73ve+5Z555xp1//vmVpg899FC/hbLe0xsHgVVIWyVrS2gFfLWiWYcCrwrS/tu//Zt/l4tPDP6wd/4GSaUutW21DMJDK3j33ntvv9L6mmuu8St3bfW0/uJQ9NijdbvoeHy6t/fUqJ3wLzFF26UcAggggAACCNRHwD5oDFtTWla6lQvz7To+q6ylWT07Z6WXrZP1e4S1n5Wf6ievrI27XmcbX1Z7eWOJ68Zl43z1EZeJ+03VqaWM1VF71foMy9p1Pc9F5lS2v6JzKttuqnyR8RcZT5F2rP9qZfPy8/Ks/fgc17H5hOll0+I+7D5s09J0TqWn0sI6dl20nJVPnW1+cV7cdlzO8uN0a8fy7b67nWsdf5ZHOP+8tovUD9sKr/PaDcvlXdejjbj9uM3UHMMy1fLD9lNlw3xdh23HeXn51erFbWWVj8cYlsvLU/vV8uMxlL3Pat/SNdb42savYK6OVEBXn43pM55w62dda8WwAsepOmXH3tPKsx10T3uizAcBBBBAAAEEupXAvvvu61fDXnLJJf79svql9/HHH3da8XvIIYf4uQwfPty9//3vd6NGjXJf//rX3f/8z/+4Bx98MHOev/vd7/w2y9pSWQFjbcVc67Fu3Tq3atWqNl/a5viwww5z1157rd++WVs6a9Wu3ln85JNP+pXAqf6OP/54//5craA96KCDfBH90q+5feMb3/AroDX/+++/3/3Xf/1X1b9QpfqI0975znc6BXrnzJnjs2677Tan9wfrPcWDBw/2aepPc9L2QY899pi3U4byVW7p0qW+XPzHe97zHj8f225b7Whb6fe+971xUe4RQAABBBBAoIsJ2AeN4bDCtPA6LGPXYX54bfnxWWWKlAvrVStfLT9uq0z5sG6Ra7VtX9XKW7nwnFWnbJmwvF3X2rbVj89qL07Lus/qu0h6VptKb8SR11+cF/cf52fdx/Xy7rPaCNPL1M8qa+2l8vPyUuXz0lJtKS0+stKsfuocthHmp9LDNF2H5cPruFwt90Xbs3JxH1npcbmudm/jzjrXOt64vbLtxPXL3NejryJtVBtTtTbC+qmy1fLDOmHZrOuwvF2HZS1N56x0KxPmZ11bWTvH5Sxd5zAvTLfravlWrtZzVvuWrnZ1bUd4rTQFdVOHgrypQK8WAOhYtGhRqlpTp7ESuKkfP5NHAAEEEEAAga0toO2DtZ2NArsK+iroqK2hTz31VL8ldDy+qVOn+vcFf+ITn/BB2Dhf93p/sN6LogCuVg7rHcO1Hn/+85/dwQcf3Ka63l2sQOd3vvMdH5T+9Kc/7fO13fPFF1/sDjzwwDbl7Wb06NH+csqUKZVVz0r413/9V78V9Fve8hY/d5lMnz698q9CrX4t56OPPtqdffbZPtCsYPUOO+zgfvSjH/kVyGpP/fzHf/yHe/nll/24jz322MrKYW3nrG2ptcX1hz/8YfeZz3ymzRBe97rXufPOO8+/q3n9+vX+ncBy14poDgQQQAABBBBoToH4Q8zmVCg/a3OzVUGpFoqUSdVLpVlbZfNS5fPS8vrJq1c0ryPt51lX67/WflP1OjKOcJyptsP8+DqvfF6etVOtTNF5qZ24bCrN+i17zhpnVnrZ9ouWt/7iuRapX0+PIv1VK2NzqVau0fldyaVWk7L1rHyR76NqPmXaKvIsrb24bNn0uH54H7aVMlB+VrraSeUpvVq7KtORw9pP9Z8a84IFC/xueKk+U9tBq1y4MjhVr5nTerVuWdcyfvz4ZjZg7gh0W4ElS5a4/gOGtq5UGtL6YXqf1q9e3XYuDBwBBBCQgH75U6BOwctRI9u+x7UjQuecc46vrlW0tRwdrV+0z1dffdWvuB0xYkSbIGnR+nfddZc744wz3COPPOKDqrK01a5F26il3Nq1a53GruBtRw6NV+8/1hbR9T70vaUVzakxqt81a9Yk8zQOvbdYjnqHcdahdw83YtxZ/ZGOAAIIIIAAAm0F9LuI/n+vLx12nbrPywvr2nXeOczTtQ7rc8vdlj9TaWF+1nXqA9OwbLV8K1u0nJWv9VzrPK2/IuMsUsbaS52rjbFafqrNzkyr5/g6atmoeRcdVy0WRerUo0zWHFLpRdOqeafGXTStWtv1yk/N1dquNc/qN/qcsmx0n9XazzOrVrce+R0x6UjdovOud7kss6y5lE3Paj8rPWt+WelqJy8v7KdIOZtfkbKpvq2enVVGO+Ap0Kttn1MrfrOCwKqrf+SvFcSpesoveixbvtoNGjTI9enTp7BX0bY7u9ziRU86toPubHX6QwABBBBAAAEEMgS0AnjkyJE1BYDjJhWw7IwAsPpVP6ngajymavf6BbtRgVT9pSJrjOo3K09jVlA+LwCsMo0at9rmQAABBBBAAIHiAuEHidVqlSmb11aRdlTGvvLaUp6Vy2vXyuS1ZWXy2smrX0teR/rsrHFW66dafi0u1Ok6AkWeb9EyqXJKS6V3HYGtN5I8l6w8PNs/LzPJMmtfo2um2DyKjs7KF513vcsVHWczllMw2L7y5v/3f6fXrkgqXauByxy2DXRHA8Bl+uwuZdkOurs8KcaJAAIIIIAAAjULTJgwwb8T1lb01tKQ2ujqh/6l4t57793Vh8n4EEAAAQQQQACBThPQh8C2UqWenea1ax88Z/Vr+WXHU6RekTJl+621fL3HUs/2rK28Z5SVV6tHvepVG3vRfqydouXDcnHdjljFbYX9NOo67DNr7EXKaHxhubzxZpWL0+P7vDbjPNWN55OVprpx2bi9etxXm09WflZ6OKYiZcLyHZ1vqr+OthmOL+861Xet5W3MatOu89rKywvHVWtbYRt5fRXJK9NWmbLV+lZbqflnpVdrryP5efPKy1Of1fLjcZUvH7bw2o6mrXxbjr9fHHnkkW7WrFlh4arXCxcurFqmWQsQBG7WJ8+8EUAAAQQQaCKB4447zs92zpw5Nc1aAWBro6YGOqnSAQcc4H796193Um90gwACCCCAAAIIdF8BfXAZf2Abptl11lkztzy71jlsU/l2hOmWVuQc430xpwAAQABJREFUtpEqXy3f6hQtZ+XLnmudX5F+io49r1zW+KxOKt/ybIypMpaXd47bySurvKL9hO0WqROWrzaGMmXVVtny1fovmp/VbxEP6yNuI1U3LqO6qXLWps6pOnn5WeWz0q2teBxWPkxPpcVjDMtb22XP1k+1elnlstLjsVZrPys/r/1a55/XZjiOou0XbS9su2ydsHx4HbZZdLxhnVRbtbQTtpl3neovq3yZslltVEu3PuI5Kz2Vpvbi9Gp9KN/6SZXNystKr9Zeqo9a0+IxBL8iVZq035rs/b633357u62dx44dWykfXsycOdNvBR2mcb1FgCAw3wkIIIAAAggg0OMF9thjD3f22Wf3+HkyQQQQQAABBBBAAIHXBPSBY+oD1lR6mBZeqzW7D89KV9tKs2ud7T5Mi9N1X8sRtp1Vv0iZrLodSa/Wb/gcVDa+L9t3tf7i9lLl88YQ5llbqTYsr57nrH5SY7J+s+pYfrVzR+tXa7+z84vMJ8szVTdVNlUub55Z5VPpqbSstsOy4TgtvVqatWvl7b5e57x2a82zseXVtzLhObQI03Wd11ZevbidrPu89rPqhOm11o/rFZ1LXC8ci67r1U7cbkfvq4071X4tdaydlIO1F+al0tSGpRdpz8rE57gNyy+bbvXqe9b2+HGLbdNsnHa20loNPGPGDH8bbvEcXltZvSe4Hu8CtvZ62pkgcE97oswHAQQQQAABBBBAAAEEEEAAAQQQaEIBfYBoH7qG10ZhHzBaGaXHaVYvL93qh2XsWm3G+UpLHVbO8sI2LC3rXLRs0XJZ/dSSHs9LbcTjiO+z+ilaLtVH2GaRMYVlsvoNy4Tt511ntZWqk9d+qp288qn2U210pFyq7tZKq7dF2F5RtyJzT7WVSlNbWelxPzbWsHzRtKy24vTUfdhfKj9Oyyqfla76eXlx+9Xuq7VlZnE71erF5avdh/3U2nZn1AvHGc+paP95bcRtVrsv2mfYTi11wvrVruP2w/mGeZaeSgv7CPPD9Pg6q1zZdLWbVSfus+P3bYO/rT239m2tVi4swWk1sAK7WuGrIxX81XuAFSgeN25cMr/SWJNfEARu8m8Apo8AAggggAACCCCAAAIIIIAAAgj0dAF9yGkfwmqu9qGnpYX3YdlUepiW11bK1PoL66XKFckvWiZs38YepnXkOpyPtVPvPqxdnWttO6+ezSFVxvJsDKkyllePc5H2wzEVKZ81rjJ1y5RVf+EYs/qvd3rZMWb1b2OvV3upfrLazkpPtRGmxfU0hyJp1obNWfdxPStT5Fykbl6ZWvOKjC1VJpy38vP6D+vH9cK8ItfV+qmWH/dRtnxcX/epOZVpN1Vf7ZZpQ+WLHh1ptyN1U+ML5x63bXlheiot1W6RtLDdsHzZ9LBuva6zxtD6XdH6ffFaL2G58FolFPgdM2aMfz+wBYMV8NUxf/58f2YFsGfI/YMgcC4PmQgggAACCCCAAAIIIIAAAggggAAC3UlAHyLGH7LaveYR5sf3lhd+EKm6cbqlmUt8b+l2tv7Ddi0v71y0fNFyqb7K1LV5WDtl6lqdepzr0a/NJautas+0HvMo00a18ZZpKyybNf+wTNnrRrRZdgxlyzfKN2scWUZZ6VntxOmp79tUmtXLy7MyRc9Fx55VLivd+q+Wb+Wqncs+aytv7dZrHNZe1rlMP2XKhv3Z3MrWt3rWVtn6Vq8j53r1WUs74fyz6qtMnJdKiw2s7bhuXM7us8plpateXp61W89zqr8wLbyO+9WK4NNOO81p1e/ChQsr2douWoe9P7iSwUU7AYLA7UhIQAABBBBAAAEEEEAAAQQQQAABBBDoTgL6ANE+OLVxx2n2IaOVC+/ja/ug1s7Wps6ptDA/vi5bPqxv4wrTUtdFy6XqlkmrVz8y0dHR9mqtX+2ZVMsvY9bRsvWyyhtHrY55bZKXLZDnnZeX3eKWnK39fVtk7Hll8vI0w2r51XyUv7WNiowxLFNmzmXK1vpzpdZ64ZzqdV1mvmX6jNu1OYdtxGXCPF3X+n2Wqletr7z8WvPi+dTnvu0KYLUZji+8TvWnYC8B35RM9TSCwNWNKIEAAggggAACCCCAAAIIIIAAAggg0A0E9CFi1ge2lm4fNIYftobXqWlWy0/VsbSsMVl+3tnGmldGeUXLVWtna+V3ZPwdqbu15tvV+sXwtf+G7OdEI59RnndeXiPH1JG2y4w5r2xensZXLb8jc0jVte+Fzu7XxlK237LlrZ/ueO7MuZbtq16/LxTtN69cXp6ee7X8+n9vdCwQXP/xNEeLBIGb4zkzSwQQQAABBBBAAAEEEEAAAQQQQKDHCvTty0dcPfbhMjEEEEAAAQQQQACBmgR611SLSggggAACCCCAAAIIIIAAAggggAACCCCAAAIIIIAAAggggAACXVKAIHCXfCwMCgEEEEAAAQQQQAABBBBAAAEEEEAAAQQQQAABBBBAAAEEEKhNgCBwbW7UQgABBBBAAAEEEEAAAQQQQAABBBBAAAEEEEAAAQQQQAABBLqkAEHgLvlYGBQCCCCAAAIIIIAAAggggAACCCCAAAIIIIAAAggggAACCCBQm0Df2qpRCwEEEEAAAQQQQAABBBBAAAEEEEAAge4nMGPGjO43aEaMAAIIIIAAAgggUFVg2rRpVcs0UwGCwM30tJkrAggggAACCCCAAAIIIIAAAggg0OQCfDjY5N8ATB8BBBBAAAEEEGgSAbaDbpIHzTQRQAABBBBAAAEEEEAAAQQQQAABBBBAAAEEEEAAAQQQQKA5BAgCN8dzZpYIIIAAAggggAACCCCAAAIIIIAAAggggAACCCCAAAIIINAkAgSBm+RBM00EEEAAAQQQQAABBBBAAAEEEEAAAQQQQAABBBBAAAEEEGgOAYLAzfGcmSUCCCCAAAIIIIAAAggggAACCCCAAAIIIIAAAggggAACCDSJAEHgJnnQTBMBBBBAAAEEEEAAAQQQQAABBBBAAAEEEEAAAQQQQAABBJpDgCBwczxnZokAAggggAACCCCAAAIIIIAAAggggAACCCCAAAIIIIAAAk0iQBC4SR4000QAAQQQQAABBBBAAAEEEEAAAQQQQAABBBBAAAEEEEAAgeYQIAjcHM+ZWSKAAAIIIIAAAggggAACCCCAAAIIIIAAAggggAACCCCAQJMIEARukgfNNBFAAAEEEEAAAQQQQAABBBBAAAEEEEAAAQQQQAABBBBAoDkECAI3x3NmlggggAACCCCAAAIIIIAAAggggAACCCCAAAIIIIAAAggg0CQCBIGb5EEzTQQQQAABBBBAAAEEEEAAAQQQQAABBBBAAAEEEEAAAQQQaA4BgsDN8ZyZJQIIIIAAAggggAACCCCAAAIIIIAAAggggAACCCCAAAIINIkAQeAmedBMEwEEEEAAAQQQQAABBBBAAAEEEEAAAQQQQAABBBBAAAEEmkOAIHBzPGdmiQACCCCAAAIIIIAAAggggAACCCCAAAIIIIAAAggggAACTSJAELhJHjTTRAABBBBAAAEEEEAAAQQQQAABBBBAAAEEEEAAAQQQQACB5hAgCNwcz5lZIoAAAggggAACCCCAAAIIIIAAAggggAACCCCAAAIIIIBAkwgQBG6SB800EUAAAQQQQAABBBBAAAEEEEAAAQQQQAABBBBAAAEEEECgOQQIAjfHc2aWCCCAAAIIIIAAAggggAACCCCAAAIIIIAAAggggAACCCDQJAIEgZvkQTNNBBBAAAEEEEAAAQQQQAABBBBAAAEEEEAAAQQQQAABBBBoDgGCwM3xnJklAggggAACCCCAAAIIIIAAAggggAACCCCAAAIIIIAAAgg0iQBB4CZ50EwTAQQQQAABBBBAAAEEEEAAAQQQQAABBBBAAAEEEEAAAQSaQ4AgcHM8Z2aJAAIIIIAAAggggAACCCCAAAIIIIAAAggggAACCCCAAAJNIkAQuEkeNNNEAAEEEEAAAQQQQAABBBBAAAEEEEAAAQQQQAABBBBAAIHmECAI3BzPmVkigAACCCCAAAIIIIAAAggggAACCCCAAAIIIIAAAggggECTCBAEbpIHzTQRQAABBBBAAAEEEEAAAQQQQAABBBBAAAEEEEAAAQQQQKA5BAgCN8dzZpYIIIAAAggggAACCCCAAAIIIIAAAggggAACCCCAAAIIINAkAgSBm+RBM00EEEAAAQQQQAABBBBAAAEEEEAAAQQQQAABBBBAAAEEEGgOAYLAzfGcmSUCCCCAAAIIIIAAAggggAACCCCAAAIIIIAAAggggAACCDSJAEHgJnnQTBMBBBBAAAEEEEAAAQQQQAABBBBAAAEEEEAAAQQQQAABBJpDgCBwczxnZokAAggggAACCCCAAAIIIIAAAggggAACCCCAAAIIIIAAAk0iQBC4SR4000QAAQQQQAABBBBAAAEEEEAAAQQQQAABBBBAAAEEEEAAgeYQ6Nsc02SWCCCAAAIIIIAAAggggAACCCCAAAIIIIAAAggggAACCPRsgVdffdWtWrXKrV+/vmdP9O+zGzhwoBs+fLjr169fU8y3zCRZCVxGi7IIIIAAAggggAACCCCAAAIIIIAAAggggAACCCCAAAIIdEEBBYCXLl3aNAFgPQIFuzVnzZ2jrQBB4LYe3CGAAAIIIIAAAggggAACCCCAAAIIIIAAAggggAACCCDQ7QS0ArhZj2aee9YzJwicJUM6AggggAACCCCAAAIIIIAAAggggAACCCCAAAIIIIAAAt1EoFm2gE49jmaee8pDaQSBs2RIRwABBBBAAAEEEEAAAQQQQAABBBBAAAEEEEAAAQQQQAABBLqhAEHgbvjQGDICCCCAAAIIIIAAAggggAACCCCAAAIIIIAAAggggAACCCCQJUAQOEuGdAQQQAABBBBAAAEEEEAAAQQQQAABBBBAAAEEEEAAAQQQQKAbChAE7oYPjSEjgAACCCCAAAIIIIAAAggggAACCCCAAAIIIIAAAggggAACWQIEgbNkSEcAAQQQQAABBBBAAAEEEEAAAQQQQAABBBBAAAEEEEAAAQS6oUDfbjhmhowAAggggAACCCCAAAIIIIAAAggggAACCCCAAAIIIFCDwCuvvOLWr1/vhg4d6nr33rJWcPPmzW7NmjVu4MCBrn///u7ll192LS0tvox1ofvVq1e7AQMG+C+1sWLFCl+mb9++vq61Z3XsvHbtWt+n2h88eLAlZ57Vtuqo/KBBg1yvXr182Y0bN/r0IUOGuD59+lTqq7zmNXz48EqaLjZs2OBWrlzpdthhh0obSrd21Ha/fv2U5I9UO5r3unXrKuOPxyM3lQnHIw+b56uvvuo91cGwYcPalNvSa9f7U98P+h7YtGmTn4e+J+JD3i+99JIbNWpUxTb1faN6Kqsv2cle5eI29X0VPou4P+7LCxAELm9GDQQQQAABBBBAAAEEEEAAAQQQQAABBBBAAAEEEECgWwosX77cPfXUU+7AAw/0QTlNQoHKhx9+2I0ZM8aNHj3azZ071wdb99tvv0pgVYFBldl1113d7rvv7p577jn3zDPPVAwUqFWevixoq3bnzJnjg4VWcMSIEW6vvfZyCpTGh/qYP3++W7p0qQ9Q617BwUmTJvmxKgj92GOP+fttt922Uv3ZZ591+nr9619f6VuZmqcC1QoubrfddpXy1s4222zj9t1330q6zcnaUeDyiSee8MFvBbg1HgV3VUdtWjuVBv5+oTnus88+3khjsEPB4j333NPtuOOOltTlzgpqP/nkk/57QoFtBYK33357/71hz1WDXrRokXvxxRe9gz2LF154wenrgAMOaBPQXbhwoVu1apVPf/75552+4kPfU13ZJR5vd7hv/19Ydxg1Y0QAAQQQQAABBBBAAAEEEEAAAQQQQAABBBBAAAEEEGiowLx589z+++9fWTGc6mzq1Kk+OKrgsgK4CnQqoKdD9woqWjBZK0cVxF2wYIEbP358u+YUhFUAeO+993YjR470q0cfffRRH4hVYLHMoQC0AsA61GYYBLZ2NB7laaVw6lAAVyuSp0yZ4lc861qBcM1LY7RDAV8FlO1QsFQrXlVOK2UV9Nah9mSqoKmC213xUMBWAXo9M53tuWoVs56JDs1NK6x1LFu2zM9H1zJWEFh5ChzrUBBZAWDNOVwtfdBBB7X5vgoDzL4if3RYgHcCd5iQBhBAAAEEEEAAAQQQQAABBBBAAAEEEEAAAQQQQACBniWgla7aBnnJkiW5E1PwTmV32mkn/6XyCvxpFa0CiDvvvHNlNbECpbpX4FVl4kOreRUstGCjtgzWymT1oaBumUPBSNUbO3asDwan6isQu6A1IK2gZnyovMaveWnrbB1aBbzHHnv4barD8upHK4XtKxyv6uheX5rL2NbxKFDeVQ/NW8/TVmrrWSioH27fLBfNR+kK+JqfAsUqZ8F3zVGBdq2gtmdq8zYTO1s65/oJEASunyUtIYAAAggggAACCCCAAAIIIIAAAggggAACCCCAAAI9QkABUm3t/PTTT/tgcJFJ6Z28CnBqxay+dCgwGB56n68OBZjDQ4FCvcPX8i1PK0q1GlmBSTu0nbACyfalbYnjQ3lamWqrfBUUjg8FMTVeBYLjw8aXGo+2zQ6PeDyai95/q4C2tk3W9soKhsp0l112aRdEDtva2tfaklkrd7UNtoK5movSwudoq38tsKugsA4FdGWubbItMKxno4ByuFJaZVVH7egr9fxUhqNjAmwH3TE/aiOAAAIIIIBAEwjol3VthRMe+mXftjYK07lGAAEEEEAAAQQQQAABBBBAAAEEeoqAgsAK0mlb44kTJ1adlq0e1WpSBQ91hFsA6z4so3s7bGWwVtNWOxRA1DbTdih4HB4vv/yyD0Lvtttuvj+9o1dBYQVgw0OBZa3M1RbNtn2x5dt4bPxyUBt2hB4aj/q0Q4FQzUNltMW1bXM9cOBA/07gOCBq9brCWSu1NU6NWS56XlrBbMF0s5WlBXdlY+/z1dxVVyuEda3gt4LFChCHh94nbc9awXE9I476ChAErq8nrSGAAAIIIIBADxG4/fbbK/8KVH/RSR3jxo3zyfrLwuGHH54qQhoCCCCAAAIIIIAAAggggAACCCDQbQUUpNPnH3ovbxgAzZrQ+vXrfZaCiBZEjbdh1jbROhT4Cw8LDtsK0jBPq3XDIOKkSZMq76FVOb1rV1tJ26F/0K9D41FAUmPQymQFMOOVvQpeapWwPv8Jg7O2/bGNV3NSvlataqVseMTjsTz5KViqL9XROGWp9+HG87c6XeGsgKy+5CdXe0+wgroK3upQ4F3fE3peoa18tQpaQWA9U30f2IrhcG6TJ0+uBIHDdK7rJ1D9n1PUry9aQgABBBBAAAEEuo3AgtZtgPTLf1YAWBOxfJXlQAABBBBAAAEEEEAAAQQQQAABBLqDgAJ0OsLVs3ZteeE8tKWxVsnGu6SFZXStQK1WxCrwp4CpvQs33upXwUEFR+MgqIK8qhMHWBcvXuzuuuuuwu8E1gpk61PBXQWBLZCbFchWoFsBzzBfc9A4NV4dei+wVsSG2yL7jIw/tDp29uzZFWdtla2FBHLSdsld8dD3wWOP/f/27gXesquuD/i65z5mMglDQh5MCGQMmSRQMICmEmkpipT4obUW1GrFRESsWMVWbEWt1kI/tfWFNvGBQNVP+tF+bCvFFxoVCqLRDwQhKY+YB3k5SYCQhEGSedx7btd/77vu2ffMuXfunXvueez5bjyz32uv9V2byGd+WWt/YrXNYRB1jr6JOkfdi0f0dfgW22hvWSL0jRHAcU30c/mmcjlvPRoBI4FH4+wpBAgQIECAwJQJXH311dU3WzZTbdNCb0bJNQQIECBAgAABAgQIECBAgMAkCESIGVMcx2jZCDkj4IuAN7abI2Gbdb3ooouqYLVM8dw8F6FtjLSNwC+Cv0suuaQqK66J0DS+KRxhYoTJEc5GWBh/l1KmWW6WFdM3x7do41+4j+A5vssbI09jBGrzm8DNe/q3SwDcPzo3yo3Qsv97vnF/hM+lrqW8qF8cixA6rM4555xq1Gu0sX+JY82RyhGEx4jYGCEbgwiivXE+AulY4nmTuMTo5xjZG30W70Psh2eEv1HnEgBfeumla96VmDY6vh8c/Rf3RX9FGXGsfwru0u4IlePaskRYXEZfl2PW2xMQAm/Pz90ECBAgQIBAiwV+9Vd/dVOt+7Ef+7FNXeciAgQIECBAgAABAgQIECBAgMC4BSLcjKl4b7/99vTRj360qk4ElpdffvnAYDYuiFAzwtMI+/qXmN44yozRns961rPWhIMRCkb4GUFuBKlRTgSiEa4OWmIE6cUXX1xdG/dEuREolk9yDbqn/1iM5o3n9AfaESpHUB2hZjN8LPeX7x+XKa3jeByLaw8ePFiFmnEsrCJgbpYR5+NXlnh2WMR1EWjHiOBYIuQ8cODAxIbA0VcR8Ebwfdttt1Xhb7Rz3759VSgf70zYxqjm5hJ9FIFvhMSxHYFu/GJkcewPWqL85hLW8T1iy/AEZnKHLccLZyFAYPoE4v+pLOw6I/8/jNPz/8OZzb+1H1afvhapMQECp7pA/FuF8Z2Q+Lc8zzn7CWPneOMb37ipOgiBN8XkIgIECBAgQIAAAQIECBAgQGDCBGJkb/x9TIStO73ECNMIEDe7bPX6zZZ7stdFfcKpOeJ3s2XF33eF81bav9mym9c1g+jm8ZPZLn9Pt9N1Ppm6rXfPev9ywXrX9x9/6LOfr75nfLL93F/eOPfvu/eOtPn/to2zpp5NgAABAgQIECBAgAABAgQIECBAgAABAgQIECAwVIHmaNahFjygsK2GiVu9fsAjh3poO/UZRcg+1MbmwiLs3k6bh10f5W1doDfZ9tbvdQcBAgQIECBAgAABAgQIECBAgAABAgQIECBAgAABAgQITJiAEHjCOkR1CBAgQIAAAQIECBAgQIAAAQIECBAgQIAAAQIECBAgsB0BIfB29NxLgAABAgQIECBAgAABAgQIECBAgAABAgQIECBAgACBCRMQAk9Yh6gOAQIECBAgQIAAAQIECBAgQIAAAQIECBAgQIAAAQIEtiMgBN6OnnsJECBAgAABAgQIECBAgAABAgQIECBAgAABAgQIECAwYQJC4AnrENUhQIAAAQIECBAgQIAAAQIECBAgQIAAAQIECBAgQIDAdgSEwNvRcy8BAgQIECBAgAABAgQIECBAgAABAgQIECBAgAABAgQmTEAIPGEdojoECBAgQIDA5Ag8/elPP2FlXvziF5/wGhcQIECAAAECBAgQIECAAAECBAgQ2GmB3bt37/QjJrb8U7nt63XK3HonHCdAgAABAgQInOoCV199dXr/+9+/LsP+/fvThRdeuO55JwgQIECAAAECBAgQIECAAAECBAiMSmDv3r3p8OHDo3rcRD0n2m5ZKyAEXuthjwABAgQIECCwRuCFL3zhmn07BAgQIECAAAECBAgQIECAAAECBCZRYH5+Pp133nnp0KFDp0wYHCOAIwCOtlvWCgiB13rYI0CAAAECBAgQIECAAAECBAgQIECAAAECBAgQIDCVAhGGnn322VNZd5UeroBvAg/XU2kECBAgQIAAAQIECBAgQIAAAQIECBAgQIAAAQIECBAYq4AQeKz8Hk6AAAECBAgQIECAAAECBAgQIECAAAECBAgQIECAAIHhCgiBh+upNAIECBAgQIAAAQIECBAgQIAAAQIECBAgQIAAAQIECIxVQAg8Vn4PJ0CAAAECBAgQIECAAAECBAgQIECAAAECBAgQIECAwHAFhMDD9VQaAQIECBAgQIAAAQIECBAgQIAAAQIECBAgQIAAAQIExiogBB4rv4cTIECAAAECBAgQIECAAAECBAgQIECAAAECBAgQIEBguAJC4OF6Ko0AAQIECBAgQIAAAQIECBAgQIAAAQIECBAgQIAAAQJjFRACj5XfwwkQIECAAAECBAgQIECAAAECBAgQIECAAAECBAgQIDBcASHwcD2VRoAAAQIECBAgQIAAAQIECBAgQIAAAQIECBAgQIAAgbEKCIHHyu/hBAgQIECAAAECBAgQIECAAAECBAgQIECAAAECBAgQGK6AEHi4nkojQIAAAQIECBAgQIAAAQIECBAgQIAAAQIECBAgQIDAWAWEwGPl93ACBAgQIECAAAECBAgQIECAAAECBAgQIECAAAECBAgMV0AIPFxPpREgQIAAAQIECBAgQIAAAQIECBAgQIAAAQIECBAgQGCsAkLgsfJ7OAECBAgQIECAAAECBAgQIECAAAECBAgQIECAAAECBIYrIAQerqfSCBAgQIAAAQIECBAgQIAAAQIECBAgQIAAAQIECBAgMFYBIfBY+T2cAAECBAgQIECAAAECBAgQIECAAAECBAgQIECAAAECwxUQAg/XU2kECBAgQIAAAQIECBAgQIAAAQIECBAgQIAAAQIECBAYq4AQeKz8Hk6AAAECBAgQIECAAAECBAgQIECAAAECBAgQIECAAIHhCgiBh+upNAIECBAgQIAAAQIECBAgQIAAAQIECBAgQIAAAQIECIxVQAg8Vn4PJ0CAAAECBAgQIECAAAECBAgQIECAAAECBAgQIECAwHAFhMDD9VQaAQIECBAgQIAAAQIECBAgQIAAAQIECBAgQIAAAQIExiogBB4rv4cTIECAAAECBAgQIECAAAECBAgQIECAAAECBAgQIEBguAJC4OF6Ko0AAQIECBAgQIAAAQIECBAgQIAAAQIECBAgQIAAAQJjFRACj5XfwwkQIECAAAECBAgQIECAAAECBAgQIECAAAECBAgQIDBcASHwcD2VRoAAAQIECGxbYGbbJSiAAAECBAgQIECAAAECBAgQIECAAAECWxdoz99NCoG33vvuIECAAAECBHZYYGZmJj36uUM7/BTFEyBAgAABAgQIECBAgAABAgQIECBAIFV/Fxl/J9mmRQjcpt7UFgIECBAg0AKB+B9bnc5s+uxnH01puQUN0gQCBAgQIECAAAECBAgQIECAAAECBCZXIP8dZPxdZPydZJuCYCHw5L5yakaAAAECBE45gfgfWfFbWJhPp5++N930VzenBx54UBh8yr0JGkyAAAECBAgQIECAAAECBAgQIEBghwVy+Bt/9xh/Bxl/Fxl/J1n+fnKHnzyS4udG8hQPIUCAAAECBAhsUiBmXZmZ6eT/4bUnXXDBU9M999yTbr7542mpu5iWjQzepKLLCBAgQIAAAQIECBAgQIAAAQIECBBYTyD+DnK2M5fOPOvMtH///urvIuPvJON4WxYhcFt6UjsIECBAgEBLBOLftutUc5XMpb17n5guu+yZ6djRozkEXsotlAK3pJs1gwABAgQIECBAgAABAgQIECBAgMAYBWZyCDyb5hcWVkYAd/LfSdazFI6xUkN9tBB4qJwKI0CAAAECBIYhUILg5eXZtGtXJ/8WjAIeBqwyCBAgQIAAAQIECBAgQIAAAQIECBCoBOpRv3XwG9vxd5JtWoTAbepNbSFAgAABAi0SqL+/kcf+VoN/2/U/wFrUTZpCgAABAgQIECBAgAABAgQIECBAYKoF2hb+ls4QAhcJawIECBAgQGAiBdr6P8ImElulCBAgQIAAAQIECBAgQIAAAQIECBBohUD1xb1WtEQjCBAgQIAAAQIECBAgQIAAAQIECBAgQIAAAQIECBAgQCAJgb0EBAgQIECAAAECBAgQIECAAAECBAgQIECAAAECBAgQaJGAELhFnakpBAgQIECAAAECBAgQIECAAAECBAgQIECAAAECBAgQEAJ7BwgQIECAAAECBAgQIECAAAECBAgQIECAAAECBAgQINAiASFwizpTUwgQIECAAAECBAgQIECAAAECBAgQIECAAAECBAgQICAE9g4QIECAAAECBAgQIECAAAECBAgQIECAAAECBAgQIECgRQJC4BZ1pqYQIECAAAECBAgQIECAAAECBAgQIECAAAECBAgQIEBACOwdIECAAAECBAgQIECAAAECBAgQIECAAAECBAgQIECAQIsEhMAt6kxNIUCAAAECBAgQIECAAAECBAgQIECAAAECBAgQIECAgBDYO0CAAAECBAgQIECAAAECBAgQIECAAAECBAgQIECAAIEWCQiBW9SZmkKAAAECBAgQIECAAAECBAgQIECAAAECBAgQIECAAAEhsHeAAAECBAgQIECAAAECBAgQIECAAAECBAgQIECAAAECLRIQAreoMzWFAAECBAgQIECAAAECBAgQIECAAAECBAgQIECAAAECQmDvAAECBAgQIECAAAECBAgQIECAAAECBAgQIECAAAECBFokIARuUWdqCgECBAgQIECAAAECBAgQIECAAAECBAgQIECAAAECBITA3gECBAgQIECAAAECBAgQIECAAAECBAgQIECAAAECBAi0SEAI3KLO1BQCBAgQIECAAAECBAgQIECAAAECBAgQIECAAAECBAgIgb0DBAgQIECAAAECBAgQIECAAAECBAgQIECAAAECBAgQaJGAELhFnakpBAgQIECAAAECBAgQIECAAAECBAgQIECAAAECBAgQEAJ7BwgQIECAAAECBAgQIECAAAECBAgQIECAAAECBAgQINAiASFwizpTUwgQIECAAAECBAgQIECAAAECBAgQIECAAAECBAgQICAE9g4QIECAAAECBAgQIECAAAECBAgQIECAAAECBAgQIECgRQJC4BZ1pqYQIECAAAECBAgQIECAAAECBAgQIECAAAECBAgQIEBACOwdIECAAAECBAgQIECAAAECBAgQIECAAAECBAgQIECAQIsEhMAt6kxNIUCAAAECBAgQIECAAAECBAgQIECAAAECBAgQIECAgBDYO0CAAAECBAgQIECAAAECBAgQIECAAAECBAgQIECAAIEWCQiBW9SZmkKAAAECBAgQIECAAAECBAgQIECAAAECBAgQIECAAAEhsHeAAAECBAgQIECAAAECBAgQIECAAAECBAgQIECAAAECLRIQAreoMzWFAAECBAgQIECAAAECBAgQIECAAAECBAgQIECAAAECQmDvAAECBAgQIECAAAECBAgQIECAAAECBAgQIECAAAECBFokIARuUWdqCgECBAgQIECAAAECBAgQIECAAAECBAgQIECAAAECBITA3gECBAgQIECAAAECBAgQIECAAAECBAgQIECAAAECBAi0SEAI3KLO1BQCBAgQIECAAAECBAgQIECAAAECBAgQIECAAAECBAgIgb0DBAgQIECAAAECBAgQIECAAAECBAgQIECAAAECBAgQaJGAELhFnakpBAgQIECAAAECBAgQIECAAAECBAgQIECAAAECBAgQEAJ7BwgQIECAAAECBAgQIECAAAECBAgQIECAAAECBAgQINAiASFwizpTUwgQIECAAAECBAgQIECAAAECBAgQIECAAAECBAgQICAE9g4QIECAAAECBAgQIECAAAECBAgQIECAAAECBAgQIECgRQJC4BZ1pqYQIECAAAECBAgQIECAAAECBAgQIECAAAECBAgQIEBACOwdIECAAAECBAgQIECAAAECBAgQIECAAAECBAgQIECAQIsEhMAt6kxNIUCAAAECBAgQIECAAAECBAgQIECAAAECBAgQIECAgBDYO0CAAAECBAgQIECAAAECBAgQIECAAAECBAgQIECAAIEWCQiBW9SZmkKAAAECBAgQIECAAAECBAgQIECAAAECBAgQIECAAAEhsHeAAAECBAgQIECAAAECBAgQIECAAAECBAgQIECAAAECLRIQAreoMzWFAAECBAgQIECAAAECBAgQIECAAAECBAgQIECAAAECQmDvAAECBAgQIECAAAECBAgQIECAAAECBAgQIECAAAECBFokIARuUWdqCgECBAgQIECAAAECBAgQIECAAAECBAgQIECAAAECBITA3gECBAgQIECAAAECBAgQIECAAAECBAgQIECAAAECBAi0SEAI3KLO1BQCBAgQIECAAAECBAgQIECAAAECBAgQIECAAAECBAgIgb0DBAgQIECAAAECBAgQIECAAAECBAgQIECAAAECBAgQaJGAELhFnakpBAgQIECAAAECBAgQIECAAAECBAgQIECAAAECBAgQEAJ7BwgQIECAAAECBAgQIECAAAECBAgQIECAAAECBAgQINAiASFwizpTUwgQIECAAAECBAgQIECAAAECBAgQIECAAAECBAgQICAE9g4QIECAAAECBAgQIECAAAECBAgQIECAAAECBAgQIECgRQJC4BZ1pqYQIECAAAECBAgQIECAAAECBAgQIECAAAECBAgQIEBACOwdIECAAAECBAgQIECAAAECBAgQIECAAAECBAgQIECAQIsEhMAt6kxNIUCAAAECBAgQIECAAAECBAgQIECAAAECBAgQIECAgBDYO0CAAAECBAgQIECAAAECBAgQIECAAAECBAgQIECAAIEWCQiBW9SZmkKAAAECBAgQIECAAAECBAgQIECAAAECBAgQIECAAAEhsHeAAAECBAgQIECAAAECBAgQIECAAAECBAgQIECAAAECLRIQAreoMzWFAAECBAgQIECAAAECBAgQIECAAAECBAgQIECAAAECQmDvAAECBAgQIECAAAECBAgQIECAAAECBAgQIECAAAECBFokIARuUWdqCgECBAgQIECAAAECBAgQIECAAAECBAgQIECAAAECBITA3gECBAgQIECAAAECBAgQIECAAAECBAgQIECAAAECBAi0SEAI3KLO1BQCBAgQIECAAAECBAgQIECAAAECBAgQIECAAAECBAgIgb0DBAgQIECAAAECBAgQIECAAAECBAgQIECAAAECBAgQaJGAELhFnakpBAgQIECAAAECBAgQIECAAAECBAgQIECAAAECBAgQEAJ7BwgQIECAAAECBAgQIECAAAECBAgQIECAAAECBAgQINAiASFwizpTUwgQIECAAAECBAgQIECAAAECBAgQIECAAAECBAgQICAE9g4QIECAAAECBAgQIECAAAECBAgQIECAAAECBAgQIECgRQJC4BZ1pqYQIECAAAECBAgQIECAAAECBAgQIECAAAECBAgQIEBACOwdIECAAAECBAgQIECAAAECBAgQIECAAAECBAgQIECAQIsEhMAt6kxNIUCAAAECBAgQIECAAAECBAgQIECAAAECBAgQIECAgBDYO0CAAAECBAgQIECAAAECBAgQIECAAAECBAgQIECAAIEWCQiBW9SZmkKAAAECBAgQIECAAAECBAgQIECAAAECBAgQIECAAAEhsHeAAAECBAgQIECAAAECBAgQIECAAAECBAgQIECAAAECLRIQAreoMzWFAAECBAgQIECAAAECBAgQIECAAAECBAgQIECAAAECQmDvAAECBAgQIECAAAECBAgQIECAAAECBAgQIECAAAECBFokIARuUWdqCgECBAgQIECAAAECBAgQIECAAAECBAgQIECAAAECBITA3gECBAgQIECAAAECBAgQIECAAAECBAgQIECAAAECBAi0SEAI3KLO1BQCBAgQIECAAAECBAgQIECAAAECBAgQIECAAAECBAgIgb0DBAgQIECAAAECBAgQIECAAAECBAgQIECAAAECBAgQaJGAELhFnakpBAgQIECAAAECBAgQIECAAAECBAgQIECAAAECBAgQEAJ7BwgQIECAAAECBAgQIECAAAECBAgQIECAAAECBAgQINAiASFwizpTUwgQIECAAAECBAgQIECAAAECBAgQIECAAAECBAgQICAE9g4QIECAAAECBAgQIECAAAECBAgQIECAAAECBAgQIECgRQJC4BZ1pqYQIECAAAECBAgQIECAAAECBAgQIECAAAECBAgQIEBACOwdIECAAAECBAgQIECAAAECBAgQIECAAAECBAgQIECAQIsEhMAt6kxNIUCAAAECBAgQIECAAAECBAgQIECAAAECBAgQIECAgBDYO0CAAAECBAgQIECAAAECBAgQIECAAAECBAgQIECAAIEWCQiBW9SZmkKAAAECBAgQIECAAAECBAgQIECAAAECBAgQIECAAAEhsHeAAAECBAgQIECAAAECBAgQIECAAAECBAgQIECAAAECLRIQAreoMzWFAAECBAgQIECAAAECBAgQIECAAAECBAgQIECAAAECQmDvAAECBAgQIECAAAECBAgQIECAAAECBAgQIECAAAECBFokIARuUWdqCgECBAgQIECAAAECBAgQIECAAAECBAgQIECAAAECBITA3gECBAgQIECAAAECBAgQIECAAAECBAgQIECAAAECBAi0SEAI3KLO1BQCBAgQIECAAAECBAgQIECAAAECBAgQIECAAAECBAgIgb0DBAgQIECAAAECBAgQIECAAAECBAgQIECAAAECBAgQaJGAELhFnakpBAgQIECAAAECBAgQIECAAAECBAgQIECAAAECBAgQEAJ7BwgQIECAAAECBAgQIECAAAECBAgQIECAAAECBAgQINAiASFwizpTUwgQIECAAAECBAgQIECAAAECBAgQIECAAAECBAgQICAE9g4QIECAAAECBAgQIECAAAECBAgQIECAAAECBAgQIECgRQJC4BZ1pqYQIECAAAECBAgQIECAAAECBAgQIECAAAECBAgQIEBACOwdIECAAAECBAgQIECAAAECBAgQIECAAAECBAgQIECAQIsEhMAt6kxNIUCAAAECBAgQIECAAAECBAgQIECAAAECBAgQIECAgBDYO0CAAAECBAgQIECAAAECBAgQIECAAAECBAgQIECAAIEWCQiBW9SZmkKAAAECBAgQIECAAAECBAgQIECAAAECBAgQIECAAAEhsHeAAAECBAgQIECAAAECBAgQIECAAAECBAgQIECAAAECLRIQAreoMzWFAAECBAgQIECAAAECBAgQIECAAAECBAgQIECAAAECQmDvAAECBAgQIECAAAECBAgQIECAAAECBAgQIECAAAECBFokIARuUWdqCgECBAgQIECAAAECBAgQIECAAAECBAgQIECAAAECBITA3gECBAgQIECAAAECBAgQIECAAAECBAgQIECAAAECBAi0SEAI3KLO1BQCBAgQIECAAAECBAgQIECAAAECBAgQIECAAAECBAgIgb0DBAgQIECAAAECBAgQIECAAAECBAgQIECAAAECBAgQaJGAELhFnakpBAgQIECAAAECBAgQIECAAAECBAgQIECAAAECBAgQEAJ7BwgQIECAAAECBAgQIECAAAECBAgQIECAAAECBAgQINAiASFwizpTUwgQIECAAAECBAgQIECAAAECBAgQIECAAAECBAgQICAE9g4QIECAAAECBAgQIECAAAECBAgQIECAAAECBAgQIECgRQJC4BZ1pqYQIECAAAECBAgQIECAAAECBAgQIECAAAECBAgQIEBACOwdIECAAAECBAgQIECAAAECBAgQIECAAAECBAgQIECAQIsEhMAt6kxNIUCAAAECBAgQIECAAAECBAgQIECAAAECBAgQIECAgBDYO0CAAAECBAgQIECAAAECBAgQIECAAAECBAgQIECAAIEWCQiBW9SZmkKAAAECBAgQIECAAAECBAgQIECAAAECBAgQIECAAAEhsHeAAAECBAgQIECAAAECBAgQIECAAAECBAgQIECAAAECLRIQAreoMzWFAAECBAgQIECAAAECBAgQIECAAAECBAgQIECAAAECQmDvAAECBAgQIECAAAECBAgQIECAAAECBAgQIECAAAECBFokIARuUWdqCgECBAgQIECAAAECBAgQIECAAAECBAgQIECAAAECBITA3gECBAgQIECAAAECBAgQIECAAAECBAgQIECAAAECBAi0SEAI3KLO1BQCBAgQIECAAAECBAgQIECAAAECBAgQIECAAAECBAgIgb0DBAgQIECAAAECBAgQIECAAAECBAgQIECAAAECBAgQaJGAELhFnakpBAgQIECAAAECBAgQIECAAAECBAgQIECAAAECBAgQEAJ7BwgQIECAAAECBAgQIECAAAECBAgQIECAAAECBAgQINAiASFwizpTUwgQIECAAAECBAgQIECAAAECBAgQIECAAAECBAgQICAE9g4QIECAAAECBAgQIECAAAECBAgQIECAAAECBAgQIECgRQJC4BZ1pqYQIECAAAECBAgQIECAAAECBAgQIECAAAECBAgQIEBACOwdIECAAAECBAgQIECAAAECBAgQIECAAAECBAgQIECAQIsEhMAt6kxNIUCAAAECBAgQIECAAAECBAgQIECAAAECBAgQIECAgBDYO0CAAAECBAgQIECAAAECBAgQIECAAAECBAgQIECAAIEWCQiBW9SZmkKAAAECBAgQIECAAAECBAgQIECAAAECBAgQIECAAAEhsHeAAAECBAgQIECAAAECBAgQIECAAAECBAgQIECAAAECLRIQAreoMzWFAAECBAgQIECAAAECBAgQIECAAAECBAgQIECAAAECQmDvAAECBAgQIECAAAECBAgQIECAAAECBAgQIECAAAECBFokIARuUWdqCgECBAgQIECAAAECBAgQIECAAAECBAgQIECAAAECBITA3gECBAgQIECAAAECBAgQIECAAAECBAgQIECAAAECBAi0SEAI3KLO1BQCBAgQIECAAAECBAgQIECAAAECBAgQIECAAAECBAgIgb0DBAgQIECAAAECBAgQIECAAAECBAgQIECAAAECBAgQaJGAELhFnakpBAgQIECAAAECBAgQIECAAAECBAgQIECAAAECBAgQEAJ7BwgQIECAAAECBAgQIECAAAECBAgQIECAAAECBAgQINAiASFwizpTUwgQIECAAAECBAgQIECAAAECBAgQIECAAAECBAgQICAE9g4QIECAAAECBAgQIECAAAECBAgQIECAAAECBAgQIECgRQJC4BZ1pqYQIECAAAECBAgQIECAAAECBAgQIECAAAECBAgQIEBACOwdIECAAAECBAgQIECAAAECBAgQIECAAAECBAgQIECAQIsEhMAt6kxNIUCAAAECBAgQIECAAAECBAgQIECAAAECBAgQIECAgBDYO0CAAAECBAgQIECAAAECBAgQIECAAAECBAgQIECAAIEWCQiBW9SZmkKAAAECBAgQIECAAAECBAgQIECAAAECBAgQIECAAAEhsHeAAAECBAgQIECAAAECBAgQIECAAAECBAgQIECAAAECLRIQAreoMzWFAAECBAgQIECAAAECBAgQIECAAAECBAgQIECAAAECQmDvAAECBAgQIECAAAECBAgQIECAAAECBAgQIECAAAECBFokIARuUWdqCgECBAgQIECAAAECBAgQIECAAAECBAgQIECAAAECBITA3gECBAgQIECAAAECBAgQIECAAAECBAgQIECAAAECBAi0SEAI3KLO1BQCBAgQIECAAAECBAgQIECAAAECBAgQIECAAAECBAgIgb0DBAgQIECAAAECBAgQIECAAAECBAgQIECAAAECBAgQaJGAELhFnakpBAgQIECAAAECBAgQIECAAAECBAgQIECAAAECBAgQEAJ7BwgQIECAAAECBAgQIECAAAECBAgQIECAAAECBAgQINAiASFwizpTUwgQIECAAAECBAgQIECAAAECBAgQIECAAAECBAgQICAE9g4QIECAAAECBAgQIECAAAECBAgQIECAAAECBAgQIECgRQJC4BZ1pqYQIECAAAECBAgQIECAAAECBAgQIECAAAECBAgQIEBgDgEBAgQIECBAgAABAgQIECBAgAABAgQIECBAgAABAgTGIbC8vLytx87MzGzr/rbeLARua89qFwECBAgQIECAAAECBAgQIECAAAECBAgQIECAAIEJE9hu6NvfnP7yhMK1kBC4/02xT4AAAQIECBAgQIAAAQIECBAgQIAAAQIECBAgQIDA0AT6g9qhFTygoOazTuVAWAg84OVwiAABAgQIECBAgAABAgQIECBAgAABAgQIECBAgACBkxdohrEnX8r27mzW4VQLhIXA23t33E2AAAECBAgQIECAAAECBAgQIECAAAECBAgQIECAwIpAM3jdLMrJfhZ4K58DLvU6VcJgIfBm3z7XESBAgAABAgQIECBAgAABAgQIECBAgAABAgQIECAwUKCErANPNg6ebODbKGJ1c1BZJwqGSz3bHgYLgVdfExsECBAgQIAAAQIECBAgQIAAAQIECBAgQIAAAQIECGxFoISqG90zKKztv34z5TTvWS/EbT5ro0C4PG+9cprPmsZtIfA09po6EyBAgAABAgQIECBAgAABAgQIECBAgAABAgQIEBizQAlS16tGM5Dtv+ZE9/Zf37/ff/+gMLc8/0Rh8KB7+583bftC4GnrMfUlQIAAAQIECBAgQIAAAQIECBAgQIAAAQIECBAgMEaB/gC2vyolfG0e3+iejc41y+jfboa3/WWsPVffuV4YXO5t3tP/rGnbFwJPW4+pLwECBAgQIECAAAECBAgQIECAAAECBAgQIECAAIExCZTAdNDjNxv+blRGSsuDim4cm1nd7i+nGeKWc2uP1bduFAY3r1990BRuCIGnsNNUmQABAgQIECBAgAABAgQIECBAgAABAgQIECBAgMCoBUqwOui5/QFw/7X9+3UZGwe+5Z61weyge+pguFwfZZd7yrGyH+eirm0PgoXA0dMWAgQIECBAgAABAgQIECBAgAABAgQIECBAgAABAgTWFShhav8FWw9/14a465XbfM5G19ThbrPMtYFwCX9LGb39+gmDwuC4tlzXrMc0bQuBp6m31JUAAQIECBAgQIAAAQIECBAgQIAAAQIECBAgQIDAiAVKgNr/2I0C4LX39ELatcdjVG59rqzLM/r3+0PZ/v1y39pQd2a1/HJ9lFu24554/Np76pL6ryvlT8taCDwtPaWeBAgQIECAAAECBAgQIECAAAECBAgQIECAAAECBEYs0B/GxuO3G/52u93VVmym/PqZEd6u3nZcuBtnOp1O3/ESPq8Ng8szSxhc2tMsv/fMxkN7j5/4LSHwxHeRChIgQIAAAQIECBAgQIAAAQIECBAgQIAAAQIECBAYvUAJS5tPLoFpOda8prddwtfeSN/1gt/+8qLcUs5yqsuZSSWILevy9Orq1Z3mMyIQjqUOekt96jC4F/6eeFRw1KVcv/qgKdgQAk9BJ6kiAQIECBAgQIAAAQIECBAgQIAAAQIECBAgQIAAgVEKlCC2+cz+wLZcU9b1tXXgWo6VYLbsxzXNcrrLeVRwOVDWzYfG9Sv7Zb06JDgP3e3k//SW1StSee7xYfDxo4KbIW9UoQ0jgoXAvbfipLaOHDmSHn300fT444+v/lsJJ1XQDt10+PDhtG/fvh0qfXvFzs/Pp9NOOy3Nzs5uryB3EyBAgAABAgQIECBAgAABAgQIECBAgAABAgQIDE2gGdiWQpv5bPN8b7sXwMaxEsKW8+X+2K9G+MaB2M6/j35mNt36cCfd/uhsuuvznXTfF2bSwWOddP9i/fSn5ETzgvluetrpy+miJ3TTJWcupWc8qZuefe5S6s7kEDlS2/ybWc6/1QS3rk+pR4TB9blSz96o4FLHcm9UbbWYFYC4ppwvJpO8FgJvo3ciAH7ggQfS7t270969eyey4yOgPuuss7bRyp27NfwOHTpU2QmCd85ZyQQIECBAgAABAgQIECBAgAABAgQIECBAgACBzQqUQLR5fYSiZWme723XF8R++cX19XZ95+qI35Vr/u+9c+l9982ndzwwtxr2lmf0ryMMvn+xkz74eD7zUAwunK8uiXD4Fecvphc97Vj6ygvzRTm5XY70Nv96I4Tr8DbC4Ahxy7iK+2EAADFASURBVK8eX9wLgqPAqG8JeqPNUVRzaZ5vHp/EbSHwNnolAtYIgHft2rWNUk7dW4tbjKI+44wzTl0ILSdAgAABAgQIECBAgAABAgQIECBAgAABAgQITIBAhJz9S/NQ83xv+/gAuJyLe2N7OU/5vJxD2Icem0m/fcd8uv6OhfSxo30Ja/+DN7Ef4fDP3zdX/Z5103K65sDR9LUHjqVz9nRTtxOBbkwVHc85vl112BvH2xkENyfJ3gSlS5oCEV4uLCw0D9neokAEwceOHdviXS4nQIAAAQIECBAgQIAAAQIECBAgQIAAAQIECBAYl0AJeUu4GqNs41cHvhH6prwfU0Ln6ZqXFtPhY930325eSM/4nTPSGz6+aygBcH/bI1SOsuMZ8ax4Zjy7qkOuSy+QrqeqLtNElzb02tRf8nTuC4G30W/xMpQh4dsoxq0ECBAgQIAAAQIECBAgQIAAAQIECBAgQIAAAQIExiowKASN4LQs5XxZl/C0hL9xXZyL8DfWyzkAjtG/77lnNv3T3zs9veETo5tZN54Vz4xnRx2qujTq1qtr/p5wtdQNLW0r6/q6lUsaq+b5xuGJ2hQCT1R3qAwBAgQIECBAgAABAgQIECBAgAABAgQIECBAgACB0QoMCjW3EgDH/fXI3wiA69B1KYfAb/7grvTP/mJP/pbv6CPJeGY8O+oQdamD4Bix3Aiqq3q3Mwgevfho31lPI0CAAAECBAgQIECAAAECBAgQIECAAAECBAgQIEDgJAVKQFzW/SOA43gExtV6ZfTvwUPL6bXvPiP9+J3j/6xq1CHqEnVqjgperfMmg+CT5BvbbULgsdF7MAECBAgQIECAAAECBAgQIECAAAECBAgQIECAAIHxCvTC3V49IiAdvNQn1k4B3QuAY8TtrQ+l9O3vOT2946HZwUWM4WjUJeoUdeuNCq7D66hOGPR/I7i/moNMBtn13zeufSHwuOQ9lwABAgQIECBAgAABAgQIECBAgAABAgQIECBAgMCECTTDzhJylnVUtReWxnYEqTHCdqkKV2/7bCd955+eMZbpn0/EGNNDR92ijs0gONpQlmbbSpvLOq5p2pR7JnUtBJ7UnlEvAgQIECBAgAABAgQIECBAgAABAgQIECBAgAABAjso0Aw4+x9TzpV1jkCrwDeui2P9AfD9h1L6vj8/PX3s6Ex/UROzH3WLOkZd+4Pg0s56XQfDa48Nbka5ZvDZ8R0VAo/P3pMJECBAgAABAgQIECBAgAABAgQIECBAgAABAgQITIzA+iNdV0b8xqjfZgC83E3d/Fta7Kb/8IHTJ3IEcD9ujAiOukado+7L1a8Raq+0MULvQcv6RoOuHt8xIfD47Lf05FtuuSV97/d+b7riiiuq35ZuHuLFd9111xBLUxQBAgQIECBAgAABAgQIECBAgAABAgQIECBAgMA4BDYawVrONdexXX5R3yo87dYB8LUf3pPe+dm5cTTjpJ4ZdY06RxC8nNsQbYmltK+sy7HmOrb7l7h+0pbp6Y1Jkxthfa6//vp07bXXjvCJxz8qwt8bbrgh3XbbbdXJl73sZeklL3nJ8Rc6QoAAAQIECBAgQIAAAQIECBAgQIAAAQIECBAgMHUC6+eYvYCzDkfzt4Bj9GwEwEvd9N775tN//uSuqWtv1Pk55y6mr7xwMc3m2ndnZlIn/ydGAM/k7XqJtpftlUN5FVarl/QOT9SWEHiiuuP4ysTo3xtvvHHNiTg2qqU//C3Pfde73pXiJwwuItYECBAgQIAAAQIECBAgQIAAAQIECBAgQIAAgekXKKNam+s6/I2RwHUAnD8IXAXBjx9bSj918xlT2+ifunl3uvL8z6U9Ofud7c6kbl5HEFzaHg2LQDj2m+tpaLDpoCe4l2IEcAmARxn8Bsmf/MmfpNe//vXpuuuuWx39G8cvvfTSWK0uEQTHdXG9hQABAgQIECBAgAABAgQIECBAgAABAgQIECBAYPIFmiFn1Ha9UcBlmuT6mpURwfniuL+7tJx+/eO704cOxzja6Vyi7tGGaEtlsgLR9GkaNFvZb9a8p3nduLaFwOOSP8Fzm1NARwBcpoOO7WuuueYEd2/vdIS6Ee4OWq666qpBh6vrhcEDaRwkQIAAAQIECBAgQIAAAQIECBAgQIAAAQIECEyFQAkyyzoqHdvd6ru5a6eBfuix5fTvbtszFe3aqJLRhmhLTG0dU1xXU13HiOeqzSvB94pDlNO02ajccZ8TAo+7BwY8f70A+AUveMGOB8DNEb3NUb+x/brXvS5ddNFF1RTQMQ30oOWOO+4YdNgxAgQIECBAgAABAgQIECBAgAABAgQIECBAgACBqRLoBaBR7Sr8XAlJIyD97TsWpqo1G1U22hJtigA4pro+Puhda7FRWZNyzjeBJ6AnbrnllqoWH/nIR6p1c9Rv2Y4AuGyPqsoHDhxI8YvlJS95yeqUzxdffHEVBjePlZHDt91226iq5zkECBAgQIAAAQIECBAgQIAAAQIECBAgQIAAAQJbFOgPOPunNS7FxXXlV47FOqZOXuoupt+4+8zm4ane/o2796RvfdZjaWZpPs02htA2reKbwP1L2DUPx/WDruu/bxT7QuBRKJ/gGa9+9aurK37lV34lle1RTwFdqljC3NiP7Rj9G0tM9RzLm9/85vSWt7yl+k5wnIsguJyrLsh/3HXXXVVIXPatCRAgQIAAAQIECBAgQIAAAQIECBAgQIAAAQIEpkOgDj57I19jv9vNgXB3KYe/S1Uw/L77dqWPHT0+FN1KC7/tqSm97stSet75W7nr+Gs//EBK130gpV/9m+PPbfZItCXa9OL9dRvjK8fdNJs6ORDuhboRijf3N1v6eK5rZNnjqcCp/tQyCjhC37e//e0Vx7gC4EF9EdM/33nnnVX4W6aAjtHBJRyOwLc5bXSUEddbCBAgQIAAAQIECBAgQIAAAQIECBAgQIAAAQIEpkegOeq11Lr/WDVb8vJSev/B7U8FPYwAOOoZIXKUtd0l2tTNbYs2Npd+gzg36FjznknYNhJ4AnohQt9YbrzxxtQMgGNk8OWXXz6yGja/BxwPjdA3Qt4yOjhG/cZ+mQY6jkcAfNVVV1Ujg0tF47vAcY2FAAECBAgQIECAAAECBAgQIECAAAECBAgQIEBg2gTqaaBLrWP0az5SBZ/x3dylpW5656d3ldMnvS4jgGd+4aSLqG5c/u7tjyaOgqJNP7x0KHVm4pvAMY422jyzOt1zBL/11M/bGwFdVXoEfwiBR4C8mUfE935LABzf/73iiitSfCN4lCHwevWMMDi+AxzLddddV40CLiFvOd6813eBmxq2CRAgQIAAAQIECBAgQIAAAQIECBAgQIAAAQKTIbCVEawR+Mb11T0r4W+eGDp9/KG59ODSdAShW1GPNkXbLt9XB91zOfFd7uRfDsHDohNzQ29iqcPi8fsIgTfRWTt9STMALqOCy7Gdfnaz/BjBW5aY7jmmgi5LmeI5vgkcS4wIjqVcU6aKLqOG43w5V13oDwIECBAgQIAAAQIECBAgQIAAAQIECBAgQIAAgYkSiICzuawXEpfjEYZ+4uH55i1D244RvVtZtjuCeNCzPvFwJz37vGNpNue9VZg74KL+kDcM6xHCAy4e46HNRdZjrGDbHl2+ARzr+MVo3zICOKZ/jiUC4BgNfM0114y0+c0RvDfccEN6/etfXz0/AuAIdyPULVNGx/kS+Max2G6GyCOtuIcRIECAAAECBAgQIECAAAECBAgQIECAAAECBAictEAJeWMK5OYSAWdMBR1LmQr6rkM7EwI3nzuu7WhbTHcdbY0l2t4flBejntm4arvxc40E3thnqGevv/76KuAtoW8Z9XvTTTelEgA/97nPrbbHMQ10jOYtwW4JhCPgjamfY9rnZtgb3wGOXzkWUOWeKMco4KG+OgojQIAAAQIECBAgQIAAAQIECBAgQIAAAQIECIxHIKeg3eU8NXSeCjqCz7u/sDPx4k6M7N0qWLQt2hhtjTbPxreBxz+z81abUV2/M710UlU5dW6KoDeW5nocoW+/ePnObwmC43zZjnMR7JZvAJdRweV8KevSSy+tQuOyb02AAAECBAgQIECAAAECBAgQIECAAAECBAgQIDA9AlUI2hz+urJdjv/N47M70phJmA462lbaWTWy4RDHY5mZxLmfq5qt/UMIvNZjR/dixG9M8xxTQMfy6le/ulrHiOBJCIGjMhH2xrTOZVRvVcH8R4z4bU73fODAgXJqzTpGB1sIECBAgAABAgQIECBAgAABAgQIECBAgAABAgSmW6CEobHuLsW0yPHrpvsXdyYEngStaFu0sbS5M1PaPT3hb3EUAheJEaxvvPHG6vu/8agyFXQZDTyCx2/6Ea997WvTW97yltUgeFAoHCFxTPvcXEwD3dSwTYAAAQIECBAgQIAAAQIECBAgQIAAAQIECBCYboGYGLksJRR+cGln5keehOmgo22lnavtrgx2ps3lGTuxFgLvhOqAMuN7wLHEaOCyRCgcS/kecDk+CesY0VtGA5d1f72aU0FHAFymk+6/zj4BAgQIECBAgAABAgQIECBAgAABAgQIECBAgMBkC0T4WZY12zkErYPRVK3LNcNen2g66FGFxM22Rghe4t84XqaCbm4P22FY5eWvGVtGKRDBbwl/Y2roCIAnZSropkN88/d1r3td89C62wLgdWmcIECAAAECBAgQIECAAAECBAgQIECAAAECBAhMr8BKMFxGBHe7y2nfbC8snt6GDa55tC3aGEtpc06+B1884UeNBB5RB5XvAb/mNa+ZyNB3EMNmg+C4zkKAAAECBAgQIECAAAECBAgQIECAAAECBAgQIDD9AmWUa6wHLefPLqYHl+YHndrWsVGN9N2oktG29ZYYBVxs1rtmko4LgUfUG9dee+2InjTcxwh4h+upNAIECBAgQIAAAQIECBAgQIAAAQIECBAgQIDA1Ajk4LMsJRS+YPdS+vDR4YfA5TnjXEfbYiltrXYaBtX+lPwhBJ6SjlJNAgQIECBAgAABAgQIECBAgAABAgQIECBAgAABAuMWuHDP0ZQO7R5aNd52ZUqv+dLtFffhB7Z3f7m7alvZmfK1bwJPeQeqPgECBAgQIECAAAECBAgQIECAAAECBAgQIECAAIFhCcS0x7E0Z4OeSfWxOLf/jCPDelRVzjAC4Os+MJwqRdtK+0ubo+RiUc4N52k7W4qRwDvrq3QCBAgQIECAAAECBAgQIECAAAECBAgQIECAAAECUy9QAtADTzg89La8/UMpfcdfDr3YLRdY2lbauuUCJugGI4EnqDNUhQABAgQIECBAgAABAgQIECBAgAABAgQIECBAgMCoBQaFnv2fwo39TmcmXXbm4XRepzu0Kk5KABxtirZFGwe1vb/Bg8z6rxnnvhB4nPqeTYAAAQIECBAgQIAAAQIECBAgQIAAAQIECBAgQGBMAv1hZ1qZ9rlZnZgWuQSese50OukfP+kLzUtOentSAuBoQLQp2tZsa3NK6F4j66mxy/7xhuXMeNdC4PH6ezoBAgQIECBAgAABAgQIECBAgAABAgQIECBAgACBkQiUgHMzD4trSwDcmZ1Js7Oz+bYIhDvp+Wd/fjNFbHjNJAXAUdFoU7Qt2hhtjTY3DTZsTOPkVowbtw19Uwi8DdLoxOXyJehtlONWAgQIECBAgAABAgQIECBAgAABAgQIECBAgAABApMgUAWfzeGtje0yUvb55x1Kl8wtbau6k/AN4NKAaEu0KdoebVxdGm0/zmX1osncaLRiMis4ybU67bTT0tGjRye5ihNftyNHjqT5+fmJr6cKEiBAgAABAgQIECBAgAABAgQIECBAgAABAgTaLBAhZ/+y9lg9MjZGyc7NzaavP+/h/sundj/aEm2KttVt7lmsNaibOOjYpDVeCLyNHjnzzDPT4cOHUwSZRgRvHTLcHnvssRRhuoUAAQIECBAgQIAAAQIECBAgQIAAAQIECBAgQGB8Ar1gsxeAVrWJ0bF5muTq14mRsnUY/NILHhlfZYf85GhLtD/aVv1W2psP9j2p3u9Z9Z2eoN25CarL1FVl165d6fzzz0+PPvpoOnTo0EQGwRFSP/LIZP6XMEYA7927d2UO+anrfhUmQIAAAQIECBAgQIAAAQIECBAgQIAAAQIECEydQASYzcGNkXMO+vppXDczs5xmlvMF1XYEpJ2c68xVv7N2H05vOP9T6SceePLUGTQrHG04a3c3t2mhaleZ8rpqf/UN5Gh+fxhcl9B/eL3rms8b1bYQeJvSEQQ/+cnT/XJvk8DtBAgQIECAAAECBAgQIECAAAECBAgQIECAAAECLROoQ+AIP5frEDjPLzzT7VSBaEybHL+X738o/eFDZ6Wbjy1MZeufM3+0akMdANdTQc/kUcD5/6o2R6N6DtPVRNNBT1d/qS0BAgQIECBAgAABAgQIECBAgAABAgQIECBAgACBHREoI1kjCC1LTI+8OhI4H5+djV98F3gu7ZrrpO+48IFy6dSto+7RhmhLHWzX015XDnmYb9X2lVYVk2I06Y3t9eCk11T9CBAgQIAAAQIECBAgQIAAAQIECBAgQIAAAQIECBDYtkB/kNk/rXF5QLkuTwxdfRM49uspoeuRwBGeXnnu59J3nfOZcsvUrKPOUfdeADxbta1qY4wGzv+JpRj0N6zfbL3r+u8b1b4QeFTSnkOAAAECBAgQIECAAAECBAgQIECAAAECBAgQIEBgggUiyCxhZnNdbefvAXdmIwyOsHQmh6f1aODZufn0qosOpqv2/O0Et2xt1aKuUeeoe4TA0ZZoU9W23Ma8s2Ya6OMs1hY3kXtC4InsFpUiQIAAAQIECBAgQIAAAQIECBAgQIAAAQIECBAgMDqB/pGt8eQIP+tfXY9OHiEbQXA9dfJcmp+fSwsL89X6e55+d7p87sjoKnyST4o6Rl2bdZ+draeDrkPuOj4Nj9L+/kcNsuq/Ztz7QuBx94DnEyBAgAABAgQIECBAgAABAgQIECBAgAABAgQIEBixQBndOuix9bneqOC4JgLgnIpWl5fRwBGezuXRtDGidt/p3fRDF38yXTK7OKjIiTgWdYs6Rl3rUcC57rkNZRRwVcncxqqtKzUeZNHfmI0s+68d1b4QeFTSnkOAAAECBAgQIECAAAECBAgQIECAAAECBAgQIEBgggXK6NdmFSPgjO8A1+c6dWhajQauR8/GVMrzMRp4YSE9fe+R9MYDt03kiOAYARx1izpGXaPOUfcyqrke4TyX21m3tW5zHXoXj7AIh2lYhMDT0EvqSIAAAQIECBAgQIAAAQIECBAgQIAAAQIECBAgQGDIAhuNYK3P9UYD1wFonYDOdnJ4mn/1d4FzAJxHAlfTQudw9eK9R9ObLrk1vfS0zw+5tidfXNQl6hR1iwC4qmv1PeCVIHilPfGEZjv7DQbVoL5m0JnxHpsb7+M9nQABAgQIECBAgAABAgQIECBAgAABAgQIECBAgACBSRGoR7rOpOXl5SoQjXWMiu12u3k/jnXScsrbeahpZzlG0nbz93Xnq+rHtbGcf8bR9KOXfTx90T3701sf2VcdG9cf/+KsB9PV++9JC/O7qgB41648Cng+fjEVdP7G8cxs1ZbcsKpt0f4IdqPNsZSQN9ZxbloWIfC09JR6EiBAgAABAgQIECBAgAABAgQIECBAgAABAgQIEBiyQISbJbwtRUfYuZLn5kORfNbhbi8IzdNC59Gzy92lHJZGEJxj4W6eFjqHq3VZdYB8zRfdmy49/VD6tQf3p48u7irFj2T97Dz986v23ZOuPPfRHADvTnPzc/UI4FzHegroHADnukeboi31NNC9kc91JXup76AAOO6d1EUIPKk9o14ECBAgQIAAAQIECBAgQIAAAQIECBAgQIAAAQIExiRQwuGyLqOBY4BsHhSclvPGXCSNi8dXMK49MnO0ClivPPdz6TlP/Eh616eekn72oacdf/EOHPm+c+5LL3vy/em0hU7atRAB8HyKEcBz1RTQczmsju8Z518Of2NK65wGV3XtdOoQeNAo4B2o5o4WKQTeUV6FEyBAgAABAgQIECBAgAABAgQIECBAgAABAgQIEJhsgRL0NmvZHA1cTQG93K2mSI5poSMIXl7KI4jzRowCjiXHp/U631hGyEaYGsHq3OxiesVT708vOvvB9N6H9qXfzVNE39mtp5CubhrCHxd3jqWvyVM/f8U5D6azT8tTVM/FlM9zOQCu1zFKeS6n1tV3jGfnq7bEdNDRmKj78QFwPR10VG3QgN/SxiFUfUeKmIgQuH+I+Y60VKEEdkBg0v8LvgNNViQBAgQIECBAgAABAgQIECBAgAABAgQIECDQQoFBQXAEo91umQo6fws4B8HluvpchpjN00HnVeR9czlcLUsEpxEeRxA80zlarc+LMHj3/emf7Ls33fTI2enDh85J737sSenT3V7gWu7fzPq8Tjd91Z6H0/P2PpSuOOuzKyFvDnpnc+CbA+AS/JaRvyUAjjZEADyT614C4HheyX2i3mWJdvYv5br+45O0P7YQuBn8NrcnCUddCGxFYBr+C7+V9riWAAECBAgQIECAAAECBAgQIECAAAECBAgQIBD5RzPLi/0IdsuI4JgaOoLgCB2Xlrp5PV+FqfUo4BgpHN8M7qRjOQCeW1pMi8fyb24xffl5n0tfdvYj6TtyAXccOiPdc+QJ6b7H96SDR09Ln1ranYPh+dVwOMLe8/JI3yfPHk4XLDyennbaY2n/rs+nA3v/tqpLlD87m6d9zlM8R/gbUz1Xo4Cr6Z/j+XEsvmM8t3p9MwAuberPevr3p+ltGHkI3HxJYru5P01w6kogBOL9jX8AxK+8y9P8DwS9SoAAAQIECBAgQIAAAQIECBAgQIAAAQIECJy6As28oyjkCCRnIPVemRY6rhsUBMeI4GoQ7eJczk6WqvwkH8nXRpYSwXEdyEYYvLS4lEPj/OsupWeefThd1n28CpZLfljW8eR4XvNXB8xR7q7qu75V0Jy/7Rthb4z27eRv/UYIHOuYAjoC4M5MPj8X67UjgEtbYl0/qzcKeOVQdbz8Ua4r+5O6HmkIXEKyZqeV7XKuQPXvl+PWBMYl0P9f6tgvx+J9Lftle1z19FwCBAgQIECAAAECBAgQIECAAAECBAgQIECAwMkKRN7Rn9OtNy30wCC4m/OT+Zk84jeHtxG65gB4aakOZiP0nZ1dymHvXDVqeHFxMS3nEDhGFcco4nhuN085XZ5f1iWPiXUV4uZ1FexWU003gt4c+tYjj8s6nl9P+Tw3n+sQCfWAbwD3yu8FwNM6DXTp95GGwPHQ6Kzyu/UzKb3lQ530y/d00mKpkTWBKRGI//J85/5ueu2XdtMzzu1VuvyDonfEFgECBAgQIECAAAECBAgQIECAAAECBAgQIEBgegQi6ygBbKn18UFwDJCLTLU3NfTycv6GcOSseZ1nYk7dpXxNNRK4W4XBEdBGENzNwW81dXQepRvfGY7tCILjF/vVUoYflwrEw/JSvjMcz40guOzXoXAd/kZd41k5Mq7q15mNUcN5nHIuow6R69HFUUad6/QG/sUzpj0AjjaMLAQuwW9Z3/qZ5fS8d8wLf6MXLFMpEP/iwi/kf4Eh/iWGD7/i2JogOBokDJ7KblVpAgQIECBAgAABAgQIECBAgAABAgQIECBAIAucOAiOoLjKVaugNTLA6jvBOXjNcW4VunZmYmRvDoaXYoRtBLPLVXAbI4NnZ1dG/uZAOMopIXDglyC4BNElc4nAN5YIb+sAN7Zz2Bvh7kooHOvqWfl4Ff7GPREgNwLg+t4S/JZ1VXQupw6b6736z/L85rFJ3x5ZCNyEiIT/l26aEwA3UWxPrUCEwb90Uye9+aX5g+b531ixECBAgAABAgQIECBAgAABAgQIECBAgAABAgTaILCVIDjaG+FqBLczy7HOwW4e1RujgnMMXAWyS4vd/M3gCHDLqN8IjmereyIELkuMFB60VKN5V06UIDdC2xICx8jf2I5v/8ZT41nN8DfONX8RFsd+WdoSAEd7RpJYldG/sY4AOOb3fuu9u4qnNYGpF3jrvbPpJxcP1/9gydMLlKX5D45yzJoAAQIECBAgQIAAAQIECBAgQIAAAQIECBAgMC0CkXWUEbmlzhGWRshbBb7V+chaI0zNIe/K9WVUcP5QbEp5OuaZHPLOzOX74j85JI6poqsMMY8IjiWu7z1nLu/n+xpLM6CNZ9QjfiPGrYPfGPUbx6v/RF1yAFy26936uiiyjCiu61zXPa7pX8r5/uPTsD+SELgJEZ0XIbBvADdVbE+7QLzP8V4bCTztPan+BAgQIECAAAECBAgQIECAAAECBAgQIECAQL9AhKG9gLY+W4em9fFyvg5X6/C2hLR1uJuvq6ZZjlHCVXqcv81bxcGrgXAnD7Irz4gzjTF3q9WJUDeWEs4eF/xGpfKvP/wt99T3rS0jjtVtqYpe/aM8Y/XAlG2MLQSeMifVJXBCgQiByz+cTnixCwgQIECAAAECBAgQIECAAAECBAgQIECAAAECUyQQoWh/DlKHp2uH0EbGWweo9Qjf48LgGBlc3bI2EC4UEQCXpTyvGciWIDiuqY5HJfKvHI9jcag8t9w7aPRvXUZ5Wm9d7ukdmb6tsYTA08ekxgQ2J1D+YbS5q11FgAABAgQIECBAgAABAgQIECBAgAABAgQIEJgegQhH+7OQCFxL8BvnyjUldI0pomMpoWxcU/9yWSuBcGTCJfwtI4Wrm+JEc4mHxS8vJfSttvOx+lSsV86vrvN3gVeW48+VM711uaZ3ZDq3RhoCl5eirKeTTK0JDBYo73Ws2/IPiMEtdZQAAQIECBAgQIAAAQIECBAgQIAAAQIECBA4VQUiAymZSDFYyVvz7trUts5MSghbh8HN+0s58f3f1VA3F1GOl/LLuj9/Kd8JLsfLOq7vhdCx3R8MlxLXrst1a49O595IQ+DpJFJrAgQIECBAgAABAgQIECBAgAABAgQIECBAgAABAgSKQAlL+8PayFrLqOBybazXhsHN0cJ1oDw7W4e0vfLq/WYZze3y/DhWtsu6GUSXY2VdX98sqd5unj/+7HQeEQJPZ7+pNQECBAgQIECAAAECBAgQIECAAAECBAgQIECAAIGxCkR42gtu66qUUcHrhcElpC3B68xM/Q3gOiheG/6Wssu1zcb2jq29J64p58q6Pta8u7fdvKZ3dPq3hMDT34daQIAAAQIECBAgQIAAAQIECBAgQIAAAQIECBAgQGAsAiVELYFtqcSgMDiubV5Xb9chbimn3B/rEhCX4Lh5rrndvLe5XZfRvLK33X9d70w7tkYeAjc7th2EWkGgJ+D97lnYIkCAAAECBAgQIECAAAECBAgQIECAAAECBE4dgRKq9mclzTA4NMp1ze3mPc3tQeHvoPsHKZfn9p9r3t9/rk375UvMrWjT265MKX47sURa/pSRR+Y70ZLhlxkupx0/0n7Ng542v2Z3R3f01Y7yKpwAAQIECBAgQIAAAQIECBAgQIAAAQIECBAgsK5AhKyDgtYIZcuv/+ZyT6w7nc6Gv+a1x5dz4mf039PW/VbFml/6lOF30+WnpfQzL0rpy5+Wg84cZN79SEr/82Mp/dAt9bOuuyKl13xp77mPPJ7SnQ+ndN1N+boHe9d8z/Pr7cOLvWuX8hTnZ7y1t/+cPSl95Nvq/Zlf6B1/KB87faHe373SY6WcxW5KT3hbSjd+Ta7jhSmV4+XuD9+f0gt+t+zV61dmp7fn68vy+LGUPpnr/Nt/ndJ//ER9NNp1ojq/6Vm57V+S0vl7U3osl/GxT6X0A+9L6b2P1mVEVX8223z9s1Pad0ZKD2ebP7o9pe+7MaUHl+pr3vnilK66JKXnX5/SLfl8WQ5eXV//xf87pc3UN+7bTF+dqE3l+dYECBAgQIAAAQIECBAgQIAAAQIECBAgQIAAAQInL9AMgteO7q2D2v6S4xvCW1kiUD7R0qzDia5t2/lWhcDD7pwn5XHSv/uKlM7LAebbP5TSwUM5sLw4pR98YUqz+cX6gZtTms/XRDD763n7vnz+nBzkfu0zUvrv/zSlI7+Vg9XP1NdE3f7wthzy5qC0LP3v8rdeVs6k9M/PT+l/PFDv/8IHUlqYrbfj2bH83F/U6+5KIQsrPVmO12dTeuBvy1ZvHXWPOv/ZPfl3bw6ic7j9VU9P6U0vTmlXfs6PfPTEdf7+HNz+6Fek9IH7UnrzX6Z05q6UXvtlKb0je1356ynddiQb5Lp+0+Up/fEdKf1ifs6zz0vpG/P+/jN7wXTx6//v6e5cp105WI5lM/XdbF9FeSfqh7jGQoAAAQIECBAgQIAAAQIECBAgQIAAAQIECBAgMByBZhjbHwiXJ2wm1C3XbrRuPmuj69p+Tgi8QQ9/fx7pemEOLP/9e3ojZH86B7l3vDKHm3l0a4TAZXnXnSn9xkpo+2c5GP21HAJ/9RfVIXC55r/ncLVcU441119zWUofzyHx/rNyWPrMXgj8Y3nkcVle+cUpdXJiWkYil+OxXlwafLx5TXP7lvysUs5Tcls++e055D5Qh8DluvXq/BX76yv+Vbb5y5Wg+Qs5tP2RF+V2X5Cnzs4ji78hG73vrpReesNKaXmUcYxUvua5eQRxHrX89hwMb2XZqL5b6av12rSVuriWAAECBAgQIECAAAECBAgQIECAAAECBAgQIEBg6wL9Ie16ofBmS+4vb7P3tf26TtsbuJ32XZFH48bya3kka1liNuc3vDtP9/zBlPauo/e5lRGsMX30ZpeX51GyB87OoXEOmSM4fcnFo/0G8adzw47kEPm0Tf5rAXc/Wrfsu5+Tp3qerbf/81/naavfmtK1n0zpRU/JI3izzztze5rLb95a773gqc2jW9/ur+/J9tXWn+wOAgQIECBAgAABAgQIECBAgAABAgQIECBAgACBYQlEiLud37Dq0bZyNhn5TV6z33ZlSv3fAH7eSmj7V3lK4ubyofxd3O/IUxZvdXlq/tbtF47maZ5XQt1y/2/Gt37j11ie9+SUjnZzIJqng35t/g7uUt7+gxyGNpdfz/X693l66LL8dK5TGQ37jc+o7/nN21O653MpvSyPCv7WHARHsLrZZS6Hsbf+s7VXv+J38ujiw2uPlb1nnZu/15vr/YQcVn9dfv7ePKXzH+cRzc1lvTq/6cMpPXdfSt+SR/V+bR61/J7c1t/4eO87yDHlcyz3HqrX5c9bP19vXZhtt7psVN+t9NV6bdpqfVxPgAABAgQIECBAgAABAgQIECBAgAABAgQIECBAYBIFpjYEHgVmzD2+vMkH/Zu/t/bC7/2DlKqwuHH4lhwcx68sn3m83orv2X71JSnddDClm/Ox2+5N6Sfy+hU5XN1KCBylfTCX0Vy+kEf3rre86KI8Yjf/yvLLeXTz9+Vwt7msV+fP5HJf+Hspvfpp9dTVV+X6Rxj88lvy94zfnz/ovVJIv9/SyoGY0nqry0b13UpfrdemrdbH9QQIECBAgAABAgQIECBAgAABAgQIECBAgAABAgQmUWBqQ+BBI3vLCOAvecdwqA/mUavPzNM0x3THDzbC1Jc+KR87LaX/lUcYl+VN703pL/I3gX/uJSldlkfYHlz5Tm45H+ufuHHwN4Ff9fSUnrg7pefnQPX9/7i+44m5/CsuSOnv5xGzf9Y3mrZZZnM7vgl89Z83j2y8/Yd5qub/+qF8z99J6ZvztM7xTd/+Zb06n5ZD3GM50P2V++rfpQspvTW3/ZsuT+ndd9ejmaOsC5+Q//h0bNXLZbGfl3vzaOdY8oDpapnLQXhzid1uOblyYqP6bqWv1mtT8/m2CRAgQIAAAQIECBAgQIAAAQIECBAgQIAAAQIECEyrQF/0Nq3N2Jl637wyavfqi9eW/5avTum/vDilxxvDXP/64ZT+MP/+5R+ltJjDyx/88rX3bLT38mfUZz/4N/neHOTG75GVUcLfsnJuo/tP9twn83d9o87flcPpv8mh7Ld/SUoR5m5mufNbUrrjlb0rb8vTZpfv/16SQ/I/vz+HuNnna/II4eby9Sv7H8jnY/nEQ/X6OfmesjwnB+Bn5t+tK+fK8Y3qu5W+KuVZEyBAgAABAgQIECBAgAABAgQIECBAgAABAgQIEGijwFwbGzWsNr35oym9Mo+Q/ZF/kEPJ/L3cB7+Qv9WbA+GLzkrp2r8Y/JT35GD1d2/N0yLn0bWvubD3zd+4+hWXpfRFT1x73x/lkbRfnkcA/+ndeWrm3++di465/1U5RM33fM8HcjDcO7XuVnwT+If7QuPP5jD5l+9Z95bqxKEcWv98fsZ/+YcpvSF/z/jbG20bVOefzd8p/p38+86/m9Jvf1X+5RHFZ8znADzfG8FvjIj+40dS+j/5G8Ff96wcDudr3pvr8MV5hPS35m8I/1UOgH/x7rpON+Tjr3t+Sm98UUrn5joczgH4q7J5lPMHdw6u96D6bqWv1mtTM9Qf/GRHCRAgQIAAAQIECBAgQIAAAQIECBAgQIAAAQIECEy+gBB4gz66PyevL/+tPMVzHvX7A/mbvxGy3p+nZv65G4//dm6zmJ/M39b9Rzm8/bd5NPDb7+2diUA0fs1l31+mNJvHY//+7c2jdej7x3fU0zR/8wUpXX9w7fn19v5TDlyby8c+deIQOK7/mRzkviaPBP7mPJ3zL93SK2FQnd+W6/raHNgeyT6vzKHuP1kJnh/INj/0Jzn0/XR9/9XvyyOaD6f0DbnNX5uveexYSu/K9/7rP+2V/+4cFl/9zpR+/CtSirp3ssXBPCr59TdsXO/++t6UA/rN9tV6bXo8B9AWAgQIECBAgAABAgQIECBAgAABAgQIECBAgAABAtMuMHP77bcvHzhwYEfbsby8nOLXzR95PXr0aHrsscfSub95ztCf+bYr6yIHfS94uw97Ug4n9y2k9PEcalrWCsT0zUfyaOJbj6w93tx7zp6UPvbYxiOan5L/lYQzsnNMLb2dZVx99ZlvfCjt2bMnLSws5DC7k2ZmZqrfdtpyonsPHjyYFnadkZ97en7mbP7NnOgW5wkQIECAAAECBAgQIECAAAECBAgQIECAAAECBFoscN+9d6RWjQTeifC39P/DOeR8WABcONasb175fvGag307N+cA+ERLjLwexqKvhqGoDAIECBAgQIAAAQIECBAgQIAAAQIECBAgQIAAgWkVyOMuLQQIECBAgAABAgQIECBAgAABAgQIECBAgAABAgQIECDQFgEhcFt6UjsIECBAgAABAgQIECBAgAABAgQIECBAgAABAgQIECCQBUYeAsd3Ui0E2irg/W5rz2oXAQIECBAgQIAAAQIECBAgQIAAAQIECBAgQGB6BEYeAk8PjZoSIECAAAECBAgQIECAAAECBAgQIECAAAECBAgQIEBg+gSEwNPXZ2pMgAABAgQIECBAgAABAgQIECBAgAABAgQIECBAgACBdQWEwOvSOEGAAAECBAgQIECAAAECBAgQIECAAAECBAgQIECAAIHpExhpCFy+l1rW08elxgTWFyjvdVmvf6UzBAgQIECAAAECBAgQIECAAAECBAgQIECAAAECBHZOYKQhcDSjBGRzO9cmJRMYuUB5n8v7PfIKeCABAgQIECBAgAABAgQIECBAgAABAgQIECBAgACBFYGRh8Dx3E6nk65+8mM6gUBrBOJ9jvfaQoAAAQIECBAgQIAAAQIECBAgQIAAAQIECBAgQGDcAiNPrWKkZPyuvvRzqYyeHDeC5xPYjkC8x/E+l3d7O2W5lwABAgQIECBAgAABAgQIECBAgAABAgQIECBAgMB2BUYSApdwLNazs7Npbm4uPfO8mfR7z78nfd2eTwuDt9uL7h+LQIS/8f7Gexzvc7zX8X433/exVMxDCRAgQIAAAQIECBAgQIAAAQIECBAgQIAAAQIETmmBkQ/GjYAswrLdu3env/PkY+lH5u5P3/XZ/5cWFxfT8vJy1RllfUr3jMZPpEC8v7GU9/jss89O8Yv3Od7rcn4iK69SBAgQIECAAAECBAgQIECAAAECBAgQIECAAAECp4TAyELgZjg2Pz+/GvguLCyks846Ky0tLa0eOyXkNXKqBeJ9jlG/Ef7u2rWr+sV7HcfLb6obqPIECBAgQIAAAQIECBAgQIAAAQIECBAgQIAAAQJTKzCyELgIlTA4wt8I0WJ9+umnp263uyYENhq4iFlPikB5d6M+sd3pdKpf/zTQk1Jf9SBAgAABAgQIECBAgAABAgQIECBAgAABAgQIEDg1BUYaAkdwFuFurMsvguA4JvQ9NV/AaW51eYfLurQl9i0ECBAgQIAAAQIECBAgQIAAAQIECBAgQIAAAQIExiUw0hA4GlkCsmYYLAAeV/d77nYFyvsc5TS3t1uu+wkQIECAAAECBAgQIECAAAECBAgQIECAAAECBAicrMDIQ+BSUYFZkbCeZgHv8TT3nroTIECAAAECBAgQIECAAAECBAgQIECAAAECBNopMLYQuMkpSGtq2CZAgAABAgQIECBAgAABAgQIECBAgAABAgQIECBAgMDJC3RO/lZ3EiBAgAABAgQIECBAgAABAgQIECBAgAABAgQIECBAgMCkCQiBJ61H1IcAAQIECBAgQIAAAQIECBAgQIAAAQIECBAgQIAAAQLbEBACbwPPrQQmSWBmZpJqoy4ECBAgQIAAAQIECBAgQIAAAQIECBAgQIAAAQLjEhACj0vecwkQIECAAAECBAgQIECAAAECBAgQIECAAAECBAgQILADAjO33357N5drDOEO4CqSAAECBAgQIECAAAECBAgQIECAAAECBAgQIECAAAECIxZY/v+f1SoyHhFtqgAAAABJRU5ErkJggg==;" vertex="1" parent="1">
          <mxGeometry x="-60" y="48" width="1921" height="1110" as="geometry" />
        </mxCell>
        <mxCell id="23rc_YrXJthWcE0Py0mq-2" value="&lt;font style=&quot;font-size: 26px;&quot;&gt;Delete cluster&lt;/font&gt;" style="rounded=0;whiteSpace=wrap;html=1;strokeWidth=4;strokeColor=#FD7F27;" vertex="1" parent="1">
          <mxGeometry x="-520" y="801" width="370" height="50" as="geometry" />
        </mxCell>
        <mxCell id="23rc_YrXJthWcE0Py0mq-4" value="&lt;font style=&quot;font-size: 26px;&quot;&gt;Open documentation&lt;/font&gt;" style="rounded=0;whiteSpace=wrap;html=1;strokeWidth=4;strokeColor=#FD7F27;" vertex="1" parent="1">
          <mxGeometry x="880" y="-100" width="370" height="50" as="geometry" />
        </mxCell>
        <mxCell id="23rc_YrXJthWcE0Py0mq-5" value="" style="endArrow=none;html=1;rounded=0;strokeColor=#FD7F27;strokeWidth=4;entryX=0.5;entryY=1;entryDx=0;entryDy=0;" edge="1" parent="1" target="23rc_YrXJthWcE0Py0mq-4">
          <mxGeometry width="50" height="50" relative="1" as="geometry">
            <mxPoint x="959" y="399" as="sourcePoint" />
            <mxPoint x="1070" y="90" as="targetPoint" />
            <Array as="points">
              <mxPoint x="1065" y="399" />
            </Array>
          </mxGeometry>
        </mxCell>
        <mxCell id="23rc_YrXJthWcE0Py0mq-6" value="&lt;font style=&quot;font-size: 26px;&quot;&gt;Undo/Save changes&lt;/font&gt;" style="rounded=0;whiteSpace=wrap;html=1;strokeWidth=4;strokeColor=#FD7F27;" vertex="1" parent="1">
          <mxGeometry x="1940" y="795" width="370" height="50" as="geometry" />
        </mxCell>
        <mxCell id="23rc_YrXJthWcE0Py0mq-7" value="" style="rounded=0;whiteSpace=wrap;html=1;strokeWidth=4;strokeColor=#FD7F27;fillColor=none;" vertex="1" parent="1">
          <mxGeometry x="1600" y="800" width="200" height="40" as="geometry" />
        </mxCell>
        <mxCell id="23rc_YrXJthWcE0Py0mq-8" value="" style="rounded=0;whiteSpace=wrap;html=1;strokeWidth=4;strokeColor=#FD7F27;fillColor=none;" vertex="1" parent="1">
          <mxGeometry x="493" y="498" width="1315" height="272" as="geometry" />
        </mxCell>
        <mxCell id="23rc_YrXJthWcE0Py0mq-9" value="" style="endArrow=none;html=1;rounded=0;strokeColor=#FD7F27;strokeWidth=4;align=center;verticalAlign=middle;fontFamily=Helvetica;fontSize=11;fontColor=default;labelBackgroundColor=default;entryX=0;entryY=0.5;entryDx=0;entryDy=0;exitX=1;exitY=0.5;exitDx=0;exitDy=0;" edge="1" parent="1" source="23rc_YrXJthWcE0Py0mq-7" target="23rc_YrXJthWcE0Py0mq-6">
          <mxGeometry width="50" height="50" relative="1" as="geometry">
            <mxPoint x="1810" y="820" as="sourcePoint" />
            <mxPoint x="1920" y="817" as="targetPoint" />
          </mxGeometry>
        </mxCell>
        <mxCell id="23rc_YrXJthWcE0Py0mq-10" value="&lt;font style=&quot;font-size: 26px;&quot;&gt;Cluster settings&lt;/font&gt;" style="rounded=0;whiteSpace=wrap;html=1;strokeWidth=4;strokeColor=#FD7F27;" vertex="1" parent="1">
          <mxGeometry x="1948" y="609" width="370" height="50" as="geometry" />
        </mxCell>
        <mxCell id="23rc_YrXJthWcE0Py0mq-11" value="" style="endArrow=none;html=1;rounded=0;strokeColor=#FD7F27;strokeWidth=4;align=center;verticalAlign=middle;fontFamily=Helvetica;fontSize=11;fontColor=default;labelBackgroundColor=default;entryX=0;entryY=0.5;entryDx=0;entryDy=0;exitX=1;exitY=0.5;exitDx=0;exitDy=0;" edge="1" parent="1" source="23rc_YrXJthWcE0Py0mq-8" target="23rc_YrXJthWcE0Py0mq-10">
          <mxGeometry width="50" height="50" relative="1" as="geometry">
            <mxPoint x="1818" y="692.5" as="sourcePoint" />
            <mxPoint x="1928" y="689.5" as="targetPoint" />
          </mxGeometry>
        </mxCell>
        <mxCell id="23rc_YrXJthWcE0Py0mq-12" value="&lt;font style=&quot;font-size: 26px;&quot;&gt;Add a new cluster&lt;/font&gt;" style="rounded=0;whiteSpace=wrap;html=1;strokeWidth=4;strokeColor=#FD7F27;" vertex="1" parent="1">
          <mxGeometry x="1948" y="426" width="370" height="50" as="geometry" />
        </mxCell>
        <mxCell id="23rc_YrXJthWcE0Py0mq-13" value="" style="endArrow=none;html=1;rounded=0;strokeColor=#FD7F27;strokeWidth=4;align=center;verticalAlign=middle;fontFamily=Helvetica;fontSize=11;fontColor=default;labelBackgroundColor=default;entryX=0;entryY=0.5;entryDx=0;entryDy=0;" edge="1" parent="1" target="23rc_YrXJthWcE0Py0mq-12">
          <mxGeometry width="50" height="50" relative="1" as="geometry">
            <mxPoint x="1820" y="451" as="sourcePoint" />
            <mxPoint x="1928" y="448.5" as="targetPoint" />
          </mxGeometry>
        </mxCell>
        <mxCell id="23rc_YrXJthWcE0Py0mq-15" value="" style="endArrow=none;html=1;rounded=0;strokeColor=#FD7F27;strokeWidth=4;align=center;verticalAlign=middle;fontFamily=Helvetica;fontSize=11;fontColor=default;labelBackgroundColor=default;entryX=0.297;entryY=0.695;entryDx=0;entryDy=0;exitX=1;exitY=0.5;exitDx=0;exitDy=0;entryPerimeter=0;" edge="1" parent="1" source="23rc_YrXJthWcE0Py0mq-2">
          <mxGeometry width="50" height="50" relative="1" as="geometry">
            <mxPoint x="-90" y="825.17" as="sourcePoint" />
            <mxPoint x="510.5369999999998" y="825.4499999999998" as="targetPoint" />
          </mxGeometry>
        </mxCell>
      </root>
    </mxGraphModel>
  </diagram>
</mxfile>
